<svg width="137" height="98" viewBox="0 0 137 98" fill="none" xmlns="http://www.w3.org/2000/svg">
<path d="M36.2004 13.103C36.1004 13.103 35.9004 13.103 35.8004 13.103C36.1004 13.103 36.3004 13.103 36.6004 13.103C36.5004 13.103 36.3004 13.103 36.2004 13.103ZM35.0004 12.9028C34.7004 12.9028 34.5004 12.703 34.2004 12.603C34.4004 12.703 34.7004 12.8028 35.0004 12.9028ZM37.5004 12.9028C37.8004 12.9028 38.0004 12.703 38.2004 12.603C38.0004 12.703 37.7004 12.8028 37.4004 12.9028H37.5004ZM33.6004 12.2031C33.4004 12.0031 33.2004 11.803 33.0004 11.603C33.2004 11.803 33.4004 12.003 33.6004 12.103V12.2031ZM38.9004 12.2031C39.1004 12.0031 39.3004 11.9031 39.5004 11.7031C39.3004 11.9031 39.1004 12.1027 38.9004 12.3027V12.2031ZM32.5004 11.0029C32.4004 10.8029 32.2004 10.5027 32.1004 10.3027C32.1004 10.5027 32.3004 10.8029 32.5004 11.0029ZM40.0004 11.0029C40.1004 10.8029 40.3004 10.5027 40.4004 10.3027C40.4004 10.6027 40.2004 10.8029 40.0004 11.0029ZM40.6004 9.50293C40.6004 9.20293 40.6004 9.00313 40.6004 8.70312C40.6004 9.00313 40.6004 9.30293 40.6004 9.50293ZM31.9004 7.90283C31.9004 7.60283 32.0004 7.40303 32.1004 7.10303C32.1004 7.30303 31.9004 7.60283 31.9004 7.90283ZM32.5004 6.30273C32.6004 6.10273 32.8004 5.80303 33.0004 5.60303C32.8004 5.80303 32.7004 6.00312 32.5004 6.20312V6.30273ZM40.0004 6.30273C39.9004 6.10273 39.7004 5.90313 39.5004 5.70312C39.7004 5.90313 39.9004 6.10283 40.0004 6.40283V6.30273ZM33.6004 5.10303C33.8004 4.90303 34.1004 4.80313 34.3004 4.70312C34.1004 4.80313 33.8004 5.00303 33.6004 5.10303ZM35.0004 4.40283C35.3004 4.40283 35.5004 4.30313 35.8004 4.20313C35.5004 4.20313 35.3004 4.20273 35.0004 4.30273V4.40283Z" fill="#9DAFE0"/>
<path d="M101 37.1025C100.8 37.1025 100.7 37.1025 100.5 37.1025C100.8 37.1025 101.1 37.1025 101.4 37.1025C101.2 37.1025 101.1 37.1025 100.9 37.1025H101ZM99.7002 36.9023C99.4002 36.9023 99.1002 36.7025 98.9002 36.6025C99.2002 36.7025 99.4002 36.8023 99.7002 36.9023ZM102.3 36.9023C102.6 36.9023 102.9 36.7025 103.1 36.6025C102.8 36.7025 102.5 36.8023 102.3 36.9023ZM98.1002 36.1025C97.9002 35.9025 97.6002 35.7024 97.4002 35.5024C97.4002 35.5024 97.4002 35.5023 97.4002 35.4023C97.4002 35.4023 97.4002 35.4023 97.5002 35.4023C97.7002 35.6023 97.9002 35.8024 98.2002 36.0024C98.2002 36.0024 98.2002 36.0025 98.2002 36.1025H98.1002ZM103.9 36.1025C103.9 36.1025 103.9 36.1024 103.9 36.0024C104.1 35.8024 104.4 35.6023 104.6 35.4023C104.6 35.4023 104.6 35.4023 104.7 35.4023C104.7 35.4023 104.7 35.4024 104.7 35.5024C104.5 35.7024 104.3 35.9025 104 36.1025H103.9ZM96.9002 34.8022C96.9002 34.8022 96.9002 34.8023 96.9002 34.9023V34.8022ZM105.1 34.8022C105.1 34.8022 105.1 34.8026 105.1 34.7026V34.8022ZM96.2002 31.4023C96.2002 31.1023 96.3002 30.8024 96.4002 30.5024C96.3002 30.8024 96.2002 31.1022 96.2002 31.3022V31.4023ZM105.8 31.4023C105.8 31.1023 105.7 30.8025 105.6 30.6025C105.7 30.9025 105.8 31.2024 105.9 31.5024L105.8 31.4023ZM96.9002 29.7026C96.9002 29.7026 96.9002 29.7025 96.9002 29.6025C97.1002 29.3025 97.2002 29.1023 97.4002 28.9023C97.4002 28.9023 97.4002 28.9023 97.5002 28.9023C97.5002 28.9023 97.5002 28.9024 97.5002 29.0024C97.3002 29.2024 97.1002 29.5026 97.0002 29.7026H96.9002ZM105.1 29.7026C104.9 29.5026 104.8 29.2024 104.6 29.0024C104.6 29.0024 104.6 29.0023 104.6 28.9023C104.6 28.9023 104.6 28.9023 104.7 28.9023C104.9 29.1023 105.1 29.4025 105.2 29.6025C105.2 29.6025 105.2 29.6026 105.2 29.7026H105.1ZM98.1002 28.4023C98.1002 28.4023 98.1002 28.4022 98.1002 28.3022C98.3002 28.1022 98.6002 28.0022 98.9002 27.8022C98.6002 27.9022 98.4002 28.1022 98.2002 28.3022L98.1002 28.4023ZM99.7002 27.6025C100 27.6025 100.3 27.5023 100.6 27.4023C100.3 27.4023 100 27.4025 99.7002 27.6025Z" fill="#9DAFE0"/>
<path d="M103.6 28.4028H103.2V27.2031H103.6V28.4028ZM103.2 28.4028H103.5V27.3027H103.2V28.4028Z" fill="#9DAFE0"/>
<path d="M103 28.4048H102.6V26.8047H103V28.4048ZM102.7 28.4048H103V26.8047H102.7V28.4048Z" fill="#9DAFE0"/>
<path d="M102.4 28.4048H102V26.3047H102.4V28.4048ZM102.1 28.4048H102.4V26.4048H102.1V28.4048Z" fill="#9DAFE0"/>
<path d="M104.2 28.4028H103.8V26.7031H104.2V28.4028ZM103.8 28.4028H104.1V26.8027H103.8V28.4028Z" fill="#9DAFE0"/>
<path d="M104.8 28.4023H104.4V26.4023H104.8V28.4023ZM104.4 28.4023H104.7V26.5024H104.4V28.4023Z" fill="#9DAFE0"/>
<path d="M104.7 26.0029V25.7031C104.8 25.7031 104.5 25.7031 104.5 25.7031H104.8V26.0029C104.7 26.0029 104.7 26.0029 104.7 26.0029Z" fill="#9DAFE0"/>
<path d="M32.3 52.7012V52.501C32.2 52.501 32.1 52.501 32 52.501C32 52.501 32.2 52.501 32.3 52.501C32.4 52.501 32.5 52.5008 32.5 52.3008C32.5 52.1008 32.5 52.1011 32.3 52.1011C32.1 52.1011 32 51.9008 32 51.8008C32 51.7008 32.1 51.501 32.3 51.501V51.3008H32.4V51.501C32.3 51.501 32.2 51.5012 32.2 51.7012C32.2 51.9012 32.2 51.8009 32.4 51.9009C32.6 51.9009 32.7 52.1012 32.7 52.2012C32.7 52.3012 32.6 52.501 32.4 52.501V52.7012H32.3Z" fill="#9DAFE0"/>
<path d="M32.3998 53.1025C31.7998 53.1025 31.2998 52.6024 31.2998 52.0024C31.2998 51.4024 31.7998 50.9023 32.3998 50.9023C32.9998 50.9023 33.4998 51.4024 33.4998 52.0024C33.4998 52.6024 32.9998 53.1025 32.3998 53.1025ZM32.3998 50.9023C31.7998 50.9023 31.2998 51.4024 31.2998 52.0024C31.2998 52.6024 31.7998 53.1025 32.3998 53.1025C32.9998 53.1025 33.4998 52.6024 33.4998 52.0024C33.4998 51.4024 32.9998 50.9023 32.3998 50.9023Z" fill="#9DAFE0"/>
<path d="M80.2004 4.70117V4.50098C80.1004 4.50098 80.0004 4.50098 79.9004 4.50098C79.9004 4.50098 80.1004 4.50098 80.2004 4.50098C80.3004 4.50098 80.4004 4.50078 80.4004 4.30078C80.4004 4.10078 80.4004 4.10107 80.2004 4.10107C80.0004 4.10107 79.9004 3.90078 79.9004 3.80078C79.9004 3.70078 80.0004 3.50098 80.2004 3.50098V3.30078H80.3004V3.50098C80.2004 3.50098 80.1004 3.50117 80.1004 3.70117C80.1004 3.90117 80.1004 3.80088 80.3004 3.90088C80.5004 3.90088 80.6004 4.10117 80.6004 4.20117C80.6004 4.30117 80.5004 4.50098 80.3004 4.50098V4.70117H80.2004Z" fill="#9DAFE0"/>
<path d="M80.3002 5.10254C79.7002 5.10254 79.2002 4.60244 79.2002 4.00244C79.2002 3.40244 79.7002 2.90234 80.3002 2.90234C80.9002 2.90234 81.4002 3.40244 81.4002 4.00244C81.4002 4.60244 80.9002 5.10254 80.3002 5.10254ZM80.3002 2.90234C79.7002 2.90234 79.2002 3.40244 79.2002 4.00244C79.2002 4.60244 79.7002 5.10254 80.3002 5.10254C80.9002 5.10254 81.4002 4.60244 81.4002 4.00244C81.4002 3.40244 80.9002 2.90234 80.3002 2.90234Z" fill="#9DAFE0"/>
<path d="M61.2004 6.20264H56.9004V3.90234H61.2004V6.20264ZM57.0004 6.10254H61.2004V3.90234H57.0004V6.10254Z" fill="#9DAFE0"/>
<path d="M60.4008 5.90283H57.7008C57.7008 5.60283 57.5008 5.40283 57.3008 5.40283V4.70312C57.5008 4.70312 57.7008 4.50273 57.7008 4.30273H60.4008C60.4008 4.60273 60.6008 4.80273 60.8008 4.80273V5.50293C60.6008 5.50293 60.4008 5.70283 60.4008 5.90283ZM57.8008 5.80273H60.4008C60.4008 5.50273 60.6008 5.30273 60.9008 5.30273V4.70312C60.6008 4.70312 60.4008 4.50313 60.4008 4.20312H57.8008C57.8008 4.50313 57.6008 4.70312 57.3008 4.70312V5.30273C57.6008 5.30273 57.8008 5.50273 57.8008 5.80273Z" fill="#9DAFE0"/>
<path d="M59.4004 5.40137H58.8004C58.6004 5.40137 58.4004 5.20146 58.4004 5.00146C58.4004 4.80146 58.6004 4.60156 58.8004 4.60156H59.4004C59.6004 4.60156 59.8004 4.80146 59.8004 5.00146C59.8004 5.20146 59.6004 5.40137 59.4004 5.40137ZM58.8004 4.70166C58.6004 4.70166 58.5004 4.80146 58.5004 5.00146C58.5004 5.20146 58.6004 5.30127 58.8004 5.30127H59.4004C59.6004 5.30127 59.7004 5.20146 59.7004 5.00146C59.7004 4.80146 59.6004 4.70166 59.4004 4.70166H58.8004Z" fill="#9DAFE0"/>
<path d="M57.8 5.30273C57.7 5.30273 57.5 5.20293 57.5 5.00293C57.5 4.80293 57.6 4.70312 57.8 4.70312C58 4.70312 58.1 4.80293 58.1 5.00293C58.1 5.20293 58 5.30273 57.8 5.30273ZM57.8 4.80273C57.7 4.80273 57.6 4.80293 57.6 5.00293C57.6 5.20293 57.6 5.20312 57.8 5.20312C58 5.20312 58 5.20293 58 5.00293C58 4.80293 58 4.80273 57.8 4.80273Z" fill="#9DAFE0"/>
<path d="M60.3 5.30273C60.2 5.30273 60 5.20293 60 5.00293C60 4.80293 60.1 4.70312 60.3 4.70312C60.5 4.70312 60.6 4.80293 60.6 5.00293C60.6 5.20293 60.5 5.30273 60.3 5.30273ZM60.3 4.80273C60.2 4.80273 60.1 4.80293 60.1 5.00293C60.1 5.20293 60.1 5.20312 60.3 5.20312C60.5 5.20312 60.5 5.20293 60.5 5.00293C60.5 4.80293 60.5 4.80273 60.3 4.80273Z" fill="#9DAFE0"/>
<path d="M108.3 66.0029H106V62.7031H105.7L107.2 61.7031L108.7 62.7031H108.4V66.0029H108.3ZM106.1 66.0029H108.3V62.7031H108.7L107.2 61.7031L105.7 62.7031H106.1V66.0029Z" fill="#9DAFE0"/>
<path d="M107.3 65.0039H107.1V64.7041C106.9 64.7041 106.8 64.704 106.7 64.604V64.4038C106.8 64.4038 107 64.5039 107.1 64.5039C107.2 64.5039 107.4 64.4037 107.4 64.3037C107.4 64.2037 107.4 64.1039 107.1 64.0039C106.9 64.0039 106.6 63.8039 106.6 63.5039C106.6 63.2039 106.8 63.1039 107 63.0039V62.7041H107.2V63.0039C107.3 63.0039 107.4 63.004 107.6 63.104V63.3037C107.6 63.3037 107.4 63.2041 107.3 63.2041C107.2 63.2041 107 63.3038 107 63.4038C107 63.5038 107 63.6041 107.3 63.7041C107.6 63.8041 107.7 64.0041 107.7 64.2041C107.7 64.4041 107.6 64.6041 107.3 64.7041V65.0039ZM107.1 64.9038H107.2V64.604C107.5 64.604 107.6 64.304 107.6 64.104C107.6 63.904 107.5 63.704 107.2 63.604C107 63.504 106.8 63.4037 106.8 63.3037C106.8 63.2037 106.8 63.0039 107.1 63.0039C107.4 63.0039 107.4 63.0039 107.4 63.0039C107.4 62.8039 107.2 62.8037 107.1 62.8037V62.5039H107V62.8037C106.8 62.8037 106.6 63.0041 106.6 63.2041C106.6 63.4041 106.8 63.6041 107 63.7041C107.2 63.7041 107.3 63.904 107.3 64.104C107.3 64.304 107.2 64.4038 106.9 64.4038C106.6 64.4038 106.6 64.4037 106.5 64.3037C106.5 64.5037 106.8 64.5039 106.9 64.5039V64.8037L107.1 64.9038Z" fill="#9DAFE0"/>
<path d="M38.7998 4.50098H38.2998V2.80078H38.7998V4.50098ZM38.3998 4.40088H38.7998V2.80078H38.3998V4.40088Z" fill="#9DAFE0"/>
<path d="M38 4.50293H37.5V3.20312H38V4.50293ZM37.6 4.40283H38V3.20312H37.6V4.40283Z" fill="#9DAFE0"/>
<path d="M39.6006 4.50293H39.1006V2.20312H39.6006V4.50293ZM39.2006 4.40283H39.6006V2.20312H39.2006V4.40283Z" fill="#9DAFE0"/>
<path d="M40.5 4.50293H40V1.70312H40.5V4.50293ZM40 4.40283H40.4V1.70312H40V4.40283Z" fill="#9DAFE0"/>
<path d="M40.4002 1.20117L40.6002 0.800781H40.2002H40.7002L40.5002 1.20117H40.4002Z" fill="#9DAFE0"/>
<path d="M96.3002 4.80127C95.4002 4.80127 94.7002 4.10166 94.7002 3.20166C94.7002 2.30166 95.4002 1.60156 96.3002 1.60156C97.2002 1.60156 97.9002 2.30166 97.9002 3.20166C97.9002 4.10166 97.2002 4.80127 96.3002 4.80127ZM96.3002 1.70166C95.4002 1.70166 94.7002 2.40127 94.7002 3.30127C94.7002 4.20127 95.4002 4.90137 96.3002 4.90137C97.2002 4.90137 97.9002 4.20127 97.9002 3.30127C97.9002 2.40127 97.2002 1.70166 96.3002 1.70166Z" fill="#9DAFE0"/>
<path d="M96.3004 4.20117C95.8004 4.20117 95.4004 3.80078 95.4004 3.30078C95.4004 2.80078 95.8004 2.40088 96.3004 2.40088C96.8004 2.40088 97.2004 2.80078 97.2004 3.30078C97.2004 3.80078 96.8004 4.20117 96.3004 4.20117ZM96.3004 2.30078C95.8004 2.30078 95.4004 2.70117 95.4004 3.20117C95.4004 3.70117 95.8004 4.10107 96.3004 4.10107C96.8004 4.10107 97.2004 3.70117 97.2004 3.20117C97.2004 2.70117 96.8004 2.30078 96.3004 2.30078Z" fill="#9DAFE0"/>
<path d="M96.3004 3.69873C96.1004 3.69873 95.9004 3.49834 95.9004 3.29834C95.9004 3.09834 96.1004 2.89844 96.3004 2.89844C96.5004 2.89844 96.7004 3.09834 96.7004 3.29834C96.7004 3.49834 96.5004 3.69873 96.3004 3.69873ZM96.3004 2.89844C96.1004 2.89844 95.9004 3.09834 95.9004 3.29834C95.9004 3.49834 96.1004 3.69873 96.3004 3.69873C96.5004 3.69873 96.7004 3.49834 96.7004 3.29834C96.7004 3.09834 96.5004 2.89844 96.3004 2.89844Z" fill="#9DAFE0"/>
<path d="M94.4002 2.1001L94.2002 1.7998L93.8002 1.5V1.8999C93.9002 1.8999 93.9002 1.8999 93.9002 1.8999L93.7002 1.5L94.2002 1.8999L94.4002 2.2998V2.1001Z" fill="#9DAFE0"/>
<path d="M94.0004 2.29884L93.4004 2.09913H93.8004H93.5004L94.0004 2.29884H94.3004H93.9004H94.0004Z" fill="#9DAFE0"/>
<g style="mix-blend-mode:multiply">
<path d="M126.6 95.7002C126.6 95.7002 127.2 94.6001 128.6 93.1001C129.3 92.3001 130.3 91.4 131.6 90.5L131.8 89.3999L131.6 90.3999C132.6 89.6999 133.7 89 135 88.5C134.2 88.8 133.5 89.2001 132.9 89.6001L133.7 89.7998L132.8 89.6001C131.4 90.4001 130.3 91.3001 129.5 92.1001C129.2 92.4001 128.9 92.6999 128.7 92.8999C127.4 94.2999 126.8 95.3999 126.8 95.3999L126.6 95.7002Z" fill="#DEDEDE"/>
</g>
<g style="mix-blend-mode:multiply">
<path d="M123.2 89.1016C123.2 89.1016 123.2 89.1016 123.3 89.1016L123.9 90.8013C123.9 90.4013 124.1 90.0016 124.2 89.6016C124.7 87.7016 125.5 85.3016 126.8 82.6016L126.1 80.6016C126.1 80.6016 126.1 80.6015 126.1 80.5015C126.1 80.5015 126.1 80.5015 126.2 80.5015L126.8 82.4014C127.8 80.4014 129 78.2016 130.6 76.1016C130.6 76.1016 130.6 76.1016 130.7 76.1016C130.7 76.1016 130.7 76.1017 130.7 76.2017C129.7 77.5017 128.9 78.8015 128.2 80.0015L129.6 79.5015C129.6 79.5015 129.6 79.5015 129.7 79.5015C129.7 79.5015 129.7 79.5016 129.7 79.6016L128.1 80.1016C126.6 82.7016 125.6 85.2013 124.9 87.3013C124.6 88.1013 124.4 88.8015 124.3 89.5015C124.2 90.0015 124.1 90.5014 124 90.9014C123.4 93.6014 123.4 95.4014 123.4 95.4014C123.4 95.4014 123.4 93.6013 124 90.8013L123.3 88.8013C123.3 88.8013 123.3 88.8017 123.3 88.7017L123.2 89.1016Z" fill="#DEDEDE"/>
</g>
<g style="mix-blend-mode:multiply">
<path d="M17.4998 93.2012C17.4998 93.2012 16.2998 91.0011 13.5998 88.1011C12.1998 86.6011 10.1998 84.8009 7.6998 82.9009L7.2998 80.7012L7.6998 82.7012C5.7998 81.3012 3.4998 80.0008 0.899796 78.8008C0.899796 78.8008 0.899805 78.8008 0.799805 78.8008C0.799805 78.8008 0.799805 78.8009 0.799805 78.9009C2.2998 79.6009 3.6998 80.3011 4.9998 81.1011L3.3998 81.4009C3.3998 81.4009 3.3998 81.401 3.3998 81.501C3.3998 81.501 3.3998 81.501 3.4998 81.501L5.1998 81.1011C7.8998 82.7011 10.0998 84.5011 11.7998 86.1011L9.59981 86.7012C9.59981 86.7012 9.59981 86.7008 9.59981 86.8008C9.59981 86.8008 9.5998 86.8008 9.6998 86.8008L11.8998 86.2012C12.4998 86.8012 13.0998 87.4009 13.5998 87.9009C16.2998 90.7009 17.4998 92.901 17.4998 93.001C17.4998 93.001 17.4998 93.001 17.5998 93.001C17.5998 93.001 17.5998 93.0009 17.5998 92.9009L17.4998 93.2012Z" fill="#DEDEDE"/>
</g>
<g style="mix-blend-mode:multiply">
<path d="M22.4 82.1001C22.4 82.1001 22.3 82.1001 22.2 82.1001L21.3 84.7998C21.2 84.1998 21 83.6 20.9 83C20.2 80 18.9 76.1999 16.9 71.8999L18 68.7998C18 68.7998 18 68.7001 18 68.6001C18 68.6001 17.9 68.6001 17.8 68.6001L16.8 71.5C15.3 68.3 13.3 65 10.7 61.5C10.7 61.5 10.6 61.5 10.5 61.5C10.5 61.5 10.5 61.6002 10.5 61.7002C12 63.7002 13.3 65.7002 14.4 67.7002L12.1 67C12.1 67 12 67 11.9 67C11.9 67 11.9 67.1002 11.9 67.2002L14.4 68C16.7 72.1 18.3 76.0002 19.4 79.2002L16.1 78.3999C16.1 78.3999 16 78.3999 15.9 78.3999C15.9 78.3999 15.9 78.5001 15.9 78.6001L19.3 79.3999C19.7 80.5999 20 81.7998 20.3 82.7998C20.5 83.5998 20.7 84.3 20.8 85C21.7 89.3 21.7 92.1001 21.7 92.1001C21.7 92.1001 21.7 92.2002 21.8 92.2002C21.8 92.2002 21.9 92.2001 21.9 92.1001C21.9 92.1001 21.9 89.2999 21 84.8999L22 81.7998C22 81.7998 22 81.7001 22 81.6001L22.4 82.1001Z" fill="#DEDEDE"/>
</g>
<path d="M4 94.5H132.9C134.8 94.5 136.4 96.1 136.4 98H0.5C0.5 96.1 2.1 94.5 4 94.5Z" fill="#B2C2F0"/>
<path d="M97.4002 7.5H39.5002C37.9538 7.5 36.7002 8.75341 36.7002 10.2998V91.7002C36.7002 93.2466 37.9538 94.5 39.5002 94.5H97.4002C98.9466 94.5 100.2 93.2466 100.2 91.7002V10.2998C100.2 8.75341 98.9466 7.5 97.4002 7.5Z" fill="#404040"/>
<path d="M96.6998 9.10156H40.1998C39.1505 9.10156 38.2998 9.95212 38.2998 11.0015V87.3013C38.2998 88.3506 39.1505 89.2017 40.1998 89.2017H96.6998C97.7492 89.2017 98.5998 88.3506 98.5998 87.3013V11.0015C98.5998 9.95212 97.7492 9.10156 96.6998 9.10156Z" fill="#737373"/>
<path d="M94.1998 13.6016H42.7998V84.8013H94.1998V13.6016Z" fill="white"/>
<path d="M93.8002 13.5H42.7002C41.0433 13.5 39.7002 14.8431 39.7002 16.5V16.6001C39.7002 18.257 41.0433 19.6001 42.7002 19.6001H93.8002C95.457 19.6001 96.8002 18.257 96.8002 16.6001V16.5C96.8002 14.8431 95.457 13.5 93.8002 13.5Z" fill="#5D64B5"/>
<path d="M93.7006 14.6992H50.6006V18.3989H93.7006V14.6992Z" fill="white"/>
<path d="M45.3006 15.1992C44.8006 14.6992 44.1006 14.6992 43.6006 15.1992C43.1006 15.6992 43.1006 16.3989 43.6006 16.8989C44.0006 17.2989 44.5006 17.2992 44.9006 17.1992L46.2006 18.499L46.8006 17.8989L45.6006 16.6992C45.8006 16.1992 45.7006 15.6988 45.4006 15.2988L45.3006 15.1992ZM46.5006 17.7988L46.2006 18.0991L45.1006 16.999C45.1006 16.999 45.2006 16.9988 45.3006 16.7988C45.3006 16.7988 45.3006 16.7991 45.4006 16.5991L46.5006 17.6992V17.7988ZM45.2006 16.7988C44.8006 17.1988 44.2006 17.1988 43.8006 16.7988C43.4006 16.3988 43.4006 15.7989 43.8006 15.3989C44.2006 14.9989 44.8006 14.9989 45.2006 15.3989C45.6006 15.7989 45.6006 16.3988 45.2006 16.7988Z" fill="white"/>
<g style="mix-blend-mode:multiply">
<path d="M86.5004 23.1016H52.9004C52.3481 23.1016 51.9004 23.5493 51.9004 24.1016V52.5015C51.9004 53.0537 52.3481 53.5015 52.9004 53.5015H86.5004C87.0527 53.5015 87.5004 53.0537 87.5004 52.5015V24.1016C87.5004 23.5493 87.0527 23.1016 86.5004 23.1016Z" fill="#D9D9D9"/>
</g>
<path d="M84.6 24.6016H51C50.4477 24.6016 50 25.0493 50 25.6016V54.0015C50 54.5537 50.4477 55.0015 51 55.0015H84.6C85.1523 55.0015 85.6 54.5537 85.6 54.0015V25.6016C85.6 25.0493 85.1523 24.6016 84.6 24.6016Z" fill="#7BB7F9"/>
<path d="M78.1 46.9023H60.8C60.6 46.9023 60.4 46.8025 60.4 46.6025L58.1 31.2026H52.9C52.7 31.2026 52.5 31.0022 52.5 30.8022C52.5 30.6022 52.7 30.4023 52.9 30.4023H58.4C58.6 30.4023 58.8 30.5026 58.8 30.7026L61.1 46.1025H78.1C78.3 46.1025 78.5 46.3024 78.5 46.5024C78.5 46.7024 78.3 46.9023 78.1 46.9023Z" fill="white"/>
<path d="M64.2004 50.2017C64.9184 50.2017 65.5004 49.6193 65.5004 48.9014C65.5004 48.1834 64.9184 47.6016 64.2004 47.6016C63.4824 47.6016 62.9004 48.1834 62.9004 48.9014C62.9004 49.6193 63.4824 50.2017 64.2004 50.2017Z" fill="white"/>
<path d="M72.5002 50.2017C73.2182 50.2017 73.8002 49.6193 73.8002 48.9014C73.8002 48.1834 73.2182 47.6016 72.5002 47.6016C71.7822 47.6016 71.2002 48.1834 71.2002 48.9014C71.2002 49.6193 71.7822 50.2017 72.5002 50.2017Z" fill="white"/>
<path d="M60.2998 36.8008L61.4998 44.3008H75.5998L78.9998 36.8008H60.2998Z" fill="white"/>
<g style="mix-blend-mode:multiply">
<path d="M61.6008 61.3008H51.1008C50.1067 61.3008 49.3008 62.107 49.3008 63.1011V73.6011C49.3008 74.5952 50.1067 75.4009 51.1008 75.4009H61.6008C62.5949 75.4009 63.4008 74.5952 63.4008 73.6011V63.1011C63.4008 62.107 62.5949 61.3008 61.6008 61.3008Z" fill="#D9D9D9"/>
</g>
<path d="M60.7004 60.4023H50.2004C49.2063 60.4023 48.4004 61.2085 48.4004 62.2026V72.7026C48.4004 73.6967 49.2063 74.5024 50.2004 74.5024H60.7004C61.6945 74.5024 62.5004 73.6967 62.5004 72.7026V62.2026C62.5004 61.2085 61.6945 60.4023 60.7004 60.4023Z" fill="#C7CAF2"/>
<path d="M79.0008 60.9023H67.7008C67.2037 60.9023 66.8008 61.3052 66.8008 61.8022V63.2026C66.8008 63.6997 67.2037 64.1025 67.7008 64.1025H79.0008C79.4978 64.1025 79.9008 63.6997 79.9008 63.2026V61.8022C79.9008 61.3052 79.4978 60.9023 79.0008 60.9023Z" fill="#DADBF2"/>
<path d="M86.1008 66.8008H67.7008C67.2037 66.8008 66.8008 67.2041 66.8008 67.7012V69.1011C66.8008 69.5981 67.2037 70.001 67.7008 70.001H86.1008C86.5979 70.001 87.0008 69.5981 87.0008 69.1011V67.7012C87.0008 67.2041 86.5979 66.8008 86.1008 66.8008Z" fill="#DADBF2"/>
<path d="M86.1008 72.7031H67.7008C67.2037 72.7031 66.8008 73.106 66.8008 73.603V75.0029C66.8008 75.5 67.2037 75.9028 67.7008 75.9028H86.1008C86.5979 75.9028 87.0008 75.5 87.0008 75.0029V73.603C87.0008 73.106 86.5979 72.7031 86.1008 72.7031Z" fill="#DADBF2"/>
<path d="M44.5 75.1016H16.4C15.6268 75.1016 15 75.7283 15 76.5015V93.1016C15 93.8748 15.6268 94.5015 16.4 94.5015H44.5C45.2732 94.5015 45.9 93.8748 45.9 93.1016V76.5015C45.9 75.7283 45.2732 75.1016 44.5 75.1016Z" fill="#F0B4B2"/>
<path d="M41.4998 78.3008H39.9998C39.3371 78.3008 38.7998 78.8382 38.7998 79.501V81.001C38.7998 81.6637 39.3371 82.2012 39.9998 82.2012H41.4998C42.1625 82.2012 42.6998 81.6637 42.6998 81.001V79.501C42.6998 78.8382 42.1625 78.3008 41.4998 78.3008Z" fill="#FFF7F7"/>
<path d="M39.2 79.7031H37.7C37.0373 79.7031 36.5 80.2401 36.5 80.9028V82.4028C36.5 83.0656 37.0373 83.603 37.7 83.603H39.2C39.8627 83.603 40.4 83.0656 40.4 82.4028V80.9028C40.4 80.2401 39.8627 79.7031 39.2 79.7031Z" fill="#FFE3E3"/>
<path d="M27.8002 80.2031H17.2002V82.4028H27.8002V80.2031Z" fill="#FFE3E3"/>
<path d="M36.0002 87.2031H17.2002V89.4028H36.0002V87.2031Z" fill="#FFE3E3"/>
<path d="M43.2998 87.2031H37.2998V89.4028H43.2998V87.2031Z" fill="#FFE3E3"/>
<path d="M30.5992 62.1016C34.2992 64.9016 34.7992 69.1016 34.7992 69.1016H27.6992C27.6992 69.2016 30.5992 62.1016 30.5992 62.1016Z" fill="#E65051"/>
<path d="M35.1992 85.7031C35.3992 85.4031 35.4992 84.8029 35.4992 84.0029C35.4992 83.7029 35.4992 83.3028 35.2992 82.9028C35.2992 82.7028 35.2992 82.4031 35.2992 82.2031L36.7992 82.603C36.7992 82.903 36.7992 83.1027 36.7992 83.3027C36.7992 83.8027 36.7992 84.3027 36.7992 84.8027C36.7992 84.9027 36.7992 85.103 36.7992 85.103C36.8992 85.303 37.7992 86.2028 38.1992 86.9028C38.1992 86.9028 39.0992 87.1027 38.9992 87.3027C38.9992 87.3027 37.3992 87.5027 37.1992 87.3027C36.9992 87.1027 36.5992 86.703 36.1992 86.603V87.3027H35.4992C35.4992 87.3027 35.4992 86.6029 35.3992 86.5029C35.3992 86.3029 35.0992 86.0031 35.2992 85.7031H35.1992Z" fill="#FF8762"/>
<path d="M38.1994 86.9023C37.8994 86.9023 37.5994 86.9023 37.4994 86.9023C37.3994 86.9023 36.3994 85.7023 35.3994 85.4023C35.3994 85.5023 35.3994 85.6026 35.2994 85.7026C35.0994 86.0026 35.2994 86.3024 35.3994 86.5024C35.3994 86.7024 35.4994 87.4023 35.4994 87.4023H36.1994V86.7026C36.6994 86.7026 37.0994 87.2023 37.1994 87.4023C37.3994 87.6023 38.8994 87.4023 38.9994 87.4023C39.0994 87.2023 38.2994 87.1024 38.1994 87.0024V86.9023Z" fill="#2B1710"/>
<path d="M30.6 60.2019C30.9 59.9019 30.8 59.5019 30.4 59.2019C30 59.0019 29.6 58.7018 29.9 58.1018L27.8 56.3015C27 56.2015 26 57.0019 25.9 57.7019C25.9 58.5019 25.6 58.6015 25.3 58.8015C25 59.0015 25 59.4015 25.2 59.8015C25.4 60.2015 25 60.8015 25 60.8015H30.7C30.4 60.7015 30.3 60.3018 30.6 60.1018V60.2019Z" fill="#2B1710"/>
<path d="M29.9 70.2026L31.2 71.3022C34.4 71.8022 39.8 72.1023 40 73.9023C40.3 75.7023 37.8 80.6025 37.8 80.6025V84.5024H34.8L33.1 76.5024C33.1 76.5024 26 76.9023 24.8 74.9023C23.8 73.3023 25.1 71.3022 25.1 71.3022L28.9 68.9023L29.9 70.4023V70.2026Z" fill="#262E79"/>
<g style="mix-blend-mode:multiply">
<path d="M37.7994 80.2031C37.7994 80.0031 37.6994 74.3027 37.0994 73.3027C36.4994 72.3027 30.5994 71.8031 30.3994 71.7031C30.3994 71.7031 36.4994 72.3031 37.0994 73.2031C37.6994 74.2031 37.7994 80.0029 37.7994 80.0029V80.2031Z" fill="#E0C9C0"/>
</g>
<g style="mix-blend-mode:multiply">
<path d="M33.1992 76.3027C33.1992 76.3027 33.4992 76.203 33.5992 76.103C33.4992 76.103 33.2992 76.3027 33.2992 76.3027C33.2992 76.3027 33.2992 76.1029 33.2992 76.0029C33.2992 75.9029 33.2992 75.703 33.2992 75.603C33.2992 75.603 33.2992 75.8029 33.2992 76.0029C33.2992 76.2029 33.2992 76.3028 33.2992 76.4028L33.1992 76.3027Z" fill="#E0C9C0"/>
</g>
<g style="mix-blend-mode:multiply">
<path d="M26.7998 73.1001C26.9998 73.1001 27.0998 72.8001 27.1998 72.6001C27.1998 72.4001 27.3998 72 27.1998 71.5C27.3998 72 27.2998 72.4001 27.1998 72.6001C27.0998 72.9001 26.8998 73.0001 26.7998 73.1001Z" fill="#E0C9C0"/>
</g>
<g style="mix-blend-mode:multiply">
<path d="M35.6996 84.2008C35.6996 83.4008 34.8996 76.1005 34.4996 75.9005C34.3996 75.9005 34.2996 75.8008 34.2996 75.7008C34.2996 75.7008 34.2996 75.5005 34.3996 75.4005C34.3996 75.4005 34.3996 75.3008 34.4996 75.2008C34.4996 75.0008 32.7996 74.8006 30.2996 74.5006C29.2996 74.4006 28.3996 74.3008 27.9996 74.2008C26.8996 74.0008 26.0996 73.1005 26.0996 71.9005C26.0996 73.1005 26.8996 74.0004 27.9996 74.3004C28.3996 74.3004 29.2996 74.5007 30.2996 74.6007C31.8996 74.8007 34.2996 75.1004 34.3996 75.3004C34.3996 75.3004 34.3996 75.4006 34.2996 75.5006C34.2996 75.6006 34.0996 75.7004 34.1996 75.8004C34.1996 75.8004 34.1996 75.9006 34.3996 76.0006C34.6996 76.1006 35.2996 81.0004 35.5996 84.3004L35.6996 84.2008Z" fill="#E0C9C0"/>
</g>
<path d="M31 70.9028H25.4C24 66.1028 24.9 62.3027 24.9 62.3027C25.6 61.8027 26.5 61.7031 26.5 61.7031H28.8C29.7 61.7031 30.6 62.103 30.6 62.103C31.2 63.803 32 65.203 32 66.103C32 67.003 30.7 69.1029 31 71.0029V70.9028Z" fill="#FB7071"/>
<path d="M27.5992 60.2001C26.5992 60.4001 25.9992 59.5001 26.2992 58.7001C26.2992 57.2001 26.8992 55.8 29.0992 56.6C30.1992 56.7 30.5992 58.2 29.6992 58.6C28.4992 59.7 27.5992 60.2001 27.5992 60.2001Z" fill="#2B1710"/>
<path d="M28.4992 60.701C28.4992 61.101 28.3992 61.5009 28.9992 61.6009C29.6992 62.7009 29.3992 63.601 28.9992 63.701C28.1992 63.901 26.1992 61.901 26.1992 61.701C26.1992 61.701 26.6992 61.601 26.8992 61.201C27.0992 60.901 27.1992 60.1008 27.0992 59.0008C27.4992 59.1008 27.6992 58.801 27.6992 58.201C27.6992 57.601 27.9992 56.7006 29.0992 56.8006C29.4992 57.3006 29.6992 57.6006 29.6992 58.3006C29.6992 59.0006 29.6992 59.4006 29.6992 59.8006C29.6992 60.1006 29.2992 60.701 28.4992 60.701Z" fill="#FF8762"/>
<path d="M26.8996 59.5024C27.0653 59.5024 27.1996 59.3683 27.1996 59.2026C27.1996 59.037 27.0653 58.9023 26.8996 58.9023C26.7339 58.9023 26.5996 59.037 26.5996 59.2026C26.5996 59.3683 26.7339 59.5024 26.8996 59.5024Z" fill="#FF8762"/>
<g style="mix-blend-mode:multiply">
<path d="M26.9992 59.4028C26.9992 59.4028 26.9992 59.3031 26.8992 59.2031H26.6992C26.6992 59.2031 26.7992 59.2031 26.8992 59.2031C26.8992 59.2031 26.8992 59.2031 26.9992 59.2031C26.9992 59.2031 26.9992 59.2027 26.9992 59.3027V59.4028Z" fill="#E0B3A8"/>
</g>
<g style="mix-blend-mode:multiply">
<path d="M28.3992 60.7002C27.7992 60.5002 27.3992 60.1 27.1992 59.5C27.2992 60.1 27.7992 60.5002 28.2992 60.7002H28.3992Z" fill="#E0B3A8"/>
</g>
<path d="M27.7998 58.3022C28.0998 58.1022 28.3998 58.1025 28.5998 58.2025C28.4998 58.2025 28.1998 58.2022 27.8998 58.3022H27.7998Z" fill="#2B1710"/>
<path d="M29.5992 58.3023C29.5992 58.3023 29.5992 58.2023 29.1992 58.3023C29.4992 58.3023 29.5992 58.3024 29.5992 58.4024V58.3023Z" fill="#2B1710"/>
<path d="M29.1 59.5C29.2 59.5 29.3 59.2998 29.4 59.2998H29.2C29.1 59.2998 29.2 58.7 29.2 58.5C29.1 58.8 29 59.2002 29.1 59.2002C29.1 59.2002 29.2 59.2002 29.3 59.2002H29.4C29.4 59.2002 29.2 59.4 29.1 59.5Z" fill="#2B1710"/>
<path d="M28.3992 58.7002C28.3992 58.8002 28.3992 58.8999 28.2992 58.8999C28.1992 58.8999 28.1992 58.8002 28.1992 58.7002C28.1992 58.6002 28.1992 58.5 28.2992 58.5C28.3992 58.5 28.3992 58.6002 28.3992 58.7002Z" fill="#2B1710"/>
<g style="mix-blend-mode:multiply">
<path d="M28.2996 59.001C28.2996 59.001 28.1996 59.0008 28.0996 58.8008C28.0996 59.0008 28.1996 59.001 28.2996 59.001Z" fill="#E0B3A8"/>
</g>
<path d="M29.4998 58.7002C29.4998 58.8002 29.4998 58.8999 29.3998 58.8999C29.2998 58.8999 29.2998 58.8002 29.2998 58.7002C29.2998 58.6002 29.2998 58.5 29.3998 58.5C29.4998 58.5 29.4998 58.6002 29.4998 58.7002Z" fill="#2B1710"/>
<g style="mix-blend-mode:multiply">
<path d="M29.2996 59.1025C29.2996 59.1025 29.1996 59.1023 29.0996 58.9023C29.0996 59.1023 29.1996 59.1025 29.2996 59.1025Z" fill="#E0B3A8"/>
</g>
<path d="M28.0996 59.2017V59.3013C28.0996 59.3013 28.0996 59.3017 28.1996 59.2017V59.1016C28.1996 59.1016 28.1996 59.1017 28.0996 59.2017Z" fill="#FF7E57"/>
<path d="M28.2998 59.3027V59.4028C28.2998 59.4028 28.2998 59.4027 28.3998 59.3027C28.4998 59.2027 28.3998 59.2031 28.3998 59.2031C28.3998 59.2031 28.3998 59.2027 28.2998 59.3027Z" fill="#FF7E57"/>
<path d="M28.3994 59.3027V59.4028C28.3994 59.4028 28.3994 59.4027 28.4994 59.3027C28.5994 59.2027 28.4994 59.2031 28.4994 59.2031C28.4994 59.2031 28.4994 59.2027 28.3994 59.3027Z" fill="#FF7E57"/>
<path d="M26.9998 59.8999C27.1103 59.8999 27.1998 59.8107 27.1998 59.7002C27.1998 59.5897 27.1103 59.5 26.9998 59.5C26.8893 59.5 26.7998 59.5897 26.7998 59.7002C26.7998 59.8107 26.8893 59.8999 26.9998 59.8999Z" fill="white"/>
<g style="mix-blend-mode:multiply">
<path d="M28.3994 59.7008C28.8994 59.5008 29.3994 59.5008 29.3994 59.7008C29.3994 60.1008 28.8994 60.6008 28.3994 59.7008Z" fill="#E0B3A8"/>
</g>
<path d="M28.3994 59.7031H29.3994C29.3994 60.1031 28.7994 60.3031 28.3994 59.7031Z" fill="#2B1710"/>
<path d="M29.1994 60.0029C29.0994 59.8029 28.8994 59.7031 28.8994 59.7031H28.5994H28.3994C28.5994 60.1031 28.9994 60.1029 29.1994 60.0029Z" fill="#7D2727"/>
<path d="M29.2998 59.7031H28.2998C28.4998 59.9031 29.0998 59.9031 29.2998 59.7031Z" fill="white"/>
<path d="M29.0998 56.9C29.0998 57.8 27.6998 58 27.4998 57.9C27.2998 57.9 27.8998 56.5 29.0998 56.9Z" fill="#2B1710"/>
<path d="M31.1994 71.2026C30.9994 70.8026 30.8994 70.4023 30.8994 70.4023H25.1994C24.8994 71.1023 24.8994 71.2026 24.8994 71.2026H31.1994Z" fill="#2B1710"/>
<path d="M28.1994 70.3008H27.8994V71.3008H28.1994V70.3008Z" fill="#262E79"/>
<path d="M25.6994 70.3008H25.3994V71.3008H25.6994V70.3008Z" fill="#262E79"/>
<path d="M23.8996 69.2007C23.5996 70.9007 23.4996 74.0006 23.6996 74.6006C23.8996 75.2006 23.5996 75.7003 22.9996 75.8003C22.3996 75.9003 22.1996 76.3007 21.8996 76.2007C21.5996 76.1007 22.0996 75.5005 22.2996 75.5005C21.5996 75.5005 21.2996 76.4005 20.8996 76.5005C20.6996 76.5005 20.5996 76.3003 20.5996 76.3003C20.3996 76.3003 20.3996 76.1006 20.3996 76.1006C20.1996 75.9006 20.4996 75.2005 20.9996 75.0005C21.4996 74.8005 22.0996 74.4006 22.0996 74.1006C22.0996 73.8006 21.1996 69.8003 21.1996 69.3003C21.1996 68.8003 23.7996 69.3003 23.7996 69.3003L23.8996 69.2007Z" fill="#FF8762"/>
<path d="M24.1 68.4009C24.5 68.6009 24.6 69.301 23.9 69.501C23.1 69.801 21.5 69.7012 21.2 69.2012C20.9 68.7012 21.4 68.3008 21.6 68.3008C21.8 68.3008 24.2 68.4009 24.2 68.4009H24.1Z" fill="#FB7071"/>
<path d="M24.8998 62.3008C26.1998 64.1008 25.4998 66.7008 24.7998 67.3008C24.0998 67.9008 24.0998 68.8008 24.0998 68.8008C23.2998 69.6008 21.3998 68.9008 21.2998 68.8008C21.5998 66.2008 22.9998 63.1008 24.8998 62.3008Z" fill="#E65051"/>
<g style="mix-blend-mode:multiply">
<path d="M20.7998 76.2031C20.7998 76.1031 20.9998 75.5031 21.4998 75.2031C21.0998 75.5031 20.8998 76.1031 20.7998 76.2031Z" fill="#E0B3A8"/>
</g>
<g style="mix-blend-mode:multiply">
<path d="M20.5996 76.0024C20.5996 76.0024 20.5996 75.7023 20.8996 75.4023C20.6996 75.7023 20.5996 76.0024 20.5996 76.0024Z" fill="#E0B3A8"/>
</g>
<path d="M31.0993 60.9014C31.0993 60.9014 30.8993 60.7016 30.7993 60.6016C30.7993 60.5016 30.7992 60.3017 30.8992 60.2017C30.9992 60.1017 31.0993 59.9017 31.0993 59.7017C31.0993 59.5017 30.8993 59.2016 30.4993 59.1016C29.6993 58.7016 29.7992 58.2016 29.8992 57.6016C29.6992 58.2016 29.6992 58.6014 30.3992 58.9014C30.7992 59.1014 30.9993 59.3016 30.9993 59.6016C30.9993 59.8016 30.9993 60.0017 30.7993 60.2017C30.6993 60.2017 30.6992 60.4015 30.6992 60.5015C30.6992 60.6015 30.8992 60.7017 30.8992 60.7017L31.0993 60.9014Z" fill="#2B1710"/>
<path d="M31.4 60.002C31.4 59.902 31.5 59.8021 31.4 59.6021C31.4 59.3021 31.1 59.1019 30.7 58.9019C30.1 58.7019 30 58.402 30 58.002C30 58.402 30.1 58.6019 30.7 58.9019C31.1 59.1019 31.4 59.4021 31.5 59.6021C31.5 59.8021 31.5 59.9021 31.4 60.1021V60.002Z" fill="#2B1710"/>
<path d="M24.5996 60.9023C24.6996 60.9023 24.7996 60.9025 24.8996 60.6025C24.8996 60.4025 24.9996 60.1023 24.8996 59.9023C24.6996 59.7023 24.6996 59.4026 24.6996 59.2026C24.6996 59.0026 24.8996 58.8026 25.0996 58.7026C25.0996 58.7026 25.1996 58.7026 25.2996 58.7026C25.6996 58.5026 25.9996 58.4023 26.0996 57.9023C26.0996 58.5023 25.5996 58.7022 25.2996 58.8022C25.2996 58.8022 25.1996 58.8022 25.0996 58.8022C24.8996 58.8022 24.7996 59.0026 24.7996 59.2026C24.7996 59.4026 24.7996 59.6022 24.9996 59.8022C25.1996 60.1022 25.1996 60.4025 24.9996 60.6025C24.9996 60.8025 24.7996 60.9023 24.5996 60.9023Z" fill="#2B1710"/>
<path d="M24.5998 59.7026C24.3998 59.6026 24.2998 59.3025 24.2998 59.1025C24.2998 58.8025 24.4998 58.5023 24.9998 58.4023C25.6998 58.2023 25.8998 58.0023 26.1998 57.4023C25.9998 58.0023 25.6998 58.2024 24.9998 58.5024C24.5998 58.6024 24.3998 58.9025 24.3998 59.1025C24.3998 59.3025 24.3998 59.5025 24.5998 59.6025V59.7026Z" fill="#2B1710"/>
<path d="M27.4996 59.2017C27.4996 59.2017 27.2996 59.2014 27.0996 58.9014C27.2996 59.1014 27.3996 59.2016 27.4996 59.1016C27.5996 59.1016 27.6996 58.7016 27.4996 58.1016C27.6996 58.7016 27.6996 59.1017 27.4996 59.2017C27.4996 59.2017 27.4996 59.2017 27.3996 59.2017H27.4996Z" fill="#2B1710"/>
<path d="M28.5 57.8013C28.3 57.8013 28.1 57.8017 28 57.7017C28.3 57.9017 28.7 57.9017 28.9 57.7017C29.1 57.6017 29.2 57.3016 29.2 57.1016C29.2 57.4016 29.2 57.7013 28.9 57.8013C28.8 57.9013 28.6 58.0015 28.4 58.0015L28.5 57.8013Z" fill="#2B1710"/>
<path d="M38.2994 65.9023H30.6994L29.3994 71.6025H36.9994L38.2994 65.9023Z" fill="#8288CF"/>
<path d="M38.6992 65.9023H30.9992L29.6992 71.6025H37.2992L38.6992 65.9023Z" fill="#5D64B5"/>
<path d="M34.399 69.2012H33.499V68.8008C33.499 68.5008 33.699 68.3008 33.999 68.3008H34.899V68.7012C34.899 69.0012 34.699 69.2012 34.399 69.2012Z" fill="#8288CF"/>
<path d="M37.2992 71.6016H26.6992V72.1016H37.2992V71.6016Z" fill="#5D64B5"/>
<path d="M109.7 94.5039H83.5C82.8 94.5039 82.2 94.0041 82.1 93.2041L80.5 77.0039C80.5 76.2039 81.1 75.5039 81.9 75.5039H111.4C112.2 75.5039 112.8 76.2039 112.8 77.0039L111.2 93.2041C111.2 93.9041 110.5 94.5039 109.8 94.5039H109.7Z" fill="#9CCBFF"/>
<path d="M99.3004 94.5039H82.3004C81.9004 94.5039 81.5004 94.0041 81.4004 93.2041L80.4004 77.0039C80.4004 76.2039 80.7004 75.5039 81.2004 75.5039H99.7004C100.2 75.5039 100.6 76.2039 100.5 77.0039L100.1 93.2041C100.1 93.9041 99.7004 94.5039 99.2004 94.5039H99.3004Z" fill="#7BB7F9"/>
<path d="M96.8002 76.3008H94.7002V78.6011H96.8002V76.3008Z" fill="#ABD3FF"/>
<path d="M97.1998 76.3008H96.7998V78.6011H97.1998V76.3008Z" fill="#C9E3FF"/>
<path d="M96.3006 76.8008H95.1006V78.1011H96.3006V76.8008Z" fill="#7BB7F9"/>
<path d="M85.4008 76.3008H83.3008V78.6011H85.4008V76.3008Z" fill="#ABD3FF"/>
<path d="M85.901 76.3008H85.501V78.6011H85.901V76.3008Z" fill="#C9E3FF"/>
<path d="M85.0008 76.8008H83.8008V78.1011H85.0008V76.8008Z" fill="#7BB7F9"/>
<path d="M93.4002 70.9023H87.1002C85.5002 70.9023 84.2002 72.2022 84.2002 73.8022V77.5024C84.2002 77.7024 84.4002 77.9023 84.6002 77.9023C84.8002 77.9023 85.0002 77.7024 85.0002 77.5024V73.8022C85.0002 72.6022 86.0002 71.7026 87.2002 71.7026H93.5002C94.7002 71.7026 95.7002 72.7022 95.7002 73.8022V75.6025H96.5002V73.8022C96.5002 72.2022 95.2002 70.9023 93.6002 70.9023H93.4002Z" fill="#878CD9"/>
<path d="M93.0008 70.9023H86.7008C85.1008 70.9023 83.8008 72.2022 83.8008 73.8022V77.5024C83.8008 77.7024 84.0008 77.9023 84.2008 77.9023C84.4008 77.9023 84.6008 77.7024 84.6008 77.5024V73.8022C84.6008 72.6022 85.6008 71.7026 86.8008 71.7026H93.1008C94.3008 71.7026 95.3008 72.7022 95.3008 73.8022V75.6025H96.1008V73.8022C96.1008 72.2022 94.8008 70.9023 93.2008 70.9023H93.0008Z" fill="#5D64B5"/>
<path d="M104.7 70.9023H98.4C96.8 70.9023 95.5 72.2022 95.5 73.8022V77.5024C95.5 77.7024 95.7 77.9023 95.9 77.9023C96.1 77.9023 96.3 77.7024 96.3 77.5024V73.8022C96.3 72.6022 97.3 71.7026 98.5 71.7026H104.8C106 71.7026 107 72.7022 107 73.8022V75.6025H107.8V73.8022C107.8 72.2022 106.5 70.9023 104.9 70.9023H104.7Z" fill="#878CD9"/>
<path d="M104.301 70.9023H98.0006C96.4006 70.9023 95.1006 72.2022 95.1006 73.8022V77.5024C95.1006 77.7024 95.3006 77.9023 95.5006 77.9023C95.7006 77.9023 95.9006 77.7024 95.9006 77.5024V73.8022C95.9006 72.6022 96.9006 71.7026 98.1006 71.7026H104.401C105.601 71.7026 106.601 72.7022 106.601 73.8022V75.6025H107.401V73.8022C107.401 72.2022 106.101 70.9023 104.501 70.9023H104.301Z" fill="#5D64B5"/>
<path d="M117.9 84.9023H103.9V94.5024H117.9V84.9023Z" fill="#FFDEDC"/>
<path d="M117.9 84.9023H111.9V94.5024H117.9V84.9023Z" fill="#F0B4B2"/>
<path d="M108.801 84.9023H106.801V89.4023H108.801V84.9023Z" fill="#F0B4B2"/>
<path d="M106.4 51.3008H99.7002V56.9009H106.4V51.3008Z" fill="#FFDEDC"/>
<path d="M106.501 51.3008H103.601V56.9009H106.501V51.3008Z" fill="#F0B4B2"/>
<path d="M102.101 51.3008H101.101V53.9009H102.101V51.3008Z" fill="#F0B4B2"/>
<path d="M111 56.4028C108.9 56.4028 107.5 55.6028 107.5 55.4028C107.5 55.2028 107.4 53.8031 107.3 53.7031C107.3 53.6031 106.5 53.5029 106.5 53.5029L106.3 53.2031C106.1 53.2031 105.9 53.5031 106 53.7031C106.1 54.0031 106.5 54.103 106.5 54.103V56.0029C106.5 56.9029 109.5 59.2027 111 59.3027C112.2 59.0027 111.1 56.3027 111.1 56.3027L111 56.4028Z" fill="#FF8762"/>
<path d="M111.9 56.5016C111.8 56.0016 111.1 55.7016 110.6 56.5016C110.1 57.3016 109.9 59.1017 110.4 59.6017C110.9 60.0017 111.4 59.6015 111.5 59.4015C111.5 59.2015 111.9 56.6017 111.9 56.6017V56.5016Z" fill="#FB7071"/>
<path d="M117.5 53.7031C115.8 54.5031 114.2 56.6029 111.4 56.5029C110.4 57.8029 110.8 59.1029 111.2 59.5029C112.7 60.2029 115.9 59.503 117.4 58.603C118.6 57.803 119.1 56.0031 117.4 53.7031H117.5Z" fill="#E65051"/>
<path d="M125.3 90.5024L125 92.3022C125.4 93.3022 125.2 94.5024 125.2 94.5024H117.9C118.7 93.0024 122.1 92.9026 122.5 92.2026C122.9 91.5026 123 89.4023 123 89.4023L125.3 90.5024Z" fill="#FF8762"/>
<path d="M123.7 92.4023C123.7 92.1023 123.5 91.2023 122.9 90.9023C122.9 91.4023 122.7 91.9026 122.6 92.2026C122.2 92.9026 118.8 93.0024 118 94.5024H125.3C125.3 94.5024 125.5 93.2026 125.1 92.2026C125.1 92.2026 123.8 92.8026 123.8 92.2026L123.7 92.4023Z" fill="#2B1710"/>
<path d="M118.1 94.3008C118.1 94.3008 118 94.5011 117.9 94.6011H125.2C125.2 94.6011 125.2 94.5008 125.2 94.3008H118H118.1Z" fill="#693E2F"/>
<path d="M123.1 92.603C123.1 92.603 123 92.3031 122.8 92.2031C122.8 92.2031 122.6 92.2031 122.5 92.2031C122.6 92.2031 122.7 92.2031 122.9 92.2031C123.1 92.3031 123.3 92.603 123.3 92.603H123.1Z" fill="#693E2F"/>
<path d="M122.401 93.103C122.401 93.103 122.301 92.8031 122.101 92.7031C122.101 92.7031 121.901 92.7031 121.801 92.7031C121.901 92.7031 122.001 92.7031 122.201 92.7031C122.401 92.8031 122.601 93.103 122.601 93.103H122.401Z" fill="#693E2F"/>
<path d="M121.201 93.4038C121.201 93.4038 121.101 93.1039 120.901 93.0039C120.901 93.0039 120.701 93.0039 120.601 93.0039C120.701 93.0039 120.801 93.0039 121.001 93.0039C121.201 93.1039 121.401 93.4038 121.401 93.4038H121.201Z" fill="#693E2F"/>
<path d="M116.501 90.5024L116.201 92.3022C116.601 93.3022 116.401 94.5024 116.401 94.5024H109.101C109.901 93.0024 113.301 92.9026 113.701 92.2026C114.101 91.5026 114.201 89.4023 114.201 89.4023L116.501 90.5024Z" fill="#FF8762"/>
<path d="M114.9 92.4023C114.9 92.1023 114.7 91.2023 114.1 90.9023C114.1 91.4023 113.9 91.9026 113.8 92.2026C113.4 92.9026 110 93.0024 109.2 94.5024H116.5C116.5 94.5024 116.7 93.2022 116.3 92.3022C116.3 92.3022 115 92.9022 115 92.3022L114.9 92.4023Z" fill="#2B1710"/>
<path d="M109.301 94.3008C109.301 94.3008 109.201 94.5011 109.101 94.6011H116.401C116.401 94.6011 116.401 94.5008 116.401 94.3008H109.201H109.301Z" fill="#693E2F"/>
<path d="M114.3 92.603C114.3 92.603 114.2 92.3031 114 92.2031C114 92.2031 113.8 92.2031 113.7 92.2031C113.8 92.2031 113.9 92.2031 114.1 92.2031C114.3 92.3031 114.5 92.603 114.5 92.603H114.3Z" fill="#693E2F"/>
<path d="M113.601 93.103C113.601 93.103 113.501 92.8031 113.301 92.7031C113.301 92.7031 113.101 92.7031 113.001 92.7031C113.101 92.7031 113.201 92.7031 113.401 92.7031C113.601 92.8031 113.801 93.103 113.801 93.103H113.601Z" fill="#693E2F"/>
<path d="M112.401 93.4038C112.401 93.4038 112.301 93.1039 112.101 93.0039C112.101 93.0039 111.901 93.0039 111.801 93.0039C111.901 93.0039 112.001 93.0039 112.201 93.0039C112.401 93.1039 112.601 93.4038 112.601 93.4038H112.401Z" fill="#693E2F"/>
<path d="M113.2 92.1011H116.9L119.9 78.9009L121.5 92.1011H125.2C125.2 86.7011 127.2 70.3008 125.3 65.3008H115.5C114.4 76.6008 113.2 92.1011 113.2 92.1011Z" fill="#262E79"/>
<path d="M122.8 53.2031H119.8C118.6 53.2031 117.5 53.7031 117.5 53.7031C117.1 54.4031 116.2 59.3031 115.7 65.2031H125.5C126 59.1031 124.9 54.0029 124.9 54.0029C124 53.3029 122.9 53.2031 122.9 53.2031H122.8Z" fill="#FB7071"/>
<path d="M116.701 56.7001C116.301 58.8001 115.901 61.9001 115.601 65.2001H125.401C125.501 63.6001 125.501 62.1997 125.401 60.7997C124.101 60.7997 123.501 59.2998 123.401 56.8998C123.401 56.8998 119.001 56.6001 116.601 56.7001H116.701Z" fill="#262E79"/>
<path d="M119.2 48.6018C118.9 47.9018 119.6 47.3016 120.4 47.4016C121.2 47.5016 122.6 47.6018 122.9 48.1018C123.1 48.6018 122.9 50.0017 122.7 50.5017C122.5 51.0017 121.5 51.3015 121.5 51.3015L119.3 48.6018H119.2Z" fill="#2B1710"/>
<path d="M122 48.9014C122 48.9014 122 49.5013 121.9 49.8013C121.9 50.1013 122 50.5013 122.4 50.3013V51.0015C122.4 51.0015 122.1 52.8017 122.8 53.2017C121.7 54.4017 119.6 54.2017 119.8 53.2017C120.3 53.2017 120.3 53.0016 120.3 52.6016C119.2 52.4016 119.3 51.5013 119.2 50.3013C119.2 49.7013 119.2 49.1016 119.2 48.6016C120.3 49.1016 121.3 48.7016 121.6 48.6016C121.6 49.2016 122.1 49.0015 122.1 49.0015L122 48.9014Z" fill="#FF8762"/>
<path d="M119.799 49.7026C119.799 49.9026 119.799 50.0024 119.599 50.0024C119.399 50.0024 119.399 49.9026 119.399 49.7026C119.399 49.5026 119.399 49.4023 119.599 49.4023C119.799 49.4023 119.799 49.5026 119.799 49.7026Z" fill="#2B1710"/>
<path d="M120.9 49.7998C120.9 49.9998 120.9 50.1001 120.7 50.1001C120.5 50.1001 120.5 49.9998 120.5 49.7998C120.5 49.5998 120.5 49.5 120.7 49.5C120.9 49.5 120.9 49.5998 120.9 49.7998Z" fill="#2B1710"/>
<g style="mix-blend-mode:multiply">
<path d="M120.8 50.2002C120.9 50.2002 121.1 50.2 121.1 50C121.1 50.2 121 50.2998 120.8 50.2998V50.2002Z" fill="#E0B3A8"/>
</g>
<path d="M119.9 50.6011C119.7 50.6011 119.3 50.6011 119.3 50.6011C119.3 50.6011 119.3 50.5012 119.6 50.2012C119.5 50.3012 119.3 50.501 119.3 50.501C119.3 50.501 119.6 50.501 119.9 50.501V50.6011Z" fill="#2B1710"/>
<path d="M120.599 50.501C120.599 50.601 120.399 50.7012 120.399 50.7012C120.399 50.7012 120.399 50.601 120.499 50.501C120.499 50.401 120.699 50.3008 120.699 50.3008C120.699 50.3008 120.699 50.401 120.599 50.501Z" fill="#FF7E57"/>
<path d="M120.8 50.501C120.8 50.601 120.6 50.7012 120.6 50.7012C120.6 50.7012 120.6 50.601 120.7 50.501C120.8 50.401 120.9 50.3008 120.9 50.3008C120.9 50.3008 120.9 50.401 120.8 50.501Z" fill="#FF7E57"/>
<path d="M121.099 50.501C121.099 50.601 120.899 50.7012 120.899 50.7012C120.899 50.7012 120.899 50.601 120.999 50.501C120.999 50.401 121.199 50.3008 121.199 50.3008C121.199 50.3008 121.199 50.401 121.099 50.501Z" fill="#FF7E57"/>
<path d="M122.7 51.1016C122.976 51.1016 123.2 50.8777 123.2 50.6016C123.2 50.3254 122.976 50.1016 122.7 50.1016C122.424 50.1016 122.2 50.3254 122.2 50.6016C122.2 50.8777 122.424 51.1016 122.7 51.1016Z" fill="#FF8762"/>
<g style="mix-blend-mode:multiply">
<path d="M122.6 50.8013C122.6 50.8013 122.6 50.8013 122.5 50.8013C122.5 50.7013 122.5 50.6016 122.7 50.6016C122.8 50.6016 122.9 50.6016 123 50.6016C123 50.6016 122.8 50.6016 122.7 50.6016C122.7 50.6016 122.6 50.6017 122.6 50.7017C122.6 50.7017 122.6 50.7017 122.7 50.7017C122.7 50.7017 122.7 50.7013 122.7 50.8013C122.7 50.8013 122.7 50.8014 122.6 50.9014V50.8013Z" fill="#E0B3A8"/>
</g>
<g style="mix-blend-mode:multiply">
<path d="M120.399 52.5C121.299 52.5 121.999 51.9 122.299 51C121.999 51.9 121.399 52.3999 120.499 52.3999L120.399 52.5Z" fill="#E0B3A8"/>
</g>
<path d="M120.799 50.9023H119.399C119.399 51.5023 120.299 51.8023 120.799 50.9023Z" fill="#2B1710"/>
<path d="M119.6 51.3999C119.8 51.0999 120.1 51 120.1 51H120.5H120.8C120.5 51.6 119.9 51.6999 119.6 51.3999Z" fill="#7D2727"/>
<path d="M119.399 50.9023H120.799C120.499 51.2023 119.599 51.2023 119.399 50.9023Z" fill="white"/>
<g style="mix-blend-mode:multiply">
<path d="M119.9 78.3013L119.4 69.6016L119.9 78.4014V78.3013Z" fill="#E0C9C0"/>
</g>
<g style="mix-blend-mode:multiply">
<path d="M124.7 68.6025C124.3 68.6025 122.9 68.2023 122.8 65.9023C122.8 67.5023 123.5 68.5025 124.6 68.6025H124.7Z" fill="#E0C9C0"/>
</g>
<g style="mix-blend-mode:multiply">
<path d="M124.8 91.0029C124.8 90.8029 125.4 69.7031 124.8 66.2031C125.5 69.7031 124.8 90.8029 124.8 91.0029Z" fill="#E0C9C0"/>
</g>
<path d="M118.2 53.2002C117.6 54.3002 117.3 56.3001 117.2 57.1001C117.2 57.3001 117.3 57.3999 117.5 57.3999H117.9C118.1 57.3999 118.2 57.3001 118.2 57.1001C118.2 56.3001 118.6 54.2 119.2 53H118.1L118.2 53.2002Z" fill="#3E4696"/>
<path d="M123.1 53.2031C122.5 54.4031 122.1 56.6028 122 57.4028C122 57.6028 122.1 57.7027 122.3 57.8027H122.7C122.9 57.8027 123.1 57.7029 123.1 57.5029C123.1 56.7029 123.5 54.703 124.1 53.603L123.2 53.3027L123.1 53.2031Z" fill="#3E4696"/>
<path d="M117.3 57.4023V57.6025C117.3 57.7025 117.4 57.8022 117.5 57.8022H117.8C117.9 57.8022 118 57.7025 118 57.6025V57.4023H117.2H117.3ZM118 57.6025C118 57.6025 118 57.8022 117.8 57.8022H117.5C117.5 57.8022 117.3 57.8025 117.3 57.6025C117.3 57.5025 117.9 57.6025 117.9 57.6025H118Z" fill="#DCE5FF"/>
<path d="M117.9 57.9028C117.9 57.9028 117.9 58.103 117.7 58.103C117.7 58.103 117.5 58.1028 117.5 57.9028C117.5 57.9028 117.5 57.7031 117.7 57.7031C117.9 57.7031 117.9 57.7028 117.9 57.9028Z" fill="#DCE5FF"/>
<path d="M122.201 57.7031V57.9028C122.201 58.0028 122.301 58.103 122.401 58.103H122.701C122.801 58.103 122.901 58.0028 122.901 57.9028V57.7031H122.101H122.201ZM122.901 57.8027C122.901 57.8027 122.901 58.0029 122.701 58.0029H122.401C122.401 58.0029 122.201 58.0027 122.201 57.8027C122.201 57.7027 122.801 57.8027 122.801 57.8027H122.901Z" fill="#DCE5FF"/>
<path d="M122.8 58.1025C122.8 58.1025 122.8 58.3022 122.6 58.3022C122.6 58.3022 122.4 58.3025 122.4 58.1025C122.4 57.9025 122.4 57.9023 122.6 57.9023C122.6 57.9023 122.8 57.9025 122.8 58.1025Z" fill="#DCE5FF"/>
<path d="M127.6 62C127.4 63.2 125.4 65 125.3 65C125.2 65 124.6 64.4 124.2 64.5C123.8 64.6 122.9 65.4001 123.1 65.6001C123.3 65.8001 123.8 65.1002 124.1 65.2002C123.3 65.9002 123.1 66.4 123.3 66.5C123.5 66.6 123.6 66.5 123.6 66.5C123.9 66.7 124.5 66.3002 124.8 66.2002C125.1 66.2002 125.8 66.4999 126.4 66.3999C127 66.2999 127.1 65.7001 127.2 65.6001C127.2 65.6001 131.2 62.6 131.1 61C131 59.4 128.2 58.5 128.2 58.5L127.6 61.7998V62Z" fill="#FF8762"/>
<path d="M129 58.7017C129.4 58.4017 130.1 59.0015 130.1 59.5015C130.1 60.0015 127.9 62.3017 127.4 62.2017C126.9 62.2017 126.6 61.6016 127 61.1016C127.4 60.6016 129 58.6016 129 58.6016V58.7017Z" fill="#FB7071"/>
<path d="M124.4 53.8008C123.3 55.0008 123.9 59.4009 125 59.9009C126.1 60.4009 127.2 61.7012 127.2 61.7012C127.8 61.5012 129.5 59.701 129.4 59.001C127.9 57.601 126.3 54.0009 124.5 53.9009L124.4 53.8008Z" fill="#E65051"/>
<g style="mix-blend-mode:multiply">
<path d="M124.8 65.3027C124.8 65.3027 124.5 65.3031 124.3 65.2031C124.5 65.2031 124.8 65.3027 124.8 65.3027Z" fill="#E0B3A8"/>
</g>
</svg>
