<svg width="87" height="88" viewBox="0 0 87 88" fill="none" xmlns="http://www.w3.org/2000/svg">
<g filter="url(#filter0_d_625_291)">
<path d="M42.7796 3.04326C50.2796 2.54326 59.4795 6.44319 65.0795 11.3432C65.2795 11.5432 65.4796 11.7433 65.6796 11.9433C65.8796 12.1433 66.0796 12.3433 66.2796 12.5433C66.4796 12.7433 66.6796 12.9432 66.8796 13.1432C67.0796 13.3432 67.2795 13.5432 67.4795 13.7432C67.6795 13.9432 67.8795 14.1432 68.0795 14.3432C68.2795 14.5432 68.4796 14.7433 68.6796 14.9433C68.8796 15.1433 69.0796 15.3432 69.1796 15.6432C69.3796 15.8432 69.4796 16.0432 69.6796 16.3432C69.8796 16.5432 69.9796 16.8433 70.1796 17.0433C70.3796 17.2433 70.4796 17.5432 70.6796 17.7432C70.8796 17.9432 70.9796 18.2433 71.1796 18.4433C71.3796 18.6433 71.4796 18.9432 71.6796 19.1432C71.7796 19.3432 71.9795 19.6432 72.0795 19.8432C72.1795 20.0432 72.3795 20.3433 72.4795 20.5433C72.5795 20.7433 72.7796 21.0432 72.8796 21.2432C72.9796 21.5432 73.1796 21.7433 73.2796 22.0433C73.3796 22.3433 73.4796 22.5432 73.6796 22.8432C73.7796 23.1432 73.8795 23.3432 73.9795 23.6432C74.0795 23.9432 74.1796 24.1433 74.2796 24.4433C74.3796 24.7433 74.4796 24.9432 74.5796 25.2432C74.5796 25.5432 74.7796 25.7433 74.8796 26.0433C74.8796 26.3433 75.0796 26.5432 75.1796 26.8432C75.1796 27.1432 75.3796 27.3432 75.3796 27.6432C75.3796 27.9432 75.5796 28.1433 75.5796 28.4433C75.5796 28.7433 75.6796 28.9432 75.7796 29.2432C75.7796 29.5432 75.8795 29.7433 75.9795 30.0433C75.9795 30.3433 76.0796 30.6432 76.1796 30.8432C76.1796 31.1432 76.2796 31.4432 76.2796 31.6432C76.2796 31.9432 76.2796 32.2433 76.3796 32.4433C76.3796 32.7433 76.3795 33.0432 76.4795 33.2432C76.4795 33.5432 76.4795 33.8433 76.4795 34.0433C76.4795 34.3433 76.4795 34.6432 76.4795 34.8432C76.9795 43.3432 73.9796 52.1433 68.3796 58.5433C61.6796 66.0433 53.6796 69.6432 43.7796 70.2432C35.6796 70.6432 27.6796 67.3432 21.6796 62.1432C21.4796 61.9432 21.2795 61.7433 21.0795 61.5433C20.8795 61.3433 20.6796 61.1433 20.4796 60.9433C20.2796 60.7433 20.0796 60.5432 19.8796 60.3432C19.6796 60.1432 19.4796 59.9432 19.2796 59.7432C19.0796 59.5432 18.8796 59.3432 18.6796 59.1432C18.4796 58.9432 18.2795 58.7433 18.0795 58.5433C17.8795 58.3433 17.6795 58.1433 17.5795 57.9433C17.4795 57.7433 17.1795 57.5432 17.0795 57.2432C16.8795 57.0432 16.7795 56.8433 16.5795 56.5433C16.3795 56.3433 16.2795 56.0432 16.0795 55.8432C15.8795 55.6432 15.7795 55.3432 15.5795 55.1432C15.3795 54.9432 15.2795 54.6433 15.0795 54.4433C14.9795 54.2433 14.7796 53.9432 14.6796 53.7432C14.5796 53.5432 14.3796 53.2433 14.2796 53.0433C14.1796 52.8433 13.9796 52.5432 13.8796 52.3432C13.7796 52.1432 13.5796 51.8432 13.4796 51.6432C13.3796 51.3432 13.2795 51.1432 13.0795 50.8432C12.9795 50.5432 12.8796 50.3433 12.7796 50.0433C12.6796 49.7433 12.5796 49.5432 12.4796 49.2432C12.3796 48.9432 12.2796 48.7433 12.1796 48.4433C12.0796 48.1433 11.9796 47.9432 11.8796 47.6432C11.8796 47.3432 11.6795 47.1432 11.5795 46.8432C11.5795 46.5432 11.3796 46.3433 11.2796 46.0433C11.2796 45.7433 11.0795 45.5432 11.0795 45.2432C11.0795 44.9432 10.9796 44.7433 10.8796 44.4433C10.7796 44.1433 10.7796 43.9432 10.6796 43.6432C10.5796 43.3432 10.5796 43.1432 10.4796 42.8432C10.4796 42.5432 10.3796 42.2433 10.2796 42.0433C10.1796 41.8433 10.2796 41.4432 10.1796 41.2432C10.1796 40.9432 10.1795 40.6433 10.0795 40.4433C10.0795 40.1433 10.0795 39.8432 10.0795 39.6432C10.0795 39.3432 10.0795 39.0432 10.0795 38.8432C9.47955 29.9432 12.2796 21.0432 18.2796 14.3432C24.8796 6.94319 33.0796 3.64324 42.8796 3.14324L42.7796 3.04326Z" fill="black"/>
<path d="M45.8793 31.8438C47.3793 32.6438 48.5793 33.7438 49.0793 35.4438C49.0793 35.6438 49.0793 35.8438 49.1793 35.9438C49.1793 36.1438 49.1793 36.3438 49.1793 36.5438C49.1793 36.7438 49.1793 36.9438 49.1793 37.1438C49.1793 37.3438 49.1793 37.5438 49.1793 37.7438C49.1793 37.9438 49.1793 38.1437 49.0793 38.3438C49.0793 38.5438 49.0793 38.7437 48.8793 38.8438C48.8793 39.0438 48.7793 39.1437 48.6793 39.3438C48.6793 39.5438 48.4793 39.6437 48.3793 39.8438C47.6793 40.9438 46.7793 41.6438 45.5793 42.3438C45.3793 39.7438 45.2793 34.3438 45.6793 31.9438L45.8793 31.8438Z" fill="#FEFEFE"/>
<path d="M43.2799 30.9438C44.1799 31.2438 45.0799 31.4438 45.8799 31.9438C45.3799 34.3438 45.5799 39.7438 45.7799 42.3438C45.5799 42.4438 45.3799 42.5438 45.0799 42.6438C43.4799 43.2438 42.0799 43.2438 40.5799 42.4438C40.3799 42.3438 40.1799 42.2438 40.0799 42.1438C39.8799 42.0438 39.7799 41.9438 39.5799 41.7438C39.3799 41.6438 39.2799 41.4438 39.0799 41.3438C38.9799 41.1437 38.7799 41.0438 38.6799 40.8438C38.5799 40.6437 38.3799 40.5438 38.2799 40.3438C38.1799 40.1437 38.0799 39.9438 37.9799 39.7438C37.9799 39.5438 37.7799 39.3438 37.6799 39.1438C37.6799 38.9438 37.5799 38.7438 37.4799 38.5438C37.4799 38.3438 37.4799 38.1438 37.3799 38.0438C37.3799 37.8438 37.3799 37.6438 37.3799 37.4438C37.3799 37.2438 37.3799 37.0438 37.3799 36.8438C37.3799 36.6437 37.3799 36.4438 37.3799 36.2438C37.3799 36.0438 37.3799 35.8438 37.3799 35.6438C37.3799 35.4438 37.3799 35.2438 37.5799 35.1438C37.5799 34.9438 37.6799 34.7438 37.7799 34.6438C37.7799 34.4438 37.9799 34.3438 38.0799 34.1438C39.1799 32.1438 41.1799 31.4438 43.2799 30.8438V30.9438Z" fill="#2FA6D0"/>
<path d="M18.1797 37.3438C24.0797 37.3438 29.8797 37.3438 35.7797 37.3438C35.8797 38.2437 36.1797 39.0437 36.3797 39.8438C34.8797 41.2437 33.6797 43.0438 32.3797 44.7438C29.9797 47.8438 27.4797 50.9438 24.8797 53.9438C20.4797 49.3438 18.5797 43.6438 18.1797 37.3438Z" fill="#80BBD7"/>
<path d="M44.3791 4.54297C52.0791 4.94297 59.6791 7.94299 65.1791 13.443C65.3791 13.643 65.5791 13.843 65.7791 14.043C65.9791 14.243 66.1791 14.4429 66.3791 14.6429C66.5791 14.8429 66.7791 15.0429 66.8791 15.2429C67.0791 15.4429 67.2791 15.6429 67.3791 15.8429C67.5791 16.0429 67.6791 16.243 67.8791 16.443C68.0791 16.643 68.1791 16.843 68.3791 17.043C68.5791 17.243 68.6791 17.4429 68.8791 17.6429C69.0791 17.8429 69.1791 18.0429 69.3791 18.2429C69.5791 18.4429 69.6791 18.643 69.7791 18.943C69.8791 19.143 70.0791 19.3429 70.1791 19.6429C70.2791 19.8429 70.4791 20.1429 70.5791 20.3429C70.6791 20.5429 70.8791 20.843 70.9791 21.043C71.0791 21.243 71.2791 21.5429 71.3791 21.7429C71.4791 21.9429 71.5791 22.243 71.7791 22.443C71.9791 22.643 71.9791 22.9429 72.0791 23.1429C72.1791 23.3429 72.2791 23.6429 72.3791 23.8429C72.4791 24.0429 72.5791 24.343 72.6791 24.543C72.7791 24.743 72.8791 25.0429 72.9791 25.2429C72.9791 25.4429 73.1791 25.743 73.2791 25.943C73.2791 26.143 73.4791 26.4429 73.5791 26.7429C73.5791 27.0429 73.7791 27.243 73.7791 27.543C73.7791 27.843 73.8791 28.0429 73.9791 28.3429C73.9791 28.6429 74.0791 28.8429 74.1791 29.1429C74.1791 29.4429 74.2791 29.643 74.3791 29.943C74.3791 30.243 74.4791 30.4429 74.5791 30.7429C74.5791 31.0429 74.5791 31.243 74.6791 31.543C74.6791 31.843 74.6791 32.0429 74.7791 32.3429C74.7791 32.6429 74.7791 32.8429 74.8791 33.1429C74.8791 33.4429 74.8791 33.643 74.8791 33.943C74.8791 34.243 74.8791 34.4429 74.8791 34.7429C74.8791 35.0429 74.8791 35.243 74.8791 35.543C74.8791 35.843 74.8791 36.0429 74.8791 36.3429C73.1791 36.3429 71.4791 36.3429 69.6791 36.3429C69.4791 30.7429 67.5791 24.943 64.0791 20.543C59.0791 14.243 51.9791 10.7429 44.0791 9.8429C44.0791 8.1429 44.0791 6.44292 44.0791 4.74292L44.3791 4.54297Z" fill="#242E3A"/>
<path d="M41.5795 4.44385C41.9795 4.44385 42.2795 4.44385 42.7795 4.44385C43.5795 5.64385 43.1795 8.14382 43.1795 9.54382C36.2795 10.1438 30.3795 12.2438 25.1795 16.8438C19.6795 21.7438 16.9795 28.8438 16.5795 36.0438H13.3795L11.4795 35.9438C12.1795 28.2438 14.0795 21.1438 19.1795 15.2438C24.6795 8.84377 33.1795 4.94375 41.5795 4.34375V4.44385Z" fill="#242E3A"/>
<path d="M24.8799 53.9438C27.4799 50.9438 29.8799 47.8438 32.3799 44.7438C33.6799 43.1438 34.8799 41.3438 36.3799 39.8438C37.4799 41.8438 38.8799 43.3438 41.1799 44.0438C41.8799 44.2438 42.4799 44.3438 43.1799 44.3438C43.1799 50.2438 43.1799 56.2438 43.1799 62.1438C36.3799 61.8438 29.9799 59.4438 25.2799 54.2438C25.1799 54.1438 25.0799 53.9438 24.9799 53.8438L24.8799 53.9438Z" fill="#E5E6E1"/>
<path d="M50.7794 37.2445C56.6794 37.0445 62.5794 37.2445 68.4794 37.2445C68.4794 38.2445 68.2794 39.3445 68.1794 40.3445C67.0794 47.7445 63.5794 53.2446 57.5794 57.5446C53.3794 60.2446 49.2794 61.8446 44.3794 62.0446C44.2794 56.1446 44.3794 50.2445 44.3794 44.3445C45.5794 44.0445 46.7794 43.6445 47.7794 42.8445C49.7794 41.4445 50.4794 39.4445 50.8794 37.1445L50.7794 37.2445Z" fill="#E5E6E1"/>
<path d="M44.2798 11.4414C49.8798 11.4414 55.5798 14.0414 59.7798 17.6414C65.5798 22.6414 67.8798 28.7414 68.3798 36.1414C62.4798 36.1414 56.5798 36.3414 50.7798 36.1414C50.5798 35.2414 50.2798 34.3414 49.8798 33.5414C48.6798 31.2414 46.6798 30.4413 44.2798 29.7413C44.1798 23.6413 44.2798 17.5414 44.2798 11.4414Z" fill="#E5E6E1"/>
<path d="M40.7797 11.5414C41.5797 11.4414 42.3797 11.5414 43.1797 11.4414C43.1797 17.4414 43.1797 23.5414 43.1797 29.5414C41.5797 29.8414 40.1797 30.2414 38.7797 31.1414C36.8797 32.4414 36.1797 34.1413 35.8797 36.2413C31.0797 36.1413 26.1797 36.2413 21.3797 36.2413H18.1797C18.3797 30.7413 19.7797 25.8414 23.1797 21.4414C27.5797 15.6414 33.6797 12.5414 40.7797 11.5414Z" fill="#2FA6D0"/>
<path d="M69.9791 37.3438H75.1791C75.0791 38.9438 74.8791 40.4438 74.6791 42.0438C73.6791 47.9438 71.2791 53.5438 67.2791 58.0438C61.5791 64.4438 53.4791 68.5438 44.8791 69.0438C36.6791 69.4438 28.3791 66.2438 22.2791 60.7438C15.3791 54.5438 11.9791 46.5438 11.5791 37.4438H16.5791C16.5791 37.8438 16.5791 38.2438 16.5791 38.6438C16.5791 39.0438 16.5791 39.4438 16.6791 39.7438C16.6791 40.1438 16.7791 40.5437 16.8791 40.8438C16.8791 41.2438 16.9791 41.6438 17.0791 41.9438C17.0791 42.3438 17.2791 42.6438 17.3791 43.0438C17.4791 43.4438 17.5791 43.7438 17.6791 44.1438C17.7791 44.5438 17.8791 44.8438 18.0791 45.2438C18.1791 45.6438 18.3791 45.9437 18.4791 46.3438C18.5791 46.7438 18.7791 47.0438 18.8791 47.4438C19.0791 47.7438 19.1791 48.1438 19.3791 48.4438C19.5791 48.7438 19.6791 49.1438 19.8791 49.4438C20.0791 49.7438 20.2791 50.1438 20.4791 50.4438C20.6791 50.7438 20.8791 51.1438 21.0791 51.4438C21.2791 51.7438 21.4791 52.0437 21.6791 52.3438C21.8791 52.6438 22.0791 52.9438 22.3791 53.2438C22.5791 53.5438 22.8791 53.8438 23.0791 54.1438C27.5791 59.5438 33.9791 63.0438 40.9791 63.5438C48.0791 64.0438 55.5791 61.5437 60.8791 56.8438C66.5791 51.8438 69.2791 44.7438 69.7791 37.3438H69.9791Z" fill="#242E3A"/>
</g>
<defs>
<filter id="filter0_d_625_291" x="0" y="0" width="86.5332" height="87.2773" filterUnits="userSpaceOnUse" color-interpolation-filters="sRGB">
<feFlood flood-opacity="0" result="BackgroundImageFix"/>
<feColorMatrix in="SourceAlpha" type="matrix" values="0 0 0 0 0 0 0 0 0 0 0 0 0 0 0 0 0 0 127 0" result="hardAlpha"/>
<feOffset dy="7"/>
<feGaussianBlur stdDeviation="5"/>
<feColorMatrix type="matrix" values="0 0 0 0 0 0 0 0 0 0 0 0 0 0 0 0 0 0 0.8 0"/>
<feBlend mode="normal" in2="BackgroundImageFix" result="effect1_dropShadow_625_291"/>
<feBlend mode="normal" in="SourceGraphic" in2="effect1_dropShadow_625_291" result="shape"/>
</filter>
</defs>
</svg>
