<svg width="70" height="69" viewBox="0 0 70 69" fill="none" xmlns="http://www.w3.org/2000/svg">
<g filter="url(#filter0_d_625_343)">
<path d="M59.8 6.19995C59.8 5.29995 59.3001 4.6001 58.7001 4.1001C58.2001 3.4001 57.4 3 56.5 3H13.4C11.8 3 10.6001 4.30005 10.6001 5.80005C10.6001 7.30005 10.6001 5.99995 10.6001 6.19995C10.3001 6.69995 10 7.20005 10 7.80005V36.3C10 36.3 10 36.2999 10 36.3999C10 36.3999 10 36.4 10 36.5C10 38 11.2001 39.2 12.7001 39.2H17.4C20.3 46 28.2001 51.4 32.2001 51C36.4001 50.6 35.5 47.8999 35.5 47.8999C35.5 47.8999 32.9 45.4 32.8 41.3C32.8 40.4 32.9001 39.7 33.1001 39C33.3001 39 33.5001 39.1001 33.7001 39.1001H57C58.4 39.1001 59.6001 37.8999 59.6001 36.3999C59.6001 34.8999 59.6001 36.4 59.6001 36.3C59.6001 36.1 59.7001 36 59.7001 35.8V6.19995H59.8ZM54.5 33.7H33.9C33.5 33.7 33.1001 33.8001 32.7001 34.1001C30.8001 34.8001 29.4 37.9001 29.3 40.6001C29.3 43.6001 30.3 45.8 30.3 45.8C30.3 45.8 28.6 46.3 26 44C23.4 41.7 22.3001 37.1 21.1001 35.2C20.3001 34 19.4 33.9 18.9 34C18.6 33.9 18.2 33.8 17.9 33.8H15.7001V8.6001H54.5V33.7Z" fill="url(#paint0_linear_625_343)"/>
</g>
<defs>
<filter id="filter0_d_625_343" x="0" y="0" width="69.7998" height="68.0195" filterUnits="userSpaceOnUse" color-interpolation-filters="sRGB">
<feFlood flood-opacity="0" result="BackgroundImageFix"/>
<feColorMatrix in="SourceAlpha" type="matrix" values="0 0 0 0 0 0 0 0 0 0 0 0 0 0 0 0 0 0 127 0" result="hardAlpha"/>
<feOffset dy="7"/>
<feGaussianBlur stdDeviation="5"/>
<feColorMatrix type="matrix" values="0 0 0 0 0 0 0 0 0 0 0 0 0 0 0 0 0 0 0.8 0"/>
<feBlend mode="normal" in2="BackgroundImageFix" result="effect1_dropShadow_625_343"/>
<feBlend mode="normal" in="SourceGraphic" in2="effect1_dropShadow_625_343" result="shape"/>
</filter>
<linearGradient id="paint0_linear_625_343" x1="10.2" y1="27.1" x2="59.8" y2="27.1" gradientUnits="userSpaceOnUse">
<stop stop-color="#002D4B"/>
<stop offset="1" stop-color="#002133"/>
</linearGradient>
</defs>
</svg>
