<svg width="88" height="91" viewBox="0 0 88 91" fill="none" xmlns="http://www.w3.org/2000/svg">
<path d="M87.4688 29.3109C87.1687 26.8109 86.3687 24.311 85.0687 22.111C83.7687 19.911 81.9687 18.0109 79.8687 16.5109C77.7687 15.0109 75.3688 13.911 72.9688 13.111C71.3687 12.611 69.6687 12.211 68.0687 11.911C67.3687 11.811 66.8687 12.3109 66.8687 13.0109C66.8687 13.0109 66.8687 13.011 66.8687 13.111C66.8687 13.811 67.1687 14.4109 67.8687 14.5109C69.3687 14.7109 70.7687 15.1109 72.1687 15.5109C74.3687 16.2109 76.5687 17.2109 78.3687 18.5109C80.2687 19.8109 81.7687 21.5109 82.9688 23.3109C85.3688 27.1109 85.8687 31.8111 84.8687 36.2111C84.4687 38.4111 83.6687 40.511 82.7687 42.611C81.9687 41.111 80.9688 39.611 79.9688 38.111C76.6688 33.411 72.5687 29.3111 68.0687 25.7111C67.0687 22.6111 65.8687 19.511 64.3687 16.611C64.3687 16.611 64.1687 16.6111 64.0687 16.7111C63.9687 16.7111 63.8687 16.811 63.7687 16.911C63.5687 16.911 63.4687 17.111 63.2687 17.111C62.9687 17.211 62.7687 17.3109 62.7687 17.3109C63.7687 19.3109 64.6687 21.411 65.3687 23.611C63.0687 21.911 60.6688 20.4109 58.1688 19.0109C55.5688 17.5109 52.7688 16.2109 49.9688 15.0109C51.2688 14.7109 52.6688 14.5109 53.9688 14.3109C54.6688 14.3109 54.6688 13.911 54.1688 13.411C54.1688 13.311 53.9687 13.211 53.8687 13.111C53.4687 12.511 52.9687 12.011 52.2687 12.111C49.8687 12.411 47.8687 12.9109 45.7687 13.5109C40.6687 11.7109 35.2687 10.5109 29.7687 10.0109C27.9687 9.91086 26.1687 9.81101 24.3687 9.91101C25.5687 8.51101 26.7687 7.21096 28.1687 6.11096C29.9687 4.61096 32.0687 3.31101 34.2687 2.41101C36.4687 1.51101 38.8687 1.01096 41.2687 1.11096C43.6687 1.11096 46.0687 1.61086 48.2687 2.51086C50.4687 3.41086 52.4687 4.71091 54.2687 6.31091C54.8687 6.81091 55.4687 7.41086 56.0687 8.01086C56.5687 8.51086 57.1687 8.71101 57.5687 8.41101C57.8687 8.11101 57.8687 7.61096 57.3687 7.11096C56.7687 6.51096 56.0687 5.81091 55.3687 5.31091C53.4687 3.71091 51.2688 2.41101 48.9688 1.41101C46.6688 0.511009 44.0688 -0.0891375 41.4688 0.0108625C38.8688 0.0108625 36.3687 0.610862 34.0687 1.51086C31.7687 2.51086 29.6687 3.81101 27.7687 5.41101C26.1687 6.81101 24.6687 8.41086 23.3687 10.0109C20.4687 10.2109 17.6687 10.6109 14.8687 11.5109C12.4687 12.3109 10.0688 13.3109 7.96875 14.8109C5.86875 16.3109 3.96875 18.211 2.66875 20.411C1.26875 22.611 0.468749 25.111 0.168749 27.611C-0.131251 30.111 -0.0312479 32.611 0.468752 35.111C0.768752 36.711 1.26875 38.2111 1.86875 39.7111C2.16875 40.4111 2.76875 40.5111 3.46875 40.2111C3.46875 40.2111 3.56875 40.2111 3.66875 40.2111C4.36875 39.9111 4.66875 39.3111 4.36875 38.7111C3.86875 37.4111 3.46875 36.011 3.16875 34.611C2.66875 32.411 2.56874 30.2109 2.76874 28.0109C3.06874 25.8109 3.76875 23.7109 4.86875 21.8109C7.06875 17.9109 11.1687 15.2111 15.5687 13.7111C17.5687 13.0111 19.6687 12.6109 21.7687 12.3109C20.7687 13.8109 19.7688 15.4109 18.9688 17.0109C16.5688 21.8109 14.8687 26.8109 13.8687 32.0109C11.6687 34.2109 9.66875 36.6111 7.86875 39.2111C7.86875 39.2111 7.86874 39.311 7.76874 39.411C7.76874 39.511 7.96875 39.8109 8.36875 40.0109C8.56875 40.2109 8.86874 40.311 9.06874 40.411H9.16875C10.4687 38.711 11.7687 37.0109 13.2687 35.5109C12.8687 38.5109 12.5687 41.611 12.5687 44.611C12.5687 47.011 12.5687 49.511 12.8687 51.911C12.2687 51.311 11.7687 50.6109 11.1687 50.0109C10.7687 49.5109 10.1687 49.611 9.76874 50.111C9.76874 50.111 9.76875 50.2109 9.66875 50.3109C9.26875 50.8109 9.06875 51.511 9.46875 52.111C10.7688 53.611 12.0688 55.0109 13.4688 56.3109C14.3688 61.9109 15.9687 67.4109 18.5687 72.5109C19.1687 73.7109 19.8687 74.911 20.5687 76.111C18.9687 75.811 17.4687 75.5109 15.8687 75.0109C13.5687 74.2109 11.3688 73.2109 9.46875 71.8109C7.56875 70.4109 5.96874 68.7111 4.76874 66.7111C3.56874 64.7111 2.86874 62.5111 2.56874 60.2111C2.26874 57.9111 2.56875 55.611 2.96875 53.411C3.16875 52.711 3.26875 52.111 3.46875 51.411C3.66875 50.711 3.66875 50.1109 3.46875 50.0109C3.36875 50.0109 3.26875 49.9109 3.16875 49.8109C3.06875 49.8109 2.96874 49.711 2.76874 49.611C2.56874 49.511 2.26874 49.911 2.06874 50.611C1.86874 51.411 1.56875 52.311 1.46875 53.111C0.968752 55.511 0.868749 57.911 1.16875 60.411C1.46875 62.811 2.26874 65.2109 3.56874 67.3109C4.86874 69.4109 6.66875 71.2111 8.66875 72.7111C10.6687 74.1111 13.0687 75.2109 15.3687 76.0109C17.1687 76.6109 19.0688 77.0111 20.9688 77.2111C22.6688 79.8111 24.7687 82.311 27.1687 84.411C29.0687 86.011 31.2688 87.5109 33.6688 88.5109C36.0688 89.5109 38.6687 90.111 41.3687 90.111C44.0687 90.111 46.6687 89.611 49.0687 88.611C51.4687 87.611 53.6688 86.211 55.6688 84.611C56.9688 83.511 58.0688 82.411 59.1688 81.111C59.6688 80.611 59.4687 79.9109 58.8687 79.5109C58.8687 79.5109 58.7688 79.511 58.6688 79.411C58.0688 79.011 57.3687 79.0109 56.8687 79.5109C55.8687 80.6109 54.8687 81.611 53.7687 82.611C51.9687 84.111 50.0688 85.3111 47.9688 86.2111C45.8688 87.1111 43.5687 87.511 41.2687 87.611C36.6687 87.611 32.1687 85.7109 28.5687 82.8109C26.6687 81.2109 25.0687 79.5109 23.5687 77.5109C25.7687 77.6109 27.9687 77.6109 30.0687 77.5109C35.4687 77.1109 40.6687 76.011 45.7687 74.411C48.9687 75.211 52.2687 75.811 55.5687 76.111C56.2687 76.111 56.7687 75.911 56.7687 75.611C56.7687 75.411 56.7687 75.2109 56.7687 75.0109C56.7687 74.8109 56.7687 74.8111 56.7687 74.7111C56.7687 74.5111 56.2687 74.4109 55.5687 74.3109C53.4687 74.1109 51.3687 73.7111 49.2687 73.2111C52.4687 72.0111 55.4688 70.6109 58.4688 69.0109C60.7688 67.8109 62.9687 66.4109 65.1687 65.0109C64.7687 66.1109 64.3688 67.2109 63.9688 68.3109C63.6688 68.9109 63.9687 69.2109 64.6687 69.0109C64.8687 69.0109 65.1687 69.011 65.3687 68.911C66.0687 68.911 66.8687 68.311 67.1687 67.611C67.9687 65.711 68.4687 64.1109 68.8687 62.3109C73.4687 58.8109 77.5687 54.811 80.8687 50.111C81.7687 48.811 82.5687 47.5111 83.3687 46.2111C84.0687 48.0111 84.6687 49.811 85.0687 51.611C85.5687 53.911 85.6687 56.2109 85.3687 58.5109C85.0687 60.8109 84.2687 63.011 83.0687 64.911C81.8687 66.911 80.1687 68.611 78.2687 69.911C76.3687 71.211 74.1687 72.2109 71.8687 73.0109C70.8687 73.3109 69.8687 73.5111 68.8687 73.7111C68.1687 73.8111 67.6687 74.111 67.6687 74.411C67.6687 74.511 67.6687 74.7109 67.6687 74.8109C67.6687 74.9109 67.6687 75.011 67.6687 75.111C67.6687 75.311 68.1687 75.311 68.8687 75.111C70.0687 74.911 71.1687 74.6111 72.2687 74.2111C74.6687 73.4111 76.9688 72.3109 78.9688 70.8109C80.9688 69.3109 82.7687 67.5109 83.9688 65.3109C85.2687 63.1109 85.9687 60.811 86.2687 58.411C86.5687 56.011 86.2687 53.5111 85.8687 51.2111C85.3687 49.0111 84.6687 47.0109 83.7687 45.0109C85.1687 42.4109 86.2688 39.6111 86.9688 36.7111C87.4688 34.3111 87.6687 31.8109 87.3687 29.3109H87.4688ZM19.4688 17.3109C20.3688 15.5109 21.4687 13.711 22.6687 12.111C24.9687 11.911 27.2687 11.8109 29.5687 12.0109C34.1687 12.3109 38.6688 13.111 43.1688 14.411C43.0688 14.411 42.9687 14.411 42.8687 14.411C38.0687 15.911 33.4687 17.911 29.1687 20.411C23.8687 23.411 19.0687 26.7111 14.8687 30.7111C15.7687 26.1111 17.3688 21.5109 19.4688 17.3109ZM30.0687 76.411C27.6687 76.611 25.2688 76.511 22.9688 76.411C21.8688 74.911 20.8687 73.3111 20.0687 71.7111C17.7687 67.4111 16.1687 62.8109 15.1687 58.0109C15.5687 58.4109 16.0688 58.8111 16.4688 59.2111C20.2688 62.4111 24.3687 65.2109 28.7687 67.5109C33.6687 70.1109 38.7688 72.2111 44.1688 73.7111C39.5688 75.2111 34.8687 76.1109 30.0687 76.5109V76.411ZM57.7687 67.7111C54.4687 69.5111 51.0688 71.2109 47.4688 72.5109C41.2688 70.9109 35.3687 68.511 29.8687 65.411C24.1687 62.211 18.7687 58.211 14.2687 53.611C13.8687 50.611 13.5687 47.6109 13.5687 44.5109C13.5687 41.0109 13.7687 37.511 14.2687 34.111C18.9687 29.411 24.3687 25.611 30.3687 22.411C35.7687 19.511 41.4687 17.1111 47.3687 15.7111C50.7687 16.9111 54.1687 18.4111 57.3687 20.2111C60.2687 21.8111 63.0687 23.511 65.6687 25.411C67.5687 31.611 68.3687 38.111 68.3687 44.611C68.3687 50.611 67.4687 56.7109 65.7687 62.5109C63.1687 64.4109 60.5687 66.2109 57.7687 67.8109V67.7111ZM79.0687 48.911C76.2687 52.911 72.9687 56.5111 69.1687 59.7111C69.1687 59.4111 69.2687 59.211 69.3687 58.911C70.3687 54.211 70.8687 49.411 70.7687 44.611C70.7687 38.911 69.9687 33.1109 68.3687 27.5109C72.4687 30.8109 76.0687 34.5111 79.0687 38.7111C80.1687 40.3111 81.1687 42.0111 82.0687 43.7111C81.1687 45.5111 80.1687 47.211 79.0687 48.911ZM56.8687 11.0109L58.5687 10.611C59.2687 10.411 60.1688 9.91101 60.6688 9.41101L61.8687 8.11096C62.3687 7.61096 62.7687 7.81086 62.7687 8.51086V11.411V14.3109C62.7687 15.0109 62.2688 15.311 61.6688 14.911L59.1688 13.5109L56.6688 12.111C56.0688 11.811 56.0687 11.311 56.7687 11.111L56.8687 11.0109ZM65.4688 72.0109L64.9688 73.7111C64.7687 74.4111 64.7687 75.5111 64.9688 76.2111L65.4688 77.911C65.6688 78.611 65.2687 78.8109 64.6687 78.5109L62.1688 77.0109L59.6688 75.5109C59.0688 75.1109 59.0688 74.6111 59.6688 74.2111L62.1688 72.8109L64.6687 71.411C65.2687 71.111 65.5688 71.4109 65.4688 72.0109ZM0.868746 45.911C0.168746 45.711 0.168746 45.311 0.868746 44.911L3.46875 43.611L6.06874 42.3109C6.66874 42.0109 7.16875 42.3109 7.16875 43.0109V45.911C7.06875 45.911 6.86875 48.8109 6.86875 48.8109C6.86875 49.5109 6.46875 49.611 5.96875 49.111L4.76874 47.8109C4.26874 47.3109 3.36875 46.7109 2.66875 46.5109L0.968752 46.0109L0.868746 45.911ZM42.9688 63.611C32.6688 63.611 24.2687 55.211 24.2687 44.911C24.2687 34.611 32.6688 26.2111 42.9688 26.2111C53.2688 26.2111 61.6688 34.611 61.6688 44.911C61.6688 55.211 53.2688 63.611 42.9688 63.611ZM44.0687 52.3109C44.0687 52.3109 43.9687 52.3109 43.8687 52.3109C43.8687 52.3109 43.8687 52.4109 43.8687 52.5109V61.411C43.8687 61.411 43.8688 61.611 43.9688 61.611C43.9688 61.611 44.0688 61.611 44.1688 61.611C46.9688 61.011 49.6688 57.9109 51.1688 53.5109C51.1688 53.5109 51.1688 53.4109 51.1688 53.3109C51.1688 53.3109 51.1688 53.2111 50.9688 53.2111C48.8688 52.7111 46.5688 52.3109 44.1688 52.3109H44.0687ZM41.8687 52.3109C39.4687 52.3109 37.1687 52.7111 35.0687 53.2111C35.0687 53.2111 34.9687 53.2109 34.8687 53.3109C34.8687 53.3109 34.8687 53.4109 34.8687 53.5109C36.3687 58.0109 38.9687 61.011 41.8687 61.611C41.8687 61.611 41.9687 61.611 42.0687 61.611C42.0687 61.611 42.1688 61.511 42.1688 61.411V52.5109C42.1688 52.5109 42.1688 52.4109 42.1688 52.3109C42.1688 52.3109 42.0688 52.3109 41.9688 52.3109H41.8687ZM32.8687 53.911C31.7687 54.311 30.8688 54.7111 29.9688 55.2111C29.9688 55.2111 29.8687 55.311 29.8687 55.411V55.611C31.4687 57.611 33.5688 59.2109 35.9688 60.3109C35.9688 60.3109 35.9687 60.3109 36.0687 60.3109C36.0687 60.3109 36.2687 60.3111 36.2687 60.2111C36.2687 60.2111 36.2687 60.011 36.2687 59.911C34.9687 58.311 33.9688 56.411 33.1688 54.111C33.1688 54.111 33.1687 54.011 33.0687 53.911C33.0687 53.911 33.0688 53.911 32.9688 53.911H32.8687ZM53.0687 53.911C53.0687 53.911 53.0688 53.911 52.9688 53.911C52.9688 53.911 52.8687 53.911 52.8687 54.111C52.0687 56.411 51.0687 58.411 49.7687 59.911C49.7687 59.911 49.7687 60.1111 49.7687 60.2111C49.7687 60.2111 49.8688 60.3109 49.9688 60.3109C50.0688 60.3109 49.9687 60.3109 50.0687 60.3109C52.3687 59.2109 54.4688 57.611 56.1688 55.611C56.1688 55.611 56.1688 55.511 56.1688 55.411C56.1688 55.411 56.1687 55.3111 56.0687 55.2111C55.1687 54.7111 54.2688 54.211 53.1688 53.911H53.0687ZM54.4688 45.7111C54.3688 45.7111 54.1688 45.8109 54.1688 46.0109C54.1688 48.1109 53.8687 50.1109 53.3687 52.0109C53.3687 52.1109 53.3687 52.3109 53.5687 52.3109C54.8687 52.8109 56.0687 53.311 57.0687 53.911C57.0687 53.911 57.0688 53.911 57.1688 53.911C57.1688 53.911 57.3687 53.9109 57.3687 53.8109C58.8687 51.5109 59.6687 48.7109 59.8687 46.0109C59.8687 46.0109 59.8687 45.9109 59.8687 45.8109C59.8687 45.8109 59.7688 45.8109 59.6688 45.8109H54.4688V45.7111ZM26.2687 45.7111C26.2687 45.7111 26.1687 45.7111 26.0687 45.7111C26.0687 45.7111 26.0687 45.811 26.0687 45.911C26.2687 48.711 27.0687 51.4111 28.5687 53.7111C28.5687 53.7111 28.6687 53.8109 28.7687 53.8109C28.8687 53.8109 28.7687 53.8109 28.8687 53.8109C29.8687 53.2109 31.0687 52.7111 32.3687 52.2111C32.4687 52.2111 32.5687 52.011 32.5687 51.911C32.0687 50.011 31.8687 48.011 31.7687 45.911C31.7687 45.811 31.6688 45.611 31.4688 45.611H26.2687V45.7111ZM33.7687 45.7111C33.7687 45.7111 33.6687 45.7111 33.5687 45.7111C33.4687 45.7111 33.5687 45.811 33.5687 45.911C33.5687 47.811 33.8687 49.611 34.2687 51.411C34.2687 51.411 34.2687 51.511 34.3687 51.611C34.3687 51.611 34.3688 51.611 34.4688 51.611C36.7688 51.011 39.2687 50.711 41.7687 50.611C41.8687 50.611 42.0687 50.5109 42.0687 50.3109V45.911C42.0687 45.811 41.9687 45.611 41.7687 45.611H33.6688L33.7687 45.7111ZM44.0687 45.7111C43.9687 45.7111 43.7687 45.8109 43.7687 46.0109V50.411C43.7687 50.511 43.8687 50.7111 44.0687 50.7111C46.6687 50.7111 49.0687 51.1111 51.3687 51.7111C51.3687 51.7111 51.3688 51.7111 51.4688 51.7111C51.4688 51.7111 51.5687 51.7109 51.5687 51.5109C51.9687 49.8109 52.2687 47.911 52.2687 46.111C52.2687 46.111 52.2687 46.011 52.2687 45.911C52.2687 45.911 52.1687 45.911 52.0687 45.911H43.9688L44.0687 45.7111ZM57.2687 35.8109C57.2687 35.8109 57.2688 35.8109 57.1688 35.8109C56.1688 36.4109 54.9688 36.911 53.6688 37.411C53.5688 37.411 53.4688 37.6111 53.4688 37.7111C53.9688 39.6111 54.1687 41.6111 54.2687 43.7111C54.2687 43.8111 54.3687 44.0109 54.5687 44.0109H59.7687C59.7687 44.0109 59.8688 44.0109 59.9688 44.0109C59.9688 44.0109 59.9688 43.9109 59.9688 43.8109C59.7688 41.0109 58.9688 38.3109 57.4688 36.0109C57.4688 36.0109 57.3687 35.911 57.2687 35.911V35.8109ZM51.4688 38.111C49.1688 38.711 46.6688 39.011 44.1688 39.111C44.0688 39.111 43.8687 39.211 43.8687 39.411V43.8109C43.8687 43.9109 43.9688 44.111 44.1688 44.111H52.2687C52.2687 44.111 52.3688 44.111 52.4688 44.111C52.4688 44.111 52.4688 44.011 52.4688 43.911C52.4688 42.011 52.1687 40.2109 51.7687 38.5109C51.7687 38.5109 51.7688 38.4109 51.6688 38.3109C51.6688 38.3109 51.6687 38.3109 51.5687 38.3109L51.4688 38.111ZM34.4688 38.111C34.4688 38.111 34.4687 38.111 34.3687 38.111C34.3687 38.111 34.2687 38.1109 34.2687 38.3109C33.8687 40.0109 33.5687 41.9109 33.5687 43.8109C33.5687 43.8109 33.5687 43.9109 33.5687 44.0109C33.5687 44.1109 33.6687 44.0109 33.7687 44.0109H41.8687C41.9687 44.0109 42.1688 43.9111 42.1688 43.7111V39.3109C42.1688 39.2109 42.0687 39.0109 41.8687 39.0109C39.2687 39.0109 36.8687 38.6109 34.5687 38.0109L34.4688 38.111ZM28.7687 35.8109C28.7687 35.8109 28.5687 35.811 28.5687 35.911C27.0687 38.211 26.2687 41.0111 26.0687 43.7111C26.0687 43.7111 26.0687 43.811 26.0687 43.911C26.0687 43.911 26.1687 43.911 26.2687 43.911H31.4688C31.5688 43.911 31.7687 43.811 31.7687 43.611C31.7687 41.511 32.0687 39.511 32.5687 37.611C32.5687 37.511 32.5687 37.3109 32.3687 37.3109C31.0687 36.8109 29.8687 36.3111 28.8687 35.7111C28.8687 35.7111 28.8687 35.7111 28.7687 35.7111V35.8109ZM44.0687 28.0109C44.0687 28.0109 43.9687 28.0109 43.8687 28.0109C43.8687 28.0109 43.7687 28.1111 43.7687 28.2111V37.111C43.7687 37.111 43.7687 37.2109 43.7687 37.3109C43.7687 37.3109 43.8688 37.3109 43.9688 37.3109C46.3688 37.3109 48.6687 36.911 50.7687 36.411C50.7687 36.411 50.8688 36.4109 50.9688 36.3109C50.9688 36.3109 50.9688 36.211 50.9688 36.111C49.4688 31.611 46.8688 28.6109 43.9688 28.0109H44.0687ZM41.8687 28.0109C39.0687 28.6109 36.3687 31.711 34.8687 36.111C34.8687 36.111 34.8687 36.2109 34.8687 36.3109C34.8687 36.3109 34.8687 36.411 35.0687 36.411C37.1687 36.911 39.4687 37.3109 41.8687 37.3109C41.8687 37.3109 41.9687 37.3109 42.0687 37.3109C42.0687 37.3109 42.0687 37.211 42.0687 37.111V28.2111C42.0687 28.2111 42.0688 28.0109 41.9688 28.0109C41.9688 28.0109 41.8687 28.0109 41.7687 28.0109H41.8687ZM49.9688 29.411C49.9688 29.411 49.7687 29.4109 49.7687 29.5109C49.7687 29.5109 49.7687 29.7109 49.7687 29.8109C51.0687 31.4109 52.0687 33.311 52.8687 35.611C52.8687 35.611 52.8688 35.7109 52.9688 35.8109C52.9688 35.8109 52.9687 35.8109 53.0687 35.8109C54.1687 35.4109 55.0688 35.0109 55.9688 34.5109C55.9688 34.5109 56.0687 34.4109 56.0687 34.3109V34.111C54.4687 32.111 52.3688 30.511 49.9688 29.411C49.9688 29.411 49.9687 29.411 49.8687 29.411H49.9688ZM36.0687 29.411C36.0687 29.411 36.0688 29.411 35.9688 29.411C33.6688 30.511 31.5687 32.111 29.8687 34.111C29.8687 34.111 29.8687 34.2109 29.8687 34.3109C29.8687 34.3109 29.8688 34.4109 29.9688 34.5109C30.8688 35.0109 31.7687 35.4109 32.8687 35.8109C32.8687 35.8109 32.8688 35.8109 32.9688 35.8109C32.9688 35.8109 33.0687 35.811 33.0687 35.611C33.8687 33.311 34.8688 31.3109 36.1688 29.8109C36.1688 29.8109 36.1688 29.6109 36.1688 29.5109C36.1688 29.5109 36.0688 29.411 35.9688 29.411H36.0687Z" fill="#242E3A"/>
</svg>
