<svg width="70" height="69" viewBox="0 0 70 69" fill="none" xmlns="http://www.w3.org/2000/svg">
<g filter="url(#filter0_d_616_2758)">
<path d="M59.8 6.20007C59.8 5.30007 59.3 4.6001 58.7 4.1001C58.2 3.4001 57.4 3 56.5 3H13.4C11.8 3 10.6 4.30005 10.6 5.80005C10.6 7.30005 10.6 6.00007 10.6 6.20007C10.3 6.70007 10 7.20005 10 7.80005V36.3C10 36.3 10 36.3 10 36.4C10 36.4 10 36.4 10 36.5C10 38 11.2 39.2001 12.7 39.2001H17.4C20.3 46.0001 28.2 51.4 32.2 51C36.4 50.6 35.5 47.9 35.5 47.9C35.5 47.9 32.9 45.4 32.8 41.3C32.8 40.4 32.9 39.7 33.1 39C33.3 39 33.5 39.1001 33.7 39.1001H57C58.4 39.1001 59.6 37.9 59.6 36.4C59.6 34.9 59.6 36.4 59.6 36.3C59.6 36.1 59.7 36 59.7 35.8V6.20007H59.8ZM54.5 33.7001H33.9C33.5 33.7001 33.1 33.8001 32.7 34.1001C30.8 34.8001 29.4 37.9001 29.3 40.6001C29.3 43.6001 30.3 45.8 30.3 45.8C30.3 45.8 28.6 46.3 26 44C23.4 41.7 22.3 37.1001 21.1 35.2001C20.3 34.0001 19.4 33.9 18.9 34C18.6 33.9 18.2 33.8 17.9 33.8H15.7V8.6001H54.5V33.7001Z" fill="url(#paint0_linear_616_2758)"/>
</g>
<defs>
<filter id="filter0_d_616_2758" x="0" y="0" width="69.7998" height="68.0195" filterUnits="userSpaceOnUse" color-interpolation-filters="sRGB">
<feFlood flood-opacity="0" result="BackgroundImageFix"/>
<feColorMatrix in="SourceAlpha" type="matrix" values="0 0 0 0 0 0 0 0 0 0 0 0 0 0 0 0 0 0 127 0" result="hardAlpha"/>
<feOffset dy="7"/>
<feGaussianBlur stdDeviation="5"/>
<feColorMatrix type="matrix" values="0 0 0 0 0 0 0 0 0 0 0 0 0 0 0 0 0 0 0.8 0"/>
<feBlend mode="normal" in2="BackgroundImageFix" result="effect1_dropShadow_616_2758"/>
<feBlend mode="normal" in="SourceGraphic" in2="effect1_dropShadow_616_2758" result="shape"/>
</filter>
<linearGradient id="paint0_linear_616_2758" x1="10.1" y1="27" x2="59.8" y2="27" gradientUnits="userSpaceOnUse">
<stop stop-color="#002D4B"/>
<stop offset="1" stop-color="#002133"/>
</linearGradient>
</defs>
</svg>
