<svg width="96" height="89" viewBox="0 0 96 89" fill="none" xmlns="http://www.w3.org/2000/svg">
<g filter="url(#filter0_d_616_2676)">
<path d="M23.4004 34.3016C28.4004 34.3016 32.4004 30.7016 32.4004 26.2016C32.4004 21.7016 28.4004 18.1016 23.4004 18.1016C18.4004 18.1016 14.4004 21.7016 14.4004 26.2016C14.4004 30.7016 18.4004 34.3016 23.4004 34.3016Z" fill="url(#paint0_linear_616_2676)"/>
<path d="M30.6 38.7986C28.6 37.0986 26.3 36.1986 23.4 36.3986C14.6 37.1986 11.2 45.5985 10 52.0985V56.0985C10 56.8985 10.1 59.2986 10.1 59.6986C10.1 63.6986 18.4 66.1986 25.6 66.3986C24.7 58.2986 27.3 46.1986 30.6 38.6986V38.7986Z" fill="url(#paint1_linear_616_2676)"/>
<path d="M72.6002 33.5984C77.5002 33.5984 81.5002 29.9984 81.5002 25.4984C81.5002 20.9984 77.5002 17.3984 72.6002 17.3984C67.7002 17.3984 63.7002 20.9984 63.7002 25.4984C63.7002 29.9984 67.7002 33.5984 72.6002 33.5984Z" fill="url(#paint2_linear_616_2676)"/>
<path d="M72.4998 35.7013C69.5998 35.4013 67.2998 36.4013 65.2998 38.1013C68.5998 45.6013 71.1998 57.7013 70.2998 65.8013C77.4998 65.6013 85.6998 63.1013 85.6998 59.1013C85.6998 55.1013 85.7998 56.3013 85.7998 55.5013V51.5013C84.4998 45.0013 81.1998 36.6013 72.4998 35.8013V35.7013Z" fill="url(#paint3_linear_616_2676)"/>
<path d="M47.8998 25.8C54.8998 25.8 60.4998 20.7 60.4998 14.4C60.4998 8.10002 54.8998 3 47.8998 3C40.8998 3 35.2998 8.10002 35.2998 14.4C35.2998 20.7 40.8998 25.8 47.8998 25.8Z" fill="#69CDF0"/>
<path d="M47.9998 28.8008C35.6998 30.0008 30.9998 41.7008 29.1998 50.8008V51.1008C28.4998 55.1008 27.6998 63.1008 31.4998 66.6008C33.9998 68.8008 37.6998 70.5008 42.1998 71.3008C44.0998 71.7008 46.1998 71.9008 48.3998 71.9008C51.7998 71.9008 54.9998 71.4008 57.7998 70.5008C58.1998 70.5008 58.6999 70.3008 59.0999 70.2008C61.6999 69.5008 63.5998 68.2008 64.9998 66.6008C66.2998 65.3008 67.0998 63.9008 67.3998 62.4008C69.3998 56.6008 67.9998 49.2008 66.1998 45.7008C63.3998 36.8008 57.6999 27.9008 48.0999 28.9008L47.9998 28.8008Z" fill="#69CDF0"/>
</g>
<defs>
<filter id="filter0_d_616_2676" x="0" y="0" width="95.7998" height="88.9023" filterUnits="userSpaceOnUse" color-interpolation-filters="sRGB">
<feFlood flood-opacity="0" result="BackgroundImageFix"/>
<feColorMatrix in="SourceAlpha" type="matrix" values="0 0 0 0 0 0 0 0 0 0 0 0 0 0 0 0 0 0 127 0" result="hardAlpha"/>
<feOffset dy="7"/>
<feGaussianBlur stdDeviation="5"/>
<feColorMatrix type="matrix" values="0 0 0 0 0 0 0 0 0 0 0 0 0 0 0 0 0 0 0.8 0"/>
<feBlend mode="normal" in2="BackgroundImageFix" result="effect1_dropShadow_616_2676"/>
<feBlend mode="normal" in="SourceGraphic" in2="effect1_dropShadow_616_2676" result="shape"/>
</filter>
<linearGradient id="paint0_linear_616_2676" x1="14.4004" y1="26.2016" x2="32.4004" y2="26.2016" gradientUnits="userSpaceOnUse">
<stop stop-color="#002D4B"/>
<stop offset="1" stop-color="#002133"/>
</linearGradient>
<linearGradient id="paint1_linear_616_2676" x1="10" y1="51.3986" x2="30.6" y2="51.3986" gradientUnits="userSpaceOnUse">
<stop stop-color="#002D4B"/>
<stop offset="1" stop-color="#002133"/>
</linearGradient>
<linearGradient id="paint2_linear_616_2676" x1="63.6002" y1="25.4984" x2="81.5002" y2="25.4984" gradientUnits="userSpaceOnUse">
<stop stop-color="#002D4B"/>
<stop offset="1" stop-color="#002133"/>
</linearGradient>
<linearGradient id="paint3_linear_616_2676" x1="65.3998" y1="50.7013" x2="85.7998" y2="50.7013" gradientUnits="userSpaceOnUse">
<stop stop-color="#002D4B"/>
<stop offset="1" stop-color="#002133"/>
</linearGradient>
</defs>
</svg>
