<svg width="85" height="73" viewBox="0 0 85 73" fill="none" xmlns="http://www.w3.org/2000/svg">
<g filter="url(#filter0_d_616_2698)">
<path d="M51.6996 23.1992H50.7996C45.1996 23.1992 40.5996 27.6992 40.5996 33.2992C40.5996 38.8992 45.1996 43.3992 50.7996 43.3992H51.6996C57.2996 43.3992 61.8996 38.8992 61.8996 33.2992C61.8996 27.6992 57.2996 23.1992 51.6996 23.1992Z" fill="url(#paint0_linear_616_2698)"/>
<path d="M50.6 8.10156H33.9C20.7 8.10156 10 18.6017 10 31.7017C10 44.8017 20.7 55.3016 33.9 55.3016H50.6C63.8 55.3016 74.5 44.8017 74.5 31.7017C74.5 18.6017 63.8 8.10156 50.6 8.10156ZM26 23.7017H20.9C18.5 23.7017 16.5 21.8016 16.5 19.4016C16.5 17.0016 18.5 15.1016 20.9 15.1016H26C28.4 15.1016 30.4 17.0016 30.4 19.4016C30.4 21.8016 28.4 23.7017 26 23.7017ZM52.7 49.3016H49.9C41.2 49.3016 34.1 42.3016 34.1 33.8016C34.1 25.3016 41.2 18.3016 49.9 18.3016H52.7C61.4 18.3016 68.5 25.3016 68.5 33.8016C68.5 42.3016 61.4 49.3016 52.7 49.3016Z" fill="#80BBD7"/>
<path d="M27.8002 7.20007H34.3002C35.2002 7.20007 35.9002 6.29998 35.9002 5.09998C35.9002 3.89998 35.2002 3 34.3002 3H27.8002C26.9002 3 26.2002 3.89998 26.2002 5.09998C26.2002 6.29998 26.9002 7.20007 27.8002 7.20007Z" fill="url(#paint1_linear_616_2698)"/>
</g>
<defs>
<filter id="filter0_d_616_2698" x="0" y="0" width="84.5" height="72.3008" filterUnits="userSpaceOnUse" color-interpolation-filters="sRGB">
<feFlood flood-opacity="0" result="BackgroundImageFix"/>
<feColorMatrix in="SourceAlpha" type="matrix" values="0 0 0 0 0 0 0 0 0 0 0 0 0 0 0 0 0 0 127 0" result="hardAlpha"/>
<feOffset dy="7"/>
<feGaussianBlur stdDeviation="5"/>
<feColorMatrix type="matrix" values="0 0 0 0 0 0 0 0 0 0 0 0 0 0 0 0 0 0 0.8 0"/>
<feBlend mode="normal" in2="BackgroundImageFix" result="effect1_dropShadow_616_2698"/>
<feBlend mode="normal" in="SourceGraphic" in2="effect1_dropShadow_616_2698" result="shape"/>
</filter>
<linearGradient id="paint0_linear_616_2698" x1="40.5996" y1="33.2992" x2="61.8996" y2="33.2992" gradientUnits="userSpaceOnUse">
<stop stop-color="#002D4B"/>
<stop offset="1" stop-color="#002133"/>
</linearGradient>
<linearGradient id="paint1_linear_616_2698" x1="26.2002" y1="5.10004" x2="36.0002" y2="5.10004" gradientUnits="userSpaceOnUse">
<stop stop-color="#002D4B"/>
<stop offset="1" stop-color="#002133"/>
</linearGradient>
</defs>
</svg>
