<svg width="62" height="73" viewBox="0 0 62 73" fill="none" xmlns="http://www.w3.org/2000/svg">
<g filter="url(#filter0_d_600_7267)">
<path d="M42.3634 8C42.3634 8 39.2633 8.2 35.1633 15C31.0633 21.8 31.5634 26.1 33.5634 27C35.5634 27.9 39.8634 26.3999 40.5634 28.8999C41.2634 31.2999 37.3634 40.4999 31.4634 43.8999C25.5634 47.2999 27.0634 44.0999 23.9634 42.7999C20.9634 41.4999 15.1634 46.0999 11.5634 50.2999C7.96336 54.4999 11.0634 59.4 15.9634 60.6C20.8634 61.8 30.6634 60.6 42.4634 46.5C54.3634 32.4 52.5634 18.3 49.5634 14C46.5634 9.7 43.5633 7.99998 42.2633 8.09998L42.3634 8Z" fill="#002D4B"/>
</g>
<defs>
<filter id="filter0_d_600_7267" x="0" y="0" width="61.7871" height="72.9531" filterUnits="userSpaceOnUse" color-interpolation-filters="sRGB">
<feFlood flood-opacity="0" result="BackgroundImageFix"/>
<feColorMatrix in="SourceAlpha" type="matrix" values="0 0 0 0 0 0 0 0 0 0 0 0 0 0 0 0 0 0 127 0" result="hardAlpha"/>
<feOffset dy="2"/>
<feGaussianBlur stdDeviation="5"/>
<feColorMatrix type="matrix" values="0 0 0 0 0 0 0 0 0 0 0 0 0 0 0 0 0 0 0.6 0"/>
<feBlend mode="normal" in2="BackgroundImageFix" result="effect1_dropShadow_600_7267"/>
<feBlend mode="normal" in="SourceGraphic" in2="effect1_dropShadow_600_7267" result="shape"/>
</filter>
</defs>
</svg>
