<svg width="68" height="81" viewBox="0 0 68 81" fill="none" xmlns="http://www.w3.org/2000/svg">
<path d="M32.3996 37.8008H18.0996V47.3008H32.3996V37.8008Z" fill="#2FA6D0"/>
<path d="M32.3996 25.1016H18.0996V34.6016H32.3996V25.1016Z" fill="#2FA6D0"/>
<path d="M32.3996 50.8008H18.0996V80.3008H32.3996V50.8008Z" fill="#2FA6D0"/>
<path d="M14.3 37.8008H0V47.3008H14.3V37.8008Z" fill="#2FA6D0"/>
<path d="M14.3 25.1016H0V34.6016H14.3V25.1016Z" fill="#2FA6D0"/>
<path d="M14.3 12.6016H0V22.1016H14.3V12.6016Z" fill="#2FA6D0"/>
<path d="M14.3 0H0V9.5H14.3V0Z" fill="#2FA6D0"/>
<path d="M14.3 50.8008H0V80.3008H14.3V50.8008Z" fill="#2FA6D0"/>
<path d="M50.8996 50.6016H36.5996V60.1016H50.8996V50.6016Z" fill="#2FA6D0"/>
<path d="M50.8996 38H36.5996V47.5H50.8996V38Z" fill="#2FA6D0"/>
<path d="M67.2004 70.8984H52.9004V80.3984H67.2004V70.8984Z" fill="#2FA6D0"/>
<path d="M50.8996 63.6992H36.5996V80.3993H50.8996V63.6992Z" fill="#2FA6D0"/>
</svg>
