<svg width="165" height="80" viewBox="0 0 165 80" fill="none" xmlns="http://www.w3.org/2000/svg">
<path d="M157.31 70.96L151.57 72.96L145.04 72.16L140.57 74.22L134.95 73.53L132.2 69.86L126.58 69.4L122.58 66.77L117.99 70.09L111.11 68.72L106.41 70.21L100.31 68.55L90.5701 67.75L87.3101 70.5L77.6801 73.25C77.6801 73.25 72.5201 75.66 69.8801 75.55C67.2401 75.44 62.7701 71.3 62.7701 71.3L58.3101 71.99L55.1101 69.89L49.9501 70.89L46.9501 69.05L41.4501 69.97L35.0101 69.71L31.7101 74.15L26.9101 72.22L21.6301 71.22L15.9801 71.56L13.1501 68.89L8.67006 68.29L5.53006 71.89L0.310059 76.89L5.53006 75.82L8.67006 72.28L13.1501 72.87L15.9801 75.51L21.6301 75.17L26.9101 76.17L32.7601 77.89L36.0801 73.42L41.4701 73.87L46.9701 72.96L49.9701 74.79L55.1101 73.89L58.3101 75.89L62.7801 75.2C62.7801 75.2 67.2601 79.33 69.8901 79.44C72.5201 79.55 77.6901 77.15 77.6901 77.15L87.3101 74.44L90.5201 71.69L100.26 72.49L106.34 74.09L111.04 72.6L117.92 73.98L122.51 70.65L126.51 73.29L132.13 73.75L134.88 77.42L140.5 78.11L144.97 76.04L151.5 76.85L157.31 74.89L161.24 77.64L164.53 76.84L161.24 73.7L157.31 70.96Z" fill="#373737"/>
<path d="M9.88006 9.10995L13.6701 11.86L17.6201 12.55L22.8401 15.3L27.4201 13.23L33.6201 13.75L39.4101 15.53L46.6901 13.58L51.1001 14.04L58.0901 11.63L60.8401 9.21995L64.6301 10.08L69.3301 6.86995L70.7001 4.63995L76.5001 8.24995L79.4801 5.31995L89.3901 8.06995L92.7201 13.63L98.1101 15.7L102.29 14.09L109.69 18.16L122.81 21.49L127.06 17.13L132.79 14.67L136.51 14.78L140.99 9.67995L145.46 9.90995L150.44 12.03L154.4 10.43L158.01 11.17L160.35 11.87L164.49 5.06995L160.35 8.12995L158.01 7.42995L154.4 6.67995L150.44 8.27995L145.46 6.15995L140.99 5.92995L136.51 11.04L132.79 10.92L127.06 13.39L122.81 17.74L109.69 14.42L102.29 10.35L98.1101 11.95L92.7201 9.88995L89.3901 4.32995L79.4801 1.57995L76.5001 4.49995L70.7001 0.889954L69.3301 3.12995L64.6301 6.33995L60.8401 5.47995L58.0901 7.87995L51.1001 10.29L46.6901 9.82995L39.4101 11.78L33.6201 10.01L27.4201 9.48995L22.8401 11.55L17.6201 8.79995L13.6701 8.10995L9.88006 5.35995L5.24006 6.61995L0.310059 5.06995L4.96006 10.07L9.88006 9.10995Z" fill="#373737"/>
<path d="M160.31 11.89L157.97 11.19L154.36 10.45L150.36 12.05L145.36 9.92995L140.89 9.69995L136.41 14.8L132.69 14.69L126.96 17.15L122.81 21.49L109.69 18.16L102.31 14.09L98.1101 15.7L92.7201 13.64L89.3901 8.06995L79.4801 5.31995L76.4801 8.24995L70.7001 4.63995L69.3101 6.88995L64.6101 10.1L60.8301 9.23995L58.0701 11.65L51.0701 14.06L46.6601 13.6L39.3801 15.6L33.5901 13.82L27.3901 13.3L22.8101 15.37L17.5901 12.62L13.6701 11.89L9.88006 9.10995L4.96006 10.06L0.310059 5.06995V76.89L5.53006 71.89L8.67006 68.35L13.1501 68.95L15.9801 71.58L21.6301 71.24L26.9101 72.24L31.7101 74.17L35.0301 69.69L41.4701 69.95L46.9701 69.03L49.9701 70.87L55.1101 69.89L58.3101 71.99L62.7801 71.3C62.7801 71.3 67.2601 75.43 69.8901 75.55C72.5201 75.67 77.6901 73.25 77.6901 73.25L87.3101 70.5L90.5201 67.75L100.26 68.55L106.34 70.16L111.04 68.67L117.92 70.04L122.51 66.72L126.51 69.35L132.13 69.81L134.88 73.4799L140.5 74.17L144.97 72.11L151.5 72.91L157.24 70.91L161.17 73.66L164.49 76.89V5.06995L160.31 11.89Z" fill="#2FA6D0"/>
</svg>
