<svg width="250" height="162" viewBox="0 0 250 162" fill="none" xmlns="http://www.w3.org/2000/svg">
<g clip-path="url(#clip0_616_2453)">
<path d="M10.6645 38V24.2545H15.3089C16.3873 24.2545 17.2688 24.4492 17.9533 24.8385C18.6424 25.2233 19.1525 25.7445 19.4836 26.4023C19.8147 27.06 19.9803 27.7938 19.9803 28.6037C19.9803 29.4136 19.8147 30.1496 19.4836 30.8118C19.157 31.474 18.6513 32.002 17.9668 32.3958C17.2822 32.785 16.4052 32.9797 15.3358 32.9797H12.0068V31.5031H15.2821C16.0204 31.5031 16.6132 31.3756 17.0607 31.1206C17.5081 30.8655 17.8325 30.521 18.0339 30.087C18.2397 29.6485 18.3426 29.154 18.3426 28.6037C18.3426 28.0533 18.2397 27.5612 18.0339 27.1271C17.8325 26.6931 17.5059 26.3531 17.054 26.107C16.6021 25.8564 16.0025 25.7311 15.2553 25.7311H12.329V38H10.6645ZM28.1877 33.7851V27.6909H29.7716V38H28.1877V36.255H28.0803C27.8387 36.7785 27.4628 37.2237 26.9527 37.5906C26.4426 37.953 25.7983 38.1342 25.0198 38.1342C24.3754 38.1342 23.8027 37.9933 23.3016 37.7114C22.8004 37.425 22.4067 36.9955 22.1203 36.4228C21.834 35.8456 21.6908 35.1185 21.6908 34.2415V27.6909H23.2747V34.1341C23.2747 34.8858 23.485 35.4854 23.9056 35.9328C24.3307 36.3803 24.8721 36.604 25.5298 36.604C25.9236 36.604 26.3241 36.5033 26.7312 36.302C27.1429 36.1006 27.4874 35.7919 27.7648 35.3757C28.0467 34.9596 28.1877 34.4294 28.1877 33.7851ZM31.9167 38V27.6909H33.447V29.248H33.5544C33.7423 28.7379 34.0823 28.324 34.5745 28.0064C35.0667 27.6887 35.6216 27.5298 36.239 27.5298C36.3554 27.5298 36.5008 27.5321 36.6753 27.5365C36.8498 27.541 36.9818 27.5477 37.0713 27.5567V29.1675C37.0176 29.154 36.8945 29.1339 36.7021 29.1071C36.5142 29.0757 36.3151 29.0601 36.1048 29.0601C35.6037 29.0601 35.1562 29.1652 34.7625 29.3755C34.3732 29.5814 34.0644 29.8677 33.8363 30.2346C33.6125 30.5971 33.5007 31.0109 33.5007 31.4763V38H31.9167ZM42.0671 38.2148C41.1007 38.2148 40.2684 37.9866 39.5704 37.5302C38.8724 37.0738 38.3355 36.4451 37.9596 35.6442C37.5838 34.8433 37.3958 33.9283 37.3958 32.8991C37.3958 31.8521 37.5882 30.9282 37.973 30.1272C38.3623 29.3218 38.9037 28.6932 39.5973 28.2413C40.2953 27.7849 41.1096 27.5567 42.0403 27.5567C42.7652 27.5567 43.4184 27.6909 44.0001 27.9594C44.5818 28.2278 45.0583 28.6037 45.4297 29.0869C45.8011 29.5702 46.0315 30.1339 46.121 30.7783H44.537C44.4162 30.3085 44.1478 29.8923 43.7316 29.5299C43.32 29.163 42.7652 28.9795 42.0671 28.9795C41.4497 28.9795 40.9083 29.1406 40.4429 29.4628C39.9821 29.7805 39.6219 30.2301 39.3624 30.8118C39.1073 31.389 38.9798 32.0669 38.9798 32.8455C38.9798 33.6419 39.1051 34.3354 39.3556 34.9261C39.6107 35.5167 39.9686 35.9753 40.4295 36.302C40.8948 36.6286 41.4407 36.7919 42.0671 36.7919C42.4788 36.7919 42.8524 36.7203 43.188 36.5771C43.5236 36.4339 43.8077 36.2281 44.0404 35.9597C44.273 35.6912 44.4386 35.369 44.537 34.9932H46.121C46.0315 35.6017 45.81 36.1498 45.4565 36.6375C45.1075 37.1208 44.6444 37.5056 44.0672 37.7919C43.4945 38.0738 42.8278 38.2148 42.0671 38.2148ZM49.2645 31.7984V38H47.6805V24.2545H49.2645V29.3017H49.3987C49.6403 28.7692 50.0027 28.3464 50.486 28.0332C50.9737 27.7155 51.6225 27.5567 52.4323 27.5567C53.1348 27.5567 53.7501 27.6976 54.2781 27.9795C54.806 28.2569 55.2154 28.6842 55.5063 29.2614C55.8016 29.8342 55.9493 30.5635 55.9493 31.4494V38H54.3653V31.5568C54.3653 30.738 54.1528 30.1049 53.7277 29.6574C53.3071 29.2055 52.7232 28.9795 51.976 28.9795C51.4569 28.9795 50.9916 29.0892 50.5799 29.3084C50.1728 29.5277 49.8506 29.8476 49.6135 30.2682C49.3808 30.6888 49.2645 31.1989 49.2645 31.7984ZM61.1247 38.2416C60.4714 38.2416 59.8785 38.1186 59.3461 37.8725C58.8136 37.6219 58.3908 37.2617 58.0776 36.7919C57.7644 36.3176 57.6078 35.7449 57.6078 35.0737C57.6078 34.4831 57.7241 34.0043 57.9568 33.6374C58.1894 33.2661 58.5004 32.9752 58.8897 32.7649C59.279 32.5546 59.7085 32.398 60.1783 32.2951C60.6526 32.1877 61.1291 32.1027 61.6079 32.0401C62.2343 31.9595 62.7422 31.8991 63.1315 31.8588C63.5252 31.8141 63.8116 31.7403 63.9905 31.6374C64.174 31.5344 64.2657 31.3555 64.2657 31.1004V31.0467C64.2657 30.3845 64.0845 29.87 63.7221 29.5031C63.3641 29.1362 62.8205 28.9527 62.0911 28.9527C61.335 28.9527 60.7421 29.1183 60.3126 29.4494C59.883 29.7805 59.581 30.1339 59.4065 30.5098L57.9031 29.9729C58.1715 29.3464 58.5295 28.8587 58.9769 28.5097C59.4289 28.1562 59.921 27.9102 60.4535 27.7714C60.9904 27.6283 61.5184 27.5567 62.0375 27.5567C62.3686 27.5567 62.7489 27.5969 63.1784 27.6775C63.6125 27.7536 64.0308 27.9124 64.4335 28.154C64.8407 28.3956 65.1785 28.7603 65.447 29.248C65.7154 29.7357 65.8497 30.389 65.8497 31.2078V38H64.2657V36.604H64.1852C64.0778 36.8277 63.8988 37.0671 63.6482 37.3221C63.3977 37.5772 63.0643 37.7942 62.6482 37.9732C62.2321 38.1521 61.7242 38.2416 61.1247 38.2416ZM61.3663 36.8188C61.9927 36.8188 62.5207 36.6957 62.9502 36.4496C63.3843 36.2035 63.7109 35.8858 63.9301 35.4966C64.1539 35.1073 64.2657 34.6979 64.2657 34.2683V32.8186C64.1986 32.8991 64.0509 32.973 63.8228 33.0401C63.599 33.1027 63.3395 33.1587 63.0442 33.2079C62.7534 33.2526 62.4692 33.2929 62.1918 33.3287C61.9189 33.36 61.6974 33.3869 61.5274 33.4092C61.1157 33.4629 60.7309 33.5502 60.373 33.671C60.0195 33.7873 59.7331 33.9641 59.5139 34.2012C59.2991 34.4339 59.1917 34.7516 59.1917 35.1543C59.1917 35.7046 59.3953 36.1207 59.8025 36.4026C60.2141 36.68 60.7354 36.8188 61.3663 36.8188ZM75.287 29.9997L73.8641 30.4024C73.7746 30.1653 73.6426 29.9348 73.4681 29.7111C73.2981 29.4829 73.0654 29.295 72.7701 29.1473C72.4748 28.9997 72.0967 28.9259 71.6358 28.9259C71.005 28.9259 70.4792 29.0713 70.0586 29.3621C69.6425 29.6485 69.4344 30.0131 69.4344 30.4561C69.4344 30.8499 69.5776 31.1608 69.864 31.389C70.1503 31.6172 70.5978 31.8074 71.2063 31.9595L72.7366 32.3354C73.6583 32.5591 74.3451 32.9014 74.797 33.3623C75.249 33.8186 75.4749 34.407 75.4749 35.1274C75.4749 35.718 75.3049 36.246 74.9648 36.7114C74.6292 37.1767 74.1594 37.5436 73.5554 37.8121C72.9513 38.0805 72.2488 38.2148 71.4479 38.2148C70.3964 38.2148 69.5262 37.9866 68.8371 37.5302C68.148 37.0738 67.7118 36.4071 67.5283 35.5301L69.0317 35.1543C69.1749 35.7091 69.4456 36.1252 69.8438 36.4026C70.2465 36.68 70.7723 36.8188 71.4211 36.8188C72.1594 36.8188 72.7455 36.6621 73.1795 36.3489C73.618 36.0312 73.8373 35.6509 73.8373 35.208C73.8373 34.85 73.712 34.5502 73.4614 34.3086C73.2108 34.0625 72.826 33.879 72.307 33.7582L70.5888 33.3555C69.6447 33.1318 68.9512 32.785 68.5082 32.3152C68.0697 31.8409 67.8505 31.2481 67.8505 30.5366C67.8505 29.955 68.0138 29.4404 68.3404 28.993C68.6715 28.5455 69.1212 28.1943 69.6895 27.9392C70.2622 27.6842 70.911 27.5567 71.6358 27.5567C72.656 27.5567 73.4569 27.7804 74.0386 28.2278C74.6248 28.6753 75.0409 29.2659 75.287 29.9997ZM81.4255 38.2148C80.4322 38.2148 79.5754 37.9955 78.855 37.557C78.1391 37.1141 77.5865 36.4966 77.1972 35.7046C76.8124 34.9082 76.62 33.982 76.62 32.926C76.62 31.87 76.8124 30.9393 77.1972 30.1339C77.5865 29.3241 78.1279 28.6932 78.8214 28.2413C79.5194 27.7849 80.3338 27.5567 81.2644 27.5567C81.8014 27.5567 82.3316 27.6462 82.8551 27.8251C83.3786 28.0041 83.8551 28.295 84.2847 28.6977C84.7142 29.0959 85.0565 29.6239 85.3116 30.2816C85.5666 30.9393 85.6941 31.7492 85.6941 32.7112V33.3824H77.7475V32.0132H84.0833C84.0833 31.4315 83.967 30.9125 83.7343 30.4561C83.5061 29.9997 83.1795 29.6395 82.7544 29.3755C82.3338 29.1115 81.8372 28.9795 81.2644 28.9795C80.6336 28.9795 80.0877 29.1362 79.6268 29.4494C79.1704 29.7581 78.8192 30.1608 78.5731 30.6575C78.327 31.1541 78.2039 31.6866 78.2039 32.2548V33.1676C78.2039 33.9462 78.3382 34.6061 78.6066 35.1475C78.8796 35.6845 79.2577 36.0939 79.7409 36.3758C80.2241 36.6532 80.7857 36.7919 81.4255 36.7919C81.8417 36.7919 82.2175 36.7337 82.5531 36.6174C82.8931 36.4966 83.1862 36.3176 83.4323 36.0805C83.6784 35.8388 83.8686 35.5391 84.0028 35.1811L85.5331 35.6107C85.372 36.1297 85.1013 36.5861 84.7209 36.9798C84.3406 37.3691 83.8708 37.6734 83.3115 37.8926C82.7522 38.1074 82.1235 38.2148 81.4255 38.2148ZM10.6645 42.2545H12.6511L17.3224 53.6643H17.4835L22.1548 42.2545H24.1415V56H22.5844V45.5567H22.4501L18.1547 56H16.6513L12.3558 45.5567H12.2216V56H10.6645V42.2545ZM30.6961 56.2148C29.7655 56.2148 28.9489 55.9933 28.2464 55.5503C27.5484 55.1074 27.0025 54.4876 26.6087 53.6912C26.2195 52.8947 26.0248 51.9641 26.0248 50.8991C26.0248 49.8253 26.2195 48.8879 26.6087 48.087C27.0025 47.286 27.5484 46.6641 28.2464 46.2211C28.9489 45.7782 29.7655 45.5567 30.6961 45.5567C31.6268 45.5567 32.4412 45.7782 33.1392 46.2211C33.8417 46.6641 34.3875 47.286 34.7768 48.087C35.1706 48.8879 35.3674 49.8253 35.3674 50.8991C35.3674 51.9641 35.1706 52.8947 34.7768 53.6912C34.3875 54.4876 33.8417 55.1074 33.1392 55.5503C32.4412 55.9933 31.6268 56.2148 30.6961 56.2148ZM30.6961 54.7919C31.4031 54.7919 31.9848 54.6107 32.4412 54.2483C32.8976 53.8858 33.2354 53.4093 33.4546 52.8187C33.6739 52.2281 33.7835 51.5882 33.7835 50.8991C33.7835 50.2101 33.6739 49.568 33.4546 48.9729C33.2354 48.3778 32.8976 47.8968 32.4412 47.5299C31.9848 47.163 31.4031 46.9795 30.6961 46.9795C29.9892 46.9795 29.4075 47.163 28.9511 47.5299C28.4947 47.8968 28.1569 48.3778 27.9377 48.9729C27.7184 49.568 27.6088 50.2101 27.6088 50.8991C27.6088 51.5882 27.7184 52.2281 27.9377 52.8187C28.1569 53.4093 28.4947 53.8858 28.9511 54.2483C29.4075 54.6107 29.9892 54.7919 30.6961 54.7919ZM40.9221 56.2148C40.063 56.2148 39.3046 55.9978 38.6468 55.5637C37.9891 55.1252 37.4745 54.5078 37.1031 53.7113C36.7318 52.9104 36.5461 51.9641 36.5461 50.8723C36.5461 49.7895 36.7318 48.8499 37.1031 48.0534C37.4745 47.257 37.9913 46.6417 38.6535 46.2077C39.3158 45.7737 40.0809 45.5567 40.9489 45.5567C41.6201 45.5567 42.1503 45.6685 42.5396 45.8923C42.9333 46.1115 43.2331 46.3621 43.4389 46.644C43.6492 46.9214 43.8126 47.1496 43.9289 47.3286H44.0631V42.2545H45.6471V56H44.1168V54.4161H43.9289C43.8126 54.604 43.647 54.8411 43.4322 55.1275C43.2175 55.4094 42.911 55.6622 42.5127 55.8859C42.1145 56.1051 41.5843 56.2148 40.9221 56.2148ZM41.1368 54.7919C41.7722 54.7919 42.3091 54.6263 42.7476 54.2952C43.1861 53.9597 43.5195 53.4966 43.7477 52.9059C43.9759 52.3108 44.09 51.624 44.09 50.8455C44.09 50.0759 43.9781 49.4024 43.7544 48.8252C43.5307 48.2436 43.1996 47.7917 42.7611 47.4695C42.3226 47.1429 41.7812 46.9795 41.1368 46.9795C40.4657 46.9795 39.9064 47.1518 39.4589 47.4963C39.016 47.8364 38.6826 48.2995 38.4589 48.8857C38.2397 49.4673 38.13 50.1206 38.13 50.8455C38.13 51.5793 38.2419 52.246 38.4656 52.8455C38.6938 53.4406 39.0294 53.9149 39.4724 54.2684C39.9198 54.6174 40.4746 54.7919 41.1368 54.7919ZM54.5089 51.7851V45.6909H56.0928V56H54.5089V54.255H54.4015C54.1599 54.7785 53.784 55.2237 53.2739 55.5906C52.7638 55.953 52.1195 56.1342 51.341 56.1342C50.6966 56.1342 50.1239 55.9933 49.6228 55.7114C49.1216 55.425 48.7279 54.9955 48.4415 54.4228C48.1552 53.8456 48.012 53.1185 48.012 52.2415V45.6909H49.5959V52.1341C49.5959 52.8858 49.8062 53.4854 50.2268 53.9328C50.6519 54.3803 51.1933 54.604 51.851 54.604C52.2448 54.604 52.6453 54.5033 53.0524 54.302C53.4641 54.1006 53.8086 53.7919 54.086 53.3757C54.3679 52.9596 54.5089 52.4294 54.5089 51.7851ZM59.8219 42.2545V56H58.2379V42.2545H59.8219ZM66.2893 56.2148C65.296 56.2148 64.4391 55.9955 63.7187 55.557C63.0028 55.1141 62.4502 54.4966 62.0609 53.7046C61.6761 52.9082 61.4837 51.982 61.4837 50.926C61.4837 49.87 61.6761 48.9393 62.0609 48.1339C62.4502 47.3241 62.9916 46.6932 63.6852 46.2413C64.3832 45.7849 65.1975 45.5567 66.1282 45.5567C66.6651 45.5567 67.1954 45.6462 67.7189 45.8251C68.2424 46.0041 68.7189 46.295 69.1484 46.6977C69.578 47.0959 69.9203 47.6239 70.1753 48.2816C70.4304 48.9393 70.5579 49.7492 70.5579 50.7112V51.3824H62.6113V50.0132H68.9471C68.9471 49.4315 68.8308 48.9125 68.5981 48.4561C68.3699 47.9997 68.0433 47.6395 67.6182 47.3755C67.1976 47.1115 66.7009 46.9795 66.1282 46.9795C65.4973 46.9795 64.9514 47.1362 64.4906 47.4494C64.0342 47.7581 63.6829 48.1608 63.4368 48.6575C63.1907 49.1541 63.0677 49.6866 63.0677 50.2548V51.1676C63.0677 51.9462 63.2019 52.6061 63.4704 53.1475C63.7433 53.6845 64.1214 54.0939 64.6047 54.3758C65.0879 54.6532 65.6494 54.7919 66.2893 54.7919C66.7054 54.7919 67.0813 54.7337 67.4168 54.6174C67.7569 54.4966 68.05 54.3176 68.2961 54.0805C68.5422 53.8388 68.7323 53.5391 68.8666 53.1811L70.3968 53.6107C70.2357 54.1297 69.965 54.5861 69.5847 54.9798C69.2044 55.3691 68.7346 55.6734 68.1753 55.8926C67.616 56.1074 66.9873 56.2148 66.2893 56.2148Z" fill="#1F2548"/>
<g filter="url(#filter0_d_616_2453)">
<path d="M118.141 89.3515C121.552 89.3515 124.28 86.8958 124.28 83.8261C124.28 80.7565 121.552 78.3008 118.141 78.3008C114.731 78.3008 112.002 80.7565 112.002 83.8261C112.002 86.8958 114.731 89.3515 118.141 89.3515Z" fill="url(#paint0_linear_616_2453)"/>
<path d="M123.052 92.4215C121.688 91.2619 120.119 90.648 118.141 90.7844C112.138 91.3301 109.819 97.06 109 101.494V104.223C109 104.768 109.068 106.405 109.068 106.678C109.068 109.407 114.73 111.112 119.641 111.249C119.027 105.723 120.801 97.4693 123.052 92.3533V92.4215Z" fill="url(#paint1_linear_616_2453)"/>
<path d="M151.702 88.8709C155.044 88.8709 157.773 86.4153 157.773 83.3456C157.773 80.276 155.044 77.8203 151.702 77.8203C148.359 77.8203 145.631 80.276 145.631 83.3456C145.631 86.4153 148.359 88.8709 151.702 88.8709Z" fill="url(#paint2_linear_616_2453)"/>
<path d="M151.634 90.3056C149.656 90.101 148.087 90.7831 146.723 91.9427C148.974 97.0588 150.747 105.313 150.133 110.838C155.045 110.702 160.638 108.996 160.638 106.268C160.638 103.539 160.707 104.358 160.707 103.812V101.083C159.82 96.6495 157.569 90.9195 151.634 90.3738V90.3056Z" fill="url(#paint3_linear_616_2453)"/>
<path d="M134.853 83.5528C139.628 83.5528 143.448 80.0739 143.448 75.7764C143.448 71.4789 139.628 68 134.853 68C130.078 68 126.258 71.4789 126.258 75.7764C126.258 80.0739 130.078 83.5528 134.853 83.5528Z" fill="#69CDF0"/>
<path d="M134.921 85.6016C126.531 86.4201 123.325 94.4012 122.097 100.609V100.813C121.62 103.542 121.074 108.999 123.666 111.386C125.371 112.887 127.895 114.047 130.965 114.593C132.261 114.865 133.693 115.002 135.194 115.002C137.513 115.002 139.696 114.661 141.606 114.047C141.879 114.047 142.22 113.91 142.493 113.842C144.267 113.365 145.563 112.478 146.518 111.386C147.404 110.5 147.95 109.545 148.155 108.521C149.519 104.565 148.564 99.5172 147.336 97.1297C145.426 91.0587 141.538 84.9877 134.99 85.6698L134.921 85.6016Z" fill="#69CDF0"/>
</g>
<g filter="url(#filter1_d_616_2453)">
<path d="M209.317 97.8203V103.868C209.317 107.641 212.371 110.754 216.083 110.754H220.215C223.928 110.754 226.981 107.641 226.981 103.868V97.8203H209.257H209.317ZM215.185 106.144C215.185 106.982 214.526 107.701 213.748 107.701C212.969 107.701 212.311 106.982 212.311 106.144V101.473C212.311 100.635 212.969 99.9161 213.748 99.9161C214.526 99.9161 215.185 100.635 215.185 101.473V106.144ZM219.736 106.144C219.736 106.982 219.077 107.701 218.299 107.701C217.52 107.701 216.862 106.982 216.862 106.144V101.473C216.862 100.635 217.52 99.9161 218.299 99.9161C219.077 99.9161 219.736 100.635 219.736 101.473V106.144ZM224.227 106.144C224.227 106.982 223.568 107.701 222.79 107.701C222.011 107.701 221.353 106.982 221.353 106.144V101.473C221.353 100.635 222.011 99.9161 222.79 99.9161C223.568 99.9161 224.227 100.635 224.227 101.473V106.144Z" fill="url(#paint4_linear_616_2453)"/>
<path d="M224.168 90.4551H220.515C220.754 90.2156 220.874 89.8563 220.874 89.497C220.874 88.6587 220.216 88 219.377 88H216.623C215.784 88 215.126 88.6587 215.126 89.497C215.126 90.3353 215.246 90.2156 215.485 90.4551H211.832C209.737 90.4551 208 91.9521 208 93.7485C208 95.5449 208.299 95.1857 208.778 95.7246H227.222C227.701 95.1857 228 94.5269 228 93.7485C228 91.9521 226.263 90.4551 224.168 90.4551Z" fill="url(#paint5_linear_616_2453)"/>
</g>
<g filter="url(#filter2_d_616_2453)">
<path d="M208.981 136.608L204.487 140.13C203.029 140.981 201.511 141.527 200.418 141.831C200.235 141.831 200.114 141.831 199.932 141.831H196.956C192.643 141.831 193.008 145.84 193.008 150.759C193.008 155.679 192.704 159.688 196.956 159.688H199.932C202.847 159.566 205.094 160.477 206.552 161.449L208.738 163.332C210.257 164.607 211.472 164 211.532 161.996L211.775 138.065C211.775 136.061 210.561 135.393 208.981 136.608Z" fill="url(#paint6_linear_616_2453)"/>
<path d="M220.156 149.79C220.156 152.705 219.124 154.831 217.848 154.588C216.573 154.345 215.54 152.159 215.54 149.79C215.54 147.421 216.573 145.235 217.848 144.992C219.124 144.749 220.156 146.874 220.156 149.79Z" fill="url(#paint7_linear_616_2453)"/>
<path d="M228.174 151.064C228.174 154.222 227.141 156.591 225.866 156.348C224.59 156.044 223.558 153.25 223.558 150.092V149.242C223.558 146.083 224.59 143.229 225.866 142.986C227.141 142.743 228.174 145.112 228.174 148.27V151.064Z" fill="url(#paint8_linear_616_2453)"/>
<path d="M236.13 152.885C236.13 156.043 235.097 158.412 233.822 158.169C232.546 157.865 231.514 155.071 231.514 151.852V147.175C231.514 144.017 232.546 141.223 233.822 140.919C235.097 140.677 236.13 143.045 236.13 146.264V152.885Z" fill="url(#paint9_linear_616_2453)"/>
<path d="M244.087 154.648C244.087 157.806 243.054 160.175 241.779 159.872C240.503 159.568 239.471 156.713 239.471 153.555V145.052C239.471 141.893 240.503 139.1 241.779 138.857C243.054 138.614 244.087 141.043 244.087 144.201V154.648Z" fill="url(#paint10_linear_616_2453)"/>
</g>
<g filter="url(#filter3_d_616_2453)">
<path d="M33.5577 101C33.5577 101 31.1095 101.159 27.8717 106.552C24.6339 111.945 25.0288 115.356 26.6082 116.07C28.1876 116.784 31.5834 115.594 32.1362 117.577C32.6889 119.48 29.6091 126.777 24.9498 129.474C20.2905 132.171 21.4751 129.633 19.027 128.602C16.6579 127.57 12.0775 131.219 9.2346 134.55C6.39165 137.881 8.83976 141.768 12.7093 142.72C16.5789 143.671 24.3181 142.72 33.6366 131.536C43.0342 120.353 41.6127 109.169 39.2435 105.759C36.8744 102.348 34.5052 101 33.4786 101.079L33.5577 101Z" fill="#002D4B"/>
</g>
<g filter="url(#filter4_d_616_2453)">
<path d="M240.353 10H224.797C224.065 10 223.516 10.732 223.15 12.013C222.967 12.379 222.601 12.7452 222.418 13.1112L206.679 48.4314H181.791C179.961 48.4314 178.313 50.2616 178.313 52.4576C178.313 54.6537 179.778 56.4837 181.791 56.4837H209.974C211.621 56.4837 213.085 55.0195 213.451 53.1895C213.451 53.1895 213.451 53.1895 213.451 53.0065L228.64 18.0523H240.17C241.268 18.0523 242 16.2224 242 14.0263C242 11.8302 241.085 10 240.17 10H240.353Z" fill="url(#paint11_linear_616_2453)"/>
<path d="M202.471 46.0508C204.118 46.0508 204.85 46.0507 205.399 45.6847C205.765 45.8677 208.693 39.6455 211.804 31.9592C214.366 25.737 215.464 21.8938 216.196 19.3317C216.196 19.1487 216.196 18.7829 216.379 18.5999C216.379 18.4169 216.379 18.2338 216.379 18.0508C216.379 18.0508 216.379 18.0508 216.379 17.8678C216.379 15.6717 214 14.3906 211.072 14.3906H165.137C164.771 14.3906 164.222 14.3906 163.856 14.3906C163.673 14.3906 163.49 14.3906 163.307 14.3906C159.281 14.7566 158.183 18.2337 158.183 18.2337C158 18.7827 158 19.1489 158 19.5149C158 20.4299 158 21.1618 158.549 21.8938L175.203 44.9526C175.935 46.0507 177.399 46.4168 178.68 46.2338H202.288L202.471 46.0508ZM168.614 22.26H206.497C205.765 24.0901 204.85 26.2861 203.935 28.6652C202.471 32.1423 201.373 35.4364 200.458 37.9985H180.144L168.797 22.26H168.614Z" fill="url(#paint12_linear_616_2453)"/>
<path d="M183.621 58.4961C181.242 58.4961 179.412 60.3263 179.412 62.5224C179.412 64.7184 181.242 66.5484 183.621 66.5484C186 66.5484 187.83 64.7184 187.83 62.5224C187.83 60.3263 186 58.4961 183.621 58.4961Z" fill="url(#paint13_linear_616_2453)"/>
<path d="M207.594 58.8594C205.215 58.8594 203.385 60.6893 203.385 62.8854C203.385 65.0815 205.215 66.9115 207.594 66.9115C209.973 66.9115 211.803 65.0815 211.803 62.8854C211.803 60.6893 209.973 58.8594 207.594 58.8594Z" fill="url(#paint14_linear_616_2453)"/>
</g>
<g filter="url(#filter5_d_616_2453)">
<path d="M128.7 162.6V147.2C128.7 146.9 128.7 146.6 128.5 146.4C128.4 145.7 127.7 145.1 127 145.1H126.2V143.2C126.2 139.2 123 136 119 136C115 136 111.8 139.2 111.8 143.2V145.1H111.5C111.3 145.1 111.1 145 110.9 145C109.8 145 109 146.1 109 147.4V162.5C109 162.9 109 163.3 109.3 163.7C109.6 164.4 110.2 164.8 110.9 164.8C111.6 164.8 111.3 164.8 111.5 164.7H127.1C128.1 164.7 128.8 163.9 128.8 163C128.8 162.1 128.8 162.7 128.8 162.6H128.7ZM114.7 143.8C114.7 141.3 116.5 139.2 118.8 139.2C121.1 139.2 122.9 141.2 122.9 143.8V145H114.8V143.8H114.7ZM112.1 147.9C112.1 147.3 112.6 146.8 113.2 146.8C113.8 146.8 114.3 147.3 114.3 147.9C114.3 148.5 113.8 149 113.2 149C112.6 149 112.1 148.5 112.1 147.9ZM113 153.6L112.7 154.2V153.6H113ZM112.8 156.1L114 153.6H116.3L112.8 160.8V156.1ZM113.5 161.2L117.3 153.5H120.1L116.3 161.2H113.5ZM117.2 161.2L121 153.5H123.7L119.9 161.2H117.2ZM124.6 161.2H123.8L124.6 159.6V161.2ZM124.6 157.8L122.9 161.3H120.7L124.5 153.6H124.6V157.8ZM125.4 147.9C125.4 148.5 124.9 149.1 124.2 149.1C123.5 149.1 123 148.6 123 147.9C123 147.3 123.5 146.7 124.2 146.7C124.9 146.7 125.4 147.2 125.4 147.9Z" fill="url(#paint15_linear_616_2453)"/>
</g>
</g>
<defs>
<filter id="filter0_d_616_2453" x="99" y="65" width="71.7061" height="67" filterUnits="userSpaceOnUse" color-interpolation-filters="sRGB">
<feFlood flood-opacity="0" result="BackgroundImageFix"/>
<feColorMatrix in="SourceAlpha" type="matrix" values="0 0 0 0 0 0 0 0 0 0 0 0 0 0 0 0 0 0 127 0" result="hardAlpha"/>
<feOffset dy="7"/>
<feGaussianBlur stdDeviation="5"/>
<feColorMatrix type="matrix" values="0 0 0 0 0 0 0 0 0 0 0 0 0 0 0 0 0 0 0.8 0"/>
<feBlend mode="normal" in2="BackgroundImageFix" result="effect1_dropShadow_616_2453"/>
<feBlend mode="normal" in="SourceGraphic" in2="effect1_dropShadow_616_2453" result="shape"/>
</filter>
<filter id="filter1_d_616_2453" x="198" y="80" width="40" height="42.7539" filterUnits="userSpaceOnUse" color-interpolation-filters="sRGB">
<feFlood flood-opacity="0" result="BackgroundImageFix"/>
<feColorMatrix in="SourceAlpha" type="matrix" values="0 0 0 0 0 0 0 0 0 0 0 0 0 0 0 0 0 0 127 0" result="hardAlpha"/>
<feOffset dy="2"/>
<feGaussianBlur stdDeviation="5"/>
<feColorMatrix type="matrix" values="0 0 0 0 0 0 0 0 0 0 0 0 0 0 0 0 0 0 0.6 0"/>
<feBlend mode="normal" in2="BackgroundImageFix" result="effect1_dropShadow_616_2453"/>
<feBlend mode="normal" in="SourceGraphic" in2="effect1_dropShadow_616_2453" result="shape"/>
</filter>
<filter id="filter2_d_616_2453" x="183" y="128" width="71.0869" height="48" filterUnits="userSpaceOnUse" color-interpolation-filters="sRGB">
<feFlood flood-opacity="0" result="BackgroundImageFix"/>
<feColorMatrix in="SourceAlpha" type="matrix" values="0 0 0 0 0 0 0 0 0 0 0 0 0 0 0 0 0 0 127 0" result="hardAlpha"/>
<feOffset dy="2"/>
<feGaussianBlur stdDeviation="5"/>
<feColorMatrix type="matrix" values="0 0 0 0 0 0 0 0 0 0 0 0 0 0 0 0 0 0 0.6 0"/>
<feBlend mode="normal" in2="BackgroundImageFix" result="effect1_dropShadow_616_2453"/>
<feBlend mode="normal" in="SourceGraphic" in2="effect1_dropShadow_616_2453" result="shape"/>
</filter>
<filter id="filter3_d_616_2453" x="-2" y="93" width="53" height="62" filterUnits="userSpaceOnUse" color-interpolation-filters="sRGB">
<feFlood flood-opacity="0" result="BackgroundImageFix"/>
<feColorMatrix in="SourceAlpha" type="matrix" values="0 0 0 0 0 0 0 0 0 0 0 0 0 0 0 0 0 0 127 0" result="hardAlpha"/>
<feOffset dy="2"/>
<feGaussianBlur stdDeviation="5"/>
<feColorMatrix type="matrix" values="0 0 0 0 0 0 0 0 0 0 0 0 0 0 0 0 0 0 0.6 0"/>
<feBlend mode="normal" in2="BackgroundImageFix" result="effect1_dropShadow_616_2453"/>
<feBlend mode="normal" in="SourceGraphic" in2="effect1_dropShadow_616_2453" result="shape"/>
</filter>
<filter id="filter4_d_616_2453" x="148" y="2" width="104" height="76.9102" filterUnits="userSpaceOnUse" color-interpolation-filters="sRGB">
<feFlood flood-opacity="0" result="BackgroundImageFix"/>
<feColorMatrix in="SourceAlpha" type="matrix" values="0 0 0 0 0 0 0 0 0 0 0 0 0 0 0 0 0 0 127 0" result="hardAlpha"/>
<feOffset dy="2"/>
<feGaussianBlur stdDeviation="5"/>
<feColorMatrix type="matrix" values="0 0 0 0 0 0 0 0 0 0 0 0 0 0 0 0 0 0 0.6 0"/>
<feBlend mode="normal" in2="BackgroundImageFix" result="effect1_dropShadow_616_2453"/>
<feBlend mode="normal" in="SourceGraphic" in2="effect1_dropShadow_616_2453" result="shape"/>
</filter>
<filter id="filter5_d_616_2453" x="99" y="128" width="39.7998" height="48.8008" filterUnits="userSpaceOnUse" color-interpolation-filters="sRGB">
<feFlood flood-opacity="0" result="BackgroundImageFix"/>
<feColorMatrix in="SourceAlpha" type="matrix" values="0 0 0 0 0 0 0 0 0 0 0 0 0 0 0 0 0 0 127 0" result="hardAlpha"/>
<feOffset dy="2"/>
<feGaussianBlur stdDeviation="5"/>
<feColorMatrix type="matrix" values="0 0 0 0 0 0 0 0 0 0 0 0 0 0 0 0 0 0 0.6 0"/>
<feBlend mode="normal" in2="BackgroundImageFix" result="effect1_dropShadow_616_2453"/>
<feBlend mode="normal" in="SourceGraphic" in2="effect1_dropShadow_616_2453" result="shape"/>
</filter>
<linearGradient id="paint0_linear_616_2453" x1="112.002" y1="83.8261" x2="124.28" y2="83.8261" gradientUnits="userSpaceOnUse">
<stop stop-color="#002D4B"/>
<stop offset="1" stop-color="#002133"/>
</linearGradient>
<linearGradient id="paint1_linear_616_2453" x1="109" y1="101.016" x2="123.052" y2="101.016" gradientUnits="userSpaceOnUse">
<stop stop-color="#002D4B"/>
<stop offset="1" stop-color="#002133"/>
</linearGradient>
<linearGradient id="paint2_linear_616_2453" x1="145.563" y1="83.3456" x2="157.773" y2="83.3456" gradientUnits="userSpaceOnUse">
<stop stop-color="#002D4B"/>
<stop offset="1" stop-color="#002133"/>
</linearGradient>
<linearGradient id="paint3_linear_616_2453" x1="146.791" y1="100.538" x2="160.707" y2="100.538" gradientUnits="userSpaceOnUse">
<stop stop-color="#002D4B"/>
<stop offset="1" stop-color="#002133"/>
</linearGradient>
<linearGradient id="paint4_linear_616_2453" x1="209.317" y1="104.347" x2="227.041" y2="104.347" gradientUnits="userSpaceOnUse">
<stop stop-color="#002D4B"/>
<stop offset="1" stop-color="#002133"/>
</linearGradient>
<linearGradient id="paint5_linear_616_2453" x1="208" y1="91.8323" x2="228" y2="91.8323" gradientUnits="userSpaceOnUse">
<stop stop-color="#002D4B"/>
<stop offset="1" stop-color="#002133"/>
</linearGradient>
<linearGradient id="paint6_linear_616_2453" x1="193.008" y1="149.97" x2="211.775" y2="149.97" gradientUnits="userSpaceOnUse">
<stop stop-color="#002D4B"/>
<stop offset="1" stop-color="#002133"/>
</linearGradient>
<linearGradient id="paint7_linear_616_2453" x1="215.601" y1="149.79" x2="220.156" y2="149.79" gradientUnits="userSpaceOnUse">
<stop stop-color="#002D4B"/>
<stop offset="1" stop-color="#002133"/>
</linearGradient>
<linearGradient id="paint8_linear_616_2453" x1="223.558" y1="149.667" x2="228.174" y2="149.667" gradientUnits="userSpaceOnUse">
<stop stop-color="#002D4B"/>
<stop offset="1" stop-color="#002133"/>
</linearGradient>
<linearGradient id="paint9_linear_616_2453" x1="231.574" y1="149.483" x2="236.13" y2="149.483" gradientUnits="userSpaceOnUse">
<stop stop-color="#002D4B"/>
<stop offset="1" stop-color="#002133"/>
</linearGradient>
<linearGradient id="paint10_linear_616_2453" x1="239.531" y1="149.364" x2="244.087" y2="149.364" gradientUnits="userSpaceOnUse">
<stop stop-color="#002D4B"/>
<stop offset="1" stop-color="#002133"/>
</linearGradient>
<linearGradient id="paint11_linear_616_2453" x1="178.496" y1="33.4248" x2="242.183" y2="33.4248" gradientUnits="userSpaceOnUse">
<stop stop-color="#002D4B"/>
<stop offset="1" stop-color="#002133"/>
</linearGradient>
<linearGradient id="paint12_linear_616_2453" x1="158" y1="30.1292" x2="216.562" y2="30.1292" gradientUnits="userSpaceOnUse">
<stop stop-color="#002D4B"/>
<stop offset="1" stop-color="#002133"/>
</linearGradient>
<linearGradient id="paint13_linear_616_2453" x1="179.229" y1="62.5223" x2="187.83" y2="62.5223" gradientUnits="userSpaceOnUse">
<stop stop-color="#002D4B"/>
<stop offset="1" stop-color="#002133"/>
</linearGradient>
<linearGradient id="paint14_linear_616_2453" x1="203.385" y1="62.8854" x2="211.803" y2="62.8854" gradientUnits="userSpaceOnUse">
<stop stop-color="#002D4B"/>
<stop offset="1" stop-color="#002133"/>
</linearGradient>
<linearGradient id="paint15_linear_616_2453" x1="108.9" y1="150.4" x2="128.8" y2="150.4" gradientUnits="userSpaceOnUse">
<stop stop-color="#002D4B"/>
<stop offset="1" stop-color="#002133"/>
</linearGradient>
<clipPath id="clip0_616_2453">
<rect width="250" height="162" fill="white"/>
</clipPath>
</defs>
</svg>
