<svg width="252" height="162" viewBox="0 0 252 162" fill="none" xmlns="http://www.w3.org/2000/svg">
<path d="M77.7996 82.0015H58.0996V70.1016H77.7996V82.0015ZM59.1996 81.0015H76.7996V71.1016H59.1996V81.0015Z" fill="#2FA6D0" stroke="black" stroke-miterlimit="10"/>
<path d="M41.5996 122.699C35.7996 122.699 31.0996 117.999 31.0996 112.199C31.0996 106.399 35.7996 101.699 41.5996 101.699C47.3996 101.699 52.0996 106.399 52.0996 112.199C52.0996 117.999 47.3996 122.699 41.5996 122.699ZM41.5996 102.699C36.3996 102.699 32.0996 106.999 32.0996 112.199C32.0996 117.399 36.3996 121.699 41.5996 121.699C46.7996 121.699 51.0996 117.399 51.0996 112.199C51.0996 106.999 46.7996 102.699 41.5996 102.699Z" fill="#2FA6D0" stroke="black" stroke-miterlimit="10"/>
<path d="M235.7 88.8992C231.6 88.8992 227.8 87.2991 225 84.4991C222.1 81.5991 220.6 77.7992 220.6 73.7992C220.6 69.7992 222.2 65.8992 225 63.0992C227.9 60.1992 231.7 58.6992 235.7 58.6992C239.7 58.6992 243.6 60.2992 246.4 63.0992C249.3 65.9992 250.8 69.7992 250.8 73.7992C250.8 77.7992 249.2 81.6991 246.4 84.4991C243.5 87.3991 239.7 88.8992 235.7 88.8992ZM235.7 59.5992C231.9 59.5992 228.4 61.0992 225.7 63.6992C223 66.3992 221.6 69.8992 221.6 73.6992C221.6 77.4992 223.1 80.9992 225.7 83.6992C228.4 86.3992 231.9 87.7992 235.7 87.7992C239.5 87.7992 243 86.2992 245.7 83.6992C248.4 80.9992 249.8 77.4992 249.8 73.6992C249.8 69.8992 248.3 66.3992 245.7 63.6992C243 60.9992 239.5 59.5992 235.7 59.5992Z" fill="#2FA6D0" stroke="black" stroke-miterlimit="10"/>
<path d="M118.299 161.001C112.199 161.001 107.199 156.001 107.199 149.901C107.199 143.801 112.199 138.801 118.299 138.801C124.399 138.801 129.399 143.801 129.399 149.901C129.399 156.001 124.399 161.001 118.299 161.001ZM118.299 139.801C112.699 139.801 108.199 144.301 108.199 149.901C108.199 155.501 112.699 160.001 118.299 160.001C123.899 160.001 128.399 155.501 128.399 149.901C128.399 144.301 123.899 139.801 118.299 139.801Z" fill="#2FA6D0" stroke="black" stroke-miterlimit="10"/>
<path d="M108.399 159.699C105.399 159.699 102.899 157.199 102.899 154.199C102.899 151.199 105.399 148.699 108.399 148.699C111.399 148.699 113.899 151.199 113.899 154.199C113.899 157.199 111.399 159.699 108.399 159.699ZM108.399 149.699C105.899 149.699 103.899 151.699 103.899 154.199C103.899 156.699 105.899 158.699 108.399 158.699C110.899 158.699 112.899 156.699 112.899 154.199C112.899 151.699 110.899 149.699 108.399 149.699Z" fill="#2FA6D0" stroke="black" stroke-miterlimit="10"/>
<path d="M210.7 148.099H191V114.398H210.7V148.099ZM192.1 146.998H209.7V115.398H192.1V146.998Z" fill="#2FA6D0" stroke="black" stroke-miterlimit="10"/>
<path d="M50.7 154.398H50.1V153.898H50.7V154.398ZM50.7 153.398H50.1V152.298H50.7V153.398ZM50.7 151.599H50.1V150.498H50.7V151.599ZM50.7 149.898H50.1V148.798H50.7V149.898ZM50.7 148.198H50.1V147.099H50.7V148.198ZM50.7 146.498H50.1V145.398H50.7V146.498ZM50.7 144.798H50.1V143.698H50.7V144.798ZM50.7 142.998H50.1V141.898H50.7V142.998ZM50.7 141.298H50.1V140.198H50.7V141.298ZM50.7 139.599H50.1V138.498H50.7V139.599ZM50.7 137.898H50.1V136.798H50.7V137.898ZM21.3 137.798L21 137.298L22 136.698L22.3 137.198L21.3 137.798ZM22.8 136.898L22.5 136.398L23.5 135.798L23.8 136.298L22.8 136.898ZM50.7 136.198H50.1V135.099H50.7V136.198ZM24.3 136.099L24 135.599L25 134.998L25.3 135.498L24.3 136.099ZM25.8 135.198L25.5 134.698L26.5 134.099L26.8 134.599L25.8 135.198ZM50.7 134.498H50.1V133.398H50.7V134.498ZM27.2 134.398L26.9 133.898L27.9 133.298L28.2 133.798L27.2 134.398ZM28.7 133.498L28.4 132.998L29.4 132.398L29.7 132.898L28.7 133.498ZM50.7 132.698H50.1V131.599H50.7V132.698ZM30.2 132.599L29.9 132.099L30.9 131.498L31.2 131.998L30.2 132.599ZM31.7 131.798L31.4 131.298L32.4 130.698L32.7 131.198L31.7 131.798ZM50.7 130.998H50.1V129.898H50.7V130.998ZM33.2 130.898L32.9 130.398L33.9 129.798L34.2 130.298L33.2 130.898ZM34.7 130.099L34.4 129.599L35.4 128.998L35.7 129.498L34.7 130.099ZM50.7 129.298H50.1V128.198H50.7V129.298ZM36.2 129.198L35.9 128.698L36.9 128.099L37.2 128.599L36.2 129.198ZM37.7 128.298L37.4 127.798L38.4 127.198L38.7 127.698L37.7 128.298ZM50.7 127.599H50.1V126.498H50.7V127.599ZM39.1 127.498L38.8 126.998L39.8 126.398L40.1 126.898L39.1 127.498ZM40.6 126.599L40.3 126.099L41.3 125.498L41.6 125.998L40.6 126.599ZM50.7 125.898H50.1V124.798H50.7V125.898ZM42.1 125.798L41.8 125.298L42.8 124.698L43.1 125.198L42.1 125.798ZM43.6 124.898L43.3 124.398L44.3 123.798L44.6 124.298L43.6 124.898ZM50.7 124.099H50.1V122.998H50.7V124.099ZM45.1 124.099L44.8 123.599L45.8 122.998L46.1 123.498L45.1 124.099ZM46.6 123.198L46.3 122.698L47.3 122.099L47.6 122.599L46.6 123.198ZM50.7 122.398H50.1V121.298H50.7V122.398ZM48.1 122.298L47.8 121.798L48.8 121.198L49.1 121.698L48.1 122.298ZM49.6 121.498L49.3 120.998L50.3 120.398L50.7 120.599H50.4V120.798C50.5 120.798 49.6 121.398 49.6 121.398V121.498Z" fill="#2FA6D0" stroke="black" stroke-miterlimit="10"/>
<path d="M37.9196 77.3446L34.5273 80.5977L34.9426 81.0307L38.3349 77.7776L37.9196 77.3446Z" fill="#2FA6D0" stroke="black" stroke-miterlimit="10"/>
<path d="M37.1155 88.2184L37.0674 88.8164L47.5336 89.6585L47.5817 89.0605L37.1155 88.2184Z" fill="#2FA6D0" stroke="black" stroke-miterlimit="10"/>
<path d="M115 128.599C108.6 128.599 102.3 127.298 96.5 124.898C90.8 122.498 85.7 119.098 81.4 114.698C77 110.298 73.6 105.199 71.2 99.5985C68.7 93.6985 67.5 87.4985 67.5 81.0985C67.5 74.6985 68.8 68.3985 71.2 62.5985C73.6 56.8985 77 51.7984 81.4 47.4984L82.2 48.2985C77.9 52.5985 74.6 57.4985 72.2 63.0985C69.8 68.7985 68.5 74.8985 68.5 81.1985C68.5 87.4985 69.7 93.5985 72.2 99.2985C74.5 104.798 77.9 109.799 82.2 114.099C86.5 118.399 91.4 121.699 97 124.099C102.7 126.499 108.8 127.798 115.1 127.798C121.4 127.798 127.5 126.599 133.2 124.099C138.7 121.799 143.7 118.399 148 114.099C152.3 109.799 155.6 104.898 158 99.2985C160.4 93.5985 161.7 87.4985 161.7 81.1985C161.7 74.8985 160.5 68.7985 158 63.0985C155.7 57.5985 152.3 52.5985 148 48.2985C143.7 43.9985 138.8 40.6985 133.2 38.2985C127.5 35.8985 121.4 34.5985 115.1 34.5985C108.8 34.5985 102.8 35.7985 97.1 38.1985L96.7 37.0985C102.5 34.5985 108.7 33.3984 115.1 33.3984C121.5 33.3984 127.8 34.6985 133.6 37.0985C139.3 39.4985 144.4 42.8985 148.7 47.2985C153.1 51.6985 156.5 56.7984 158.9 62.3984C161.4 68.2984 162.6 74.4984 162.6 80.8984C162.6 87.2984 161.3 93.5984 158.9 99.3984C156.5 105.098 153.1 110.198 148.7 114.498C144.3 118.898 139.2 122.298 133.6 124.698C127.7 127.198 121.5 128.398 115.1 128.398L115 128.599Z" fill="#2FA6D0" stroke="black" stroke-miterlimit="10"/>
<path d="M114.999 131.299C112.899 131.299 110.699 131.199 108.599 130.899C102.099 130.099 95.9994 127.999 90.2994 124.799C84.5994 121.599 79.6994 117.399 75.5994 112.299C71.3994 106.999 68.3994 100.999 66.4994 94.4991C64.6994 87.9991 64.1994 81.1992 65.0994 74.5992C65.8994 68.0992 67.9994 61.9992 71.1994 56.2992C74.3994 50.5992 78.5994 45.6992 83.6994 41.5992C88.9994 37.3992 94.9994 34.3991 101.499 32.4991C105.499 31.3991 109.599 30.7992 113.699 30.6992V31.7992C109.699 31.8992 105.699 32.4992 101.799 33.5992C95.3994 35.3992 89.4995 38.3991 84.3995 42.4991C79.3995 46.4991 75.2994 51.2992 72.1994 56.8992C69.0994 62.4992 67.0994 68.4992 66.1994 74.7992C65.3994 81.2992 65.7994 87.8992 67.5994 94.2992C69.3994 100.699 72.3994 106.599 76.4994 111.699C80.4994 116.699 85.2995 120.799 90.8995 123.899C96.4995 126.999 102.499 128.999 108.799 129.899C110.899 130.199 112.999 130.299 115.099 130.299C119.499 130.299 123.999 129.699 128.299 128.499C135.099 126.599 141.299 123.399 146.699 118.899C149.299 116.699 151.599 114.299 153.699 111.699C155.799 109.099 157.599 106.199 159.099 103.199L160.099 103.699C158.599 106.799 156.699 109.699 154.599 112.399C152.499 115.099 149.999 117.599 147.399 119.799C141.899 124.399 135.599 127.699 128.599 129.699C124.199 130.899 119.599 131.599 115.099 131.599L114.999 131.299Z" fill="#2FA6D0" stroke="black" stroke-miterlimit="10"/>
<path d="M114.9 134.198C113.8 134.198 112.8 134.198 111.7 134.198C105.5 133.798 99.4996 132.398 93.7996 129.998C87.9996 127.498 82.6996 124.098 78.0996 119.698L78.8997 118.898C83.3997 123.098 88.5996 126.498 94.2996 128.998C99.8996 131.398 105.8 132.799 111.8 133.099C117.9 133.499 123.9 132.798 129.8 130.998C135.8 129.198 141.5 126.398 146.5 122.498C152.1 118.198 156.8 112.998 160.3 106.898C163.7 100.998 165.9 94.5984 166.8 87.8984C167.7 81.1984 167.4 74.3984 165.7 67.8984C164 61.0984 160.9 54.7985 156.7 49.1985C152.4 43.4985 147.1 38.8984 141 35.3984C135.1 31.9984 128.6 29.7984 121.9 28.9984L122.1 27.8984C129 28.7984 135.6 30.9984 141.7 34.4984C148 38.0984 153.4 42.7985 157.8 48.5985C162.2 54.3985 165.3 60.7985 167 67.6985C168.7 74.3985 169.1 81.2985 168.1 88.1985C167.2 95.0985 164.9 101.599 161.5 107.599C157.9 113.799 153.2 119.198 147.4 123.498C142.2 127.398 136.5 130.298 130.3 132.198C125.4 133.698 120.3 134.398 115.1 134.398L114.9 134.198Z" fill="#2FA6D0" stroke="black" stroke-miterlimit="10"/>
<path d="M60.7 18.7008H41V6.80078H60.7V18.7008ZM42.1 17.7008H59.7V7.80078H42.1V17.7008Z" fill="#2FA6D0" stroke="black" stroke-miterlimit="10"/>
<path d="M199.499 143.199H180.899V154.899H199.499V143.199Z" fill="#2FA6D0" stroke="black" stroke-miterlimit="10"/>
<path d="M183.5 3.10156H138.1V25.8015H183.5V3.10156Z" fill="#2FA6D0" stroke="black" stroke-miterlimit="10"/>
<path d="M243.599 7.30078H220.899V18.6008H243.599V7.30078Z" fill="#2FA6D0" stroke="black" stroke-miterlimit="10"/>
<path d="M111.1 112.6L109.3 123.1C115.6 124.2 121.8 123.8 127.6 122.3L124.9 112C120.5 113.2 115.9 113.4 111.2 112.6H111.1Z" fill="#2FA6D0" stroke="black" stroke-miterlimit="10"/>
<path d="M85.0994 74.3008C86.8994 65.7008 92.0994 58.6008 98.8994 54.2008L93.0994 45.3008C83.9994 51.3008 77.1994 60.6008 74.7994 72.1008C74.5994 72.8008 74.4994 73.5008 74.3994 74.3008L84.8994 76.0007C84.8994 75.5007 85.0994 74.9008 85.1994 74.4008L85.0994 74.3008Z" fill="#2FA6D0" stroke="black" stroke-miterlimit="10"/>
<path d="M97.2994 106.699L90.8994 115.199C92.0994 116.099 93.3994 116.999 94.7994 117.799L100.199 108.699C99.1994 108.099 98.1994 107.499 97.2994 106.799V106.699Z" fill="#2FA6D0" stroke="black" stroke-miterlimit="10"/>
<path d="M86.3994 92.1016L76.3994 95.8015C78.4994 101.602 81.8994 106.802 86.1994 111.202L93.6994 103.702C90.3994 100.402 87.8994 96.5016 86.2994 92.1016H86.3994Z" fill="#2FA6D0" stroke="black" stroke-miterlimit="10"/>
<path d="M101.399 109.301L96.3994 118.701C97.9994 119.601 99.7994 120.401 101.499 121.001L105.199 111.101C103.899 110.601 102.599 110.001 101.399 109.401V109.301Z" fill="#2FA6D0" stroke="black" stroke-miterlimit="10"/>
<path d="M103.1 121.5C103.8 121.7 104.6 122 105.4 122.2L108.2 112C107.6 111.8 107.1 111.7 106.5 111.5L103.2 121.6L103.1 121.5Z" fill="#2FA6D0" stroke="black" stroke-miterlimit="10"/>
<path d="M127.6 111.101L131.3 121.101C143.9 116.401 154.1 105.901 157.8 92.1008L147.6 89.3008C144.8 99.7008 137.2 107.601 127.7 111.101H127.6Z" fill="#2FA6D0" stroke="black" stroke-miterlimit="10"/>
<path d="M114.599 48.9008L113.999 38.3008C112.099 38.4008 110.199 38.6007 108.399 39.0007L110.399 49.4008C111.799 49.1008 113.199 49.0008 114.599 48.9008Z" fill="#2FA6D0" stroke="black" stroke-miterlimit="10"/>
<path d="M84.5997 77.2001L74.0997 76C73.5997 80.4 73.7997 84.8001 74.5997 89.1001L84.9998 87.1001C84.3998 83.9001 84.1997 80.6 84.5997 77.3V77.2001Z" fill="#2FA6D0" stroke="black" stroke-miterlimit="10"/>
<path d="M123.2 49.5C132.6 51.5 140.2 57.5 144.5 65.3L153.8 60.2C148 49.8 137.9 41.8 125.4 39.2C122.2 38.5 119 38.2 115.8 38.3L116 48.9C118.4 48.9 120.8 49.1 123.2 49.6V49.5Z" fill="#2FA6D0" stroke="black" stroke-miterlimit="10"/>
<path d="M103.8 51.5007L99.5996 41.8008C97.8996 42.5008 96.1996 43.4008 94.5996 44.4008L100.1 53.5007C101.3 52.8007 102.6 52.1008 103.9 51.6008L103.8 51.5007Z" fill="#2FA6D0" stroke="black" stroke-miterlimit="10"/>
<path d="M85.1994 88.3008L74.8994 90.7008C74.8994 91.1008 75.0994 91.5008 75.1994 91.9008L85.4994 89.2008C85.4994 88.9008 85.2994 88.6008 85.2994 88.3008H85.1994Z" fill="#2FA6D0" stroke="black" stroke-miterlimit="10"/>
<path d="M101.2 41.0007L105 50.9008C106.3 50.4008 107.7 50.0008 109.1 49.6008L106.7 39.3008C104.9 39.7008 103 40.3007 101.3 41.0007H101.2Z" fill="#2FA6D0" stroke="black" stroke-miterlimit="10"/>
<path d="M159.2 80.1992L148.6 80.3992C148.6 82.3992 148.5 84.3992 148.1 86.3992L158.6 88.1992C159.1 85.4992 159.3 82.7992 159.2 80.1992Z" fill="#2FA6D0" stroke="black" stroke-miterlimit="10"/>
<path d="M148.4 77.5007L158.9 76.3008C158.4 71.9008 157.3 67.7008 155.5 63.8008L145.8 68.0007C147.1 71.0007 148 74.2007 148.4 77.5007Z" fill="#2FA6D0" stroke="black" stroke-miterlimit="10"/>
<path d="M193.9 96.0992L191.5 96.9991L192.8 98.0992L184.1 108.399L177.7 103.099L166.6 116.399L167.9 117.499L177.9 105.499L184.2 110.699L184.3 110.799L194.1 99.1992L195.3 100.199L195.8 97.6992L196.3 95.1992L193.9 96.0992Z" fill="#2FA6D0" stroke="black" stroke-miterlimit="10"/>
<path d="M173.2 122.801H168.1V138.001H173.2V122.801Z" fill="#2FA6D0" stroke="black" stroke-miterlimit="10"/>
<path d="M180.2 114.102H175.1V138.102H180.2V114.102Z" fill="#2FA6D0" stroke="black" stroke-miterlimit="10"/>
<path d="M187.299 117.699H182.199V138.099H187.299V117.699Z" fill="#2FA6D0" stroke="black" stroke-miterlimit="10"/>
<path d="M194.4 109.602H189.3V138.102H194.4V109.602Z" fill="#2FA6D0" stroke="black" stroke-miterlimit="10"/>
<path d="M66.5 125.799C66.5 121.399 63.7 117.599 59.9 116.099C62.1 114.399 63.6 111.799 63.6 108.799C63.6 103.799 59.5 99.6992 54.5 99.6992C49.5 99.6992 45.4 103.799 45.4 108.799C45.4 113.799 46.9 114.499 49.1 116.099C45.2 117.599 42.5 121.399 42.5 125.799V132.299H51.9L51.7 131.999L53.1 122.199L51.7 119.099L53.1 115.999H55.9L57.3 119.099L55.9 122.199L57.3 131.999L57.1 132.299H66.5V125.799Z" fill="#2FA6D0" stroke="black" stroke-miterlimit="10"/>
<path d="M55.9002 122.2L57.3002 119.1L55.9002 116H53.1002L51.7002 119.1L53.1002 122.2L51.7002 132L51.9002 132.3L54.3002 136.4H54.7002L57.1002 132.3L57.3002 132L55.9002 122.2Z" fill="#2FA6D0" stroke="black" stroke-miterlimit="10"/>
<path d="M45.7998 21.9C45.7998 21.5 45.7998 21.0001 45.7998 20.6001C45.7998 20.4001 45.7998 20.3001 45.7998 20.1001C45.7998 19.8001 45.6998 19.4001 45.5998 19.1001C45.5998 19.0001 45.5998 18.8001 45.4998 18.7001C45.3998 18.4001 45.2998 18.1 45.0998 17.8C45.0998 17.7 44.9998 17.6 44.8998 17.4C44.7998 17.1 44.5998 16.9001 44.4998 16.6001C44.4998 16.5001 44.3998 16.4 44.2998 16.3C44.0998 16 43.8998 15.8 43.6998 15.5C43.6998 15.5 43.4998 15.3001 43.3998 15.2001C43.1998 15.0001 42.9998 14.8001 42.7998 14.6001C42.7998 14.6001 42.5998 14.4 42.4998 14.3C42.2998 14.1 41.9998 13.9 41.7998 13.8C41.6998 13.8 41.5998 13.6001 41.4998 13.6001C41.2998 13.4001 40.9998 13.3001 40.6998 13.1001C40.5998 13.1001 40.4998 13 40.2998 12.9C39.9998 12.7 39.6998 12.6 39.2998 12.5C39.1998 12.5 38.9998 12.5 38.8998 12.4C38.5998 12.3 38.2998 12.2001 37.8998 12.1001C37.6998 12.1001 37.5998 12.1001 37.3998 12.1001C36.9998 12.1001 36.6998 12.1 36.2998 12C36.1998 12 35.9998 12 35.8998 12C35.7998 12 35.6998 12.0001 35.6998 12.2001V21.9L34.9998 22.4L33.0998 23.7001L28.8998 26.7001L27.7998 27.5C27.7998 27.5 27.7998 27.5001 27.7998 27.6001V27.7001C27.9998 27.9001 28.1998 28.2 28.2998 28.4C28.2998 28.4 28.4998 28.6001 28.5998 28.7001C28.7998 28.9001 28.9998 29.1 29.1998 29.3C29.1998 29.3 29.3998 29.5001 29.4998 29.6001C29.7998 29.8001 29.9998 30.0001 30.2998 30.2001C30.3998 30.2001 30.4998 30.3 30.5998 30.4C30.8998 30.6 31.0998 30.7 31.3998 30.8C31.4998 30.8 31.5998 30.9 31.7998 31C32.0998 31.1 32.3998 31.2 32.6998 31.3C32.7998 31.3 32.9998 31.3 33.0998 31.4C33.3998 31.4 33.7998 31.6001 34.0998 31.6001C34.2998 31.6001 34.3998 31.6001 34.5998 31.6001C34.9998 31.6001 35.4998 31.6001 35.8998 31.6001C36.0998 31.6001 36.2998 31.6001 36.3998 31.6001C36.8998 31.6001 37.3998 31.6 37.7998 31.4C37.9998 31.4 38.2998 31.3001 38.4998 31.2001C39.1998 31.0001 39.8998 30.7 40.5998 30.4C41.2998 30 41.8998 29.6001 42.3998 29.1001C42.6998 28.8001 42.9998 28.5001 43.2998 28.2001C43.7998 27.6001 44.1998 27 44.5998 26.4C44.9998 25.7 45.1998 25.1 45.3998 24.3C45.3998 24.1 45.4998 23.8001 45.5998 23.6001C45.5998 23.1001 45.7998 22.7001 45.7998 22.2001C45.7998 22.0001 45.7998 21.8001 45.7998 21.7001V21.9Z" fill="#2FA6D0" stroke="black" stroke-miterlimit="10"/>
<path d="M58.2992 54.6008L60.1992 55.4008L61.6992 52.2008L59.7992 51.4008C59.7992 51.4008 59.2992 50.9008 59.1992 49.6008C59.1992 49.3008 59.1992 49.1008 59.1992 48.8008C59.2992 47.4008 59.9992 46.9008 59.9992 46.9008L61.8992 46.2008L60.6992 42.9008L58.7992 43.6008C58.7992 43.6008 57.9992 43.6008 56.8992 42.6008L56.6992 42.4008C55.6992 41.2008 55.7992 40.4008 55.7992 40.4008L56.5992 38.5007L53.3992 37.0007L52.5992 38.9008C52.5992 38.9008 51.9992 39.5007 50.4992 39.5007C50.3992 39.5007 50.2992 39.5007 50.1992 39.5007C48.7992 39.4007 48.2992 38.7008 48.2992 38.7008L47.5992 36.8008L44.2992 38.0007L44.9992 39.9008C44.9992 39.9008 44.9992 40.7008 43.9992 41.8008L43.7992 42.0007C42.5992 43.0007 41.7992 42.9008 41.7992 42.9008L39.8992 42.1008L38.3992 45.3008L40.2992 46.1008C40.2992 46.1008 40.8992 46.7008 40.8992 48.2008C40.8992 48.3008 40.8992 48.4007 40.8992 48.5007C40.7992 49.9007 40.0992 50.4008 40.0992 50.4008L38.1992 51.1008L39.3992 54.4008L41.2992 53.7008C41.2992 53.7008 42.0992 53.7008 43.1992 54.7008C43.3992 54.9008 43.4992 55.0008 43.6992 55.2008C44.4992 56.2008 44.3992 57.0007 44.3992 57.0007L43.5992 58.9008L46.7992 60.4008L47.5992 58.5007C47.5992 58.5007 48.2992 57.8008 49.9992 57.9008C51.4992 58.0008 51.9992 58.7008 51.9992 58.7008L52.6992 60.6008L55.9992 59.4008L55.2992 57.5007C55.2992 57.5007 55.2992 56.5008 56.5992 55.3008C57.6992 54.4008 58.4992 54.5007 58.4992 54.5007L58.2992 54.6008ZM47.6992 53.8008C44.8992 52.5008 43.6992 49.3007 44.9992 46.5007C46.2992 43.7007 49.4992 42.5008 52.2992 43.8008C55.0992 45.1008 56.2992 48.3008 54.9992 51.1008C53.6992 53.9008 50.4992 55.1008 47.6992 53.8008Z" fill="#2FA6D0" stroke="black" stroke-miterlimit="10"/>
<path d="M66.6994 41L67.4994 41.7001L68.6994 40.4L67.8994 39.7001C67.8994 39.7001 67.6994 39.4001 67.8994 38.7001C67.8994 38.6001 67.9994 38.4 67.9994 38.3C68.2994 37.6 68.6994 37.5 68.6994 37.5H69.7994V35.6001H68.6994C68.6994 35.6001 68.2994 35.6 67.8994 34.8C67.8994 34.8 67.8994 34.7001 67.8994 34.6001C67.5994 33.9001 67.7994 33.5 67.7994 33.5L68.4994 32.7001L67.1994 31.5L66.4994 32.3C66.4994 32.3 66.0994 32.5 65.3994 32.3C65.3994 32.3 65.2994 32.3 65.1994 32.3C64.4994 32 64.3994 31.6001 64.3994 31.6001V30.5H62.4994V31.6001C62.4994 31.6001 62.4994 32 61.6994 32.4C61.6994 32.4 61.5994 32.4 61.4994 32.4C60.7994 32.7 60.3994 32.5 60.3994 32.5L59.5994 31.8L58.3994 33.1001L59.1994 33.8C59.1994 33.8 59.3994 34.2 59.1994 34.9C59.1994 34.9 59.1994 35.0001 59.1994 35.1001C58.8994 35.8001 58.4994 35.9 58.4994 35.9H57.3994V37.8H58.4994C58.4994 37.8 58.8994 37.8001 59.2994 38.6001C59.2994 38.7001 59.2994 38.8 59.4994 38.9C59.6994 39.5 59.4994 39.9 59.4994 39.9L58.7994 40.7001L60.0994 41.9L60.7994 41.1001C60.7994 41.1001 61.1994 40.9001 62.0994 41.1001C62.7994 41.4001 62.8994 41.8 62.8994 41.8V42.9H64.7994V41.8C64.7994 41.8 64.7994 41.3 65.6994 41C66.3994 40.7 66.6994 41 66.6994 41ZM61.5994 38.8C60.4994 37.7 60.3994 35.9 61.4994 34.8C62.5994 33.7 64.3994 33.6001 65.4994 34.7001C66.5994 35.8001 66.6994 37.6001 65.5994 38.7001C64.4994 39.8001 62.6994 39.9 61.5994 38.8Z" fill="#2FA6D0" stroke="black" stroke-miterlimit="10"/>
<path d="M219.4 11H162.6V48.3H219.4V11Z" fill="#2FA6D0" stroke="black" stroke-miterlimit="10"/>
<path d="M214.5 16.1016H167.5V43.2015H214.5V16.1016Z" fill="#2FA6D0" stroke="black" stroke-miterlimit="10"/>
<path d="M193.7 40.8015L190.3 20.8015L186 30.1016H175.8V29.3015H185.4L190.7 18.1016L193.9 37.0015L196.5 26.9015H206.2V27.7015H197.1L193.7 40.8015Z" fill="#2FA6D0" stroke="black" stroke-miterlimit="10"/>
<path d="M199.4 48.3008H182.5V53.1008H199.4V48.3008Z" fill="#2FA6D0" stroke="black" stroke-miterlimit="10"/>
<path d="M204.5 53.1016H177.6V55.7015H204.5V53.1016Z" fill="#2FA6D0" stroke="black" stroke-miterlimit="10"/>
<path d="M216.499 45.3984H165.399V13.8984H216.499V45.3984ZM165.799 45.0985H216.299V14.1985H165.799V45.0985Z" fill="#2FA6D0" stroke="black" stroke-miterlimit="10"/>
<path d="M28.471 93.6118C32.0574 92.9601 34.4363 89.5245 33.7846 85.9381C33.1328 82.3518 29.6972 79.9728 26.1109 80.6246C22.5245 81.2763 20.1455 84.712 20.7973 88.2983C21.449 91.8846 24.8847 94.2636 28.471 93.6118Z" fill="#2FA6D0" stroke="black" stroke-miterlimit="10"/>
<path d="M52.1992 89C52.1992 87.9 51.2992 87 50.1992 87C49.0992 87 48.1992 87.9 48.1992 89C48.1992 90.1 49.0992 91 50.1992 91C51.2992 91 52.1992 90.1 52.1992 89Z" fill="#2FA6D0" stroke="black" stroke-miterlimit="10"/>
<path d="M26.9 97.3V94C23.3 94 20.3 91 20.3 87.4C20.3 83.8 23.3 80.8 26.9 80.8V77.5C31.9 77.5 36.1 81.3001 36.7 86.1001C36.1 81.2001 31.9 77.5 26.9 77.5C21.9 77.5 17 81.9 17 87.4C17 92.9 21.4 97.3 26.9 97.3C32.4 97.3 32.4 96.1001 34.2 94.1001C32.4 96.1001 29.8 97.3 26.9 97.3Z" fill="#2FA6D0"/>
<path d="M26.9 97.3V94C23.3 94 20.3 91 20.3 87.4C20.3 83.8 23.3 80.8 26.9 80.8V77.5M26.9 97.3C21.4 97.3 17 92.9 17 87.4C17 81.9 21.9 77.5 26.9 77.5M26.9 97.3C32.4 97.3 32.4 96.1001 34.2 94.1001C32.4 96.1001 29.8 97.3 26.9 97.3ZM26.9 77.5C31.9 77.5 36.1 81.3001 36.7 86.1001C36.1 81.2001 31.9 77.5 26.9 77.5Z" stroke="black" stroke-miterlimit="10"/>
<path d="M26.8994 77.5V80.8C30.4994 80.8 33.4994 83.8 33.4994 87.4C33.4994 91 30.4994 94 26.8994 94V97.3C29.7994 97.3 32.3994 96.1001 34.1994 94.1001C34.1994 94.1001 34.2994 94 34.3994 93.9C35.8994 92.2 36.7994 89.9 36.7994 87.4C36.7994 84.9 36.7994 86.6001 36.7994 86.1001C36.1994 81.2001 31.9994 77.5 26.9994 77.5H26.8994Z" fill="#2FA6D0" stroke="black" stroke-miterlimit="10"/>
<path d="M52.8992 89C52.8992 87.5 51.6992 86.3 50.1992 86.3V85C47.9992 85 46.1992 86.8 46.1992 89C46.1992 91.2 47.9992 93 50.1992 93V91.7001C51.6992 91.7001 52.8992 90.5 52.8992 89ZM48.1992 89C48.1992 87.9 49.0992 87 50.1992 87C51.2992 87 52.1992 87.9 52.1992 89C52.1992 90.1 51.2992 91 50.1992 91C49.0992 91 48.1992 90.1 48.1992 89Z" fill="#2FA6D0" stroke="black" stroke-miterlimit="10"/>
<path d="M54 87.8008C54 88.0008 54 88.2008 54.1 88.3008C54.1 88.1008 54.1 87.9008 54 87.8008Z" fill="#2FA6D0" stroke="black" stroke-miterlimit="10"/>
<path d="M53.8994 87.4023C53.8994 87.5023 53.8994 87.6024 53.9994 87.8024C53.9994 87.7024 53.9994 87.6023 53.8994 87.4023Z" fill="#2FA6D0" stroke="black" stroke-miterlimit="10"/>
<path d="M54.1996 89.6016C54.1996 90.2016 53.8996 90.7015 53.5996 91.2015C53.8996 90.7015 54.0996 90.2016 54.1996 89.6016Z" fill="#2FA6D0" stroke="black" stroke-miterlimit="10"/>
<path d="M54.1994 88.3015C54.1994 88.1015 54.1994 87.9015 54.0994 87.8015C54.0994 87.7015 54.0994 87.6015 53.9994 87.4015C53.3994 86.1015 51.9994 85.1016 50.3994 85.1016V86.4015C51.8994 86.4015 53.0994 87.6016 53.0994 89.1016C53.0994 90.6016 51.8994 91.8015 50.3994 91.8015V93.1016C51.7994 93.1016 53.0994 92.4015 53.7994 91.3015C54.0994 90.8015 54.2994 90.3015 54.3994 89.7015C54.3994 89.5015 54.3994 89.3016 54.3994 89.1016C54.3994 88.9016 54.3994 88.8015 54.3994 88.7015V88.5015L54.1994 88.3015Z" fill="#2FA6D0" stroke="black" stroke-miterlimit="10"/>
<path d="M33.1998 71.9015C35.0998 71.9015 36.5998 70.4015 36.5998 68.5015C36.5998 66.6015 35.0998 65.1016 33.1998 65.1016C31.2998 65.1016 29.7998 66.6015 29.7998 68.5015C29.7998 70.4015 31.2998 71.9015 33.1998 71.9015Z" fill="#2FA6D0" stroke="black" stroke-miterlimit="10"/>
<path d="M19.1998 102.402C16.7998 102.402 14.7998 104.402 14.7998 106.802C14.7998 109.202 16.7998 111.202 19.1998 111.202C21.5998 111.202 23.5998 109.202 23.5998 106.802C23.5998 104.402 21.5998 102.402 19.1998 102.402Z" fill="#2FA6D0" stroke="black" stroke-miterlimit="10"/>
<path d="M14.5506 74.3901C15.518 74.1614 16.1169 73.1917 15.8882 72.2243C15.6595 71.2568 14.6899 70.658 13.7224 70.8867C12.755 71.1154 12.1561 72.085 12.3848 73.0524C12.6135 74.0199 13.5831 74.6188 14.5506 74.3901Z" fill="#2FA6D0" stroke="black" stroke-miterlimit="10"/>
<path d="M40.0922 77.4997C40.1304 76.5063 39.356 75.6701 38.3626 75.6319C37.3692 75.5938 36.533 76.3681 36.4949 77.3615C36.4567 78.3549 37.231 79.1911 38.2244 79.2293C39.2178 79.2674 40.054 78.4931 40.0922 77.4997Z" fill="#2FA6D0" stroke="black" stroke-miterlimit="10"/>
<path d="M3.59961 86.9023C2.19961 86.9023 1.09961 88.0023 1.09961 89.4023C1.09961 90.8023 2.19961 91.9023 3.59961 91.9023C4.99961 91.9023 6.09961 90.8023 6.09961 89.4023C6.09961 88.0023 4.99961 86.9023 3.59961 86.9023Z" fill="#2FA6D0" stroke="black" stroke-miterlimit="10"/>
<path d="M226.6 126.602H205.1V154.501H226.6V126.602Z" fill="#2FA6D0" stroke="black" stroke-miterlimit="10"/>
<path d="M224 128.801H207.6V136.501H224V128.801Z" fill="#2FA6D0" stroke="black" stroke-miterlimit="10"/>
<path d="M214.599 140.1H212.499V138H210.799V140.1H208.699V141.8H210.799V143.9H212.499V141.8H214.599V140.1Z" fill="#2FA6D0" stroke="black" stroke-miterlimit="10"/>
<path d="M214.399 147.601L213.099 146.301L211.599 147.801L210.199 146.301L208.899 147.601L210.399 149.001L208.899 150.501L210.199 151.701L211.599 150.301L213.099 151.701L214.399 150.501L212.899 149.001L214.399 147.601Z" fill="#2FA6D0" stroke="black" stroke-miterlimit="10"/>
<path d="M223.099 140.102H217.199V141.901H223.099V140.102Z" fill="#2FA6D0" stroke="black" stroke-miterlimit="10"/>
<path d="M221.572 146.227L217.4 150.398L218.673 151.671L222.845 147.499L221.572 146.227Z" fill="#2FA6D0" stroke="black" stroke-miterlimit="10"/>
<path d="M218.999 146.3C219.399 146.7 219.399 147.4 218.999 147.8C218.599 148.2 217.899 148.2 217.499 147.8C217.099 147.4 217.099 146.7 217.499 146.3C217.899 145.9 218.599 145.9 218.999 146.3Z" fill="#2FA6D0" stroke="black" stroke-miterlimit="10"/>
<path d="M222.799 150.198C223.199 150.598 223.199 151.298 222.799 151.698C222.399 152.098 221.699 152.098 221.299 151.698C220.899 151.298 220.899 150.598 221.299 150.198C221.699 149.798 222.399 149.798 222.799 150.198Z" fill="#2FA6D0" stroke="black" stroke-miterlimit="10"/>
<path d="M82.1992 16.5H78.1992V19.1001H82.1992V16.5Z" fill="#2FA6D0" stroke="black" stroke-miterlimit="10"/>
<path d="M82.1992 13H78.1992V15.6001H82.1992V13Z" fill="#2FA6D0" stroke="black" stroke-miterlimit="10"/>
<path d="M82.1992 20.1016H78.1992V28.3015H82.1992V20.1016Z" fill="#2FA6D0" stroke="black" stroke-miterlimit="10"/>
<path d="M77.1992 16.5H73.1992V19.1001H77.1992V16.5Z" fill="#2FA6D0" stroke="black" stroke-miterlimit="10"/>
<path d="M77.1992 13H73.1992V15.6001H77.1992V13Z" fill="#2FA6D0" stroke="black" stroke-miterlimit="10"/>
<path d="M77.1992 9.5H73.1992V12.1001H77.1992V9.5Z" fill="#2FA6D0" stroke="black" stroke-miterlimit="10"/>
<path d="M77.1992 6H73.1992V8.6001H77.1992V6Z" fill="#2FA6D0" stroke="black" stroke-miterlimit="10"/>
<path d="M77.1992 20.1016H73.1992V28.3015H77.1992V20.1016Z" fill="#2FA6D0" stroke="black" stroke-miterlimit="10"/>
<path d="M87.3994 20.1016H83.3994V22.7015H87.3994V20.1016Z" fill="#2FA6D0" stroke="black" stroke-miterlimit="10"/>
<path d="M87.3994 16.6016H83.3994V19.2015H87.3994V16.6016Z" fill="#2FA6D0" stroke="black" stroke-miterlimit="10"/>
<path d="M91.8994 25.6992H87.8994V28.2992H91.8994V25.6992Z" fill="#2FA6D0" stroke="black" stroke-miterlimit="10"/>
<path d="M87.3994 23.6992H83.3994V28.2992H87.3994V23.6992Z" fill="#2FA6D0" stroke="black" stroke-miterlimit="10"/>
<path d="M239.5 41.4984C238.9 40.9984 238.1 40.6984 236.9 40.3984L235.9 40.1985V36.3984C235.9 36.3984 236 36.3984 236.1 36.3984C236.8 36.7984 237.3 37.3985 237.3 38.2985H240.3C240.3 36.6985 239.7 35.4985 238.5 34.6985C237.7 34.0985 236.9 33.7985 235.9 33.5985V31.3984H233.3V33.4984C232 33.6984 230.9 34.0985 230.1 34.7985C229.1 35.6985 228.6 36.7985 228.6 38.0985C228.6 39.3985 229.1 40.5985 230.1 41.2985C230.7 41.6985 231.7 42.0984 233.2 42.3984V46.4984C232.6 46.3984 232.2 46.0985 231.9 45.6985C231.6 45.3985 231.4 44.8985 231.3 44.1985H228.3C228.3 45.7985 228.9 46.9984 230 47.8984C230.8 48.5984 231.9 48.9985 233.2 49.0985V51.2985H235.8V49.1985C237.2 48.9985 238.3 48.5984 239.1 47.8984C240.2 46.9984 240.7 45.8984 240.7 44.4984C240.7 43.0984 240.3 42.0984 239.4 41.3984L239.5 41.4984ZM232.3 39.1985C231.8 38.8985 231.6 38.4984 231.6 37.9984C231.6 37.4984 231.8 36.9985 232.3 36.5985C232.6 36.3985 232.9 36.2985 233.3 36.1985V39.4984C232.8 39.3984 232.5 39.1985 232.3 39.0985V39.1985ZM236.5 46.4984C236.3 46.4984 236.2 46.4985 236 46.5985V43.0985C236.5 43.1985 236.9 43.3985 237.2 43.5985C237.6 43.8985 237.9 44.2985 237.9 44.6985C237.9 45.4985 237.5 46.0984 236.6 46.3984L236.5 46.4984Z" fill="#2FA6D0" stroke="black" stroke-miterlimit="10"/>
<path d="M93.0998 137H89.1998L85.4998 143.4L81.6998 137H77.7998L82.5998 145.1H80.7998V147.7H83.6998V148.2H80.7998V150.8H83.6998V154.2H87.1998V150.8H90.0998V148.2H87.1998V147.7H90.0998V145.1H88.2998L93.0998 137Z" fill="#2FA6D0" stroke="black" stroke-miterlimit="10"/>
<path d="M53.8998 150C53.4998 149.5 52.8998 149.2 52.2998 148.9C53.2998 148.2 53.8998 147 53.8998 145.7C53.8998 144.4 53.8998 145.3 53.8998 145.2C53.3998 145.2 50.8998 145.1 49.9998 143.5C49.0998 145.1 46.5998 145.2 46.0998 145.2C46.0998 145.4 46.0998 145.6 46.0998 145.7C46.0998 147 46.6998 148.2 47.6998 148.9C47.0998 149.1 46.5998 149.5 46.0998 150C45.2998 150.8 44.7998 151.9 44.7998 153.2V156H55.1998V153.2C55.1998 152 54.6998 150.9 53.8998 150Z" fill="#2FA6D0" stroke="black" stroke-miterlimit="10"/>
<path d="M45.5 145.2V148C45.5 148.7 45.7 149.4 46 150C46.4 149.5 47 149.2 47.6 148.9C46.6 148.2 46 147 46 145.7C46 144.4 46 145.3 46 145.2C46.5 145.2 49 145.1 49.9 143.5V141.8V141H49.6C47.3 141 45.5 142.8 45.5 145.1V145.2Z" fill="#2FA6D0" stroke="black" stroke-miterlimit="10"/>
<path d="M50.3004 141.198H49.9004V141.798C49.9004 141.898 49.9004 141.898 49.9004 141.898V143.599C49.9004 143.599 50.5004 144.599 52.2004 145.099C52.2004 145.099 52.3004 145.099 52.4004 145.099C52.4004 145.099 52.6004 145.099 52.7004 145.099C52.7004 145.099 52.7004 145.099 52.8004 145.099C52.9004 145.099 53.0004 145.099 53.2004 145.099C53.4004 145.099 53.5004 145.099 53.7004 145.099C53.7004 145.299 53.7004 145.499 53.7004 145.599C53.7004 146.899 53.1003 147.998 52.1003 148.798C52.7003 148.998 53.2004 149.398 53.7004 149.798C54.0004 149.198 54.2004 148.498 54.2004 147.798V144.998C54.2004 142.698 52.4003 140.898 50.1003 140.898L50.3004 141.198Z" fill="#2FA6D0" stroke="black" stroke-miterlimit="10"/>
<path d="M106.8 1V2.6001H121.5V20.9H122.9V1H106.8Z" fill="#2FA6D0" stroke="black" stroke-miterlimit="10"/>
<path d="M118.299 23.6016H104.199V3.10156H121.099V20.5015L118.299 23.6016Z" fill="#2FA6D0" stroke="black" stroke-miterlimit="10"/>
<path d="M121.1 20.5H118.3V23.6001L121.1 20.5Z" fill="#2FA6D0" stroke="black" stroke-miterlimit="10"/>
<path d="M119.5 5.80078H109.3V6.10083H119.5V5.80078Z" fill="#2FA6D0" stroke="black" stroke-miterlimit="10"/>
<path d="M119.5 6.89844H105.5V7.19849H119.5V6.89844Z" fill="#2FA6D0" stroke="black" stroke-miterlimit="10"/>
<path d="M119.5 8.10156H105.5V8.40149H119.5V8.10156Z" fill="#2FA6D0" stroke="black" stroke-miterlimit="10"/>
<path d="M119.5 15.1992H105.5V15.4991H119.5V15.1992Z" fill="#2FA6D0" stroke="black" stroke-miterlimit="10"/>
<path d="M119.5 16.5H105.5V16.8H119.5V16.5Z" fill="#2FA6D0" stroke="black" stroke-miterlimit="10"/>
<path d="M119.5 17.8008H105.5V18.1008H119.5V17.8008Z" fill="#2FA6D0" stroke="black" stroke-miterlimit="10"/>
<path d="M119.5 19H105.5V19.3H119.5V19Z" fill="#2FA6D0" stroke="black" stroke-miterlimit="10"/>
<path d="M116.7 20.3008H105.5V20.6008H116.7V20.3008Z" fill="#2FA6D0" stroke="black" stroke-miterlimit="10"/>
<path d="M114.4 9.69922H105.5V14.0992H114.4V9.69922Z" fill="#2FA6D0" stroke="black" stroke-miterlimit="10"/>
<path d="M119.199 9.69922H115.199V14.0992H119.199V9.69922Z" fill="#2FA6D0" stroke="black" stroke-miterlimit="10"/>
<path d="M129.499 154.198H115.199L117.599 147.898H127.199L129.499 154.198Z" fill="#2FA6D0" stroke="black" stroke-miterlimit="10"/>
<path d="M144.199 154.198H129.899L132.199 147.898H141.899L144.199 154.198Z" fill="#2FA6D0" stroke="black" stroke-miterlimit="10"/>
<path d="M158.9 154.198H144.6L146.9 147.898H156.6L158.9 154.198Z" fill="#2FA6D0" stroke="black" stroke-miterlimit="10"/>
<path d="M136.8 147.101H122.6L124.9 140.801H134.5L136.8 147.101Z" fill="#2FA6D0" stroke="black" stroke-miterlimit="10"/>
<path d="M151.5 147.101H137.3L139.6 140.801H149.2L151.5 147.101Z" fill="#2FA6D0" stroke="black" stroke-miterlimit="10"/>
<path d="M144.4 140.3H130.1L132.5 134H142.1L144.4 140.3Z" fill="#2FA6D0" stroke="black" stroke-miterlimit="10"/>
<path d="M230.1 104.001C228.7 102.601 226.8 101.801 224.8 101.801C222.8 101.801 220.9 102.601 219.5 104.001C218.1 105.401 217.3 107.301 217.3 109.301C217.3 111.301 218.1 113.201 219.5 114.601C220.9 116.001 222.8 116.801 224.8 116.801C226.8 116.801 228.7 116.001 230.1 114.601C231.5 113.201 232.3 111.301 232.3 109.301C232.3 107.301 231.5 105.401 230.1 104.001ZM225.1 116.201V115.001H224.5V116.201C220.9 116.101 218 113.101 217.8 109.501H219V108.901H217.8C217.9 105.301 220.9 102.401 224.5 102.201V103.401H225.1V102.201C228.7 102.301 231.6 105.301 231.8 108.901H230.6V109.501H231.8C231.7 113.101 228.7 116.001 225.1 116.201Z" fill="#2FA6D0" stroke="black" stroke-miterlimit="10"/>
<path d="M225.1 104.402H224.5V109.602H226.9V109.002H225.1V104.402Z" fill="#2FA6D0" stroke="black" stroke-miterlimit="10"/>
<path d="M140.499 62.3984L133.599 58.3984L126.699 62.3984L133.599 66.3984L140.499 62.3984Z" fill="#2FA6D0" stroke="black" stroke-miterlimit="10"/>
<path d="M126.699 62.3984V106.298L133.599 110.298V66.3984L126.699 62.3984Z" fill="#2FA6D0" stroke="black" stroke-miterlimit="10"/>
<path d="M133.6 66.3984V110.298L140.5 106.298V62.3984L133.6 66.3984Z" fill="#2FA6D0" stroke="black" stroke-miterlimit="10"/>
<path d="M130.1 95L123.2 91L116.3 95L123.2 99L130.1 95Z" fill="#2FA6D0" stroke="black" stroke-miterlimit="10"/>
<path d="M116.3 95V112.7L123.2 116.7V99L116.3 95Z" fill="#2FA6D0" stroke="black" stroke-miterlimit="10"/>
<path d="M123.2 99V116.7L130.1 112.7V95L123.2 99Z" fill="#2FA6D0" stroke="black" stroke-miterlimit="10"/>
<path d="M119.8 80.6992L112.9 76.6992L106 80.6992L112.9 84.6992L119.8 80.6992Z" fill="#2FA6D0" stroke="black" stroke-miterlimit="10"/>
<path d="M106 80.6992V118.999L112.9 122.999V84.6992L106 80.6992Z" fill="#2FA6D0" stroke="black" stroke-miterlimit="10"/>
<path d="M112.9 84.6992V122.999L119.8 118.999V80.6992L112.9 84.6992Z" fill="#2FA6D0" stroke="black" stroke-miterlimit="10"/>
<path d="M109.4 107.599L102.5 103.699L95.5996 107.599L102.5 111.599L109.4 107.599Z" fill="#2FA6D0" stroke="black" stroke-miterlimit="10"/>
<path d="M95.5996 107.598V125.298L102.5 129.298V111.598L95.5996 107.598Z" fill="#2FA6D0" stroke="black" stroke-miterlimit="10"/>
<path d="M102.5 111.598V129.298L109.4 125.298V107.598L102.5 111.598Z" fill="#2FA6D0" stroke="black" stroke-miterlimit="10"/>
<path d="M127.599 39.0985L123.399 42.3984L126.499 43.4984L115.599 67.8984L99.9994 62.2985L85.8994 93.7985L89.0994 94.9984L101.799 66.4984L116.999 71.9984L117.399 72.0985L129.699 44.5985L132.699 45.6985L132.199 40.7985L131.699 35.8984L127.599 39.0985Z" fill="#2FA6D0" stroke="black" stroke-miterlimit="10"/>
<path d="M167.699 82.3015L168.199 81.8015C167.999 81.7015 167.799 81.6016 167.599 81.6016C167.199 81.6016 166.799 81.9015 166.699 82.3015H167.699Z" fill="#2FA6D0" stroke="black" stroke-miterlimit="10"/>
<path d="M212.3 77.1992C212.4 77.5992 212.8 77.7992 213.2 77.7992C213.6 77.7992 213.6 77.7992 213.8 77.5992L213.2 77.1992H212.3Z" fill="#2FA6D0" stroke="black" stroke-miterlimit="10"/>
<path d="M195.8 73.1008V72.5007H196.7C196.6 72.1007 196.2 71.8008 195.8 71.8008C195.4 71.8008 194.8 72.2008 194.8 72.8008C194.8 73.4008 195.2 73.8008 195.8 73.8008C196.4 73.8008 196.6 73.5008 196.7 73.1008H195.8Z" fill="#2FA6D0" stroke="black" stroke-miterlimit="10"/>
<path d="M223.1 73.3008C223.1 73.2008 223.2 73.0008 223.2 72.8008C223.2 72.3008 222.8 71.8008 222.2 71.8008C221.6 71.8008 221.4 72.1007 221.3 72.5007H222.4L223.1 73.2008V73.3008Z" fill="#2FA6D0" stroke="black" stroke-miterlimit="10"/>
<path d="M182.799 82.1016C182.799 82.2016 182.699 82.4016 182.699 82.6016C182.699 83.1016 183.099 83.6016 183.699 83.6016C184.299 83.6016 184.499 83.3015 184.599 82.9015H183.499L182.799 82.2015V82.1016Z" fill="#2FA6D0" stroke="black" stroke-miterlimit="10"/>
<path d="M184.599 82.3015C184.499 81.9015 184.099 81.6016 183.699 81.6016C183.299 81.6016 183.399 81.6015 183.199 81.7015L183.799 82.3015H184.599Z" fill="#2FA6D0" stroke="black" stroke-miterlimit="10"/>
<path d="M221.3 73.1016C221.4 73.5016 221.8 73.8015 222.2 73.8015C222.6 73.8015 222.5 73.8015 222.7 73.7015L222.1 73.1016H221.3Z" fill="#2FA6D0" stroke="black" stroke-miterlimit="10"/>
<path d="M166.699 82.9009C166.799 83.3009 167.199 83.601 167.599 83.601C167.999 83.601 168.599 83.201 168.599 82.601C168.599 82.001 168.599 82.4009 168.599 82.3009L167.999 82.9009H166.799H166.699Z" fill="#2FA6D0" stroke="black" stroke-miterlimit="10"/>
<path d="M214.1 77.1008C214.1 77.0008 214.1 76.9008 214.1 76.8008C214.1 76.3008 213.7 75.8008 213.1 75.8008C212.5 75.8008 212.2 76.1008 212.1 76.6008H213.2L214 77.1008H214.1Z" fill="#2FA6D0" stroke="black" stroke-miterlimit="10"/>
<path d="M238.199 73.1016L237.699 73.6016C237.899 73.7016 238.099 73.8015 238.299 73.8015C238.699 73.8015 239.099 73.5016 239.199 73.1016H238.199Z" fill="#2FA6D0" stroke="black" stroke-miterlimit="10"/>
<path d="M239.2 72.5007C239.1 72.1007 238.7 71.8008 238.3 71.8008C237.9 71.8008 237.3 72.2008 237.3 72.8008C237.3 73.4008 237.3 73.0008 237.3 73.1008L237.9 72.5007H239.1H239.2Z" fill="#2FA6D0" stroke="black" stroke-miterlimit="10"/>
<path d="M202.7 72.5H197.1C197.1 72.6 197.1 72.7 197.1 72.8C197.1 72.9 197.1 73.0001 197.1 73.1001H202.7C202.7 73.1001 202.7 72.9 202.7 72.8C202.7 72.7 202.7 72.6 202.7 72.5Z" fill="#2FA6D0" stroke="black" stroke-miterlimit="10"/>
<path d="M211.9 68.6992H208.8C208.8 68.6992 208.8 68.8991 208.8 68.9991C208.8 69.0991 208.8 69.1992 208.8 69.2992H211.9C211.9 69.2992 211.9 69.0991 211.9 68.9991C211.9 68.8991 211.9 68.7992 211.9 68.6992Z" fill="#2FA6D0" stroke="black" stroke-miterlimit="10"/>
<path d="M206.699 69.5L204.399 71.8C204.599 71.8 204.699 72.0001 204.799 72.2001L207.099 69.9C206.899 69.8 206.799 69.6 206.699 69.5Z" fill="#2FA6D0" stroke="black" stroke-miterlimit="10"/>
<path d="M216.2 71.8015L214 69.6016C213.9 69.8016 213.8 69.9015 213.6 70.0015L215.8 72.2015C215.9 72.0015 216.1 71.9015 216.2 71.8015Z" fill="#2FA6D0" stroke="black" stroke-miterlimit="10"/>
<path d="M226.299 76.5L223.299 73.5C223.199 73.7 223.099 73.8 222.899 73.9L225.899 76.9C225.899 76.7 226.099 76.6 226.299 76.5Z" fill="#2FA6D0" stroke="black" stroke-miterlimit="10"/>
<path d="M223.1 73.3015L222.4 72.6016H221.3C221.3 72.6016 221.3 72.8015 221.3 72.9015C221.3 73.0015 221.3 73.1015 221.3 73.2015H222.1L222.7 73.8015C222.9 73.8015 223 73.6015 223.1 73.4015V73.3015Z" fill="#2FA6D0" stroke="black" stroke-miterlimit="10"/>
<path d="M245.399 72.5H239.499C239.499 72.6 239.499 72.7 239.499 72.8C239.499 72.9 239.499 73.0001 239.499 73.1001H245.399C245.399 73.1001 245.399 72.9 245.399 72.8C245.399 72.7 245.399 72.6 245.399 72.5Z" fill="#2FA6D0" stroke="black" stroke-miterlimit="10"/>
<path d="M220.899 72.5H217.899C217.899 72.5 217.899 72.7 217.899 72.8C217.899 72.9 217.899 73.0001 217.899 73.1001H220.899C220.899 73.1001 220.899 72.9 220.899 72.8C220.899 72.7 220.899 72.6 220.899 72.5Z" fill="#2FA6D0" stroke="black" stroke-miterlimit="10"/>
<path d="M232.399 77.1992H227.999C227.999 77.1992 227.999 77.3991 227.999 77.4991C227.999 77.5991 227.999 77.6992 227.999 77.7992H232.399C232.399 77.7992 232.399 77.5991 232.399 77.4991C232.399 77.3991 232.399 77.2992 232.399 77.1992Z" fill="#2FA6D0" stroke="black" stroke-miterlimit="10"/>
<path d="M239.199 73.1001C239.199 73.1001 239.199 72.9 239.199 72.8C239.199 72.7 239.199 72.6 239.199 72.5H237.999L237.399 73.1001C237.399 73.3001 237.599 73.4001 237.699 73.6001L238.199 73.1001H239.199Z" fill="#2FA6D0" stroke="black" stroke-miterlimit="10"/>
<path d="M237.1 73.4023L234.1 76.4023C234.3 76.4023 234.4 76.6024 234.5 76.8024L237.5 73.8024C237.3 73.7024 237.2 73.5023 237.1 73.4023Z" fill="#2FA6D0" stroke="black" stroke-miterlimit="10"/>
<path d="M195.8 73.1001H196.7C196.7 73.1001 196.7 72.9 196.7 72.8C196.7 72.7 196.7 72.6 196.7 72.5H195.8V73.1001Z" fill="#2FA6D0" stroke="black" stroke-miterlimit="10"/>
<path d="M218.3 79.8008L214.4 77.3008C214.4 77.5008 214.2 77.6008 214.1 77.8008L218 80.3008C218 80.1008 218.2 79.9008 218.3 79.8008Z" fill="#2FA6D0" stroke="black" stroke-miterlimit="10"/>
<path d="M188.5 75.8L185.7 72.5C185.7 72.7 185.5 72.8 185.3 72.9L188.1 76.1001C188.2 75.9001 188.3 75.8001 188.5 75.7001V75.8Z" fill="#2FA6D0" stroke="black" stroke-miterlimit="10"/>
<path d="M183.599 71.6016H173.499C173.499 71.6016 173.499 71.8015 173.499 71.9015C173.499 72.0015 173.499 72.1015 173.499 72.2015H183.599C183.599 72.2015 183.599 72.1015 183.599 72.0015C183.599 71.9015 183.599 71.7016 183.599 71.6016Z" fill="#2FA6D0" stroke="black" stroke-miterlimit="10"/>
<path d="M211.9 76.6016H190.3C190.3 76.6016 190.3 76.7015 190.3 76.8015C190.3 76.9015 190.3 77.1015 190.3 77.2015H212C212 77.1015 212 77.0015 212 76.8015C212 76.6015 212 76.7016 212 76.6016H211.9Z" fill="#2FA6D0" stroke="black" stroke-miterlimit="10"/>
<path d="M214.099 77.1016L213.299 76.6016H212.199C212.199 76.6016 212.199 76.7015 212.199 76.8015C212.199 76.9015 212.199 77.1015 212.199 77.2015H213.099L213.699 77.6016C213.899 77.5016 213.999 77.3016 213.999 77.1016H214.099Z" fill="#2FA6D0" stroke="black" stroke-miterlimit="10"/>
<path d="M171.299 72.4023L166.899 76.7024L166.499 77.2024L161.999 81.5023C162.199 81.5023 162.399 81.7024 162.499 81.8024L171.599 72.9023C171.399 72.8023 171.299 72.6023 171.199 72.4023H171.299Z" fill="#2FA6D0" stroke="black" stroke-miterlimit="10"/>
<path d="M166.999 76.8015L162.799 72.6016C162.799 72.8016 162.599 72.9015 162.399 73.0015L166.499 77.1016L166.899 76.8015H166.999Z" fill="#2FA6D0" stroke="black" stroke-miterlimit="10"/>
<path d="M168.799 82.0015L171.799 79.0015C171.599 79.0015 171.499 78.8016 171.399 78.6016L168.399 81.6016C168.599 81.7016 168.699 81.9015 168.799 82.0015Z" fill="#2FA6D0" stroke="black" stroke-miterlimit="10"/>
<path d="M173.499 78.2015H177.899C177.899 78.2015 177.899 78.0015 177.899 77.9015C177.899 77.8015 177.899 77.7016 177.899 77.6016H173.499C173.499 77.6016 173.499 77.8015 173.499 77.9015C173.499 78.0015 173.499 78.1015 173.499 78.2015Z" fill="#2FA6D0" stroke="black" stroke-miterlimit="10"/>
<path d="M179.6 78.9L182.6 81.9C182.7 81.7 182.8 81.6 183 81.5L180 78.5C180 78.7 179.8 78.8 179.6 78.9Z" fill="#2FA6D0" stroke="black" stroke-miterlimit="10"/>
<path d="M199.2 85.8992L201.5 83.5992C201.3 83.5992 201.2 83.3992 201.1 83.1992L198.8 85.4991C199 85.5991 199.1 85.7992 199.2 85.8992Z" fill="#2FA6D0" stroke="black" stroke-miterlimit="10"/>
<path d="M166.699 82.3008C166.699 82.3008 166.699 82.5008 166.699 82.6008C166.699 82.7008 166.699 82.8008 166.699 82.9008H167.899L168.499 82.3008C168.499 82.1008 168.299 82.0008 168.199 81.8008L167.699 82.3008H166.699Z" fill="#2FA6D0" stroke="black" stroke-miterlimit="10"/>
<path d="M184.999 82.9008H187.999C187.999 82.9008 187.999 82.7008 187.999 82.6008C187.999 82.5008 187.999 82.4008 187.999 82.3008H184.999C184.999 82.3008 184.999 82.5008 184.999 82.6008C184.999 82.7008 184.999 82.8008 184.999 82.9008Z" fill="#2FA6D0" stroke="black" stroke-miterlimit="10"/>
<path d="M189.6 83.5992L191.8 85.7992C191.9 85.5992 192 85.4992 192.2 85.3992L190 83.1992C189.9 83.3992 189.7 83.4992 189.6 83.5992Z" fill="#2FA6D0" stroke="black" stroke-miterlimit="10"/>
<path d="M193.899 86.7015H196.999C196.999 86.7015 196.999 86.5015 196.999 86.4015C196.999 86.3015 196.999 86.2016 196.999 86.1016H193.899C193.899 86.1016 193.899 86.3015 193.899 86.4015C193.899 86.5015 193.899 86.6015 193.899 86.7015Z" fill="#2FA6D0" stroke="black" stroke-miterlimit="10"/>
<path d="M203.1 82.9008H208.9C208.9 82.9008 208.9 82.7008 208.9 82.6008C208.9 82.5008 208.9 82.4008 208.9 82.3008H203.1C203.1 82.3008 203.1 82.5008 203.1 82.6008C203.1 82.7008 203.1 82.8008 203.1 82.9008Z" fill="#2FA6D0" stroke="black" stroke-miterlimit="10"/>
<path d="M160.6 82.3008H158.1C158.1 82.3008 158.1 82.5008 158.1 82.6008C158.1 82.7008 158.1 82.8008 158.1 82.9008H160.7C160.7 82.9008 160.7 82.7008 160.7 82.6008C160.7 82.5008 160.7 82.4008 160.7 82.3008H160.6Z" fill="#2FA6D0" stroke="black" stroke-miterlimit="10"/>
<path d="M162.8 82.9008H166.3C166.3 82.8008 166.3 82.7008 166.3 82.6008C166.3 82.5008 166.3 82.4008 166.3 82.3008H162.8C162.8 82.3008 162.8 82.5008 162.8 82.6008C162.8 82.7008 162.8 82.8008 162.8 82.9008Z" fill="#2FA6D0" stroke="black" stroke-miterlimit="10"/>
<path d="M182.8 82.1016L183.5 82.8015H184.6C184.6 82.8015 184.6 82.6015 184.6 82.5015C184.6 82.4015 184.6 82.3015 184.6 82.2015H183.8L183.2 81.6016C183 81.6016 182.9 81.8015 182.8 82.0015V82.1016Z" fill="#2FA6D0" stroke="black" stroke-miterlimit="10"/>
<path d="M166.3 82.9008C166.4 83.5008 167 83.9008 167.6 83.9008C168.2 83.9008 168.9 83.3008 168.9 82.6008C168.9 81.9008 168.9 82.2007 168.8 82.0007C168.8 81.8007 168.6 81.7008 168.4 81.6008C168.2 81.4008 167.9 81.3008 167.6 81.3008C167 81.3008 166.4 81.8008 166.3 82.4008C166.3 82.4008 166.3 82.6008 166.3 82.7008C166.3 82.8008 166.3 82.9007 166.3 83.0007V82.9008ZM167.6 81.6008C167.8 81.6008 168 81.6008 168.2 81.8008C168.4 81.9008 168.5 82.1008 168.5 82.3008C168.5 82.4008 168.5 82.5008 168.5 82.6008C168.5 83.1008 168.1 83.6008 167.5 83.6008C166.9 83.6008 166.7 83.3008 166.6 82.9008C166.6 82.9008 166.6 82.7008 166.6 82.6008C166.6 82.5008 166.6 82.4008 166.6 82.3008C166.7 81.9008 167.1 81.6008 167.5 81.6008H167.6Z" fill="#2FA6D0" stroke="black" stroke-miterlimit="10"/>
<path d="M171.799 78.9991C171.999 78.9991 172.099 79.0992 172.299 79.0992C172.799 79.0992 173.299 78.6992 173.399 78.1992C173.399 78.1992 173.399 77.9992 173.399 77.8992C173.399 77.7992 173.399 77.6992 173.399 77.5992C173.299 77.0992 172.799 76.6992 172.299 76.6992C171.799 76.6992 171.199 77.1992 171.199 77.7992C171.199 78.3992 171.199 78.1992 171.399 78.3992C171.499 78.5992 171.699 78.6992 171.799 78.7992V78.9991Z" fill="#2FA6D0" stroke="black" stroke-miterlimit="10"/>
<path d="M177.899 78.2008C177.999 78.7008 178.499 79.1008 178.999 79.1008C179.499 79.1008 179.399 79.1008 179.599 78.9008C179.799 78.8008 179.899 78.7007 179.999 78.5007C179.999 78.3007 180.199 78.1008 180.199 77.9008C180.199 77.3008 179.699 76.8008 179.099 76.8008C178.499 76.8008 178.099 77.2008 177.999 77.7008C177.999 77.7008 177.999 77.9007 177.999 78.0007C177.999 78.1007 177.999 78.2008 177.999 78.3008L177.899 78.2008Z" fill="#2FA6D0" stroke="black" stroke-miterlimit="10"/>
<path d="M182.599 81.9008C182.499 82.1008 182.399 82.3008 182.399 82.6008C182.399 83.3008 182.999 83.9008 183.699 83.9008C184.399 83.9008 184.899 83.5008 184.999 82.9008C184.999 82.9008 184.999 82.7008 184.999 82.6008C184.999 82.5008 184.999 82.4008 184.999 82.3008C184.899 81.7008 184.299 81.3008 183.699 81.3008C183.099 81.3008 183.199 81.3007 182.999 81.5007C182.799 81.6007 182.699 81.7008 182.599 81.9008ZM183.699 81.6008C184.099 81.6008 184.499 81.9008 184.599 82.3008C184.599 82.3008 184.599 82.5008 184.599 82.6008C184.599 82.7008 184.599 82.8008 184.599 82.9008C184.499 83.3008 184.099 83.6008 183.699 83.6008C183.299 83.6008 182.699 83.2008 182.699 82.6008C182.699 82.0008 182.699 82.3008 182.799 82.1008C182.799 81.9008 182.999 81.8008 183.199 81.7008C183.299 81.7008 183.499 81.6008 183.699 81.6008Z" fill="#2FA6D0" stroke="black" stroke-miterlimit="10"/>
<path d="M187.999 82.9015C188.099 83.4015 188.599 83.8015 189.099 83.8015C189.599 83.8015 189.499 83.8015 189.599 83.7015C189.799 83.7015 189.899 83.5015 189.999 83.3015C190.099 83.1015 190.199 82.9015 190.199 82.7015C190.199 82.1015 189.699 81.6016 189.099 81.6016C188.499 81.6016 188.099 82.0015 187.999 82.5015C187.999 82.5015 187.999 82.7015 187.999 82.8015C187.999 82.9015 187.999 83.0016 187.999 83.1016V82.9015Z" fill="#2FA6D0" stroke="black" stroke-miterlimit="10"/>
<path d="M191.8 85.8015C191.7 86.0015 191.6 86.2015 191.6 86.4015C191.6 87.0015 192.1 87.5015 192.7 87.5015C193.3 87.5015 193.7 87.1016 193.8 86.6016C193.8 86.6016 193.8 86.4015 193.8 86.3015C193.8 86.2015 193.8 86.1015 193.8 86.0015C193.7 85.5015 193.2 85.1016 192.7 85.1016C192.2 85.1016 192.3 85.1015 192.1 85.2015C191.9 85.2015 191.8 85.4016 191.7 85.6016L191.8 85.8015Z" fill="#2FA6D0" stroke="black" stroke-miterlimit="10"/>
<path d="M196.999 86.7024C197.099 87.2024 197.599 87.6024 198.099 87.6024C198.599 87.6024 199.199 87.1023 199.199 86.5023C199.199 85.9023 199.199 86.1023 199.099 86.0023C199.099 85.8023 198.899 85.7024 198.699 85.6024C198.499 85.5024 198.299 85.4023 198.099 85.4023C197.599 85.4023 197.099 85.8024 196.999 86.3024C196.999 86.3024 196.999 86.5024 196.999 86.6024C196.999 86.7024 196.999 86.8023 196.999 86.9023V86.7024Z" fill="#2FA6D0" stroke="black" stroke-miterlimit="10"/>
<path d="M201.499 83.6024C201.699 83.6024 201.799 83.7024 201.999 83.7024C202.499 83.7024 202.999 83.3023 203.099 82.9023C203.099 82.9023 203.099 82.7024 203.099 82.6024C203.099 82.5024 203.099 82.4024 203.099 82.3024C202.999 81.8024 202.499 81.4023 201.999 81.4023C201.499 81.4023 200.899 81.9023 200.899 82.5023C200.899 83.1023 200.899 82.9024 201.099 83.1024C201.199 83.3024 201.299 83.4023 201.499 83.5023V83.6024Z" fill="#2FA6D0" stroke="black" stroke-miterlimit="10"/>
<path d="M158.099 82.3024C157.999 81.8024 157.499 81.4023 156.999 81.4023C156.499 81.4023 155.899 81.9023 155.899 82.5023C155.899 83.1023 156.399 83.6024 156.999 83.6024C157.599 83.6024 157.999 83.2024 158.099 82.8024C158.099 82.8024 158.099 82.6023 158.099 82.5023C158.099 82.4023 158.099 82.3024 158.099 82.2024V82.3024Z" fill="#2FA6D0" stroke="black" stroke-miterlimit="10"/>
<path d="M208.899 82.9C208.999 83.4 209.499 83.7001 209.999 83.7001C210.499 83.7001 211.099 83.2001 211.099 82.6001C211.099 82.0001 210.599 81.5 209.999 81.5C209.399 81.5 208.999 81.9 208.899 82.4C208.899 82.4 208.899 82.6001 208.899 82.7001C208.899 82.8001 208.899 82.9 208.899 83V82.9Z" fill="#2FA6D0" stroke="black" stroke-miterlimit="10"/>
<path d="M239.499 72.5C239.399 71.9 238.799 71.5 238.199 71.5C237.599 71.5 236.899 72.1 236.899 72.8C236.899 73.5 236.899 73.2 236.999 73.4C236.999 73.6 237.199 73.7 237.399 73.8C237.599 74 237.899 74.1001 238.199 74.1001C238.799 74.1001 239.399 73.6 239.499 73C239.499 73 239.499 72.8001 239.499 72.7001C239.499 72.6001 239.499 72.5 239.499 72.4V72.5ZM238.199 73.8C237.999 73.8 237.799 73.8001 237.599 73.6001C237.399 73.5001 237.299 73.3001 237.299 73.1001C237.299 73.0001 237.299 72.9 237.299 72.8C237.299 72.3 237.699 71.8 238.299 71.8C238.899 71.8 239.099 72.1 239.199 72.5C239.199 72.5 239.199 72.7 239.199 72.8C239.199 72.9 239.199 73.0001 239.199 73.1001C239.099 73.5001 238.699 73.8 238.299 73.8H238.199Z" fill="#2FA6D0" stroke="black" stroke-miterlimit="10"/>
<path d="M233.999 76.5023C233.799 76.5023 233.699 76.4023 233.499 76.4023C232.999 76.4023 232.499 76.8024 232.399 77.3024C232.399 77.3024 232.399 77.5024 232.399 77.6024C232.399 77.7024 232.399 77.8023 232.399 77.9023C232.499 78.4023 232.999 78.8024 233.499 78.8024C233.999 78.8024 234.599 78.3024 234.599 77.7024C234.599 77.1024 234.599 77.3024 234.399 77.1024C234.299 76.9024 234.099 76.8024 233.999 76.7024V76.5023Z" fill="#2FA6D0" stroke="black" stroke-miterlimit="10"/>
<path d="M227.999 77.2008C227.899 76.7008 227.399 76.3008 226.899 76.3008C226.399 76.3008 226.499 76.3007 226.299 76.5007C226.099 76.6007 225.999 76.7008 225.899 76.9008C225.899 77.1008 225.699 77.3007 225.699 77.5007C225.699 78.1007 226.199 78.6008 226.799 78.6008C227.399 78.6008 227.799 78.2008 227.899 77.7008C227.899 77.7008 227.899 77.5008 227.899 77.4008C227.899 77.3008 227.899 77.2008 227.899 77.1008L227.999 77.2008Z" fill="#2FA6D0" stroke="black" stroke-miterlimit="10"/>
<path d="M223.299 73.5C223.399 73.3 223.499 73.1 223.499 72.8C223.499 72.1 222.899 71.5 222.199 71.5C221.499 71.5 220.999 71.9 220.899 72.5C220.899 72.5 220.899 72.7 220.899 72.8C220.899 72.9 220.899 73.0001 220.899 73.1001C220.999 73.7001 221.599 74.1001 222.199 74.1001C222.799 74.1001 222.699 74.1 222.899 73.9C223.099 73.8 223.199 73.7 223.299 73.5ZM222.199 73.8C221.799 73.8 221.399 73.5001 221.299 73.1001C221.299 73.1001 221.299 72.9 221.299 72.8C221.299 72.7 221.299 72.6 221.299 72.5C221.399 72.1 221.799 71.8 222.199 71.8C222.599 71.8 223.199 72.2 223.199 72.8C223.199 73.4 223.199 73.1 223.099 73.3C223.099 73.5 222.899 73.6001 222.699 73.7001C222.599 73.7001 222.399 73.8 222.199 73.8Z" fill="#2FA6D0" stroke="black" stroke-miterlimit="10"/>
<path d="M217.899 72.5015C217.799 72.0015 217.299 71.6016 216.799 71.6016C216.299 71.6016 216.399 71.6015 216.299 71.7015C216.099 71.7015 215.999 71.9016 215.899 72.1016C215.799 72.3016 215.699 72.5015 215.699 72.7015C215.699 73.3015 216.199 73.8015 216.799 73.8015C217.399 73.8015 217.799 73.4015 217.899 72.9015C217.899 72.9015 217.899 72.7016 217.899 72.6016C217.899 72.5016 217.899 72.4015 217.899 72.3015V72.5015Z" fill="#2FA6D0" stroke="black" stroke-miterlimit="10"/>
<path d="M213.999 69.6024C214.099 69.4024 214.199 69.2023 214.199 69.0023C214.199 68.4023 213.699 67.9023 213.099 67.9023C212.499 67.9023 212.099 68.3024 211.999 68.8024C211.999 68.8024 211.999 69.0024 211.999 69.1024C211.999 69.2024 211.999 69.3023 211.999 69.4023C212.099 69.9023 212.599 70.3024 213.099 70.3024C213.599 70.3024 213.499 70.3024 213.699 70.2024C213.899 70.2024 213.999 70.0024 214.099 69.8024L213.999 69.6024Z" fill="#2FA6D0" stroke="black" stroke-miterlimit="10"/>
<path d="M208.8 68.7008C208.7 68.2008 208.2 67.8008 207.7 67.8008C207.2 67.8008 206.6 68.3008 206.6 68.9008C206.6 69.5008 206.6 69.3008 206.7 69.4008C206.7 69.6008 206.9 69.7008 207.1 69.8008C207.3 69.9008 207.5 70.0007 207.7 70.0007C208.2 70.0007 208.7 69.6008 208.8 69.1008C208.8 69.1008 208.8 68.9008 208.8 68.8008C208.8 68.7008 208.8 68.6007 208.8 68.5007V68.7008Z" fill="#2FA6D0" stroke="black" stroke-miterlimit="10"/>
<path d="M204.4 71.7992C204.2 71.7992 204.1 71.6992 203.9 71.6992C203.4 71.6992 202.9 72.0991 202.8 72.4991C202.8 72.4991 202.8 72.6992 202.8 72.7992C202.8 72.8992 202.8 72.9992 202.8 73.0992C202.9 73.5992 203.4 73.9991 203.9 73.9991C204.4 73.9991 205 73.4992 205 72.8992C205 72.2992 205 72.4992 204.8 72.2992C204.7 72.0992 204.6 71.9992 204.4 71.8992V71.7992Z" fill="#2FA6D0" stroke="black" stroke-miterlimit="10"/>
<path d="M246.499 71.6992C245.999 71.6992 245.499 72.0991 245.399 72.4991C245.399 72.4991 245.399 72.6992 245.399 72.7992C245.399 72.8992 245.399 72.9992 245.399 73.0992C245.499 73.5992 245.999 73.9991 246.499 73.9991C246.999 73.9991 247.599 73.4992 247.599 72.8992C247.599 72.2992 247.099 71.7992 246.499 71.7992V71.6992Z" fill="#2FA6D0" stroke="black" stroke-miterlimit="10"/>
<path d="M197.099 72.5C196.999 71.9 196.399 71.5 195.799 71.5C195.199 71.5 194.499 72.1 194.499 72.8C194.499 73.5 195.099 74.1001 195.799 74.1001C196.499 74.1001 196.999 73.6 197.099 73C197.099 73 197.099 72.8001 197.099 72.7001C197.099 72.6001 197.099 72.5 197.099 72.4V72.5ZM195.799 73.8C195.299 73.8 194.799 73.4 194.799 72.8C194.799 72.2 195.199 71.8 195.799 71.8C196.399 71.8 196.599 72.1 196.699 72.5C196.699 72.5 196.699 72.7 196.699 72.8C196.699 72.9 196.699 73.0001 196.699 73.1001C196.599 73.5001 196.199 73.8 195.799 73.8Z" fill="#2FA6D0" stroke="black" stroke-miterlimit="10"/>
<path d="M162 81.5C161.9 81.5 161.8 81.5 161.7 81.5C161.2 81.5 160.7 81.9 160.6 82.4C160.6 82.4 160.6 82.6001 160.6 82.7001C160.6 82.8001 160.6 82.9 160.6 83C160.7 83.5 161.2 83.8 161.7 83.8C162.2 83.8 162.7 83.4 162.8 83C162.8 83 162.8 82.8001 162.8 82.7001C162.8 82.6001 162.8 82.5 162.8 82.4C162.8 82.2 162.6 82 162.5 81.9C162.4 81.8 162.2 81.7001 162 81.6001V81.5Z" fill="#2FA6D0" stroke="black" stroke-miterlimit="10"/>
<path d="M173.5 71.5992C173.4 71.0992 172.9 70.6992 172.4 70.6992C171.9 70.6992 171.3 71.1992 171.3 71.7992C171.3 72.3992 171.3 72.0992 171.4 72.2992C171.4 72.4992 171.6 72.5992 171.8 72.7992C172 72.8992 172.2 72.9991 172.5 72.9991C173 72.9991 173.5 72.5992 173.6 72.1992C173.6 72.1992 173.6 71.9992 173.6 71.8992C173.6 71.7992 173.6 71.6992 173.6 71.5992H173.5Z" fill="#2FA6D0" stroke="black" stroke-miterlimit="10"/>
<path d="M185.7 72.5023C185.7 72.3023 185.8 72.2023 185.8 72.0023C185.8 71.4023 185.3 70.9023 184.7 70.9023C184.1 70.9023 183.8 71.2024 183.6 71.7024C183.6 71.8024 183.6 72.0024 183.6 72.1024C183.6 72.2024 183.6 72.2024 183.6 72.3024C183.6 72.8024 184.2 73.3024 184.7 73.3024C185.2 73.3024 185.2 73.3024 185.4 73.1024C185.6 73.0024 185.7 72.8024 185.8 72.7024L185.7 72.5023Z" fill="#2FA6D0" stroke="black" stroke-miterlimit="10"/>
<path d="M190.199 76.6016C190.199 76.1016 189.599 75.6016 189.099 75.6016C188.599 75.6016 188.699 75.6015 188.499 75.8015C188.299 75.8015 188.199 76.0015 188.099 76.2015C187.999 76.4015 187.899 76.6015 187.899 76.8015C187.899 77.4015 188.399 77.9015 188.999 77.9015C189.599 77.9015 189.899 77.6016 190.099 77.1016C190.099 77.0016 190.099 76.9015 190.099 76.7015C190.099 76.5015 190.099 76.6015 190.099 76.5015L190.199 76.6016Z" fill="#2FA6D0" stroke="black" stroke-miterlimit="10"/>
<path d="M214.399 77.3C214.399 77.1 214.499 77 214.499 76.8C214.499 76.1 213.899 75.5 213.199 75.5C212.499 75.5 211.999 76.0001 211.899 76.6001C211.899 76.6001 211.899 76.7 211.899 76.8C211.899 76.9 211.899 77.1001 211.899 77.2001C212.099 77.7001 212.599 78.1001 213.199 78.1001C213.799 78.1001 213.799 78 214.099 77.8C214.199 77.7 214.399 77.5 214.399 77.3ZM213.199 77.8C212.799 77.8 212.399 77.6001 212.299 77.2001C212.299 77.1001 212.299 77 212.299 76.8C212.299 76.6 212.299 76.7001 212.299 76.6001C212.299 76.2001 212.799 75.8 213.299 75.8C213.799 75.8 214.299 76.2 214.299 76.8C214.299 77.4 214.299 77.0001 214.299 77.1001C214.299 77.3001 214.099 77.4001 213.999 77.6001C213.799 77.7001 213.599 77.8 213.399 77.8H213.199Z" fill="#2FA6D0" stroke="black" stroke-miterlimit="10"/>
<path d="M219.099 79.5C218.799 79.5 218.499 79.6 218.299 79.8C218.199 79.9 218.099 80.1 217.999 80.3C217.999 80.4 217.999 80.5001 217.999 80.6001C217.999 81.2001 218.499 81.7001 219.099 81.7001C219.699 81.7001 220.199 81.2001 220.199 80.6001C220.199 80.0001 219.699 79.5 219.099 79.5Z" fill="#2FA6D0" stroke="black" stroke-miterlimit="10"/>
<path d="M162.7 72.5023C162.7 72.4023 162.8 72.2023 162.8 72.0023C162.8 71.4023 162.3 70.9023 161.7 70.9023C161.1 70.9023 160.6 71.4023 160.6 72.0023C160.6 72.6023 161.1 73.1024 161.7 73.1024C162.3 73.1024 162.2 73.1023 162.4 72.9023C162.6 72.8023 162.7 72.6023 162.8 72.5023H162.7Z" fill="#2FA6D0" stroke="black" stroke-miterlimit="10"/>
<path d="M207.699 99.6992C206.599 99.6992 205.699 100.599 205.699 101.699C205.699 102.799 206.599 103.699 207.699 103.699C208.799 103.699 209.699 102.799 209.699 101.699C209.699 100.599 208.799 99.6992 207.699 99.6992Z" fill="#2FA6D0" stroke="black" stroke-miterlimit="10"/>
<g style="mix-blend-mode:multiply" opacity="0.5">
<mask id="mask0_609_6819" style="mask-type:luminance" maskUnits="userSpaceOnUse" x="205" y="99" width="3" height="5">
<path d="M207.699 99.6992H205.699V103.699H207.699V99.6992Z" fill="white"/>
</mask>
<g mask="url(#mask0_609_6819)">
<path d="M207.699 103.801C206.599 103.801 205.699 102.901 205.699 101.801C205.699 100.701 206.599 99.8008 207.699 99.8008V103.801Z" fill="#2FA6D0" stroke="black" stroke-miterlimit="10"/>
</g>
<path d="M207.699 99.6992H205.699V103.699H207.699V99.6992Z" fill="#2FA6D0" stroke="black" stroke-miterlimit="10"/>
</g>
<path d="M78.1992 116.5C77.0992 116.5 76.1992 117.4 76.1992 118.5C76.1992 119.6 77.0992 120.5 78.1992 120.5C79.2992 120.5 80.1992 119.6 80.1992 118.5C80.1992 117.4 79.2992 116.5 78.1992 116.5Z" fill="#2FA6D0" stroke="black" stroke-miterlimit="10"/>
<g style="mix-blend-mode:multiply" opacity="0.5">
<mask id="mask1_609_6819" style="mask-type:luminance" maskUnits="userSpaceOnUse" x="76" y="116" width="3" height="5">
<path d="M78.1992 116.5H76.1992V120.5H78.1992V116.5Z" fill="white"/>
</mask>
<g mask="url(#mask1_609_6819)">
<path d="M78.1992 120.5C77.0992 120.5 76.1992 119.6 76.1992 118.5C76.1992 117.4 77.0992 116.5 78.1992 116.5V120.5Z" fill="#2FA6D0" stroke="black" stroke-miterlimit="10"/>
</g>
<path d="M78.1992 116.5H76.1992V120.5H78.1992V116.5Z" fill="#2FA6D0" stroke="black" stroke-miterlimit="10"/>
</g>
<path d="M243.7 117.801C240.8 117.801 238.5 120.101 238.5 123.001C238.5 125.901 240.8 128.201 243.7 128.201C246.6 128.201 248.9 125.901 248.9 123.001C248.9 120.101 246.6 117.801 243.7 117.801Z" fill="#2FA6D0" stroke="black" stroke-miterlimit="10"/>
<g style="mix-blend-mode:multiply" opacity="0.5">
<mask id="mask2_609_6819" style="mask-type:luminance" maskUnits="userSpaceOnUse" x="238" y="117" width="6" height="12">
<path d="M243.7 117.801H238.5V128.201H243.7V117.801Z" fill="white"/>
</mask>
<g mask="url(#mask2_609_6819)">
<path d="M243.7 128.201C240.8 128.201 238.5 125.901 238.5 123.001C238.5 120.101 240.8 117.801 243.7 117.801V128.201Z" fill="#2FA6D0" stroke="black" stroke-miterlimit="10"/>
</g>
<path d="M243.7 117.801H238.5V128.201H243.7V117.801Z" fill="#2FA6D0" stroke="black" stroke-miterlimit="10"/>
</g>
<path d="M148.999 30.6992C145.499 30.6992 142.699 33.4991 142.699 36.9991C142.699 40.4991 145.499 43.2992 148.999 43.2992C152.499 43.2992 155.299 40.4991 155.299 36.9991C155.299 33.4991 152.499 30.6992 148.999 30.6992Z" fill="#2FA6D0" stroke="black" stroke-miterlimit="10"/>
<g style="mix-blend-mode:multiply" opacity="0.5">
<mask id="mask3_609_6819" style="mask-type:luminance" maskUnits="userSpaceOnUse" x="142" y="30" width="7" height="14">
<path d="M148.999 30.6992H142.699V43.2992H148.999V30.6992Z" fill="white"/>
</mask>
<g mask="url(#mask3_609_6819)">
<path d="M148.999 43.2992C145.499 43.2992 142.699 40.4991 142.699 36.9991C142.699 33.4991 145.499 30.6992 148.999 30.6992V43.2992Z" fill="#2FA6D0" stroke="black" stroke-miterlimit="10"/>
</g>
<path d="M148.999 30.6992H142.699V43.2992H148.999V30.6992Z" fill="#2FA6D0" stroke="black" stroke-miterlimit="10"/>
</g>
</svg>
