<svg width="250" height="162" viewBox="0 0 250 162" fill="none" xmlns="http://www.w3.org/2000/svg">
<g clip-path="url(#clip0_616_2376)">
<g filter="url(#filter0_d_616_2376)">
<path d="M148.578 82.7413L148.255 82.2895C150.192 80.8049 151.999 79.0621 153.613 77.1902C155.226 75.3184 156.582 73.1883 157.679 70.9937C158.841 68.7346 159.68 66.3463 160.261 63.9581C160.842 61.4407 161.165 58.8588 161.165 56.2124C161.165 51.8232 160.326 47.5631 158.583 43.4966C156.969 39.6238 154.581 36.1382 151.612 33.1045C148.643 30.1353 145.157 27.7471 141.22 26.1334C137.218 24.4552 132.958 23.5515 128.504 23.5515V23.0352C132.958 23.0352 137.347 23.9388 141.413 25.617C145.351 27.2953 148.901 29.6835 151.935 32.7172C154.968 35.751 157.357 39.301 159.035 43.2384C160.778 47.3049 161.617 51.6941 161.617 56.1479C161.617 60.6016 161.294 61.4408 160.713 64.0226C160.132 66.4754 159.228 68.9282 158.067 71.1874C156.905 73.4465 155.549 75.512 153.935 77.4485C152.322 79.3849 150.515 81.1276 148.514 82.6122L148.578 82.7413Z" fill="#2BB0B3"/>
<path d="M130.375 24.9692L127.406 23.4846L130.375 22V24.9692Z" fill="#0A5659"/>
<path d="M149.674 55.111L156.645 54.8529C156.452 50.6573 155.419 46.7199 153.612 43.2344L147.415 46.3972C148.771 49.0436 149.545 52.0128 149.674 55.111Z" fill="#CED6DB"/>
<path d="M128.632 77.0557C122.823 77.0557 117.595 74.732 113.786 70.9883L108.881 75.9584C113.98 80.9931 120.887 84.0914 128.632 84.0914C136.378 84.0914 129.601 84.0914 130.052 84.0914L129.665 77.1203C129.278 77.1203 128.955 77.1203 128.568 77.1203L128.632 77.0557Z" fill="#CED6DB"/>
<path d="M147.803 64.7902L154.128 67.6948C154.58 66.7912 154.903 65.823 155.226 64.8548L148.642 62.6602C148.384 63.3702 148.125 64.0802 147.803 64.7902Z" fill="#CED6DB"/>
<path d="M139.928 73.7652L143.672 79.639C147.093 77.4444 149.997 74.6043 152.192 71.1833L146.318 67.375C144.64 69.8923 142.445 72.087 139.928 73.7007V73.7652Z" fill="#CED6DB"/>
<path d="M149.48 59.1094C149.351 60.013 149.158 60.9167 148.899 61.8204L155.612 63.7568C155.935 62.5949 156.193 61.3686 156.387 60.1422L149.48 59.1094Z" fill="#CED6DB"/>
<path d="M149.609 58.2088L156.516 58.9833C156.516 58.4669 156.58 57.9506 156.645 57.4342L149.674 57.0469C149.674 57.4342 149.674 57.8215 149.609 58.2088Z" fill="#CED6DB"/>
<path d="M146.446 44.6534L152.32 40.9096C147.608 33.4221 139.411 28.3875 130.051 27.8711L129.664 34.8422C136.7 35.2295 142.832 39.0378 146.382 44.6534H146.446Z" fill="#E5E6E1"/>
<path d="M108.299 61.5625L101.586 63.4344C101.909 64.6608 102.296 65.8226 102.812 66.92L109.203 64.209C108.815 63.3698 108.557 62.4662 108.299 61.5625Z" fill="#CED6DB"/>
<path d="M130.568 76.926L131.214 83.8971C134.118 83.6389 136.959 82.9289 139.54 81.8316L136.829 75.4414C134.893 76.2805 132.763 76.7969 130.568 76.9906V76.926Z" fill="#CED6DB"/>
<path d="M107.525 55.9489C107.525 49.6232 110.3 43.9431 114.754 40.0702L110.171 34.7773C104.297 39.9411 100.554 47.4932 100.554 55.9489C100.554 64.4045 100.812 60.2089 101.264 62.2099L108.041 60.6608C107.718 59.1117 107.525 57.5625 107.525 55.9489Z" fill="#CED6DB"/>
<path d="M111.398 68.1505L105.718 72.1524C106.428 73.1852 107.202 74.1534 108.041 75.057L113.141 70.2805C112.495 69.5705 111.914 68.8605 111.398 68.0859V68.1505Z" fill="#CED6DB"/>
<path d="M137.668 74.9926L140.637 81.3182C140.895 81.1891 141.154 81.06 141.347 80.9309L138.184 74.7344C137.991 74.7989 137.797 74.928 137.668 74.9926Z" fill="#CED6DB"/>
<path d="M109.59 64.9864L103.265 67.9556C103.781 69.0529 104.427 70.1502 105.072 71.183L110.946 67.3747C110.429 66.6001 109.978 65.761 109.59 64.9219V64.9864Z" fill="#CED6DB"/>
<path d="M127.793 34.9086L127.535 27.9375C125.728 28.002 123.985 28.2602 122.307 28.6475L123.92 35.425C125.211 35.1022 126.502 34.9731 127.793 34.9086Z" fill="#E5E6E1"/>
<path d="M122.048 35.9393L119.854 29.3555C117.143 30.2591 114.561 31.5501 112.302 33.2283L116.368 38.9084C118.111 37.6821 120.047 36.6493 122.113 35.9393H122.048Z" fill="#E5E6E1"/>
<path d="M142.318 86.0909L142.124 85.6391C142.318 85.5746 142.576 85.4455 142.769 85.3164L142.963 85.7682C142.769 85.8973 142.511 85.9618 142.318 86.0909Z" fill="#2FA6D0"/>
<path d="M128.891 88.9967C128.568 88.9967 128.246 88.9967 127.923 88.9967V88.4803C128.375 88.4803 128.891 88.4803 129.343 88.4803V88.9967C129.214 88.9967 129.085 88.9967 128.956 88.9967H128.891ZM130.053 88.9322V88.4158C130.505 88.4158 130.957 88.4158 131.408 88.3512V88.8676C130.957 88.8676 130.505 88.8676 130.053 88.9322ZM127.213 88.9322C126.761 88.9322 126.245 88.9322 125.793 88.8031V88.2867C126.309 88.2867 126.761 88.3512 127.213 88.4158V88.9322ZM132.118 88.8031V88.2867C132.506 88.2867 133.022 88.1576 133.474 88.0931V88.6094C133.087 88.674 132.635 88.7385 132.118 88.8031ZM125.083 88.7385C124.631 88.7385 124.115 88.6094 123.663 88.5449V88.0285C124.179 88.093 124.696 88.1576 125.147 88.2222V88.7385H125.083ZM134.249 88.5449V88.0285C134.636 87.9639 135.088 87.8994 135.539 87.7703L135.669 88.2867C135.217 88.3512 134.765 88.4803 134.249 88.5449ZM122.953 88.4158C122.501 88.3512 122.049 88.2221 121.597 88.1576L121.726 87.6412C122.178 87.7703 122.63 87.8349 123.082 87.8994V88.4158H122.953ZM136.314 88.1576L136.185 87.6412C136.637 87.5121 137.089 87.4476 137.54 87.3185L137.67 87.8348C137.218 87.9639 136.766 88.093 136.314 88.1576ZM120.887 88.0285C120.435 87.8994 119.984 87.7703 119.532 87.6412L119.661 87.1248C120.113 87.2539 120.565 87.383 121.016 87.5121L120.887 88.0285ZM138.38 87.5767L138.25 87.0603C138.702 86.9312 139.154 86.8021 139.606 86.6085L139.8 87.1248C139.348 87.2539 138.896 87.4476 138.444 87.5767H138.38ZM118.886 87.4476C118.434 87.3185 117.983 87.1248 117.531 86.9957L117.724 86.4794C118.176 86.6085 118.628 86.8021 119.015 86.9312L118.886 87.4476ZM140.381 86.9312L140.187 86.4148C140.639 86.2857 141.026 86.0921 141.478 85.8984L141.671 86.4148C141.22 86.6084 140.768 86.8021 140.381 86.9312ZM116.885 86.7375C116.434 86.5439 115.982 86.4148 115.594 86.2212L115.788 85.7048C116.24 85.8984 116.627 86.0921 117.079 86.2212L116.885 86.7375ZM114.949 85.8984C114.497 85.7048 114.11 85.5111 113.658 85.253L113.916 84.8011C114.303 84.9948 114.755 85.1884 115.143 85.3821L114.949 85.8339V85.8984ZM113.013 84.9302C112.625 84.7366 112.173 84.4784 111.786 84.2202L112.044 83.7684C112.432 84.0266 112.819 84.2202 113.271 84.4784L113.013 84.9302ZM111.205 83.8975C110.818 83.6393 110.431 83.3811 110.043 83.1229L110.366 82.6711C110.753 82.9293 111.141 83.1875 111.528 83.4456L111.27 83.8975H111.205ZM109.462 82.6711C109.075 82.4129 108.688 82.0902 108.365 81.832L108.688 81.4447C109.075 81.7029 109.398 82.0256 109.785 82.2838L109.462 82.7356V82.6711ZM107.784 81.3801C107.397 81.0574 107.074 80.7992 106.687 80.4765L107.01 80.0892C107.332 80.4119 107.72 80.7347 108.042 80.9929L107.72 81.3801H107.784ZM106.171 79.9601C105.848 79.6373 105.46 79.3146 105.138 78.9919L105.525 78.6046C105.848 78.9273 106.171 79.2501 106.493 79.5728L106.106 79.9601H106.171ZM104.686 78.4755C104.363 78.1528 104.04 77.7655 103.718 77.4428L104.105 77.12C104.428 77.4428 104.686 77.83 105.009 78.1528L104.621 78.5401L104.686 78.4755ZM103.266 76.9264C102.943 76.5391 102.685 76.2164 102.362 75.8291L102.814 75.5063C103.072 75.8936 103.395 76.2164 103.653 76.6037L103.266 76.9264ZM101.975 75.2481C101.717 74.8609 101.459 74.4736 101.2 74.0863L101.652 73.8281C101.91 74.2154 102.169 74.6027 102.427 74.99L101.975 75.3127V75.2481ZM100.813 73.4408C100.555 73.0535 100.297 72.6662 100.103 72.2144L100.555 71.9563C100.813 72.3435 101.007 72.7308 101.265 73.1181L100.813 73.3763V73.4408ZM99.7158 71.6335C99.5221 71.2462 99.264 70.7944 99.0703 70.4071L99.5221 70.1489C99.7158 70.5362 99.9094 70.988 100.168 71.3753L99.7158 71.6335ZM98.8121 69.7616C98.6185 69.3098 98.4248 68.9225 98.2312 68.4707L98.7476 68.2771C98.9412 68.7289 99.1349 69.1162 99.3285 69.568L98.8767 69.7616H98.8121ZM97.973 67.7607C97.7794 67.3089 97.6503 66.857 97.5212 66.4052L98.0376 66.2115C98.1667 66.6634 98.3603 67.1152 98.4894 67.5025L97.973 67.6961V67.7607ZM97.263 65.7597C97.1339 65.3079 97.0048 64.8561 96.8757 64.4042L97.3921 64.2751C97.5212 64.7269 97.6503 65.1788 97.7794 65.6306L97.263 65.7597ZM96.6821 63.7587C96.553 63.3069 96.4884 62.8551 96.3593 62.4033L96.8757 62.2742C96.9403 62.726 97.0694 63.1778 97.1984 63.6296L96.6821 63.7587ZM96.2302 61.6932C96.1657 61.2414 96.1012 60.7896 96.0366 60.2732H96.553C96.553 60.6605 96.6821 61.1123 96.7466 61.5641H96.2302V61.6932ZM95.9075 59.5632C95.9075 59.1113 95.843 58.595 95.7784 58.1431H96.2948C96.2948 58.595 96.3593 59.0468 96.4239 59.4986H95.9075V59.5632ZM95.7784 57.4331C95.7784 56.9813 95.7784 56.4649 95.7784 56.0131H96.2948C96.2948 56.4649 96.2948 56.9167 96.2948 57.3686H95.7784V57.4331ZM96.2302 55.3676H95.7139C95.7139 54.9158 95.7139 54.3994 95.7139 53.9476H96.2302C96.2302 54.4639 96.2302 54.9158 96.2302 55.3676ZM96.3593 53.2376H95.8429C95.8429 52.7212 95.9075 52.2693 95.9721 51.8175H96.4884C96.4884 52.3339 96.3593 52.7857 96.3593 53.2376ZM96.6175 51.172H96.1012C96.1657 50.6557 96.2302 50.1393 96.3593 49.6875L96.8757 49.8166C96.8112 50.2684 96.6821 50.7202 96.6175 51.172ZM96.9403 49.1065L96.4239 48.9774C96.4884 48.5256 96.6175 48.0738 96.7466 47.6219L97.263 47.751C97.1339 48.2029 97.0694 48.6547 96.9403 49.1065ZM97.4566 47.1056L96.9403 46.9765C97.0694 46.5246 97.1985 46.0728 97.3275 45.621L97.8439 45.8146C97.7148 46.2665 97.5857 46.7183 97.4566 47.1701V47.1056ZM98.1021 45.1046L97.5857 44.911C97.7148 44.4591 97.9085 44.0073 98.1021 43.5555L98.6185 43.7491C98.4249 44.2009 98.2957 44.5882 98.1021 45.0401V45.1046ZM98.8121 43.1682L98.2958 42.9745C98.4894 42.5227 98.683 42.1354 98.8767 41.6836L99.3285 41.8772C99.1349 42.2645 98.9412 42.7163 98.7476 43.1682H98.8121Z" fill="#2FA6D0"/>
<path d="M99.7155 41.2318L99.2637 40.9736C99.3928 40.78 99.4573 40.5218 99.5864 40.3281L100.038 40.5863C99.9091 40.7799 99.8446 40.9736 99.7155 41.2318Z" fill="#2FA6D0"/>
<path d="M128.632 86.7372C124.501 86.7372 120.499 85.9627 116.756 84.349C113.141 82.7999 109.849 80.6053 107.074 77.8297C104.298 75.0542 102.039 71.7623 100.554 68.1476C98.9406 64.4039 98.166 60.402 98.166 56.271C98.166 52.14 98.9406 48.138 100.554 44.3943C102.103 40.7796 104.298 37.4877 107.074 34.7122C109.849 31.9367 113.141 29.6775 116.756 28.1929C120.499 26.5793 124.501 25.8047 128.632 25.8047C132.763 25.8047 133.667 26.1274 136.055 26.7083C138.379 27.2892 140.703 28.1929 142.833 29.2902C147.028 31.5494 150.707 34.7767 153.483 38.6496L153.16 38.9078C150.449 35.0349 146.77 31.8721 142.639 29.6775C140.509 28.5802 138.25 27.6766 135.926 27.0956C133.538 26.5147 131.085 26.192 128.568 26.192C124.501 26.192 120.564 26.9665 116.885 28.5802C113.27 30.0648 110.107 32.2594 107.332 35.0349C104.556 37.8105 102.426 41.0378 100.877 44.5879C99.3279 48.2671 98.4888 52.2691 98.4888 56.271C98.4888 60.2729 99.2633 64.2748 100.877 67.954C102.362 71.5687 104.556 74.7315 107.332 77.507C110.107 80.2825 113.335 82.4126 116.885 83.9617C120.564 85.5108 124.566 86.35 128.568 86.35V86.8018L128.632 86.7372Z" fill="#A1A7AD"/>
<path d="M100.748 73.5109C100.618 73.5109 100.425 73.5109 100.231 73.5109H91.8401C90.2909 73.5109 89 72.1554 89 70.5417C89 68.9281 89.3227 69.0572 89.8391 68.4762C90.3555 67.9599 91.001 67.6371 91.711 67.5726C91.9046 66.6689 92.7437 66.088 93.6474 66.088C94.551 66.088 94.2929 66.1525 94.6156 66.3462C95.3902 65.3134 96.6166 64.668 97.9075 64.668C99.1985 64.668 99.7148 64.9907 100.425 65.5716C101.135 66.088 101.651 66.8625 101.845 67.7017C102.426 67.8953 102.878 68.2826 103.265 68.799C103.652 69.3153 103.846 69.9608 103.846 70.5417C103.846 72.22 102.49 73.5755 100.812 73.5755L100.748 73.5109ZM100.296 73.1236C100.425 73.1236 100.618 73.1236 100.748 73.1236C102.232 73.1236 103.459 71.8972 103.459 70.4126C103.459 68.9281 102.684 68.2181 101.651 67.8953H101.587V67.7662C101.393 66.9917 100.941 66.2171 100.231 65.7007C99.5857 65.1843 98.7466 64.9261 97.9075 64.9261C96.6811 64.9261 95.5193 65.5716 94.8092 66.6044L94.6801 66.7334L94.551 66.6044C94.2929 66.4107 93.9701 66.3462 93.6474 66.3462C92.8728 66.3462 92.1628 66.9271 92.0337 67.7017V67.8308H91.8401C91.1301 67.8308 90.5491 68.1535 90.0327 68.6053C89.5809 69.1217 89.3227 69.7672 89.3227 70.4126C89.3227 71.8327 90.4846 72.9946 91.8401 73.0591H100.296V73.1236Z" fill="#49494A"/>
<path d="M128.632 71.2475L115.465 63.6309V48.3978L128.632 40.7812L141.8 48.3978V63.6309H141.671C141.671 63.6955 128.632 71.2475 128.632 71.2475ZM115.917 63.3728L128.568 70.6666L141.219 63.3728V48.7205L128.568 41.4267L115.917 48.7205V63.3728Z" fill="#49494A"/>
<path d="M115.916 63.5011L115.723 63.2429L116.368 62.1456L116.691 62.3393L116.045 63.4366H115.916V63.5011ZM141.025 63.372L139.863 62.8556L139.992 62.5329L140.961 62.9847L140.38 62.0165L140.702 61.8229L141.348 62.9202L141.154 63.0493L141.025 63.372ZM116.562 63.1784L116.433 62.8556L117.595 62.3393L117.724 62.662L116.562 63.1784ZM139.218 62.5329L138.056 62.0165L138.185 61.6938L139.347 62.2101L139.218 62.5329ZM118.369 62.4038L118.24 62.0811L119.402 61.5647L119.531 61.8874L118.369 62.4038ZM137.411 61.7583L136.249 61.2419L136.378 60.9192L137.54 61.4356L137.411 61.7583ZM117.014 61.6938L116.691 61.5001L117.336 60.4028L117.659 60.5965L117.014 61.6938ZM120.176 61.5647L120.047 61.2419L121.209 60.7256L121.338 61.0483L120.176 61.5647ZM140.057 61.371L139.411 60.2737L139.734 60.0801L140.38 61.1774L140.057 61.371ZM135.603 60.9192L134.441 60.4028L134.57 60.0801L135.732 60.5965L135.603 60.9192ZM121.984 60.7901L121.855 60.4674L123.016 59.951L123.146 60.2737L121.984 60.7901ZM133.796 60.1447L132.634 59.6283L132.763 59.3055L133.925 59.8219L133.796 60.1447ZM117.982 60.0156L117.659 59.8219L118.305 58.7246L118.627 58.9183L117.982 60.0156ZM123.791 59.951L123.662 59.6283L124.824 59.1119L124.953 59.4346L123.791 59.951ZM139.024 59.6928L138.379 58.5955L138.701 58.4019L139.347 59.4992L139.024 59.6928ZM131.989 59.3055L130.827 58.7892L130.956 58.4664L132.118 58.9828L131.989 59.3055ZM125.598 59.1119L125.469 58.7892L126.631 58.2728L126.76 58.5955L125.598 59.1119ZM130.181 58.4664L129.019 57.95L129.148 57.6273L130.31 58.1437L130.181 58.4664ZM127.406 58.3373L127.277 58.0146L128.438 57.4982L128.568 57.8209L127.406 58.3373ZM118.95 58.2728L118.627 58.0791L119.273 56.9818L119.595 57.1755L118.95 58.2728ZM138.056 57.95L137.411 56.8527L137.733 56.6591L138.379 57.7564L138.056 57.95ZM119.983 56.5946L119.66 56.4009L120.306 55.3036L120.628 55.4973L119.983 56.5946ZM137.088 56.2718L136.442 55.1745L136.765 54.9809L137.411 56.0782L137.088 56.2718ZM120.951 54.8518L120.628 54.6582L121.274 53.5608L121.596 53.7545L120.951 54.8518ZM136.12 54.5291L135.474 53.4317L135.797 53.2381L136.442 54.3354L136.12 54.5291ZM121.919 53.1735L121.596 52.9799L122.242 51.8826L122.565 52.0763L121.919 53.1735ZM135.087 52.8508L134.441 51.7535L134.764 51.5599L135.41 52.6572L135.087 52.8508ZM122.952 51.4308L122.629 51.2371L123.275 50.1399L123.597 50.3335L122.952 51.4308ZM134.119 51.1081L133.473 50.0107L133.796 49.8171L134.441 50.9144L134.119 51.1081ZM123.92 49.7525L123.597 49.5589L124.243 48.4616L124.566 48.6552L123.92 49.7525ZM133.15 49.4298L132.505 48.3325L132.828 48.1389L133.473 49.2362L133.15 49.4298ZM124.888 48.0098L124.566 47.8161L125.211 46.7188L125.534 46.9125L124.888 48.0098ZM132.118 47.687L131.472 46.5898L131.795 46.3961L132.44 47.4934L132.118 47.687ZM125.857 46.3315L125.534 46.1379L126.179 45.0406L126.502 45.2342L125.857 46.3315ZM131.149 46.0088L130.504 44.9115L130.827 44.7179L131.472 45.8152L131.149 46.0088ZM126.889 44.5888L126.567 44.3951L127.212 43.2978L127.535 43.4915L126.889 44.5888ZM130.181 44.266L129.536 43.1687L129.858 42.9751L130.504 44.0724L130.181 44.266ZM127.858 42.9106L127.535 42.7169L128.18 41.6196L128.503 41.8132L127.858 42.9106ZM129.148 42.5878L128.503 41.4905L128.826 41.2969L129.471 42.3942L129.148 42.5878Z" fill="#49494A"/>
<path d="M128.826 70.923L128.503 70.7293L129.148 69.632L129.471 69.8257L128.826 70.923ZM128.18 70.6002L127.535 69.503L127.858 69.3093L128.503 70.4066L128.18 70.6002ZM129.858 69.2448L129.536 69.0511L130.181 67.9538L130.504 68.1474L129.858 69.2448ZM127.212 68.922L126.567 67.8247L126.889 67.6311L127.535 68.7284L127.212 68.922ZM130.827 67.502L130.504 67.3083L131.149 66.211L131.472 66.4047L130.827 67.502ZM126.244 67.1792L125.598 66.0819L125.921 65.8883L126.567 66.9856L126.244 67.1792ZM131.795 65.8238L131.472 65.6301L132.118 64.5328L132.44 64.7265L131.795 65.8238ZM125.211 65.501L124.566 64.4037L124.888 64.2101L125.534 65.3074L125.211 65.501ZM132.763 64.081L132.44 63.8873L133.086 62.79L133.409 62.9837L132.763 64.081ZM124.243 63.7582L123.597 62.6609L123.92 62.4673L124.566 63.5646L124.243 63.7582ZM133.796 62.4028L133.473 62.2091L134.119 61.1118L134.441 61.3055L133.796 62.4028ZM123.275 62.08L122.629 60.9827L122.952 60.7891L123.597 61.8864L123.275 62.08ZM134.764 60.66L134.441 60.4664L135.087 59.369L135.41 59.5627L134.764 60.66ZM122.242 60.3372L121.596 59.2399L121.919 59.0463L122.565 60.1436L122.242 60.3372ZM135.732 58.9817L135.41 58.7881L136.055 57.6908L136.378 57.8845L135.732 58.9817ZM121.274 58.659L120.628 57.5617L120.951 57.3681L121.596 58.4654L121.274 58.659ZM136.765 57.239L136.442 57.0453L137.088 55.948L137.411 56.1417L136.765 57.239ZM120.306 56.9163L119.66 55.8189L119.983 55.6253L120.628 56.7226L120.306 56.9163ZM137.733 55.5607L137.411 55.3671L138.056 54.2698L138.379 54.4634L137.733 55.5607ZM119.273 55.238L118.627 54.1407L118.95 53.9471L119.595 55.0444L119.273 55.238ZM128.374 54.7862L127.212 54.2698L127.341 53.9471L128.503 54.4634L128.374 54.7862ZM129.213 54.5925L129.084 54.2698L130.246 53.7534L130.375 54.0762L129.213 54.5925ZM126.631 53.9471L125.469 53.4307L125.598 53.108L126.76 53.6243L126.631 53.9471ZM138.701 53.818L138.379 53.6243L139.024 52.527L139.347 52.7207L138.701 53.818ZM131.02 53.7534L130.891 53.4307L132.053 52.9143L132.182 53.2371L131.02 53.7534ZM118.305 53.4952L117.659 52.3979L117.982 52.2043L118.627 53.3016L118.305 53.4952ZM124.824 53.108L123.662 52.5916L123.791 52.2688L124.953 52.7852L124.824 53.108ZM132.763 52.9789L132.634 52.6561L133.796 52.1397L133.925 52.4625L132.763 52.9789ZM123.016 52.3334L121.855 51.817L121.984 51.4943L123.146 52.0106L123.016 52.3334ZM134.57 52.1397L134.441 51.817L135.603 51.3006L135.732 51.6234L134.57 52.1397ZM139.734 52.1397L139.411 51.9461L140.057 50.8488L140.38 51.0424L139.734 52.1397ZM117.336 51.817L116.691 50.7197L117.014 50.5261L117.659 51.6234L117.336 51.817ZM121.209 51.4943L120.047 50.9779L120.176 50.6552L121.338 51.1715L121.209 51.4943ZM136.378 51.3652L136.249 51.0424L137.411 50.5261L137.54 50.8488L136.378 51.3652ZM119.402 50.7197L118.24 50.2033L118.369 49.8806L119.531 50.397L119.402 50.7197ZM138.185 50.5261L138.056 50.2033L139.218 49.687L139.347 50.0097L138.185 50.5261ZM140.702 50.397L140.38 50.2033L140.961 49.2351L139.992 49.687L139.863 49.3642L141.025 48.8479L141.154 49.1706L141.348 49.2997L140.702 50.397ZM116.368 50.0742L115.723 48.9769L115.916 48.7188V48.8479H116.045C116.045 48.7833 116.691 49.8806 116.691 49.8806L116.368 50.0742ZM117.595 49.8806L116.433 49.3642L116.562 49.0415L117.724 49.5579L117.595 49.8806Z" fill="#49494A"/>
<path d="M130.904 41.9133C131.237 40.711 130.533 39.466 129.331 39.1326C128.128 38.7991 126.883 39.5035 126.55 40.7058C126.217 41.9081 126.921 43.1531 128.123 43.4865C129.326 43.82 130.571 43.1156 130.904 41.9133Z" fill="#0A5659"/>
<g style="mix-blend-mode:multiply" opacity="0.5">
<path d="M128.632 43.4285C127.341 43.4285 126.373 42.3957 126.373 41.1693C126.373 39.9429 127.406 38.9102 128.632 38.9102V43.493V43.4285Z" fill="#0A5659"/>
</g>
<path d="M126.05 70.99C126.05 69.57 127.212 68.4727 128.567 68.4727C129.923 68.4727 131.085 69.6345 131.085 70.99C131.085 72.3455 129.923 73.5073 128.567 73.5073C127.212 73.5073 126.05 72.3455 126.05 70.99Z" fill="#2BB0B3"/>
<g style="mix-blend-mode:multiply" opacity="0.5">
<path d="M128.633 73.5073C127.213 73.5073 126.115 72.3455 126.115 70.99C126.115 69.6345 127.277 68.4727 128.633 68.4727V73.5719V73.5073Z" fill="#2BB0B3"/>
</g>
<path d="M113.141 48.9119C113.141 47.4918 114.302 46.3945 115.658 46.3945C117.013 46.3945 118.175 47.5564 118.175 48.9119C118.175 50.2674 117.013 51.4292 115.658 51.4292C114.302 51.4292 113.141 50.2674 113.141 48.9119Z" fill="#2BB0B3"/>
<path d="M141.606 51.5591C143.174 51.5591 144.446 50.2875 144.446 48.719C144.446 47.1505 143.174 45.8789 141.606 45.8789C140.037 45.8789 138.766 47.1505 138.766 48.719C138.766 50.2875 140.037 51.5591 141.606 51.5591Z" fill="#2FA6D0"/>
<g style="mix-blend-mode:multiply" opacity="0.5">
<path d="M141.606 51.6216C140.057 51.6216 138.766 50.3306 138.766 48.7815C138.766 47.2323 140.057 45.9414 141.606 45.9414V51.6861V51.6216Z" fill="#A60C24"/>
</g>
<path d="M143.467 63.8469C143.536 62.8868 142.814 62.0528 141.854 61.9839C140.894 61.9151 140.06 62.6376 139.991 63.5977C139.922 64.5577 140.644 65.3917 141.605 65.4605C142.565 65.5294 143.399 64.8069 143.467 63.8469Z" fill="#2BB0B3"/>
<g style="mix-blend-mode:multiply" opacity="0.5">
<path d="M141.542 65.1105C140.573 65.1105 139.799 64.336 139.799 63.3678C139.799 62.3996 140.573 61.625 141.542 61.625V65.1105Z" fill="#2BB0B3"/>
</g>
<path d="M134.058 56.7251C134.548 53.6987 132.492 50.848 129.466 50.3579C126.439 49.8677 123.589 51.9237 123.098 54.95C122.608 57.9764 124.664 60.827 127.691 61.3172C130.717 61.8074 133.568 59.7514 134.058 56.7251Z" fill="#A1A7AD"/>
<path d="M115.658 59.5C113.528 59.5 111.785 61.2428 111.785 63.3728C111.785 65.5029 113.528 67.2457 115.658 67.2457C117.788 67.2457 119.531 65.5029 119.531 63.3728C119.531 61.2428 117.788 59.5 115.658 59.5ZM115.658 65.3092C114.561 65.3092 113.722 64.4056 113.722 63.3728C113.722 62.3401 114.625 61.4364 115.658 61.4364C116.691 61.4364 117.594 62.3401 117.594 63.3728C117.594 64.4056 116.691 65.3092 115.658 65.3092Z" fill="#0A5659"/>
<g style="mix-blend-mode:multiply" opacity="0.5">
<path d="M115.658 65.9547C114.238 65.9547 113.076 64.7929 113.076 63.3728C113.076 61.9528 114.238 60.7909 115.658 60.7909V59.5C113.528 59.5 111.785 61.2428 111.785 63.3728C111.785 65.5029 113.528 67.2457 115.658 67.2457V65.9547Z" fill="#0A5659"/>
</g>
<g style="mix-blend-mode:multiply">
<path d="M134.958 55.6925C134.958 55.8216 134.958 55.9507 134.958 56.0798C134.958 59.5653 132.118 62.4054 128.633 62.4054C125.147 62.4054 122.307 59.5653 122.307 56.0798C122.307 52.5942 125.147 49.7542 128.633 49.7542V45.5586C122.823 45.5586 118.111 50.2705 118.111 56.0798C118.111 61.889 122.823 66.601 128.633 66.601C134.442 66.601 139.154 61.889 139.154 56.0798C139.154 50.2705 139.154 55.8216 139.154 55.6925H134.958Z" fill="#CED6DB"/>
</g>
<path d="M132.376 55.8183C132.247 53.9465 130.762 52.3973 128.826 52.2682V51.8164H128.31V52.2682C126.438 52.3973 124.889 53.8819 124.759 55.8183H124.308V56.3347H124.759C124.889 58.2066 126.373 59.7557 128.31 59.8848V60.3366H128.826V59.8848C130.698 59.7557 132.247 58.2711 132.376 56.3347H132.828V55.8183H132.376ZM128.89 53.9465V53.6237C129.471 53.6237 129.988 53.9465 130.375 54.3338L129.923 54.7856C129.6 54.4628 129.149 54.2692 128.632 54.2692C128.116 54.2692 127.664 54.4628 127.341 54.7856L126.89 54.3338C127.277 53.9465 127.793 53.6883 128.374 53.6237V53.9465H128.89ZM131.085 56.3347C131.085 56.9156 130.762 57.432 130.375 57.8193L129.923 57.3675C130.246 57.0447 130.44 56.5929 130.44 56.0765C130.44 55.5601 130.246 55.1083 129.923 54.7856L130.375 54.3338C130.762 54.721 131.021 55.2374 131.085 55.8183H130.762V56.3347H131.085ZM126.115 55.8183C126.115 55.2374 126.438 54.721 126.825 54.3338L127.277 54.7856C126.954 55.1083 126.76 55.5601 126.76 56.0765C126.76 56.5929 126.954 57.0447 127.277 57.3675L126.825 57.8193C126.438 57.432 126.179 56.9156 126.115 56.3347H126.438V55.8183H126.115ZM127.019 56.0765C127.019 55.6247 127.212 55.2374 127.47 54.9792C127.729 54.721 128.18 54.5274 128.568 54.5274C129.02 54.5274 129.407 54.721 129.665 54.9792C129.923 55.2374 130.117 55.6892 130.117 56.0765C130.117 56.5283 129.923 56.9156 129.665 57.1738C129.407 57.432 128.955 57.6257 128.568 57.6257C128.18 57.6257 127.729 57.432 127.47 57.1738C127.212 56.9156 127.019 56.4638 127.019 56.0765ZM126.244 53.6883C126.825 53.1074 127.535 52.7846 128.374 52.7201V53.3656C127.083 53.4946 126.05 54.5274 125.921 55.8183H125.276C125.276 54.9792 125.663 54.2692 126.244 53.6883ZM128.374 59.3684C127.535 59.3684 126.825 58.9812 126.244 58.4002C125.663 57.8193 125.34 57.1093 125.276 56.2702H125.921C126.05 57.5611 127.083 58.5939 128.374 58.723V59.3684ZM128.374 58.2066V58.5293C127.793 58.5293 127.277 58.2066 126.89 57.8193L127.341 57.3675C127.664 57.6902 128.116 57.8839 128.632 57.8839C129.149 57.8839 129.6 57.6902 129.923 57.3675L130.375 57.8193C129.988 58.2066 129.471 58.4648 128.89 58.5293V58.2066H128.374ZM130.956 58.4002C130.375 58.9812 129.665 59.3039 128.826 59.3684V58.723C130.117 58.5939 131.15 57.5611 131.279 56.2702H131.924C131.924 57.1093 131.537 57.8193 130.956 58.4002ZM131.343 55.8183C131.214 54.5274 130.181 53.4946 128.89 53.3656V52.7201C129.73 52.7201 130.44 53.1074 131.021 53.6883C131.601 54.2692 131.924 54.9792 131.989 55.8183H131.343Z" fill="#49494A"/>
<g style="mix-blend-mode:multiply" opacity="0.5">
<path d="M115.658 51.4292C114.238 51.4292 113.141 50.2674 113.141 48.9119C113.141 47.5564 114.302 46.3945 115.658 46.3945V51.4938V51.4292Z" fill="#2BB0B3"/>
</g>
</g>
<path d="M81.2283 144H79.4832L84.5304 130.255H86.2486L91.2957 144H89.5507L85.4432 132.429H85.3358L81.2283 144ZM81.8726 138.631H88.9064V140.107H81.8726V138.631ZM96.6541 144.215C95.6876 144.215 94.8553 143.987 94.1573 143.53C93.4593 143.074 92.9224 142.445 92.5465 141.644C92.1707 140.843 91.9827 139.928 91.9827 138.899C91.9827 137.852 92.1751 136.928 92.5599 136.127C92.9492 135.322 93.4906 134.693 94.1842 134.241C94.8822 133.785 95.6965 133.557 96.6272 133.557C97.3521 133.557 98.0053 133.691 98.587 133.959C99.1687 134.228 99.6452 134.604 100.017 135.087C100.388 135.57 100.618 136.134 100.708 136.778H99.1239C99.0031 136.308 98.7347 135.892 98.3185 135.53C97.9069 135.163 97.3521 134.98 96.6541 134.98C96.0366 134.98 95.4952 135.141 95.0298 135.463C94.569 135.78 94.2088 136.23 93.9493 136.812C93.6942 137.389 93.5667 138.067 93.5667 138.845C93.5667 139.642 93.692 140.335 93.9425 140.926C94.1976 141.517 94.5555 141.975 95.0164 142.302C95.4817 142.629 96.0276 142.792 96.6541 142.792C97.0657 142.792 97.4393 142.72 97.7749 142.577C98.1105 142.434 98.3946 142.228 98.6273 141.96C98.8599 141.691 99.0255 141.369 99.1239 140.993H100.708C100.618 141.602 100.397 142.15 100.043 142.638C99.6944 143.121 99.2313 143.506 98.6541 143.792C98.0814 144.074 97.4147 144.215 96.6541 144.215ZM106.455 144.215C105.489 144.215 104.657 143.987 103.959 143.53C103.261 143.074 102.724 142.445 102.348 141.644C101.972 140.843 101.784 139.928 101.784 138.899C101.784 137.852 101.977 136.928 102.361 136.127C102.751 135.322 103.292 134.693 103.986 134.241C104.684 133.785 105.498 133.557 106.429 133.557C107.153 133.557 107.807 133.691 108.388 133.959C108.97 134.228 109.447 134.604 109.818 135.087C110.189 135.57 110.42 136.134 110.509 136.778H108.925C108.805 136.308 108.536 135.892 108.12 135.53C107.708 135.163 107.153 134.98 106.455 134.98C105.838 134.98 105.297 135.141 104.831 135.463C104.37 135.78 104.01 136.23 103.751 136.812C103.496 137.389 103.368 138.067 103.368 138.845C103.368 139.642 103.493 140.335 103.744 140.926C103.999 141.517 104.357 141.975 104.818 142.302C105.283 142.629 105.829 142.792 106.455 142.792C106.867 142.792 107.241 142.72 107.576 142.577C107.912 142.434 108.196 142.228 108.429 141.96C108.661 141.691 108.827 141.369 108.925 140.993H110.509C110.42 141.602 110.198 142.15 109.845 142.638C109.496 143.121 109.033 143.506 108.456 143.792C107.883 144.074 107.216 144.215 106.455 144.215ZM116.257 144.215C115.326 144.215 114.51 143.993 113.807 143.55C113.109 143.107 112.563 142.488 112.169 141.691C111.78 140.895 111.586 139.964 111.586 138.899C111.586 137.825 111.78 136.888 112.169 136.087C112.563 135.286 113.109 134.664 113.807 134.221C114.51 133.778 115.326 133.557 116.257 133.557C117.188 133.557 118.002 133.778 118.7 134.221C119.402 134.664 119.948 135.286 120.338 136.087C120.731 136.888 120.928 137.825 120.928 138.899C120.928 139.964 120.731 140.895 120.338 141.691C119.948 142.488 119.402 143.107 118.7 143.55C118.002 143.993 117.188 144.215 116.257 144.215ZM116.257 142.792C116.964 142.792 117.546 142.611 118.002 142.248C118.458 141.886 118.796 141.409 119.015 140.819C119.235 140.228 119.344 139.588 119.344 138.899C119.344 138.21 119.235 137.568 119.015 136.973C118.796 136.378 118.458 135.897 118.002 135.53C117.546 135.163 116.964 134.98 116.257 134.98C115.55 134.98 114.968 135.163 114.512 135.53C114.055 135.897 113.718 136.378 113.498 136.973C113.279 137.568 113.17 138.21 113.17 138.899C113.17 139.588 113.279 140.228 113.498 140.819C113.718 141.409 114.055 141.886 114.512 142.248C114.968 142.611 115.55 142.792 116.257 142.792ZM129.087 139.785V133.691H130.671V144H129.087V142.255H128.98C128.738 142.778 128.362 143.224 127.852 143.591C127.342 143.953 126.698 144.134 125.919 144.134C125.275 144.134 124.702 143.993 124.201 143.711C123.7 143.425 123.306 142.995 123.02 142.423C122.733 141.846 122.59 141.118 122.59 140.241V133.691H124.174V140.134C124.174 140.886 124.384 141.485 124.805 141.933C125.23 142.38 125.771 142.604 126.429 142.604C126.823 142.604 127.223 142.503 127.631 142.302C128.042 142.101 128.387 141.792 128.664 141.376C128.946 140.96 129.087 140.429 129.087 139.785ZM134.4 137.798V144H132.816V133.691H134.346V135.302H134.48C134.722 134.778 135.089 134.358 135.581 134.04C136.073 133.718 136.709 133.557 137.487 133.557C138.185 133.557 138.796 133.7 139.32 133.986C139.843 134.268 140.25 134.698 140.541 135.275C140.832 135.848 140.977 136.572 140.977 137.449V144H139.393V137.557C139.393 136.747 139.183 136.116 138.763 135.664C138.342 135.208 137.765 134.98 137.031 134.98C136.525 134.98 136.073 135.089 135.675 135.308C135.281 135.528 134.97 135.848 134.742 136.268C134.514 136.689 134.4 137.199 134.4 137.798ZM147.599 133.691V135.033H142.257V133.691H147.599ZM143.814 131.221H145.398V141.047C145.398 141.494 145.463 141.83 145.592 142.054C145.727 142.273 145.897 142.421 146.102 142.497C146.313 142.568 146.534 142.604 146.767 142.604C146.941 142.604 147.085 142.595 147.196 142.577C147.308 142.555 147.398 142.537 147.465 142.523L147.787 143.946C147.68 143.987 147.53 144.027 147.337 144.067C147.145 144.112 146.901 144.134 146.606 144.134C146.158 144.134 145.72 144.038 145.29 143.846C144.865 143.653 144.512 143.36 144.23 142.966C143.952 142.573 143.814 142.076 143.814 141.476V131.221ZM156.343 136L154.921 136.402C154.831 136.165 154.699 135.935 154.525 135.711C154.355 135.483 154.122 135.295 153.827 135.147C153.531 135 153.153 134.926 152.692 134.926C152.061 134.926 151.536 135.071 151.115 135.362C150.699 135.648 150.491 136.013 150.491 136.456C150.491 136.85 150.634 137.161 150.92 137.389C151.207 137.617 151.654 137.807 152.263 137.96L153.793 138.335C154.715 138.559 155.402 138.901 155.854 139.362C156.305 139.819 156.531 140.407 156.531 141.127C156.531 141.718 156.361 142.246 156.021 142.711C155.686 143.177 155.216 143.544 154.612 143.812C154.008 144.081 153.305 144.215 152.504 144.215C151.453 144.215 150.583 143.987 149.894 143.53C149.205 143.074 148.768 142.407 148.585 141.53L150.088 141.154C150.231 141.709 150.502 142.125 150.9 142.403C151.303 142.68 151.829 142.819 152.478 142.819C153.216 142.819 153.802 142.662 154.236 142.349C154.675 142.031 154.894 141.651 154.894 141.208C154.894 140.85 154.768 140.55 154.518 140.309C154.267 140.063 153.883 139.879 153.364 139.758L151.645 139.356C150.701 139.132 150.008 138.785 149.565 138.315C149.126 137.841 148.907 137.248 148.907 136.537C148.907 135.955 149.07 135.44 149.397 134.993C149.728 134.546 150.178 134.194 150.746 133.939C151.319 133.684 151.967 133.557 152.692 133.557C153.713 133.557 154.513 133.78 155.095 134.228C155.681 134.675 156.097 135.266 156.343 136ZM166.612 144.188C165.708 144.188 164.93 144.022 164.276 143.691C163.623 143.36 163.12 142.906 162.766 142.329C162.413 141.752 162.236 141.092 162.236 140.349C162.236 139.776 162.357 139.268 162.599 138.825C162.845 138.378 163.182 137.964 163.612 137.584C164.046 137.199 164.545 136.814 165.109 136.429L167.095 134.953C167.485 134.698 167.796 134.425 168.028 134.134C168.265 133.843 168.384 133.463 168.384 132.993C168.384 132.644 168.23 132.306 167.921 131.979C167.617 131.653 167.216 131.489 166.719 131.489C166.37 131.489 166.062 131.579 165.793 131.758C165.529 131.932 165.321 132.156 165.169 132.429C165.021 132.698 164.948 132.975 164.948 133.261C164.948 133.584 165.035 133.91 165.209 134.241C165.388 134.568 165.614 134.903 165.887 135.248C166.165 135.588 166.451 135.937 166.746 136.295L173.055 144H171.149L165.941 137.718C165.458 137.136 165.019 136.608 164.625 136.134C164.232 135.66 163.918 135.192 163.686 134.731C163.453 134.27 163.337 133.771 163.337 133.235C163.337 132.617 163.473 132.076 163.746 131.61C164.024 131.14 164.411 130.776 164.907 130.516C165.408 130.252 165.995 130.12 166.666 130.12C167.355 130.12 167.948 130.255 168.444 130.523C168.941 130.787 169.324 131.138 169.592 131.577C169.861 132.011 169.995 132.483 169.995 132.993C169.995 133.651 169.831 134.221 169.505 134.704C169.178 135.188 168.733 135.637 168.169 136.053L165.431 138.094C164.813 138.55 164.395 138.993 164.176 139.423C163.957 139.852 163.847 140.161 163.847 140.349C163.847 140.778 163.959 141.179 164.182 141.55C164.406 141.922 164.722 142.221 165.129 142.45C165.536 142.678 166.013 142.792 166.558 142.792C167.077 142.792 167.583 142.682 168.075 142.463C168.567 142.239 169.013 141.917 169.411 141.497C169.814 141.076 170.131 140.57 170.364 139.98C170.601 139.389 170.72 138.725 170.72 137.986H172.25C172.25 138.899 172.145 139.644 171.934 140.221C171.724 140.799 171.487 141.25 171.223 141.577C170.959 141.904 170.746 142.148 170.585 142.309C170.532 142.376 170.482 142.443 170.438 142.51C170.393 142.577 170.344 142.644 170.29 142.711C169.847 143.208 169.288 143.579 168.612 143.825C167.937 144.067 167.27 144.188 166.612 144.188ZM80.6645 162V148.255H88.9064V149.731H82.329V154.376H88.2889V155.852H82.329V162H80.6645ZM90.7864 162V151.691H92.3703V162H90.7864ZM91.5918 149.973C91.2831 149.973 91.0168 149.868 90.7931 149.657C90.5739 149.447 90.4642 149.194 90.4642 148.899C90.4642 148.604 90.5739 148.351 90.7931 148.14C91.0168 147.93 91.2831 147.825 91.5918 147.825C91.9005 147.825 92.1645 147.93 92.3838 148.14C92.6075 148.351 92.7193 148.604 92.7193 148.899C92.7193 149.194 92.6075 149.447 92.3838 149.657C92.1645 149.868 91.9005 149.973 91.5918 149.973ZM96.0994 155.798V162H94.5154V151.691H96.0457V153.302H96.1799C96.4216 152.778 96.7885 152.358 97.2806 152.04C97.7728 151.718 98.4082 151.557 99.1868 151.557C99.8848 151.557 100.496 151.7 101.019 151.986C101.543 152.268 101.95 152.698 102.241 153.275C102.531 153.848 102.677 154.572 102.677 155.449V162H101.093V155.557C101.093 154.747 100.883 154.116 100.462 153.664C100.041 153.208 99.4642 152.98 98.7304 152.98C98.2248 152.98 97.7728 153.089 97.3746 153.308C96.9809 153.528 96.6699 153.848 96.4417 154.268C96.2135 154.689 96.0994 155.199 96.0994 155.798ZM107.849 162.242C107.196 162.242 106.603 162.119 106.07 161.872C105.538 161.622 105.115 161.262 104.802 160.792C104.489 160.318 104.332 159.745 104.332 159.074C104.332 158.483 104.448 158.004 104.681 157.637C104.914 157.266 105.225 156.975 105.614 156.765C106.003 156.555 106.433 156.398 106.903 156.295C107.377 156.188 107.853 156.103 108.332 156.04C108.959 155.96 109.466 155.899 109.856 155.859C110.249 155.814 110.536 155.74 110.715 155.637C110.898 155.534 110.99 155.355 110.99 155.1V155.047C110.99 154.385 110.809 153.87 110.446 153.503C110.088 153.136 109.545 152.953 108.815 152.953C108.059 152.953 107.466 153.118 107.037 153.449C106.607 153.78 106.305 154.134 106.131 154.51L104.627 153.973C104.896 153.346 105.254 152.859 105.701 152.51C106.153 152.156 106.645 151.91 107.178 151.771C107.715 151.628 108.243 151.557 108.762 151.557C109.093 151.557 109.473 151.597 109.903 151.677C110.337 151.754 110.755 151.912 111.158 152.154C111.565 152.396 111.903 152.76 112.171 153.248C112.44 153.736 112.574 154.389 112.574 155.208V162H110.99V160.604H110.909C110.802 160.828 110.623 161.067 110.372 161.322C110.122 161.577 109.789 161.794 109.372 161.973C108.956 162.152 108.448 162.242 107.849 162.242ZM108.09 160.819C108.717 160.819 109.245 160.696 109.674 160.45C110.108 160.204 110.435 159.886 110.654 159.497C110.878 159.107 110.99 158.698 110.99 158.268V156.819C110.923 156.899 110.775 156.973 110.547 157.04C110.323 157.103 110.064 157.159 109.768 157.208C109.478 157.253 109.193 157.293 108.916 157.329C108.643 157.36 108.422 157.387 108.252 157.409C107.84 157.463 107.455 157.55 107.097 157.671C106.744 157.787 106.457 157.964 106.238 158.201C106.023 158.434 105.916 158.752 105.916 159.154C105.916 159.705 106.12 160.121 106.527 160.403C106.938 160.68 107.46 160.819 108.09 160.819ZM116.293 155.798V162H114.709V151.691H116.239V153.302H116.373C116.615 152.778 116.982 152.358 117.474 152.04C117.966 151.718 118.602 151.557 119.38 151.557C120.078 151.557 120.689 151.7 121.213 151.986C121.736 152.268 122.143 152.698 122.434 153.275C122.725 153.848 122.87 154.572 122.87 155.449V162H121.286V155.557C121.286 154.747 121.076 154.116 120.655 153.664C120.235 153.208 119.658 152.98 118.924 152.98C118.418 152.98 117.966 153.089 117.568 153.308C117.174 153.528 116.863 153.848 116.635 154.268C116.407 154.689 116.293 155.199 116.293 155.798ZM129.197 162.215C128.23 162.215 127.398 161.987 126.7 161.53C126.002 161.074 125.465 160.445 125.089 159.644C124.713 158.843 124.525 157.928 124.525 156.899C124.525 155.852 124.718 154.928 125.103 154.127C125.492 153.322 126.033 152.693 126.727 152.241C127.425 151.785 128.239 151.557 129.17 151.557C129.895 151.557 130.548 151.691 131.13 151.959C131.711 152.228 132.188 152.604 132.559 153.087C132.931 153.57 133.161 154.134 133.251 154.778H131.667C131.546 154.308 131.277 153.892 130.861 153.53C130.45 153.163 129.895 152.98 129.197 152.98C128.579 152.98 128.038 153.141 127.573 153.463C127.112 153.78 126.751 154.23 126.492 154.812C126.237 155.389 126.109 156.067 126.109 156.845C126.109 157.642 126.235 158.335 126.485 158.926C126.74 159.517 127.098 159.975 127.559 160.302C128.024 160.629 128.57 160.792 129.197 160.792C129.608 160.792 129.982 160.72 130.318 160.577C130.653 160.434 130.937 160.228 131.17 159.96C131.403 159.691 131.568 159.369 131.667 158.993H133.251C133.161 159.602 132.94 160.15 132.586 160.638C132.237 161.121 131.774 161.506 131.197 161.792C130.624 162.074 129.957 162.215 129.197 162.215ZM139.132 162.215C138.139 162.215 137.282 161.996 136.562 161.557C135.846 161.114 135.293 160.497 134.904 159.705C134.519 158.908 134.327 157.982 134.327 156.926C134.327 155.87 134.519 154.939 134.904 154.134C135.293 153.324 135.835 152.693 136.528 152.241C137.226 151.785 138.041 151.557 138.971 151.557C139.508 151.557 140.038 151.646 140.562 151.825C141.085 152.004 141.562 152.295 141.992 152.698C142.421 153.096 142.763 153.624 143.018 154.282C143.273 154.939 143.401 155.749 143.401 156.711V157.382H135.454V156.013H141.79C141.79 155.432 141.674 154.912 141.441 154.456C141.213 154 140.886 153.64 140.461 153.376C140.041 153.112 139.544 152.98 138.971 152.98C138.34 152.98 137.795 153.136 137.334 153.449C136.877 153.758 136.526 154.161 136.28 154.657C136.034 155.154 135.911 155.687 135.911 156.255V157.168C135.911 157.946 136.045 158.606 136.314 159.148C136.586 159.684 136.965 160.094 137.448 160.376C137.931 160.653 138.493 160.792 139.132 160.792C139.549 160.792 139.924 160.734 140.26 160.617C140.6 160.497 140.893 160.318 141.139 160.08C141.385 159.839 141.575 159.539 141.71 159.181L143.24 159.611C143.079 160.13 142.808 160.586 142.428 160.98C142.047 161.369 141.578 161.673 141.018 161.893C140.459 162.107 139.83 162.215 139.132 162.215ZM149.829 148.255H151.816L156.487 159.664H156.648L161.319 148.255H163.306V162H161.749V151.557H161.615L157.319 162H155.816L151.52 151.557H151.386V162H149.829V148.255ZM169.861 162.215C168.93 162.215 168.113 161.993 167.411 161.55C166.713 161.107 166.167 160.488 165.773 159.691C165.384 158.895 165.189 157.964 165.189 156.899C165.189 155.825 165.384 154.888 165.773 154.087C166.167 153.286 166.713 152.664 167.411 152.221C168.113 151.778 168.93 151.557 169.861 151.557C170.791 151.557 171.606 151.778 172.304 152.221C173.006 152.664 173.552 153.286 173.941 154.087C174.335 154.888 174.532 155.825 174.532 156.899C174.532 157.964 174.335 158.895 173.941 159.691C173.552 160.488 173.006 161.107 172.304 161.55C171.606 161.993 170.791 162.215 169.861 162.215ZM169.861 160.792C170.567 160.792 171.149 160.611 171.606 160.248C172.062 159.886 172.4 159.409 172.619 158.819C172.838 158.228 172.948 157.588 172.948 156.899C172.948 156.21 172.838 155.568 172.619 154.973C172.4 154.378 172.062 153.897 171.606 153.53C171.149 153.163 170.567 152.98 169.861 152.98C169.154 152.98 168.572 153.163 168.116 153.53C167.659 153.897 167.321 154.378 167.102 154.973C166.883 155.568 166.773 156.21 166.773 156.899C166.773 157.588 166.883 158.228 167.102 158.819C167.321 159.409 167.659 159.886 168.116 160.248C168.572 160.611 169.154 160.792 169.861 160.792ZM180.086 162.215C179.227 162.215 178.469 161.998 177.811 161.564C177.153 161.125 176.639 160.508 176.268 159.711C175.896 158.91 175.71 157.964 175.71 156.872C175.71 155.789 175.896 154.85 176.268 154.053C176.639 153.257 177.156 152.642 177.818 152.208C178.48 151.774 179.245 151.557 180.113 151.557C180.784 151.557 181.315 151.669 181.704 151.892C182.098 152.112 182.398 152.362 182.603 152.644C182.814 152.921 182.977 153.15 183.093 153.329H183.228V148.255H184.811V162H183.281V160.416H183.093C182.977 160.604 182.811 160.841 182.597 161.127C182.382 161.409 182.075 161.662 181.677 161.886C181.279 162.105 180.749 162.215 180.086 162.215ZM180.301 160.792C180.937 160.792 181.474 160.626 181.912 160.295C182.351 159.96 182.684 159.497 182.912 158.906C183.14 158.311 183.254 157.624 183.254 156.845C183.254 156.076 183.143 155.402 182.919 154.825C182.695 154.244 182.364 153.792 181.925 153.469C181.487 153.143 180.946 152.98 180.301 152.98C179.63 152.98 179.071 153.152 178.623 153.496C178.18 153.836 177.847 154.3 177.623 154.886C177.404 155.467 177.294 156.121 177.294 156.845C177.294 157.579 177.406 158.246 177.63 158.846C177.858 159.441 178.194 159.915 178.637 160.268C179.084 160.617 179.639 160.792 180.301 160.792ZM193.673 157.785V151.691H195.257V162H193.673V160.255H193.566C193.324 160.778 192.948 161.224 192.438 161.591C191.928 161.953 191.284 162.134 190.505 162.134C189.861 162.134 189.288 161.993 188.787 161.711C188.286 161.425 187.892 160.995 187.606 160.423C187.32 159.846 187.176 159.118 187.176 158.241V151.691H188.76V158.134C188.76 158.886 188.971 159.485 189.391 159.933C189.816 160.38 190.358 160.604 191.015 160.604C191.409 160.604 191.81 160.503 192.217 160.302C192.628 160.101 192.973 159.792 193.25 159.376C193.532 158.96 193.673 158.429 193.673 157.785ZM198.986 148.255V162H197.402V148.255H198.986ZM205.454 162.215C204.46 162.215 203.604 161.996 202.883 161.557C202.167 161.114 201.615 160.497 201.225 159.705C200.841 158.908 200.648 157.982 200.648 156.926C200.648 155.87 200.841 154.939 201.225 154.134C201.615 153.324 202.156 152.693 202.85 152.241C203.548 151.785 204.362 151.557 205.293 151.557C205.83 151.557 206.36 151.646 206.883 151.825C207.407 152.004 207.883 152.295 208.313 152.698C208.742 153.096 209.085 153.624 209.34 154.282C209.595 154.939 209.722 155.749 209.722 156.711V157.382H201.776V156.013H208.111C208.111 155.432 207.995 154.912 207.762 154.456C207.534 154 207.208 153.64 206.783 153.376C206.362 153.112 205.865 152.98 205.293 152.98C204.662 152.98 204.116 153.136 203.655 153.449C203.199 153.758 202.847 154.161 202.601 154.657C202.355 155.154 202.232 155.687 202.232 156.255V157.168C202.232 157.946 202.366 158.606 202.635 159.148C202.908 159.684 203.286 160.094 203.769 160.376C204.252 160.653 204.814 160.792 205.454 160.792C205.87 160.792 206.246 160.734 206.581 160.617C206.921 160.497 207.214 160.318 207.46 160.08C207.707 159.839 207.897 159.539 208.031 159.181L209.561 159.611C209.4 160.13 209.129 160.586 208.749 160.98C208.369 161.369 207.899 161.673 207.34 161.893C206.78 162.107 206.152 162.215 205.454 162.215Z" fill="#1F2548"/>
<path d="M49.2448 78.0705C52.2341 77.6681 55.6834 79.0478 58.0978 80.7149C61.0297 82.727 63.0992 86.0612 63.7316 89.5679C64.5939 94.2244 63.0992 97.4437 60.5123 101.18C61.2596 101.755 61.892 102.388 62.5818 103.02C63.0417 102.503 63.5016 102.043 64.0765 101.583C65.2262 102.56 66.2035 103.767 67.2958 104.802C68.618 106.124 71.1474 108.366 72.1247 109.746C72.3547 110.091 72.4696 110.551 72.5271 110.953C72.5271 111.758 72.2397 112.563 71.7223 113.138C71.1474 113.713 70.4001 114 69.5953 114C67.6982 114 66.0311 111.528 64.7663 110.263C63.1567 108.711 61.5471 107.159 60.1099 105.434C60.4548 105.032 60.8572 104.687 61.2021 104.342L59.305 102.388C57.3505 104.055 54.7636 105.089 52.2341 105.377C48.6699 105.779 45.0482 104.457 42.2313 102.215C42.0589 102.043 41.8864 101.928 41.714 101.755C41.5415 101.583 41.369 101.41 41.1966 101.295C41.0241 101.123 40.8516 100.95 40.6792 100.778C40.5067 100.605 40.3917 100.433 40.2193 100.261C40.0468 100.088 39.9318 99.9156 39.7594 99.6857C39.6444 99.5132 39.4719 99.2833 39.357 99.1108C39.242 98.9384 39.127 98.7084 38.9546 98.536C38.8396 98.3635 38.7246 98.1335 38.6096 97.9036C38.4947 97.6736 38.3797 97.5012 38.2647 97.2712C38.1497 97.0413 38.0923 96.8688 37.9773 96.6389C37.8623 96.4089 37.8048 96.179 37.7473 96.0065C37.6898 95.7765 37.5749 95.5466 37.5174 95.3166C37.4599 95.0867 37.4024 94.8568 37.3449 94.6268C37.3449 94.3969 37.2299 94.1669 37.1725 93.937C37.1725 93.707 37.115 93.4771 37.0575 93.2471C37.0575 93.0172 37 92.7872 37 92.5573C37 92.3273 37 92.0974 37 91.9249C37 91.695 37 91.465 37 91.2925C37 91.0626 37 90.8327 37 90.6602C37 90.4302 37 90.2003 37 90.0278C37 89.7979 37 89.5679 37.0575 89.3955C37.0575 89.1655 37.115 88.9931 37.1725 88.7631C37.1725 88.5332 37.2874 88.3607 37.2874 88.1307C37.2874 87.9008 37.4024 87.7283 37.4599 87.4984C37.5174 87.2684 37.5749 87.096 37.6898 86.866C37.7473 86.6361 37.8623 86.4636 37.9198 86.2337C37.9773 86.0037 38.0923 85.8313 38.2072 85.6588C38.3222 85.4863 38.3797 85.2564 38.4947 85.0839C38.6096 84.9115 38.7246 84.6815 38.8396 84.509C38.9546 84.3366 39.0695 84.1641 39.1845 83.9342C39.2995 83.7617 39.4145 83.5893 39.5869 83.4168C39.7019 83.2444 39.8744 83.0719 39.9893 82.8994C42.3463 80.0251 45.6231 78.4729 49.3023 78.128L49.2448 78.0705Z" fill="black"/>
<path d="M64.0766 102.848C64.9964 103.595 65.8587 104.687 66.7211 105.607C68.0433 106.987 69.423 108.309 70.7452 109.746C71.2051 110.264 71.6075 110.781 71.4925 111.471C71.4925 111.988 71.2051 112.391 70.8026 112.735C70.1703 113.253 69.7104 113.253 68.9631 113.195C67.8133 112.506 62.2945 106.699 61.2598 105.435C62.237 104.572 63.0994 103.652 64.0766 102.848Z" fill="#2FA6D0"/>
<path d="M42.6339 101.467C42.1165 101.065 41.7141 100.605 41.2542 100.145C38.8398 97.4431 37.7475 93.9938 37.92 90.4296C37.92 90.1997 37.92 90.0272 37.92 89.7973C37.92 89.5673 37.92 89.3949 37.9775 89.2224C37.9775 89.0499 38.0349 88.82 38.0924 88.6475C38.0924 88.4751 38.1499 88.2451 38.2074 88.0727C38.2074 87.9002 38.3224 87.6703 38.3799 87.4978C38.4374 87.3253 38.4948 87.0954 38.5523 86.9229C38.6098 86.7505 38.6673 86.5205 38.7823 86.348C38.8398 86.1756 38.9547 86.0031 39.0122 85.7732C39.1272 85.6007 39.1847 85.4282 39.2997 85.2558C39.4146 85.0833 39.4721 84.9109 39.5871 84.7384C39.7021 84.5659 39.817 84.3935 39.932 84.221C40.047 84.0485 40.162 83.8761 40.2769 83.7036C40.3919 83.5312 40.5069 83.3587 40.6794 83.2437C40.7943 83.0713 40.9668 82.9563 41.0818 82.7838C41.1967 82.6114 41.3692 82.4964 41.4842 82.3239C41.6566 82.209 41.7716 82.0365 41.9441 81.9215C44.301 79.852 47.6353 78.8172 50.7396 79.0472C50.9696 79.0472 51.142 79.0472 51.372 79.1047C51.6019 79.1047 51.7744 79.1046 52.0043 79.2196C52.2343 79.2196 52.4068 79.2771 52.6367 79.3346C52.8667 79.3346 53.0391 79.4496 53.2691 79.507C53.499 79.507 53.6715 79.6221 53.9014 79.6795C54.1314 79.737 54.3038 79.7945 54.4763 79.9095C54.6488 79.967 54.8787 80.0819 55.0512 80.1394C55.2236 80.1969 55.4536 80.3119 55.626 80.4269C55.7985 80.5418 56.0284 80.5993 56.2009 80.7143C56.3734 80.8293 56.5458 80.9442 56.7758 81.0592C56.9482 81.1742 57.1207 81.2892 57.2932 81.4042C57.4656 81.5191 57.6381 81.6341 57.8106 81.8065C57.983 81.9215 58.1555 82.094 58.3279 82.209C58.5004 82.3239 58.6729 82.4964 58.7878 82.6114C58.9028 82.7263 59.0753 82.8988 59.2477 83.0713C59.4202 83.2437 59.5352 83.3587 59.7076 83.5312H59.5927C58.9603 83.4737 56.8908 82.1515 56.2009 81.864C52.5217 80.2544 47.3479 80.8868 44.1286 83.3012C41.8291 85.0258 40.047 87.9577 39.6446 90.832C39.6446 91.0045 39.6446 91.177 39.5871 91.3494C39.5871 91.5219 39.5871 91.6943 39.5871 91.8668C39.5871 92.0393 39.5871 92.2117 39.5871 92.3842C39.5871 92.5567 39.5871 92.7291 39.5871 92.9016C39.5871 93.0741 39.5871 93.2465 39.5871 93.419C39.5871 93.5914 39.5871 93.7639 39.5871 93.9364C39.5871 94.1088 39.5871 94.2813 39.5871 94.4537C39.5871 94.6262 39.5871 94.7987 39.6446 94.9711C39.6446 95.1436 39.7021 95.316 39.7596 95.431C39.7596 95.6035 39.817 95.7759 39.8745 95.8909C39.8745 96.0634 39.932 96.2359 39.9895 96.3508C39.9895 96.5233 40.1045 96.6958 40.162 96.8107C40.162 96.9832 40.2769 97.0982 40.3344 97.2706C40.3919 97.4431 40.4494 97.5581 40.5069 97.7305C40.5644 97.903 40.6219 98.0179 40.7368 98.1904C40.7943 98.3629 40.9093 98.4779 40.9668 98.6503C41.3117 99.3402 42.6339 101.065 42.6339 101.755V101.467Z" fill="#FEFEFE"/>
<g filter="url(#filter1_d_616_2376)">
<path d="M42.6337 101.466C42.6337 100.834 41.3115 99.1092 40.9666 98.3619C40.9091 98.1894 40.7941 98.0744 40.7367 97.9019C40.6792 97.7295 40.6217 97.6145 40.5067 97.442C40.4492 97.2696 40.3917 97.1546 40.3342 96.9821C40.2768 96.8097 40.2193 96.6947 40.1618 96.5223C40.1618 96.3498 40.0468 96.2348 39.9893 96.0624C39.9893 95.8899 39.8744 95.7174 39.8744 95.6024C39.8744 95.43 39.8169 95.2575 39.7594 95.1425C39.7594 94.9701 39.7019 94.7976 39.6444 94.6827C39.6444 94.5102 39.6444 94.3377 39.5869 94.1653C39.5869 93.9928 39.5869 93.8204 39.5869 93.6479C39.5869 93.4754 39.5869 93.303 39.5869 93.1305C39.5869 92.958 39.5869 92.7856 39.5869 92.6131C39.5869 92.4407 39.5869 92.2682 39.5869 92.0957C39.5869 91.9233 39.5869 91.7508 39.5869 91.5783C39.5869 91.4059 39.5869 91.2334 39.5869 91.061C39.5869 90.8885 39.5869 90.716 39.6444 90.5436C40.0468 87.7267 41.8289 84.7374 44.1284 83.0128C47.3477 80.6558 52.5215 80.0234 56.2007 81.5756C56.8906 81.863 58.9601 83.1852 59.5925 83.2427H59.7075C61.9495 85.5422 63.0417 89.0489 62.9842 92.2107C62.9267 95.7174 61.2596 98.9942 58.7302 101.409C56.5456 103.536 53.3264 104.513 50.337 104.455C47.8076 104.398 44.4158 103.306 42.6337 101.466C42.6337 101.466 42.6337 101.409 42.5762 101.351L42.6337 101.466Z" fill="#80BBD7"/>
</g>
<path d="M54.7059 86.9805C55.6257 87.5553 56.4305 88.7051 57.1204 89.5674C54.476 92.2693 51.7166 94.9712 49.1871 97.7306C47.9224 96.5808 46.7152 95.3161 45.508 94.1089C44.6456 93.2466 43.7258 92.3843 42.9785 91.3495C43.8983 90.7172 44.5882 89.6824 45.278 88.8776C46.6577 89.9698 47.8074 91.4645 49.1296 92.6717C50.1069 91.5795 51.1417 90.6022 52.119 89.5674C52.9238 88.7051 53.7861 87.7278 54.7059 86.9805Z" fill="black"/>
<path d="M54.5915 88.0731C55.1663 88.533 55.6262 89.0504 56.0861 89.5678C53.7866 91.8672 51.5446 94.4542 49.1302 96.5812C47.808 95.4315 46.6007 94.1668 45.3935 92.902L44.0713 91.5223C44.4737 91.0049 44.9336 90.5451 45.3935 90.0277C46.7157 91.1199 47.9229 92.6146 49.0727 93.8793C50.7973 91.8672 52.8094 89.9702 54.6489 88.0156L54.5915 88.0731Z" fill="#FBCA64"/>
<path d="M47.4857 22.2149C47.435 22.1641 47.3334 22.1133 47.2319 22.1133H45.0485C44.9977 22.1133 44.8962 22.0625 44.8454 22.0625C44.7946 22.0625 44.6931 22.0625 44.6423 22.1133H42.4589C42.2558 22.1133 42.0527 22.2656 42.0527 22.5195C42.0527 22.7734 42.0527 22.621 42.0527 22.6718V24.0428C42.0527 24.0428 42.0527 24.1443 42.0527 24.1951C42.0527 24.2459 42.0527 24.2966 42.0527 24.3474V27.1909C42.0527 27.1909 42.0527 27.2924 42.0527 27.3432C42.0527 27.5463 42.2051 27.7494 42.4589 27.7494H47.1811C47.1811 27.7494 47.2826 27.7494 47.3334 27.7494C47.5365 27.7494 47.7396 27.5971 47.7396 27.3432V22.5703C47.7396 22.4179 47.6381 22.2656 47.4857 22.2149ZM46.9272 23.7889H45.2008V22.8749H46.9272V23.7889ZM44.49 23.7889H42.8651V22.8749H44.49V23.7889ZM42.8651 24.5505H44.49V26.937H42.8651V24.5505ZM45.2516 24.5505H46.978V26.937H45.2516V24.5505Z" fill="url(#paint0_linear_616_2376)"/>
<path d="M53.1213 20.6417L45.8096 13.33H45.7588C45.7588 13.33 45.7588 13.2793 45.708 13.2285C45.4034 12.9238 44.8449 12.9238 44.5402 13.2285L37.2285 20.5402C36.9238 20.8448 36.9238 21.4034 37.2285 21.708C37.5331 22.0127 38.0917 22.0127 38.3963 21.708L38.8533 21.2511V29.8322C38.8533 29.9337 38.8025 30.0353 38.8025 30.1368C38.8025 30.5938 39.158 30.9492 39.615 30.9492H49.8209C49.9224 30.9492 50.024 31 50.1255 31C50.5825 31 50.9379 30.6446 50.9379 30.1876V20.7941L51.9535 21.8096C52.2581 22.1142 52.8167 22.1142 53.1213 21.8096C53.426 21.5049 53.426 20.9464 53.1213 20.6417ZM40.4274 20.5402H49.2623V29.3244H40.4274V20.5402ZM45.048 14.9548L48.9577 18.8646H41.0874L44.9972 14.9548H45.048Z" fill="url(#paint1_linear_616_2376)"/>
<g filter="url(#filter2_d_616_2376)">
<path d="M208.066 42.878C208.066 42.8349 208.066 42.7487 208.066 42.7056C208.066 42.5763 207.193 41.8006 207.019 41.5851C206.626 41.0679 206.277 40.5077 206.103 39.9044C205.841 38.9132 206.103 37.9651 206.626 37.1032C207.848 35.207 209.462 35.7672 211.251 35.2931C211.426 35.2501 211.687 35.1639 211.775 34.9915C212.036 34.6898 212.604 31.9317 213.214 30.8974C214.262 29.0874 215.832 27.8376 217.883 27.3205C220.501 26.6309 223.38 27.0188 225.431 28.8288C225.867 29.2167 226.391 30.0355 226.871 30.251H226.958C227.133 30.725 227.264 31.4576 227.787 31.63C227.787 31.63 227.874 31.63 227.918 31.63C228.136 32.061 228.398 32.4919 228.66 32.8798C230.274 32.2334 231.845 31.8024 233.546 32.535C235.553 33.3969 236.208 35.5086 236.688 35.7672C236.731 35.7672 236.819 35.7672 236.862 35.8103C237.211 37.1032 236.862 38.5684 236.208 39.732C235.466 40.9818 234.07 42.3177 232.63 42.7056C231.365 43.0073 209.07 43.1796 207.935 42.7056L208.066 42.878Z" fill="#69CDF0"/>
</g>
<path d="M227.6 120V109.1C227.6 108.2 226.9 107.5 226.1 107.5C226.1 107.5 225.9 107.5 225.8 107.5H220.1C219.9 107.5 219.7 107.5 219.5 107.5C218.6 107.5 218 108.2 218 109.1V119.2H216.2V104.2C216.2 103 215.6 102 214.7 101.9C214.6 101.9 214.5 101.8 214.3 101.8H208.5C208.3 101.8 208.2 101.8 208 101.8C207.8 101.8 207.6 101.8 207.4 102C207.2 102 207.1 102.2 207 102.4C206.7 102.8 206.5 103.4 206.5 104.1V119.2H204.7V100C204.7 98.5 204.1 97.3 203.3 97.2C203.2 97.1 203 97 202.9 97H197C196.9 97 196.7 97 196.6 97C196.5 97 196.3 97 196.1 97.1C195.7 97.1 195.4 97.6999 195.2 98.3999C195.1 98.7999 195 99.2999 195 99.7999V119C195 119.5 195 119.9 195.2 120.3C195.2 120.4 195.2 120.5 195.2 120.7C195.2 121.5 195.7 122.2 196.4 122.2H226.6C227.3 122.2 227.8 121.5 227.8 120.7C227.8 119.9 227.8 120.2 227.7 120.1L227.6 120ZM198.1 119.1C198.1 119.1 198.1 119 198.1 118.9V101.2H201.6V119.1H198.1ZM221.1 111.7H224.6V119.1H221.1V111.7ZM209.6 106H213.1V119.1H209.6V106Z" fill="url(#paint2_linear_616_2376)"/>
</g>
<defs>
<filter id="filter0_d_616_2376" x="79" y="19" width="92.6162" height="86.9961" filterUnits="userSpaceOnUse" color-interpolation-filters="sRGB">
<feFlood flood-opacity="0" result="BackgroundImageFix"/>
<feColorMatrix in="SourceAlpha" type="matrix" values="0 0 0 0 0 0 0 0 0 0 0 0 0 0 0 0 0 0 127 0" result="hardAlpha"/>
<feOffset dy="7"/>
<feGaussianBlur stdDeviation="5"/>
<feColorMatrix type="matrix" values="0 0 0 0 0 0 0 0 0 0 0 0 0 0 0 0 0 0 0.8 0"/>
<feBlend mode="normal" in2="BackgroundImageFix" result="effect1_dropShadow_616_2376"/>
<feBlend mode="normal" in="SourceGraphic" in2="effect1_dropShadow_616_2376" result="shape"/>
</filter>
<filter id="filter1_d_616_2376" x="29.5869" y="77.7266" width="43.3994" height="43.7305" filterUnits="userSpaceOnUse" color-interpolation-filters="sRGB">
<feFlood flood-opacity="0" result="BackgroundImageFix"/>
<feColorMatrix in="SourceAlpha" type="matrix" values="0 0 0 0 0 0 0 0 0 0 0 0 0 0 0 0 0 0 127 0" result="hardAlpha"/>
<feOffset dy="7"/>
<feGaussianBlur stdDeviation="5"/>
<feColorMatrix type="matrix" values="0 0 0 0 0 0 0 0 0 0 0 0 0 0 0 0 0 0 0.8 0"/>
<feBlend mode="normal" in2="BackgroundImageFix" result="effect1_dropShadow_616_2376"/>
<feBlend mode="normal" in="SourceGraphic" in2="effect1_dropShadow_616_2376" result="shape"/>
</filter>
<filter id="filter2_d_616_2376" x="196" y="19" width="51" height="36" filterUnits="userSpaceOnUse" color-interpolation-filters="sRGB">
<feFlood flood-opacity="0" result="BackgroundImageFix"/>
<feColorMatrix in="SourceAlpha" type="matrix" values="0 0 0 0 0 0 0 0 0 0 0 0 0 0 0 0 0 0 127 0" result="hardAlpha"/>
<feOffset dy="2"/>
<feGaussianBlur stdDeviation="5"/>
<feColorMatrix type="matrix" values="0 0 0 0 0 0 0 0 0 0 0 0 0 0 0 0 0 0 0.6 0"/>
<feBlend mode="normal" in2="BackgroundImageFix" result="effect1_dropShadow_616_2376"/>
<feBlend mode="normal" in="SourceGraphic" in2="effect1_dropShadow_616_2376" result="shape"/>
</filter>
<linearGradient id="paint0_linear_616_2376" x1="42.0527" y1="24.9059" x2="47.7396" y2="24.9059" gradientUnits="userSpaceOnUse">
<stop stop-color="#002D4B"/>
<stop offset="1" stop-color="#002133"/>
</linearGradient>
<linearGradient id="paint1_linear_616_2376" x1="36.9238" y1="22.0127" x2="53.3244" y2="22.0127" gradientUnits="userSpaceOnUse">
<stop stop-color="#002D4B"/>
<stop offset="1" stop-color="#002133"/>
</linearGradient>
<linearGradient id="paint2_linear_616_2376" x1="195" y1="109.5" x2="227.8" y2="109.5" gradientUnits="userSpaceOnUse">
<stop stop-color="#002D4B"/>
<stop offset="1" stop-color="#002133"/>
</linearGradient>
<clipPath id="clip0_616_2376">
<rect width="250" height="162" fill="white"/>
</clipPath>
</defs>
</svg>
