<svg width="93" height="92" viewBox="0 0 93 92" fill="none" xmlns="http://www.w3.org/2000/svg">
<path opacity="0.3" d="M80.9001 78.9019C79.0001 80.9019 77.3001 82.1021 75.9001 83.1021C59.5001 94.802 40.1001 91.402 36.0001 90.502C29.9001 89.302 18.1001 86.902 9.60007 77.002C-3.29993 62.002 -1.29995 38.3021 8.70005 22.6021C10.5 19.7021 20.2001 3.90176 39.8001 1.30176C51.7001 -0.198239 65.5001 2.90215 75.5001 11.2022C96.5001 28.7022 95.0001 64.1019 80.9001 78.9019Z" fill="url(#paint0_linear_609_11211)"/>
<g opacity="0.3">
<path d="M59.7001 15.2998C59.5001 15.2998 59.4002 15.0999 59.5002 14.8999C59.5002 14.4999 59.7002 14.1002 59.8002 13.7002C59.8002 13.5002 60.1001 13.4 60.2001 13.5C60.4001 13.5 60.5002 13.7999 60.4002 13.8999C60.3002 14.2999 60.2002 14.6 60.1002 15C60.1002 15.2 59.9001 15.2998 59.7001 15.2998ZM60.7001 12.2998C60.5001 12.2998 60.4002 11.9998 60.5002 11.7998C60.7002 11.3998 60.9002 11.1002 61.1002 10.7002C61.1002 10.5002 61.4002 10.5001 61.6002 10.6001C61.8002 10.6001 61.8001 10.9001 61.7001 11.1001C61.5001 11.4001 61.3001 11.8001 61.2001 12.1001C61.2001 12.3001 60.9002 12.2998 60.8002 12.2998H60.7001ZM62.3002 9.6001C62.3002 9.6001 62.3001 9.6001 62.2001 9.6001C62.0001 9.5001 62.0001 9.3001 62.2001 9.1001C62.4001 8.8001 62.7002 8.5002 63.0002 8.2002C63.1002 8.1002 63.4002 8.0002 63.5002 8.2002C63.6002 8.3002 63.7002 8.6002 63.5002 8.7002C63.2002 9.0002 63.0001 9.3001 62.7001 9.6001C62.7001 9.7001 62.4002 9.8002 62.3002 9.7002V9.6001ZM64.5002 7.3999C64.5002 7.3999 64.4002 7.3998 64.3002 7.2998C64.2002 7.0998 64.2002 6.8998 64.3002 6.7998C64.6002 6.4998 64.9002 6.3001 65.3002 6.1001C65.5002 6.0001 65.7002 6.1001 65.8002 6.1001C65.9002 6.3001 65.8002 6.5001 65.8002 6.6001C65.5002 6.8001 65.2002 7.0998 64.9002 7.2998C64.9002 7.2998 64.7002 7.3998 64.6002 7.2998L64.5002 7.3999ZM67.1002 5.7002C67.1002 5.7002 66.9002 5.7 66.9002 5.5C66.9002 5.3 66.9002 5.1 67.1002 5C67.5002 4.8 67.8001 4.7 68.2001 4.5C68.4001 4.5 68.6001 4.5002 68.7001 4.7002C68.7001 4.9002 68.7002 5.1002 68.5002 5.2002C68.1002 5.3002 67.8002 5.5002 67.4002 5.7002C67.4002 5.7002 67.2002 5.7002 67.1002 5.7002ZM70.0002 4.6001C69.9002 4.6001 69.8002 4.4998 69.8002 4.2998C69.8002 4.0998 69.8002 3.8999 70.1002 3.8999C70.5002 3.8999 70.9002 3.7002 71.3002 3.7002C71.5002 3.7002 71.7001 3.8 71.7001 4C71.7001 4.2 71.6002 4.3999 71.4002 4.3999C71.0002 4.3999 70.6002 4.5001 70.3002 4.6001C70.3002 4.6001 70.2002 4.6001 70.1002 4.6001H70.0002ZM82.8002 7.8999C82.8002 7.8999 82.8001 7.8999 82.7001 7.8999C82.4001 7.5999 82.1002 7.4002 81.8002 7.2002C81.6002 7.1002 81.6002 6.9002 81.8002 6.7002C81.9002 6.5002 82.1002 6.5002 82.3002 6.7002C82.6002 6.9002 82.9001 7.2 83.2001 7.5C83.3001 7.6 83.4001 7.9 83.2001 8C83.2001 8.1 83.0002 8.1 82.8002 8V7.8999ZM73.1002 4.2002C73.0002 4.2002 72.9002 3.9999 72.9002 3.8999C72.9002 3.6999 73.1002 3.5 73.3002 3.5C73.7002 3.5 74.1002 3.5 74.5002 3.5C74.7002 3.5 74.8002 3.6999 74.8002 3.8999C74.8002 4.0999 74.6002 4.2002 74.4002 4.2002C74.0002 4.2002 73.6001 4.2002 73.2001 4.2002C73.2001 4.2002 73.2002 4.2002 73.1002 4.2002ZM80.3002 6C80.0002 5.8 79.6002 5.6 79.3002 5.5C79.1002 5.5 79.0002 5.2 79.1002 5C79.1002 4.8 79.4002 4.6998 79.6002 4.7998C80.0002 4.9998 80.3001 5.1999 80.7001 5.3999C80.9001 5.3999 80.9002 5.6999 80.8002 5.8999C80.8002 6.0999 80.5002 6.1001 80.4002 6.1001L80.3002 6ZM76.3002 4.5C76.1002 4.5 76.0002 4.3001 76.1002 4.1001C76.1002 3.9001 76.3002 3.7998 76.5002 3.7998C76.9002 3.7998 77.3001 4.0001 77.7001 4.1001C77.9001 4.1001 78.0002 4.4 77.9002 4.5C77.9002 4.7 77.6002 4.8002 77.5002 4.7002C77.1002 4.6002 76.8002 4.4999 76.4002 4.3999L76.3002 4.5Z" fill="url(#paint1_linear_609_11211)"/>
<path d="M84.4998 9.80156C84.4998 9.80156 84.3999 9.80195 84.2999 9.70195C84.1999 9.60195 84.0998 9.40156 83.9998 9.30156C83.8998 9.10156 83.8998 8.90156 83.9998 8.80156C84.1998 8.70156 84.3998 8.70156 84.4998 8.80156C84.5998 9.00156 84.6998 9.10156 84.8998 9.30156C84.9998 9.50156 84.8998 9.70156 84.8998 9.80156C84.8998 9.80156 84.6998 9.80156 84.5998 9.80156H84.4998Z" fill="url(#paint2_linear_609_11211)"/>
</g>
<g opacity="0.3">
<path d="M87.2001 20.4014C87.0001 20.4014 86.9002 20.2015 87.0002 20.0015C87.0002 19.8015 87.0002 19.6014 87.0002 19.4014C87.0002 19.2014 87.2002 19.1016 87.4002 19.1016C87.6002 19.1016 87.7001 19.3015 87.7001 19.5015C87.7001 19.7015 87.7001 19.9016 87.7001 20.1016C87.7001 20.3016 87.5002 20.4014 87.3002 20.4014H87.2001Z" fill="url(#paint3_linear_609_11211)"/>
<path d="M69.0005 31.5001C68.8005 31.5001 68.7005 31.3999 68.5005 31.2999C68.3005 31.2999 68.2006 30.9999 68.3006 30.7999C68.3006 30.5999 68.6006 30.5002 68.8006 30.6002C69.2006 30.7002 69.5006 30.8 69.9006 30.9C70.1006 30.9 70.2005 31.1999 70.2005 31.2999C70.2005 31.4999 69.9006 31.6002 69.8006 31.6002C69.6006 31.6002 69.3005 31.5 69.1005 31.4L69.0005 31.5001ZM66.8006 30.5001C66.4006 30.3001 66.1006 30.1 65.8006 29.9C65.6006 29.8 65.6005 29.6 65.7005 29.4C65.8005 29.2 66.0005 29.1999 66.2005 29.2999C66.5005 29.4999 66.9005 29.7 67.2005 29.9C67.4005 29.9 67.4006 30.2 67.3006 30.4C67.3006 30.6 67.0006 30.6002 66.9006 30.6002L66.8006 30.5001ZM71.5005 32.1002C71.3005 32.1002 71.2006 31.9003 71.3006 31.7003C71.3006 31.5003 71.5005 31.4 71.7005 31.4C72.1005 31.4 72.5006 31.4001 72.8006 31.5001C73.0006 31.5001 73.2005 31.7 73.1005 31.9C73.1005 32.1 72.9005 32.3003 72.7005 32.2003C72.3005 32.2003 71.9005 32.2002 71.5005 32.1002ZM64.3006 28.7999C64.3006 28.7999 64.3005 28.7999 64.2005 28.7999C63.9005 28.4999 63.6006 28.3001 63.3006 28.0001C63.2006 27.9001 63.2006 27.6001 63.3006 27.5001C63.4006 27.4001 63.7006 27.4001 63.8006 27.5001C64.1006 27.8001 64.3005 27.9999 64.6005 28.2999C64.8005 28.3999 64.8005 28.6999 64.6005 28.7999C64.6005 28.8999 64.3005 29 64.2005 28.9L64.3006 28.7999ZM74.6005 32.1002C74.5005 32.1002 74.4006 31.8999 74.4006 31.7999C74.4006 31.5999 74.5005 31.4 74.7005 31.4C75.1005 31.4 75.5006 31.4003 75.8006 31.2003C76.0006 31.2003 76.2005 31.2001 76.2005 31.5001C76.2005 31.7001 76.2006 31.9 75.9006 31.9C75.5006 31.9 75.1005 32.0002 74.7005 32.1002C74.7005 32.1002 74.7005 32.1002 74.6005 32.1002ZM77.6005 31.5001C77.5005 31.5001 77.4006 31.3999 77.4006 31.2999C77.4006 31.0999 77.4005 30.8999 77.6005 30.7999C78.0005 30.6999 78.3005 30.6 78.7005 30.4C78.9005 30.4 79.1005 30.4002 79.2005 30.6002C79.2005 30.8002 79.2005 31.0002 79.0005 31.1002C78.6005 31.3002 78.3006 31.4001 77.9006 31.5001H77.7005H77.6005ZM80.4006 30.2003C80.4006 30.2003 80.2005 30.2001 80.2005 30.0001C80.1005 29.8001 80.2006 29.6001 80.3006 29.5001C80.6006 29.3001 81.0006 29.1 81.3006 28.9C81.5006 28.8 81.7006 28.9 81.8006 28.9C81.9006 29.1 81.8006 29.3 81.8006 29.4C81.5006 29.6 81.1006 29.8002 80.8006 30.1002C80.8006 30.1002 80.6005 30.1002 80.5005 30.1002L80.4006 30.2003ZM82.9006 28.4C82.9006 28.4 82.8005 28.4 82.7005 28.4C82.6005 28.3 82.6005 28 82.7005 27.9C83.0005 27.6 83.2005 27.4002 83.5005 27.1002C83.6005 27.0002 83.9005 26.9002 84.0005 27.1002C84.1005 27.2002 84.2005 27.5002 84.0005 27.6002C83.7005 27.9002 83.4005 28.2001 83.2005 28.5001C83.2005 28.5001 83.0006 28.6001 82.8006 28.5001L82.9006 28.4ZM84.9006 26.1002C84.7006 26.0002 84.7006 25.8002 84.9006 25.6002C85.1006 25.3002 85.3005 25.0002 85.5005 24.6002C85.5005 24.4002 85.8005 24.4001 86.0005 24.5001C86.2005 24.5001 86.2005 24.8001 86.1005 25.0001C85.9005 25.3001 85.7005 25.7001 85.5005 26.0001C85.5005 26.1001 85.2005 26.2002 85.1005 26.1002H84.9006ZM86.3006 23.2999C86.1006 23.2999 86.0005 22.9999 86.1005 22.7999C86.2005 22.4999 86.3006 22.3001 86.4006 22.0001C86.4006 22.0001 86.4006 21.8003 86.4006 21.7003C86.4006 21.5003 86.7006 21.4001 86.8006 21.5001C87.0006 21.5001 87.1005 21.8 87.0005 21.9C87.0005 22 87.0005 22.1003 87.0005 22.2003C87.0005 22.5003 86.8005 22.8001 86.7005 23.0001C86.7005 23.2001 86.4006 23.3003 86.3006 23.2003V23.2999Z" fill="url(#paint4_linear_609_11211)"/>
<path d="M62.1001 26.6016C62.1001 26.6016 62.0002 26.6015 61.9002 26.5015C61.8002 26.3015 61.7001 26.2015 61.6001 26.0015C61.5001 25.8015 61.6001 25.6015 61.6001 25.5015C61.8001 25.4015 62.0001 25.5015 62.1001 25.5015C62.2001 25.7015 62.3002 25.8015 62.4002 26.0015C62.5002 26.2015 62.4002 26.4015 62.4002 26.5015C62.4002 26.5015 62.2001 26.5015 62.1001 26.5015V26.6016Z" fill="url(#paint5_linear_609_11211)"/>
</g>
<path d="M63.9 22.7983C63.9 22.7983 63.9 22.8984 64.1 22.8984H66.1C66.6 23.5984 67.3 24.2984 68.1 24.8984L67.9 26.8984C67.9 26.8984 67.9 26.9986 67.9 27.0986L70.1 28.0986C70.1 28.0986 70.2 28.0986 70.3 28.0986L71.7 26.5986C72.7 26.7986 73.6 26.7986 74.6 26.5986L75.9 28.1987C75.9 28.1987 76 28.1987 76.1 28.1987L78.4 27.2983C78.4 27.2983 78.5 27.2986 78.5 27.0986V25.0986C79.2 24.5986 79.9 23.8986 80.5 23.0986L82.5 23.2983C82.5 23.2983 82.6 23.2983 82.7 23.2983L83.7 21.0986C83.7 21.0986 83.7 20.9984 83.7 20.8984L82.2 19.4985C82.4 18.4985 82.4 17.5986 82.2 16.5986L83.8 15.2983C83.8 15.2983 83.8 15.1986 83.8 15.0986L82.9 12.7983C82.9 12.7983 82.9 12.6987 82.7 12.6987H80.7C80.2 11.9987 79.5 11.2987 78.7 10.6987L78.9 8.69873C78.9 8.69873 78.9 8.59854 78.9 8.49854L76.7 7.49854C76.7 7.49854 76.6 7.49854 76.5 7.49854L75.1 8.99854C74.1 8.79854 73.2 8.79854 72.2 8.99854L70.9 7.39844C70.9 7.39844 70.8 7.39844 70.7 7.39844L68.4 8.29834C68.4 8.29834 68.3 8.29854 68.3 8.49854V10.4985C67.6 10.9985 66.9 11.6985 66.3 12.4985L64.3 12.2983C64.3 12.2983 64.2 12.2983 64.1 12.2983L63.1 14.4985C63.1 14.4985 63.1 14.5987 63.1 14.6987L64.6 16.0986C64.4 17.0986 64.4 17.9985 64.6 18.9985L63 20.2983C63 20.2983 63 20.3985 63 20.4985L63.9 22.7983Z" fill="#00C7D2"/>
<path opacity="0.6" d="M72.6994 20.0976C71.5994 19.6976 70.7995 18.5974 70.9995 17.2974C71.1995 15.9974 72.4995 15.0974 73.7995 15.2974C74.3995 15.3974 74.9995 15.7974 75.3995 16.2974C75.7995 16.7974 75.8995 17.4976 75.7995 18.0976C75.5995 19.3976 74.2995 20.2976 72.9995 20.0976C72.8995 20.0976 72.7995 20.0976 72.5995 20.0976H72.6994ZM74.0995 15.8975C74.0995 15.8975 73.8995 15.8975 73.7995 15.8975C72.7995 15.6975 71.7995 16.3975 71.5995 17.3975C71.3995 18.3975 72.0995 19.3976 73.0995 19.5976C74.0995 19.7976 75.0995 19.0976 75.2995 18.0976C75.2995 17.5976 75.2995 17.0977 74.9995 16.6977C74.7995 16.3977 74.3995 16.0975 73.9995 15.9975L74.0995 15.8975Z" fill="white"/>
<path opacity="0.6" d="M71.7001 23.4969C71.5001 23.4969 71.3001 23.3967 71.1001 23.2967C71.1001 23.2967 71.0002 23.2967 70.9002 23.2967C70.6002 23.1967 70.3001 22.9967 70.1001 22.7967C70.1001 22.7967 70.1001 22.697 70.1001 22.597C70.1001 22.597 70.2002 22.597 70.3002 22.597C70.6002 22.797 71.0002 22.9971 71.4002 23.1971C73.3002 23.9971 75.3002 23.7971 76.9002 22.6971C77.8002 22.0971 78.5002 21.2971 79.0002 20.1971C79.0002 19.9971 79.2001 19.797 79.2001 19.597C79.6001 18.297 79.6001 16.9971 79.1001 15.6971C78.5001 14.2971 77.5001 13.0969 76.1001 12.4969C73.2001 11.1969 69.8002 12.4968 68.5002 15.3968C68.5002 15.5968 68.4002 15.7968 68.3002 15.8968C68.0002 16.6968 68.0001 17.5968 68.1001 18.3968C68.1001 18.3968 68.1002 18.3968 68.0002 18.3968C68.0002 18.3968 67.8002 18.3967 67.8002 18.2967C67.7002 17.3967 67.8001 16.4971 68.1001 15.6971C68.1001 15.4971 68.2002 15.297 68.3002 15.097C69.7002 11.997 73.2002 10.6969 76.3002 11.9969C77.8002 12.6969 78.9002 13.7968 79.5002 15.3968C80.0002 16.6968 80.0001 18.0969 79.6001 19.4969C79.6001 19.6969 79.5002 19.897 79.4002 20.097C78.7002 21.597 77.6002 22.6967 76.0002 23.2967C74.7002 23.7967 73.3002 23.7968 71.9002 23.3968L71.7001 23.4969Z" fill="white"/>
<g opacity="0.3">
<path d="M45.1003 20.3984C45.1003 20.3984 44.9004 20.2987 44.9004 20.1987C44.9004 19.9987 44.9004 19.7986 44.9004 19.5986C44.9004 19.4986 45.0003 19.3984 45.1003 19.3984C45.2003 19.3984 45.3004 19.4986 45.3004 19.5986C45.3004 19.7986 45.3004 19.9986 45.3004 20.0986C45.3004 20.1986 45.2003 20.2983 45.1003 20.2983V20.3984Z" fill="url(#paint6_linear_609_11211)"/>
<path d="M45.3007 18.7002C45.2007 18.7002 45.1006 18.5999 45.2006 18.3999C45.2006 18.0999 45.4006 17.8 45.5006 17.5C45.5006 17.5 45.5006 17.3998 45.5006 17.2998C45.5006 17.1998 45.7007 17.1002 45.8007 17.2002C45.9007 17.2002 46.0007 17.4 45.9007 17.5C45.9007 17.5 45.9007 17.6002 45.9007 17.7002C45.9007 18.0002 45.7006 18.3001 45.7006 18.6001C45.7006 18.7001 45.6007 18.7998 45.4007 18.7998L45.3007 18.7002ZM46.0006 16.6001C45.9006 16.6001 45.8007 16.3998 45.9007 16.2998C46.1007 15.8998 46.3006 15.5998 46.5006 15.2998C46.5006 15.1998 46.7007 15.1998 46.8007 15.2998C46.9007 15.2998 46.9007 15.5001 46.8007 15.6001C46.6007 15.9001 46.4006 16.2001 46.2006 16.6001C46.2006 16.7001 46.0007 16.7002 45.9007 16.7002L46.0006 16.6001ZM47.3007 14.6001C47.3007 14.6001 47.2007 14.3998 47.3007 14.2998C47.6007 13.9998 47.8006 13.7 48.1006 13.5C48.1006 13.5 48.3007 13.5 48.4007 13.5C48.4007 13.5 48.4007 13.6998 48.4007 13.7998C48.1007 14.0998 47.9006 14.3001 47.6006 14.6001H47.4007H47.3007ZM49.0006 13.1001C49.0006 13.1001 49.0007 13.1001 48.9007 13.1001C48.9007 13.0001 48.9007 12.8998 48.9007 12.7998C49.2007 12.5998 49.6007 12.4002 49.9007 12.2002C50.0007 12.2002 50.1006 12.2002 50.2006 12.2002C50.2006 12.3002 50.2006 12.4 50.2006 12.5C49.9006 12.7 49.5006 12.9001 49.2006 13.1001C49.2006 13.1001 49.1006 13.1001 49.0006 13.1001ZM51.0006 12C51.0006 12 50.9007 11.9999 50.9007 11.8999C50.9007 11.7999 50.9006 11.7001 51.0006 11.6001C51.4006 11.5001 51.7006 11.3002 52.1006 11.2002C52.2006 11.2002 52.3007 11.1999 52.4007 11.3999C52.4007 11.4999 52.4006 11.6002 52.2006 11.7002C51.8006 11.7002 51.5006 11.9 51.1006 12H51.0006ZM53.3007 11.3999C53.3007 11.3999 53.2006 11.4002 53.1006 11.2002C53.1006 11.1002 53.1007 11 53.3007 11C53.7007 11 54.1006 11 54.5006 11C54.6006 11 54.7006 11.0002 54.7006 11.2002C54.7006 11.3002 54.7006 11.3999 54.5006 11.3999C54.1006 11.3999 53.7007 11.3999 53.4007 11.3999H53.3007ZM55.6006 11.3999C55.6006 11.3999 55.4007 11.3002 55.4007 11.2002C55.4007 11.1002 55.5006 11 55.6006 11C56.0006 11 56.4007 11.1002 56.8007 11.2002C56.9007 11.2002 57.0006 11.4 57.0006 11.5C57.0006 11.6 56.8006 11.7002 56.7006 11.7002C56.3006 11.7002 56.0006 11.5 55.6006 11.5V11.3999ZM58.9007 12.5C58.6007 12.3 58.3006 12.2001 58.0006 12.1001C58.0006 12.1001 58.0007 12.1001 57.9007 12.1001C57.8007 12.1001 57.7007 11.8998 57.8007 11.7998C57.8007 11.6998 58.0006 11.6002 58.1006 11.7002C58.1006 11.7002 58.1006 11.7002 58.2006 11.7002C58.5006 11.8002 58.8006 12.0001 59.1006 12.1001C59.2006 12.1001 59.2006 12.2999 59.1006 12.3999C59.1006 12.3999 58.9007 12.5 58.8007 12.5H58.9007Z" fill="url(#paint7_linear_609_11211)"/>
</g>
<g opacity="0.3">
<path d="M51.6002 29.7002C51.5002 29.7002 51.4002 29.4999 51.5002 29.3999C51.5002 29.2999 51.7003 29.1998 51.8003 29.2998C52.2003 29.3998 52.5003 29.5001 52.9003 29.6001C53.0003 29.6001 53.1002 29.6999 53.1002 29.8999C53.1002 29.9999 53.0003 30.1001 52.8003 30.1001C52.4003 30.1001 52.0002 29.8998 51.7002 29.7998L51.6002 29.7002ZM50.6002 29.2002C50.2002 29.0002 49.9002 28.9002 49.6002 28.7002C49.5002 28.7002 49.5002 28.4999 49.6002 28.3999C49.6002 28.2999 49.8003 28.2999 49.9003 28.3999C50.2003 28.5999 50.5003 28.7999 50.9003 28.8999C51.0003 28.8999 51.1002 29.1002 51.0002 29.2002C51.0002 29.3002 50.8002 29.3998 50.7002 29.2998L50.6002 29.2002ZM53.9003 30.1001C53.9003 30.1001 53.7002 29.9999 53.7002 29.8999C53.7002 29.7999 53.8003 29.7002 53.9003 29.7002C54.3003 29.7002 54.6002 29.7002 55.0002 29.7002C55.1002 29.7002 55.2002 29.6999 55.2002 29.8999C55.2002 29.9999 55.2002 30.1001 55.0002 30.1001C54.6002 30.1001 54.2003 30.1001 53.8003 30.1001H53.9003ZM48.6002 28.1001C48.3002 27.9001 48.0002 27.5998 47.7002 27.2998C47.7002 27.2998 47.7002 27.1 47.7002 27C47.7002 27 47.9002 27 48.0002 27C48.3002 27.3 48.5003 27.5002 48.8003 27.7002C48.8003 27.7002 48.9003 27.9 48.8003 28C48.8003 28 48.6002 28.1 48.6002 28V28.1001ZM56.1002 29.8999C56.1002 29.8999 56.0002 29.9002 56.0002 29.7002C56.0002 29.6002 56.0002 29.4999 56.2002 29.3999C56.6002 29.3999 56.9003 29.2001 57.3003 29.1001C57.4003 29.1001 57.5002 29.1002 57.6002 29.2002C57.6002 29.3002 57.6002 29.4 57.5002 29.5C57.1002 29.6 56.8003 29.6998 56.4003 29.7998C56.4003 29.7998 56.4003 29.7998 56.3003 29.7998L56.1002 29.8999ZM58.3003 29.2002C58.3003 29.2002 58.2002 29.2001 58.2002 29.1001C58.2002 29.0001 58.2003 28.8998 58.3003 28.7998C58.6003 28.5998 59.0003 28.4998 59.3003 28.2998C59.4003 28.2998 59.5002 28.2998 59.6002 28.2998C59.6002 28.3998 59.6002 28.5001 59.6002 28.6001C59.3002 28.8001 58.9002 29.0001 58.6002 29.1001C58.6002 29.1001 58.5003 29.1001 58.4003 29.1001L58.3003 29.2002ZM60.2002 28.1001C60.2002 28.1001 60.2002 28.1001 60.1002 28.1001C60.1002 28.1001 60.1002 27.8998 60.1002 27.7998C60.4002 27.5998 60.7003 27.3001 60.9003 27.1001C60.9003 27.1001 61.1002 27.1001 61.2002 27.1001C61.2002 27.1001 61.2002 27.2999 61.2002 27.3999C60.9002 27.6999 60.6003 27.9002 60.3003 28.2002C60.3003 28.2002 60.2002 28.2002 60.1002 28.2002L60.2002 28.1001Z" fill="url(#paint8_linear_609_11211)"/>
<path d="M47.0006 26.499C47.0006 26.499 47.0006 26.499 46.9006 26.499C46.8006 26.299 46.7006 26.199 46.6006 25.999C46.6006 25.899 46.6006 25.7992 46.6006 25.6992C46.7006 25.6992 46.8006 25.6992 46.9006 25.6992C47.0006 25.7992 47.1006 25.9991 47.2006 26.0991C47.2006 26.0991 47.2006 26.2989 47.2006 26.3989C47.2006 26.3989 47.1006 26.3989 47.0006 26.3989V26.499Z" fill="url(#paint9_linear_609_11211)"/>
</g>
<path d="M48.1 23.7998C48.1 23.7998 48.1 23.7998 48.2 23.7998H49.6C50 24.2998 50.4 24.8002 50.9 25.2002V26.6001C50.8 26.6001 50.9 26.6002 50.9 26.7002L52.4 27.3999C52.4 27.3999 52.4 27.3999 52.5 27.3999L53.4 26.3999C54 26.4999 54.7 26.4999 55.3 26.3999L56.2 27.3999C56.2 27.3999 56.2 27.3999 56.3 27.3999L57.8 26.7998C57.8 26.7998 57.8 26.8002 57.8 26.7002V25.2998C58.3 24.8998 58.8 24.5 59.2 24H60.6C60.6 24.1 60.6 24 60.7 24L61.4 22.5C61.4 22.5 61.4 22.4999 61.4 22.3999L60.4 21.5C60.5 20.9 60.5 20.2001 60.4 19.6001L61.4 18.7002C61.4 18.7002 61.4 18.7001 61.4 18.6001L60.8 17.1001C60.8 17.1001 60.8 17.1001 60.7 17.1001H59.3C58.9 16.6001 58.5 16.1002 58 15.7002V14.2998C58.1 14.2998 58 14.3002 58 14.2002L56.5 13.5C56.5 13.5 56.5 13.5 56.4 13.5L55.5 14.5C54.9 14.4 54.2 14.4 53.6 14.5L52.7 13.5C52.7 13.5 52.7 13.5 52.6 13.5L51.1 14.1001C51.1 14.1001 51.1 14.1002 51.1 14.2002V15.6001C50.6 16.0001 50.1 16.3999 49.7 16.8999H48.3C48.3 16.7999 48.3 16.8999 48.2 16.8999L47.5 18.3999C47.5 18.3999 47.5 18.4 47.5 18.5L48.5 19.3999C48.4 19.9999 48.4 20.6998 48.5 21.2998L47.5 22.2002C47.5 22.2002 47.5 22.1998 47.5 22.2998L48.1 23.7998Z" fill="#00C7D2"/>
<path opacity="0.6" d="M53.9998 21.9982C53.6998 21.8982 53.3997 21.6981 53.1997 21.3981C52.8997 20.9981 52.7998 20.5983 52.8998 20.0983C53.0998 19.1983 53.8998 18.5984 54.7998 18.6984C55.6998 18.8984 56.2997 19.6983 56.1997 20.5983C56.1997 20.9983 55.8998 21.3984 55.4998 21.6984C55.0998 21.9984 54.6997 22.0982 54.1997 21.9982H53.9998ZM54.8998 19.298C54.8998 19.298 54.7997 19.298 54.6997 19.298C53.9997 19.198 53.3998 19.598 53.2998 20.298C53.2998 20.598 53.2998 20.9984 53.4998 21.1984C53.6998 21.4984 53.9998 21.5984 54.2998 21.6984C54.5998 21.6984 54.9997 21.6982 55.1997 21.4982C55.4997 21.2982 55.5997 20.9984 55.6997 20.6984C55.7997 20.0984 55.3998 19.498 54.8998 19.298Z" fill="white"/>
<path opacity="0.6" d="M53.3 24.3981C53.2 24.3981 53 24.3984 52.9 24.1984C52.6 24.0984 52.4 23.898 52.2 23.798C52.2 23.798 52.1 23.5983 52.2 23.5983C52.2 23.5983 52.4 23.4983 52.5 23.5983C52.7 23.7983 52.9 23.8982 53.2 23.9982C53.8 24.1982 54.4 24.298 55 24.298C55.3 24.298 55.7 24.1983 56 24.0983C56.9 23.6983 57.7 22.9983 58.1 22.0983C58.1 21.9983 58.1 21.8984 58.2 21.6984C58.5 20.8984 58.4 19.9984 58.2 19.1984C57.8 18.2984 57.1 17.4983 56.2 17.0983C55.3 16.6983 54.3 16.6983 53.3 17.0983C52.4 17.4983 51.6 18.1983 51.2 19.0983C51.2 19.1983 51.2 19.2982 51.1 19.4982C50.9 19.9982 50.9 20.5983 50.9 21.0983C50.9 21.0983 50.9 21.198 50.7 21.298C50.6 21.298 50.5 21.2983 50.5 21.0983C50.5 20.4983 50.5 19.898 50.7 19.298C50.7 19.198 50.7 18.9981 50.9 18.8981C51.4 17.8981 52.2 17.0984 53.2 16.6984C54.2 16.2984 55.4 16.2984 56.4 16.6984C57.4 17.1984 58.2 17.9982 58.6 18.9982C58.9 19.8982 59 20.898 58.6 21.798C58.6 21.898 58.6 22.0984 58.4 22.1984C57.5 24.1984 55.3 25.0982 53.3 24.4982V24.3981Z" fill="white"/>
<path d="M5.40027 23.3022L86.4003 21.9023C89.7003 21.9023 92.3002 24.6024 92.1002 28.0024L89.3003 75.9023C89.1003 78.5023 87.0002 80.6025 84.5002 80.6025L6.7002 81.4023C4.8002 81.4023 3.20022 79.9023 3.10022 77.9023L1.2002 27.9023C1.2002 25.4023 3.00027 23.4022 5.40027 23.3022Z" fill="url(#paint10_linear_609_11211)"/>
<path d="M6.70056 24.5029L85.6006 23.2031C88.8006 23.2031 91.3006 25.8029 91.1006 29.0029L88.4006 74.603C88.3006 77.103 86.2006 79.103 83.7006 79.103L7.90063 79.8027C6.00063 79.8027 4.50063 78.3029 4.40063 76.5029L2.60059 28.9028C2.60059 26.5028 4.40056 24.6029 6.70056 24.5029Z" fill="url(#paint11_linear_609_11211)"/>
<g opacity="0.6">
<path d="M32.1007 66.1016H27.3008V76.9014H32.1007V66.1016Z" fill="white"/>
<path d="M40.0012 61.5039H35.2012V77.0039H40.0012V61.5039Z" fill="white"/>
<path d="M48.0012 56.4023H43.2012V76.9023H48.0012V56.4023Z" fill="white"/>
<path d="M55.9006 53.0039H51.1006V76.9038H55.9006V53.0039Z" fill="white"/>
<path d="M63.801 47.3047H59.001V76.9048H63.801V47.3047Z" fill="white"/>
<path d="M71.801 40.7031H67.001V77.0029H71.801V40.7031Z" fill="white"/>
</g>
<path d="M70.3004 34.4009C69.9004 34.4009 69.6003 34.1011 69.6003 33.6011L69.4003 30.1011L66.3004 32.3008C66.0004 32.5008 65.5004 32.4011 65.3004 32.1011C65.1004 31.7011 65.2003 31.201 65.5003 31.001L70.7003 27.3008L71.0003 33.6011C71.0003 34.0011 70.7004 34.4009 70.3004 34.4009Z" fill="white"/>
<path d="M25.8008 61.4999C25.6008 61.4999 25.4008 61.4 25.3008 61.1C25.3008 60.8 25.3007 60.5999 25.6007 60.4999C34.7007 57.7999 44.0008 53.3999 51.9008 47.9999C60.3008 42.1999 66.2008 35.9998 68.9008 29.8998C69.0008 29.6998 69.3007 29.5001 69.6007 29.7001C69.8007 29.8001 70.0008 30.0998 69.8008 30.3998C67.0008 36.5998 61.0008 42.9998 52.4008 48.8998C44.5008 54.2998 35.0008 58.7999 25.8008 61.4999C25.8008 61.4999 25.8007 61.4999 25.7007 61.4999H25.8008Z" fill="white"/>
<g opacity="0.6">
<path d="M41.5002 32.0039H14.1002C13.327 32.0039 12.7002 32.6306 12.7002 33.4038V33.5039C12.7002 34.2771 13.327 34.9038 14.1002 34.9038H41.5002C42.2734 34.9038 42.9003 34.2771 42.9003 33.5039V33.4038C42.9003 32.6306 42.2734 32.0039 41.5002 32.0039Z" fill="white"/>
<path d="M8.80066 35.103C9.73954 35.103 10.5006 34.3417 10.5006 33.4028C10.5006 32.4639 9.73954 31.7031 8.80066 31.7031C7.86178 31.7031 7.10059 32.4639 7.10059 33.4028C7.10059 34.3417 7.86178 35.103 8.80066 35.103Z" fill="white"/>
<path d="M41.5002 37.4023H14.1002C13.327 37.4023 12.7002 38.029 12.7002 38.8022V38.9023C12.7002 39.6755 13.327 40.3022 14.1002 40.3022H41.5002C42.2734 40.3022 42.9003 39.6755 42.9003 38.9023V38.8022C42.9003 38.029 42.2734 37.4023 41.5002 37.4023Z" fill="white"/>
<path d="M8.80066 40.5015C9.73954 40.5015 10.5006 39.7402 10.5006 38.8013C10.5006 37.8624 9.73954 37.1016 8.80066 37.1016C7.86178 37.1016 7.10059 37.8624 7.10059 38.8013C7.10059 39.7402 7.86178 40.5015 8.80066 40.5015Z" fill="white"/>
<path d="M41.5002 42.8008H14.1002C13.327 42.8008 12.7002 43.428 12.7002 44.2012V44.3008C12.7002 45.074 13.327 45.7012 14.1002 45.7012H41.5002C42.2734 45.7012 42.9003 45.074 42.9003 44.3008V44.2012C42.9003 43.428 42.2734 42.8008 41.5002 42.8008Z" fill="white"/>
<path d="M8.80066 46.0015C9.73954 46.0015 10.5006 45.2402 10.5006 44.3013C10.5006 43.3624 9.73954 42.6016 8.80066 42.6016C7.86178 42.6016 7.10059 43.3624 7.10059 44.3013C7.10059 45.2402 7.86178 46.0015 8.80066 46.0015Z" fill="white"/>
<path d="M41.5002 48.2031H14.1002C13.327 48.2031 12.7002 48.8298 12.7002 49.603V49.7031C12.7002 50.4763 13.327 51.103 14.1002 51.103H41.5002C42.2734 51.103 42.9003 50.4763 42.9003 49.7031V49.603C42.9003 48.8298 42.2734 48.2031 41.5002 48.2031Z" fill="white"/>
<path d="M8.80066 51.4038C9.73954 51.4038 10.5006 50.643 10.5006 49.7041C10.5006 48.7652 9.73954 48.0039 8.80066 48.0039C7.86178 48.0039 7.10059 48.7652 7.10059 49.7041C7.10059 50.643 7.86178 51.4038 8.80066 51.4038Z" fill="white"/>
</g>
<path d="M77.1997 82.6992C77.1997 82.6992 77.3998 83.899 77.4998 84.999C77.4998 85.399 77.1998 85.7989 76.7998 85.8989C75.2998 85.8989 71.9998 86.0991 70.7998 86.0991C70.5998 86.0991 70.4998 85.8988 70.5998 85.7988C70.5998 85.6988 70.7998 85.599 70.8998 85.499L76.2998 82.999L77.1997 82.7988V82.6992Z" fill="url(#paint12_linear_609_11211)"/>
<path d="M77.3 82.1001L77.1 83.5C77.1 83.5 76.2 83.9 75.5 83.5L75.9 82L77.3 82.2002V82.1001Z" fill="url(#paint13_linear_609_11211)"/>
<path d="M77.0002 56C77.0002 56.4 77.6002 74 75.7002 82C75.7002 82.1 75.7003 82.2998 75.9003 82.2998C76.2003 82.3998 76.8003 82.6001 77.4003 82.6001C77.6003 82.6001 77.8003 82.4998 77.9003 82.2998C78.4003 80.4998 80.9002 71.1999 81.2002 62.3999C81.5002 52.5999 81.2002 62.1001 81.2002 62.1001L80.9003 56H77.0002Z" fill="url(#paint14_linear_609_11211)"/>
<path d="M83.4008 83.3008C83.4008 83.3008 83.7007 83.9009 84.1007 85.4009C84.1007 85.7009 84.0007 85.901 83.7007 86.001C83.2007 86.001 82.4008 86.1011 81.8008 86.1011C81.5008 86.1011 81.3008 85.9011 81.3008 85.6011C81.3008 85.0011 81.6007 84.1009 82.2007 83.4009H83.4008V83.3008Z" fill="url(#paint15_linear_609_11211)"/>
<path d="M83.7002 81.501L83.3003 83.6011C83.3003 83.6011 82.9002 83.9011 82.2002 83.6011L82.4003 81.3008H83.7002V81.501Z" fill="url(#paint16_linear_609_11211)"/>
<path d="M84.5004 56.5C86.1004 65.8 84.4004 79.5002 83.8004 82.2002C83.8004 82.4002 83.6004 82.5 83.5004 82.5C83.2004 82.5 82.8004 82.5 82.3004 82.5C82.1004 82.5 82.0004 82.3001 82.0004 82.1001C81.9004 79.9001 82.0004 66.5999 80.4004 61.3999C80.4004 61.0999 80.2004 60.9002 79.9004 60.7002L77.1003 58.7002L76.9004 55.5L84.5004 56.3999V56.5Z" fill="url(#paint17_linear_609_11211)"/>
<path d="M74.4003 38.9028C79.0003 38.8028 84.1002 40.0029 84.1002 40.0029C85.6002 48.0029 84.5002 57.3027 84.5002 57.3027C80.9002 58.3027 76.9003 56.8027 76.9003 56.8027C76.3003 53.4027 73.4003 44.0029 73.4003 44.0029C71.1003 43.7029 69.3002 43.1027 67.7002 42.3027C68.9002 40.9027 69.4002 39.2031 69.6002 38.2031C71.2002 38.7031 72.9003 38.9028 74.3003 38.9028H74.4003Z" fill="url(#paint18_linear_609_11211)"/>
<path d="M60.7002 32.3007C61.1002 31.7007 61.7002 32.0009 61.7002 32.0009C62.4002 34.9009 66.0002 37.2007 69.7002 38.3007C69.5002 39.3007 68.9003 41.1008 67.8003 42.4008C61.7003 39.0008 60.7002 32.3007 60.7002 32.3007Z" fill="url(#paint19_linear_609_11211)"/>
<path d="M60.8003 32.3999C60.8003 32.5999 61.3003 32.8002 61.6003 32.2002C61.6003 31.9002 61.8003 30.5999 61.6003 30.3999C60.6003 29.0999 58.8003 27.5 58.8003 27.5C58.5003 27.8 58.8003 28.1001 58.8003 28.1001L59.7002 29C59.5002 29.3 59.3002 29.6 59.2002 30C59.2002 30.3 59.2003 30.5999 59.3003 30.8999C59.5003 31.1999 59.7003 31.4998 59.9003 31.7998C60.3003 32.2998 60.8003 32.2998 60.8003 32.2998V32.3999Z" fill="url(#paint20_linear_609_11211)"/>
<path d="M60.1006 29.6016L60.9007 30.3013L61.2006 31.0015L60.5006 31.8013C60.5006 31.8013 60.2006 30.4017 60.1006 30.2017C59.9006 29.9017 60.1006 29.8017 60.1006 29.7017V29.6016Z" fill="url(#paint21_linear_609_11211)"/>
<path d="M82.5 44.6016L84.2 40.1016C84.2 40.1016 88.6 43.0017 89.3 46.7017C88.5 46.7017 87 47.0017 85.6 47.7017C85.3 45.9017 82.5 44.5015 82.5 44.5015V44.6016Z" fill="url(#paint22_linear_609_11211)"/>
<path d="M78.7 48.7988C78.7 48.7988 83.6 51.4991 85.2 49.0991C85.5 48.5991 85.6 48.0992 85.5 47.6992C86.9 46.9992 88.4 46.6992 89.2 46.6992C89.4 47.7992 89.3 48.9992 88.7 50.1992C85.9 55.4992 78 49.999 78 49.999L78.6 48.7988H78.7Z" fill="url(#paint23_linear_609_11211)"/>
<path d="M79.1002 35.1016L80.6002 39.3013C80.6002 39.3013 80.6002 39.4015 80.6002 39.5015C80.2002 39.7015 78.8002 40.4013 77.0002 39.3013C76.8002 39.2013 76.7002 39.0013 76.7002 38.8013L76.2002 35.1016H79.2002H79.1002Z" fill="url(#paint24_linear_609_11211)"/>
<path d="M75.8997 31.2031C75.8997 31.2031 74.2997 34.3029 74.4997 35.5029C74.6997 36.7029 76.6997 36.603 78.4997 35.603L79.6997 32.3027L75.8997 31.2031Z" fill="url(#paint25_linear_609_11211)"/>
<path d="M78.3998 34.0014C78.3998 34.0014 78.3998 33.9012 78.3998 33.8012C78.4998 33.6012 78.7998 33.2012 78.7998 32.8012C78.7998 32.8012 79.0997 32.6013 78.0997 32.4013C77.0997 32.2013 75.4997 31.8013 75.1997 30.9013C74.8997 30.0013 75.6997 27.9015 76.9997 29.6015C76.9997 29.6015 77.0997 29.6015 77.1997 29.6015C77.3997 29.3015 77.9998 28.7015 78.7998 29.1015C79.4998 29.4015 79.5997 30.0016 79.5997 30.2016C79.5997 30.2016 79.5997 30.3012 79.6997 30.3012C80.0997 30.3012 80.9998 30.2015 81.3998 31.1015C81.7998 31.9015 81.4998 32.3014 81.3998 32.5014V32.7016C81.5998 32.7016 81.9998 33.0015 81.8998 33.6015C81.8998 34.4015 80.9997 34.3012 80.6997 34.3012C80.6997 34.3012 80.6997 34.3012 80.5997 34.3012C80.3997 34.5012 79.3998 35.6016 78.3998 35.7016C78.3998 35.7016 78.1998 35.7014 78.2998 35.5014L78.6997 34.2016C78.6997 34.2016 78.6997 34.1014 78.6997 34.0014H78.4997H78.3998Z" fill="url(#paint26_linear_609_11211)"/>
<path d="M78.1997 34.1997C78.1997 34.1997 79.2998 33.3996 79.3998 34.0996C79.3998 34.7996 78.3998 35.0993 77.7998 34.7993L78.1997 34.1997Z" fill="url(#paint27_linear_609_11211)"/>
<path d="M79.6997 53.1002L76.9998 43.7999C76.9998 43.6999 76.8998 43.6002 76.7998 43.6002C76.2998 43.6002 74.8998 43.4003 73.2998 43.2003C71.3998 43.0003 69.0998 42.9001 67.7998 43.0001C67.5998 43.0001 67.4998 43.2 67.5998 43.4C68.3998 44.9 71.4998 51.2999 73.0998 53.2999C73.0998 53.2999 73.1998 53.4 73.2998 53.4H79.4998C79.6998 53.4 79.7998 53.2001 79.7998 53.0001L79.6997 53.1002Z" fill="url(#paint28_linear_609_11211)"/>
<path d="M79.0997 50.7992C79.0997 50.7992 79.4998 49.2996 79.2998 48.6996C79.1998 48.1996 78.8998 47.4995 77.8998 47.5995C76.8998 47.7995 75.7998 48.1996 75.7998 48.1996C75.7998 48.1996 75.7997 48.8996 76.5997 48.6996L76.0997 49.0995C76.0997 49.0995 76.0998 49.6993 76.7998 49.3993L76.3998 49.8993C76.3998 49.8993 76.6997 50.3995 77.0997 50.0995C77.5997 49.7995 77.7997 51.0994 79.0997 50.9994V50.7992Z" fill="url(#paint29_linear_609_11211)"/>
<path d="M73.4994 45.999C73.4994 46.399 73.1993 46.7988 72.6993 46.7988C72.1993 46.7988 71.8994 46.499 71.8994 45.999C71.8994 45.499 72.1993 45.1992 72.6993 45.1992C73.1993 45.1992 73.4994 45.499 73.4994 45.999Z" fill="url(#paint30_linear_609_11211)"/>
<path d="M76.7994 46.499L76.2994 44.6992C76.2994 44.4992 76.0994 44.2988 75.7994 44.2988C74.0994 43.8988 69.4994 43.8989 69.3994 43.8989V43.6992C69.5994 43.6992 74.0994 43.6991 75.7994 44.0991C76.0994 44.0991 76.2994 44.3992 76.3994 44.6992L76.8994 46.499H76.6993H76.7994Z" fill="white"/>
<path d="M35.2 14.5024C28.7 14.5024 23.5 18.5023 23.5 23.4023C23.5 28.3023 23.9 26.1026 24.6 27.2026C25 27.8026 25.1 28.5025 24.9 29.1025C24.6 30.4025 24.7 32.0024 26.2 34.0024C26.5 34.4024 27.1 34.2022 27.1 33.8022C27.2 33.2022 27.4 32.5022 27.7 31.8022C28 31.2022 28.7 30.9025 29.4 31.1025C31.1 31.8025 33.1 32.2026 35.2 32.2026C41.7 32.2026 46.9 28.2022 46.9 23.3022C46.9 18.4022 41.7 14.4023 35.2 14.4023V14.5024Z" fill="url(#paint31_linear_609_11211)"/>
<g opacity="0.7">
<path d="M31.3003 25.001C31.9078 25.001 32.4003 24.5084 32.4003 23.9009C32.4003 23.2934 31.9078 22.8008 31.3003 22.8008C30.6928 22.8008 30.2002 23.2934 30.2002 23.9009C30.2002 24.5084 30.6928 25.001 31.3003 25.001Z" fill="white"/>
<path d="M35.2006 25.001C35.8081 25.001 36.3007 24.5084 36.3007 23.9009C36.3007 23.2934 35.8081 22.8008 35.2006 22.8008C34.593 22.8008 34.1006 23.2934 34.1006 23.9009C34.1006 24.5084 34.593 25.001 35.2006 25.001Z" fill="white"/>
<path d="M39.2006 25.001C39.8081 25.001 40.3007 24.5084 40.3007 23.9009C40.3007 23.2934 39.8081 22.8008 39.2006 22.8008C38.593 22.8008 38.1006 23.2934 38.1006 23.9009C38.1006 24.5084 38.593 25.001 39.2006 25.001Z" fill="white"/>
</g>
<path d="M10.401 51.2031C10.101 51.9031 8.80098 52.5027 8.00098 52.8027C9.40098 54.4027 10.401 55.0031 11.801 56.2031L12.301 57.3027L13.401 55.7031C13.401 55.7031 10.801 52.3031 10.401 51.2031Z" fill="url(#paint32_linear_609_11211)"/>
<path d="M18.1002 85.5024C17.6002 83.6024 15.2001 82.4023 15.2001 82.4023H14.2001C13.6001 84.2023 13.7002 85.2026 13.8002 85.7026C14.6002 85.7026 16.2002 85.8026 18.1002 85.7026V85.5024Z" fill="url(#paint33_linear_609_11211)"/>
<path d="M13.9004 85.6016C13.9004 85.8016 14.1003 85.9014 14.2003 85.9014C15.3003 86.1014 17.1004 85.9014 17.9004 85.9014C18.1004 85.9014 18.2003 85.7016 18.2003 85.6016C16.4003 85.8016 14.7004 85.8016 13.9004 85.6016Z" fill="url(#paint34_linear_609_11211)"/>
<path d="M13.9004 80.9023L14.3004 82.9023C14.3004 83.0023 14.4003 83.2026 14.6003 83.2026C14.8003 83.2026 15.0003 83.2026 15.2003 83.2026C15.4003 83.2026 15.6004 83.0026 15.5004 82.7026L15.2003 81.0024H13.9004V80.9023Z" fill="url(#paint35_linear_609_11211)"/>
<path d="M22.3004 85.605C21.2004 85.605 20.7004 85.4047 20.4004 85.3047C20.4004 85.4047 20.4004 85.505 20.4004 85.605C20.4004 85.705 20.4003 85.8047 20.6003 85.8047H26.4004C26.6004 85.8047 26.7003 85.5048 26.6003 85.4048C25.8003 85.4048 23.9004 85.605 22.3004 85.605Z" fill="url(#paint36_linear_609_11211)"/>
<path d="M26.6003 85.4014C26.1003 84.7014 24.8003 83.3016 22.2003 82.6016H21.0004C21.0004 82.6016 20.4004 83.5013 20.4004 85.3013C20.7004 85.4013 21.2004 85.5016 22.3004 85.6016C23.9004 85.6016 25.9003 85.6014 26.6003 85.4014Z" fill="url(#paint37_linear_609_11211)"/>
<path d="M20.7002 80.7051C20.7002 80.7051 20.9003 82.2051 20.9003 82.7051C20.9003 82.8051 21.0002 82.9048 21.1002 82.9048C21.3002 82.9048 21.7002 82.9048 22.0002 82.9048C22.2002 82.9048 22.3003 82.7049 22.3003 82.5049V80.3047L20.7002 80.605V80.7051Z" fill="url(#paint38_linear_609_11211)"/>
<path d="M19.701 55.1016C19.701 55.1016 22.701 66.5013 22.601 80.8013C22.601 81.1013 22.401 81.3013 22.201 81.3013C21.801 81.3013 21.3011 81.5015 20.8011 81.5015C20.6011 81.5015 20.4011 81.3016 20.3011 81.1016C19.9011 78.6016 17.501 64.8015 16.101 62.5015C16.101 62.5015 15.2011 74.8017 15.5011 81.2017C15.5011 81.4017 15.401 81.5015 15.201 81.5015C15.001 81.5015 14.601 81.5015 14.101 81.5015C13.901 81.5015 13.801 81.3017 13.701 81.2017C13.401 79.1017 11.7011 66.7013 11.8011 57.8013C11.8011 57.3013 13.101 55.1016 13.101 55.1016H19.601H19.701Z" fill="url(#paint39_linear_609_11211)"/>
<path d="M23.9006 41.302C23.4006 40.702 23.0006 40.0021 22.6006 39.4021C22.1006 38.5021 22.6006 40.0021 22.4006 38.9021C18.7006 36.2021 13.1006 37.602 10.9006 37.802C10.2006 37.802 9.50058 38.202 9.10058 38.802C7.20058 40.902 4.70061 46.202 8.00061 52.802C8.40061 52.902 10.1006 52.0024 10.4006 51.2024C10.2006 49.7024 10.1006 47.8022 10.7006 45.5022C10.7006 45.7022 10.7007 45.9023 10.8007 46.1023C12.3007 51.0023 12.4006 55.0021 12.4006 55.9021C12.4006 56.0021 12.4006 56.1024 12.6006 56.2024C14.6006 57.0024 18.5007 56.502 19.8007 56.302C20.0007 56.302 20.2006 56.002 20.2006 55.802C19.6006 51.202 22.8006 43.5023 23.7006 41.6023C23.7006 41.5023 23.8006 41.3024 24.0006 41.2024L23.9006 41.302Z" fill="url(#paint40_linear_609_11211)"/>
<path d="M14.401 33.9048L14.001 37.9048C14.001 37.9048 16.201 38.6048 17.901 37.4048L16.801 33.8047H14.501L14.401 33.9048Z" fill="url(#paint41_linear_609_11211)"/>
<path d="M17.0006 29.4024L19.3007 33.8023L16.8007 35.0025L14.1006 31.2027C14.1006 31.2027 16.2006 28.5024 17.1006 29.4024H17.0006Z" fill="url(#paint42_linear_609_11211)"/>
<path d="M15.2007 31.3031C15.2007 31.4031 15.2007 31.5035 15.2007 31.7035L16.5007 33.8031C16.6007 33.9031 17.2007 34.3031 17.6007 33.8031C17.9007 33.3031 18.3007 32.9035 18.6007 32.7035C18.8007 32.6035 19.0007 32.7032 19.1007 32.9032C19.3007 33.3032 19.7007 34.1032 20.0007 34.9032C20.0007 35.1032 20.0008 35.3032 19.8008 35.4032C19.3008 35.6032 18.3007 36.0034 17.4007 36.1034C17.3007 36.1034 17.1007 36.1032 17.0007 35.9032C16.6007 35.4032 15.5007 33.9033 15.2007 33.5033C14.9007 33.2033 14.2007 33.3032 13.9007 33.4032C13.8007 33.4032 13.7007 33.4032 13.6007 33.4032C13.3007 33.2032 12.8008 32.8034 13.3008 32.1034C13.4008 31.9034 13.3007 31.7034 13.2007 31.6034C12.9007 31.4034 12.5007 31.0031 12.9007 30.3031C13.2007 29.6031 13.8008 29.6034 14.3008 29.6034C14.5008 29.6034 14.7007 29.6032 14.7007 29.4032C14.7007 29.4032 14.7007 29.3035 14.9007 29.2035C15.1007 29.2035 15.3007 29.0035 15.2007 28.7035C15.2007 28.3035 15.2008 27.8033 15.8008 27.5033C16.9008 26.9033 17.8007 27.9035 18.1007 28.7035C18.3007 29.5035 17.1007 30.1035 16.4007 30.2035C15.8007 30.2035 15.5007 30.9035 15.4007 31.2035L15.2007 31.3031Z" fill="url(#paint43_linear_609_11211)"/>
<path d="M15.601 34.4038C15.601 34.4038 15.101 33.0039 14.501 33.0039C13.901 33.0039 13.401 33.7038 14.201 34.4038C15.201 35.3038 15.601 34.4038 15.601 34.4038Z" fill="url(#paint44_linear_609_11211)"/>
<path d="M10.4008 45.2051C9.60081 43.0051 9.90081 40.3047 9.90081 40.3047H10.1008C10.1008 40.3047 9.80076 43.0051 10.6008 45.2051H10.4008Z" fill="url(#paint45_linear_609_11211)"/>
<path d="M16.1003 62.1025C16.1003 62.1025 16.1004 62.1025 16.0004 62.1025C15.8004 61.1025 13.9004 60.1025 13.9004 60.1025C13.9004 60.1025 13.9004 60.1023 13.9004 59.9023C13.9004 59.9023 13.9003 59.9023 14.1003 59.9023C14.1003 59.9023 16.1004 61.0025 16.3004 62.1025V62.2026L16.1003 62.1025Z" fill="url(#paint46_linear_609_11211)"/>
<path d="M31.5002 42.5045C27.3002 43.1045 24.5002 40.5044 22.5002 38.9044C19.8002 36.8044 17.7002 37.8043 17.7002 37.8043L20.6002 43.3043C24.9002 47.4043 29.3002 46.5046 32.1002 45.1046C32.1002 44.0046 31.9002 43.2045 31.5002 42.5045Z" fill="url(#paint47_linear_609_11211)"/>
<path d="M37.4 40.0039L36 40.8037C34.3 41.8037 32.8 42.404 31.5 42.604C31.8 43.304 32.1 44.1041 32.1 45.2041C33.9 44.4041 35 43.4038 35 43.4038C38.2 41.5038 37.5 40.104 37.5 40.104L37.4 40.0039Z" fill="url(#paint48_linear_609_11211)"/>
<path d="M41.5006 42.0015C41.5006 41.7015 41.2006 41.5013 40.9006 41.3013L38.1006 40.2017C38.1006 40.2017 38.1006 39.8016 38.7006 39.6016C39.3006 39.4016 39.2006 38.6016 39.2006 38.6016C39.2006 38.6016 38.3006 39.0016 37.0006 39.6016C36.3006 40.0016 35.9006 40.6016 35.6006 41.1016L36.3007 42.1016C38.0007 42.6016 39.8006 42.7015 41.6006 42.5015L41.4006 42.0015H41.5006Z" fill="url(#paint49_linear_609_11211)"/>
<path d="M6.2002 62.7031V67.2031C6.4002 68.0031 7.00029 68.603 7.80029 68.603H18.6002C19.1002 68.603 19.6002 68.3027 19.7002 67.8027C19.9002 66.7027 20.1003 64.6031 19.8003 62.7031H6.2002Z" fill="url(#paint50_linear_609_11211)"/>
<path d="M9.40039 59.4066V59.1068C9.40039 59.1068 9.50034 59.0066 9.60034 58.9066C9.90034 58.9066 10.8003 58.8068 11.2003 59.1068V59.5067H9.40039V59.4066Z" fill="url(#paint51_linear_609_11211)"/>
<path d="M10.4 59.105H10.2C10.2 59.105 10 59.0048 10 58.9048V57.8047H10.6V58.9048C10.6 58.9048 10.6 59.105 10.4 59.105Z" fill="url(#paint52_linear_609_11211)"/>
<path d="M14.7002 59.4066V59.1068C14.7002 59.1068 14.8003 59.0066 14.9003 58.9066C15.2003 58.9066 16.1002 58.8068 16.5002 59.1068V59.5067H14.7002V59.4066Z" fill="url(#paint53_linear_609_11211)"/>
<path d="M15.8004 59.103H15.6003C15.6003 59.103 15.4004 59.0028 15.4004 58.9028V57.7031H16.0004V58.9028C16.0004 58.9028 16.0004 59.103 15.8004 59.103Z" fill="url(#paint54_linear_609_11211)"/>
<path d="M10.0002 58.105L15.9003 57.9048C16.0003 57.9048 16.2002 57.8051 16.2002 57.7051C16.2002 57.5051 16.2002 57.2048 16.2002 56.9048C16.2002 56.6048 15.9002 56.3047 15.5002 56.3047C14.4002 56.3047 11.6002 56.3048 10.0002 56.9048C9.80024 56.9048 9.7002 57.1047 9.7002 57.3047C9.7002 57.5047 9.7002 57.7048 9.7002 57.9048C9.7002 58.0048 9.80024 58.105 10.0002 58.105Z" fill="url(#paint55_linear_609_11211)"/>
<path d="M9.90039 57.4048C9.90039 57.2048 10.1003 57.105 10.2003 57.105C10.5003 57.105 11.2003 56.8047 11.7003 56.8047C11.2003 56.8047 10.6003 57.005 10.2003 57.105C10.1003 57.105 9.90039 57.3048 9.90039 57.4048Z" fill="white"/>
<path d="M6.60034 59.305C8.50034 59.305 16.8004 59.2052 19.3004 59.5052C19.5004 59.5052 19.7003 59.7051 19.7003 59.9051C19.8003 60.5051 20.1003 62.0052 20.1003 63.5052C20.1003 63.7052 19.9003 63.9051 19.7003 63.9051L14.2003 64.9051H12.2003L6.30042 63.7054C6.10042 63.7054 5.90039 63.505 5.90039 63.305C5.90039 62.605 5.90037 60.8054 6.00037 59.7054C6.00037 59.5054 6.20037 59.305 6.50037 59.305H6.60034Z" fill="url(#paint56_linear_609_11211)"/>
<path d="M14.0002 65.8027H12.3003C12.1003 65.8027 11.9003 65.6028 11.9003 65.4028L11.7002 63.7031C11.7002 63.4031 11.9002 63.2031 12.1002 63.2031H14.2002C14.5002 63.2031 14.7002 63.4031 14.6002 63.7031V65.4028C14.4002 65.6028 14.2002 65.8027 14.0002 65.8027Z" fill="url(#paint57_linear_609_11211)"/>
<path opacity="0.3" d="M13.8 65.4062H12.5C12.3 65.4062 12.2 65.3064 12.2 65.1064L12 63.8062C12 63.6062 12.1 63.4062 12.3 63.4062H13.9C14.1 63.4062 14.3 63.6062 14.2 63.8062V65.1064C14.1 65.3064 13.9 65.4062 13.8 65.4062Z" fill="url(#paint58_linear_609_11211)"/>
<path d="M11.8004 56.2051C11.5004 56.7051 11.4004 57.3048 11.4004 57.9048C11.4004 58.0048 11.4003 58.2051 11.6003 58.2051C12.3003 58.5051 13.0004 58.5051 13.8004 58.2051C14.0004 58.2051 14.1004 57.9047 13.9004 57.8047C13.7004 57.5047 13.5004 57.1051 13.3004 56.7051C13.3004 56.5051 13.3003 56.3047 13.6003 56.3047H13.9004C13.6004 55.6047 13.0003 54.9047 12.1003 54.3047L11.7003 56.2051H11.8004Z" fill="url(#paint59_linear_609_11211)"/>
<defs>
<linearGradient id="paint0_linear_609_11211" x1="103" y1="118.702" x2="22.0999" y2="18.202" gradientUnits="userSpaceOnUse">
<stop stop-color="#B37CFF"/>
<stop offset="1" stop-color="#F895E7"/>
</linearGradient>
<linearGradient id="paint1_linear_609_11211" x1="57.6305" y1="8.79369" x2="77.1049" y2="15.1966" gradientUnits="userSpaceOnUse">
<stop stop-color="#B37CFF"/>
<stop offset="1" stop-color="#F895E7"/>
</linearGradient>
<linearGradient id="paint2_linear_609_11211" x1="79.7411" y1="10.3807" x2="80.8811" y2="10.7555" gradientUnits="userSpaceOnUse">
<stop stop-color="#B37CFF"/>
<stop offset="1" stop-color="#F895E7"/>
</linearGradient>
<linearGradient id="paint3_linear_609_11211" x1="82.7581" y1="21.0566" x2="83.613" y2="21.3377" gradientUnits="userSpaceOnUse">
<stop stop-color="#B37CFF"/>
<stop offset="1" stop-color="#F895E7"/>
</linearGradient>
<linearGradient id="paint4_linear_609_11211" x1="60.7591" y1="23.6123" x2="80.8036" y2="30.2025" gradientUnits="userSpaceOnUse">
<stop stop-color="#B37CFF"/>
<stop offset="1" stop-color="#F895E7"/>
</linearGradient>
<linearGradient id="paint5_linear_609_11211" x1="57.358" y1="27.2328" x2="58.498" y2="27.6076" gradientUnits="userSpaceOnUse">
<stop stop-color="#B37CFF"/>
<stop offset="1" stop-color="#F895E7"/>
</linearGradient>
<linearGradient id="paint6_linear_609_11211" x1="40.7949" y1="21.2575" x2="41.2699" y2="21.4137" gradientUnits="userSpaceOnUse">
<stop stop-color="#B37CFF"/>
<stop offset="1" stop-color="#F895E7"/>
</linearGradient>
<linearGradient id="paint7_linear_609_11211" x1="42.5718" y1="14.8954" x2="53.4964" y2="18.4874" gradientUnits="userSpaceOnUse">
<stop stop-color="#B37CFF"/>
<stop offset="1" stop-color="#F895E7"/>
</linearGradient>
<linearGradient id="paint8_linear_609_11211" x1="43.9806" y1="26.9381" x2="56.4253" y2="31.0296" gradientUnits="userSpaceOnUse">
<stop stop-color="#B37CFF"/>
<stop offset="1" stop-color="#F895E7"/>
</linearGradient>
<linearGradient id="paint9_linear_609_11211" x1="42.4013" y1="27.2597" x2="43.2562" y2="27.5408" gradientUnits="userSpaceOnUse">
<stop stop-color="#B37CFF"/>
<stop offset="1" stop-color="#F895E7"/>
</linearGradient>
<linearGradient id="paint10_linear_609_11211" x1="33.1002" y1="77.5023" x2="72.7002" y2="-6.49767" gradientUnits="userSpaceOnUse">
<stop stop-color="#2B3582"/>
<stop offset="1" stop-color="#150E42"/>
</linearGradient>
<linearGradient id="paint11_linear_609_11211" x1="77.0006" y1="2.20326" x2="-1.29865" y2="125.003" gradientUnits="userSpaceOnUse">
<stop stop-color="#53D8FF"/>
<stop offset="1" stop-color="#3840F7"/>
</linearGradient>
<linearGradient id="paint12_linear_609_11211" x1="67.0695" y1="73.9471" x2="86.9549" y2="95.1744" gradientUnits="userSpaceOnUse">
<stop stop-color="#2B3582"/>
<stop offset="1" stop-color="#150E42"/>
</linearGradient>
<linearGradient id="paint13_linear_609_11211" x1="73.4834" y1="75.4918" x2="71.6834" y2="75.5075" gradientUnits="userSpaceOnUse">
<stop stop-color="#F9B776"/>
<stop offset="1" stop-color="#F47960"/>
</linearGradient>
<linearGradient id="paint14_linear_609_11211" x1="65.2579" y1="49.6625" x2="82.2563" y2="72.3151" gradientUnits="userSpaceOnUse">
<stop stop-color="#FDF53F"/>
<stop offset="1" stop-color="#D93C65"/>
</linearGradient>
<linearGradient id="paint15_linear_609_11211" x1="71.4348" y1="69.8088" x2="91.324" y2="91.1357" gradientUnits="userSpaceOnUse">
<stop stop-color="#2B3582"/>
<stop offset="1" stop-color="#150E42"/>
</linearGradient>
<linearGradient id="paint16_linear_609_11211" x1="79.7825" y1="75.3368" x2="78.2826" y2="75.3499" gradientUnits="userSpaceOnUse">
<stop stop-color="#F9B776"/>
<stop offset="1" stop-color="#F47960"/>
</linearGradient>
<linearGradient id="paint17_linear_609_11211" x1="68.2388" y1="47.4365" x2="85.2372" y2="70.089" gradientUnits="userSpaceOnUse">
<stop stop-color="#FDF53F"/>
<stop offset="1" stop-color="#D93C65"/>
</linearGradient>
<linearGradient id="paint18_linear_609_11211" x1="75.2002" y1="49.8029" x2="87.5" y2="37.1029" gradientUnits="userSpaceOnUse">
<stop stop-color="#CB236D"/>
<stop offset="1" stop-color="#4C246D"/>
</linearGradient>
<linearGradient id="paint19_linear_609_11211" x1="65.8851" y1="29.8571" x2="56.8855" y2="29.9356" gradientUnits="userSpaceOnUse">
<stop stop-color="#F9B776"/>
<stop offset="1" stop-color="#F47960"/>
</linearGradient>
<linearGradient id="paint20_linear_609_11211" x1="58.5524" y1="34.6633" x2="64.6719" y2="48.3104" gradientUnits="userSpaceOnUse">
<stop stop-color="#F9B776"/>
<stop offset="1" stop-color="#F47960"/>
</linearGradient>
<linearGradient id="paint21_linear_609_11211" x1="56.9327" y1="23.8366" x2="54.3001" y2="20.0596" gradientUnits="userSpaceOnUse">
<stop stop-color="#F9B776"/>
<stop offset="1" stop-color="#F47960"/>
</linearGradient>
<linearGradient id="paint22_linear_609_11211" x1="78" y1="52.5017" x2="90.3001" y2="39.7016" gradientUnits="userSpaceOnUse">
<stop stop-color="#CB236D"/>
<stop offset="1" stop-color="#4C246D"/>
</linearGradient>
<linearGradient id="paint23_linear_609_11211" x1="85.4941" y1="42.2849" x2="74.1946" y2="42.3835" gradientUnits="userSpaceOnUse">
<stop stop-color="#F9B776"/>
<stop offset="1" stop-color="#F47960"/>
</linearGradient>
<linearGradient id="paint24_linear_609_11211" x1="76.6891" y1="30.2638" x2="72.2892" y2="30.3022" gradientUnits="userSpaceOnUse">
<stop stop-color="#F9B776"/>
<stop offset="1" stop-color="#F47960"/>
</linearGradient>
<linearGradient id="paint25_linear_609_11211" x1="76.117" y1="35.5324" x2="80.9436" y2="32.448" gradientUnits="userSpaceOnUse">
<stop stop-color="#F9B776"/>
<stop offset="1" stop-color="#F47960"/>
</linearGradient>
<linearGradient id="paint26_linear_609_11211" x1="83.5691" y1="29.2957" x2="77.2461" y2="34.3929" gradientUnits="userSpaceOnUse">
<stop stop-color="#2B3582"/>
<stop offset="1" stop-color="#150E42"/>
</linearGradient>
<linearGradient id="paint27_linear_609_11211" x1="77.3962" y1="36.6481" x2="81.8176" y2="33.8738" gradientUnits="userSpaceOnUse">
<stop stop-color="#F9B776"/>
<stop offset="1" stop-color="#F47960"/>
</linearGradient>
<linearGradient id="paint28_linear_609_11211" x1="74.9998" y1="42.4002" x2="68.8" y2="68.3999" gradientUnits="userSpaceOnUse">
<stop stop-color="#2B3582"/>
<stop offset="1" stop-color="#150E42"/>
</linearGradient>
<linearGradient id="paint29_linear_609_11211" x1="79.2998" y1="49.2994" x2="75.7998" y2="49.2994" gradientUnits="userSpaceOnUse">
<stop stop-color="#F9B776"/>
<stop offset="1" stop-color="#F47960"/>
</linearGradient>
<linearGradient id="paint30_linear_609_11211" x1="72.4994" y1="45.1992" x2="73.499" y2="48.9984" gradientUnits="userSpaceOnUse">
<stop stop-color="#53D8FF"/>
<stop offset="1" stop-color="#3840F7"/>
</linearGradient>
<linearGradient id="paint31_linear_609_11211" x1="43.5" y1="15.4023" x2="22.8" y2="35.4024" gradientUnits="userSpaceOnUse">
<stop stop-color="#FDF53F"/>
<stop offset="1" stop-color="#D93C65"/>
</linearGradient>
<linearGradient id="paint32_linear_609_11211" x1="7.50097" y1="42.7037" x2="11.1005" y2="55.803" gradientUnits="userSpaceOnUse">
<stop stop-color="#F9B776"/>
<stop offset="1" stop-color="#F47960"/>
</linearGradient>
<linearGradient id="paint33_linear_609_11211" x1="21.5001" y1="76.0018" x2="12.599" y2="89.3021" gradientUnits="userSpaceOnUse">
<stop stop-color="#CB236D"/>
<stop offset="1" stop-color="#4C246D"/>
</linearGradient>
<linearGradient id="paint34_linear_609_11211" x1="24.7002" y1="78.9049" x2="8.90626" y2="91.2062" gradientUnits="userSpaceOnUse">
<stop stop-color="#2B3582"/>
<stop offset="1" stop-color="#150E42"/>
</linearGradient>
<linearGradient id="paint35_linear_609_11211" x1="15.0004" y1="79.0021" x2="14.2002" y2="86.303" gradientUnits="userSpaceOnUse">
<stop stop-color="#F9B776"/>
<stop offset="1" stop-color="#F47960"/>
</linearGradient>
<linearGradient id="paint36_linear_609_11211" x1="27.5003" y1="82.4047" x2="11.7004" y2="94.8046" gradientUnits="userSpaceOnUse">
<stop stop-color="#2B3582"/>
<stop offset="1" stop-color="#150E42"/>
</linearGradient>
<linearGradient id="paint37_linear_609_11211" x1="26.8003" y1="79.6016" x2="17.9003" y2="92.9015" gradientUnits="userSpaceOnUse">
<stop stop-color="#CB236D"/>
<stop offset="1" stop-color="#4C246D"/>
</linearGradient>
<linearGradient id="paint38_linear_609_11211" x1="21.8003" y1="79.8047" x2="21.0003" y2="87.0049" gradientUnits="userSpaceOnUse">
<stop stop-color="#F9B776"/>
<stop offset="1" stop-color="#F47960"/>
</linearGradient>
<linearGradient id="paint39_linear_609_11211" x1="38.4009" y1="36.2016" x2="12.001" y2="77.3014" gradientUnits="userSpaceOnUse">
<stop stop-color="#2B3582"/>
<stop offset="1" stop-color="#150E42"/>
</linearGradient>
<linearGradient id="paint40_linear_609_11211" x1="21.5006" y1="37.202" x2="-2.79973" y2="73.4022" gradientUnits="userSpaceOnUse">
<stop stop-color="#CB236D"/>
<stop offset="1" stop-color="#4C246D"/>
</linearGradient>
<linearGradient id="paint41_linear_609_11211" x1="16.901" y1="32.9047" x2="13.7009" y2="46.505" gradientUnits="userSpaceOnUse">
<stop stop-color="#F9B776"/>
<stop offset="1" stop-color="#F47960"/>
</linearGradient>
<linearGradient id="paint42_linear_609_11211" x1="13.6764" y1="29.5235" x2="15.2214" y2="38.6742" gradientUnits="userSpaceOnUse">
<stop stop-color="#F9B776"/>
<stop offset="1" stop-color="#F47960"/>
</linearGradient>
<linearGradient id="paint43_linear_609_11211" x1="11.9648" y1="33.8198" x2="16.5598" y2="28.9437" gradientUnits="userSpaceOnUse">
<stop stop-color="#2B3582"/>
<stop offset="1" stop-color="#150E42"/>
</linearGradient>
<linearGradient id="paint44_linear_609_11211" x1="12.2742" y1="39.4701" x2="12.0127" y2="33.0407" gradientUnits="userSpaceOnUse">
<stop stop-color="#F9B776"/>
<stop offset="1" stop-color="#F47960"/>
</linearGradient>
<linearGradient id="paint45_linear_609_11211" x1="39.5989" y1="11.3024" x2="-0.104662" y2="53.7" gradientUnits="userSpaceOnUse">
<stop stop-color="#CB236D"/>
<stop offset="1" stop-color="#4C246D"/>
</linearGradient>
<linearGradient id="paint46_linear_609_11211" x1="16.8004" y1="57.8021" x2="14.6" y2="61.8024" gradientUnits="userSpaceOnUse">
<stop stop-color="#2B3582"/>
<stop offset="1" stop-color="#150E42"/>
</linearGradient>
<linearGradient id="paint47_linear_609_11211" x1="25.8002" y1="40.1044" x2="1.49977" y2="76.3046" gradientUnits="userSpaceOnUse">
<stop stop-color="#CB236D"/>
<stop offset="1" stop-color="#4C246D"/>
</linearGradient>
<linearGradient id="paint48_linear_609_11211" x1="41.6" y1="32.6036" x2="22.2991" y2="57.3039" gradientUnits="userSpaceOnUse">
<stop stop-color="#F9B776"/>
<stop offset="1" stop-color="#F47960"/>
</linearGradient>
<linearGradient id="paint49_linear_609_11211" x1="44.2006" y1="34.6016" x2="24.901" y2="59.3015" gradientUnits="userSpaceOnUse">
<stop stop-color="#F9B776"/>
<stop offset="1" stop-color="#F47960"/>
</linearGradient>
<linearGradient id="paint50_linear_609_11211" x1="13.2002" y1="75.5029" x2="13.0002" y2="59.1032" gradientUnits="userSpaceOnUse">
<stop stop-color="#CB236D"/>
<stop offset="1" stop-color="#4C246D"/>
</linearGradient>
<linearGradient id="paint51_linear_609_11211" x1="10.3004" y1="60.3067" x2="10.2003" y2="58.4066" gradientUnits="userSpaceOnUse">
<stop stop-color="#CB236D"/>
<stop offset="1" stop-color="#4C246D"/>
</linearGradient>
<linearGradient id="paint52_linear_609_11211" x1="10.3" y1="71.5078" x2="10.3" y2="62.5057" gradientUnits="userSpaceOnUse">
<stop stop-color="#CB236D"/>
<stop offset="1" stop-color="#4C246D"/>
</linearGradient>
<linearGradient id="paint53_linear_609_11211" x1="15.7002" y1="60.1067" x2="15.6002" y2="58.2066" gradientUnits="userSpaceOnUse">
<stop stop-color="#CB236D"/>
<stop offset="1" stop-color="#4C246D"/>
</linearGradient>
<linearGradient id="paint54_linear_609_11211" x1="18.4003" y1="55.7033" x2="11.0008" y2="62.603" gradientUnits="userSpaceOnUse">
<stop stop-color="#CB236D"/>
<stop offset="1" stop-color="#4C246D"/>
</linearGradient>
<linearGradient id="paint55_linear_609_11211" x1="9.1002" y1="61.8056" x2="15.0013" y2="55.1054" gradientUnits="userSpaceOnUse">
<stop stop-color="#CB236D"/>
<stop offset="1" stop-color="#4C246D"/>
</linearGradient>
<linearGradient id="paint56_linear_609_11211" x1="13.5004" y1="57.4051" x2="11.6003" y2="75.7051" gradientUnits="userSpaceOnUse">
<stop stop-color="#CB236D"/>
<stop offset="1" stop-color="#4C246D"/>
</linearGradient>
<linearGradient id="paint57_linear_609_11211" x1="13.7002" y1="59.7037" x2="12.9005" y2="65.8028" gradientUnits="userSpaceOnUse">
<stop stop-color="#A737D5"/>
<stop offset="1" stop-color="#EF497A"/>
</linearGradient>
<linearGradient id="paint58_linear_609_11211" x1="12" y1="64.5063" x2="14.3" y2="64.5063" gradientUnits="userSpaceOnUse">
<stop stop-color="white"/>
<stop offset="1" stop-color="white"/>
</linearGradient>
<linearGradient id="paint59_linear_609_11211" x1="8.70038" y1="42.4036" x2="12.201" y2="55.5046" gradientUnits="userSpaceOnUse">
<stop stop-color="#F9B776"/>
<stop offset="1" stop-color="#F47960"/>
</linearGradient>
</defs>
</svg>
