<svg width="89" height="78" viewBox="0 0 89 78" fill="none" xmlns="http://www.w3.org/2000/svg">
<path d="M64.4889 0.0999878C65.8889 0.0999878 70.3889 -0.299988 71.3889 0.500012C71.5889 1.70001 71.2889 3.09994 71.1889 4.29994C72.0889 4.69994 73.0889 4.89996 73.9889 5.19996C74.7889 4.19996 75.4889 3.09999 76.2889 2.09999C78.1889 3.09999 80.0889 4.50004 81.6889 5.90004C81.2889 7.00004 80.7889 8.09996 80.0889 9.19996C80.4889 9.89996 80.9889 10.5999 81.4889 11.2999C82.3889 10.7999 83.4889 9.99996 84.5889 9.69996C84.6889 9.69996 84.7889 9.69994 84.8889 9.79994C85.9889 10.7999 87.7889 15.7 87.7889 17.2C87.2889 18 85.2889 18.3 84.3889 18.6C84.3889 19.7 84.3889 20.6999 84.5889 21.7999C85.5889 22.1999 87.5889 22.5 88.1889 23.4C87.9889 25.2 87.0889 28.6999 86.0889 30.2999C85.1889 30.6999 82.9889 29.8 82.0889 29.6C81.5889 30.5 80.9889 31.5 80.3889 32.4C81.1889 33.3 82.0889 34.2999 82.7889 35.2999C81.3889 36.7999 78.9889 38.6999 77.1889 39.7999C76.3889 39.7999 74.6889 37.7 74.0889 37.2C73.2889 37.5 72.4889 37.8 71.5889 38.1C71.5889 39 71.8889 41 71.3889 41.7C69.9889 42.1 65.4889 42.3 64.0889 41.9C63.3889 41.1 63.4889 39.3 63.3889 38.2L61.0889 37.5C60.5889 38.3 59.4889 39.6 59.3889 40.5C59.3889 40.5 59.3889 40.6 59.3889 40.7C59.2889 41.4 59.3889 42.0999 59.3889 42.7999C59.4889 48.5999 59.3889 54.4 59.3889 60.2C59.3889 63.1 59.6889 67.4 59.2889 70C59.1889 70.7 58.7889 71.4 58.1889 71.9C57.5889 72.5 56.9889 72.7 56.1889 72.9C54.6889 73.2 52.9889 73 51.3889 73H43.8889H19.2889C15.5889 73 10.9889 73.3 7.38888 73C6.58888 73 5.28886 72.7999 4.68886 72.2999C3.88886 71.6999 3.18889 70.6 3.08889 69.6C2.88889 67.6 3.08889 65.2999 3.08889 63.2999V50.5V30.5C3.08889 27 3.08889 23.4 3.08889 19.9C3.08889 19.2 3.08885 17.9 3.48885 17.4C3.48885 17.4 3.48889 17.3999 3.58889 17.2999C3.68889 17.0999 3.88885 16.9999 3.98885 16.7999C5.48885 15.3999 8.28886 15.8 10.1889 15.9C10.1889 13.9 9.68886 9.90004 11.1889 8.40004C11.6889 7.90004 12.2889 7.60001 12.9889 7.50001C14.2889 7.30001 15.7889 7.50001 17.0889 7.50001H25.2889H51.7889C53.9889 6.00001 55.8889 3.89994 58.3889 2.79994C59.0889 3.69994 59.7889 4.79996 60.4889 5.69996C61.4889 5.29996 62.3889 4.89996 63.4889 4.69996C63.4889 3.59996 63.0889 1.59999 63.4889 0.599988C63.6889 0.199988 63.9889 0.199988 64.3889 0.0999878H64.4889Z" fill="black"/>
<path d="M66.0871 11.5009C68.2871 11.3009 70.2871 11.5008 72.2871 12.6008C72.3871 12.6008 72.5871 12.8008 72.6871 12.8008C72.7871 12.8008 72.9871 13.0008 73.0871 13.1008C73.1871 13.1008 73.3871 13.3009 73.4871 13.4009C73.5871 13.5009 73.6871 13.6008 73.8871 13.7008C73.9871 13.8008 74.0871 13.9009 74.1871 14.0009C74.2871 14.1009 74.3871 14.2008 74.4871 14.3008C74.5871 14.4008 74.6871 14.5008 74.7871 14.6008C74.8871 14.7008 74.9871 14.8009 75.0871 15.0009C75.0871 15.1009 75.2871 15.2009 75.3871 15.4009C75.3871 15.5009 75.5871 15.7008 75.6871 15.8008C75.6871 15.9008 75.8871 16.1008 75.8871 16.2008C75.8871 16.3008 76.0871 16.5008 76.0871 16.6008C76.0871 16.7008 76.1871 16.9009 76.2871 17.0009C76.2871 17.1009 76.3871 17.3009 76.4871 17.4009C76.4871 17.5009 76.5871 17.7008 76.6871 17.8008C76.6871 17.9008 76.6871 18.1008 76.7871 18.2008C77.4871 20.6008 77.1871 23.4008 75.8871 25.6008C74.4871 28.0008 72.4871 29.4008 69.7871 30.1008C68.0871 30.4008 66.4871 30.4008 64.7871 29.8008C64.4871 29.7008 64.1871 29.6009 63.8871 29.4009C63.5871 29.3009 63.2871 29.1009 62.9871 29.0009C62.6871 28.8009 62.3871 28.7009 62.1871 28.5009C61.8871 28.3009 61.6871 28.1009 61.3871 27.9009C57.2871 24.5009 60.6871 20.8008 58.7871 17.2008V17.0009C58.7871 16.8009 58.8871 16.6009 58.9871 16.5009C60.6871 13.6009 62.7871 12.2008 65.9871 11.3008L66.0871 11.5009Z" fill="#FEFEFE"/>
<path d="M67.1887 14.6016C68.5887 14.6016 69.7887 14.6015 71.0887 15.3015C72.4887 16.1015 73.4886 17.4016 73.9886 18.9016C74.4886 20.4016 74.2887 22.5016 73.3887 24.0016C72.2887 25.9016 70.5887 26.7015 68.5887 27.2015C67.1887 27.2015 66.0887 27.2016 64.7887 26.4016C64.7887 26.4016 64.5886 26.3015 64.4886 26.2015C64.4886 26.2015 64.2887 26.1016 64.1887 26.0016C64.1887 26.0016 63.9887 25.9015 63.8887 25.8015C63.8887 25.8015 63.6887 25.7016 63.6887 25.6016C63.6887 25.6016 63.4886 25.5016 63.4886 25.4016L63.2887 25.2015C63.2887 25.2015 63.1887 25.0016 63.0887 25.0016C63.0887 25.0016 62.9887 24.8015 62.8887 24.7015C62.8887 24.7015 62.7887 24.5016 62.6887 24.4016C62.6887 24.4016 62.5886 24.2016 62.4886 24.1016C62.4886 24.1016 62.3887 23.9015 62.2887 23.8015C62.2887 23.8015 62.1887 23.6016 62.1887 23.5016C62.1887 23.5016 62.1887 23.3015 62.0887 23.2015C62.0887 23.1015 62.0886 23.0016 61.9886 22.9016C61.9886 22.8016 61.9887 22.7016 61.8887 22.6016C61.8887 22.5016 61.8887 22.4015 61.8887 22.3015C61.8887 22.2015 61.8887 22.1016 61.8887 22.0016C61.8887 21.9016 61.8887 21.8015 61.8887 21.7015C61.8887 21.6015 61.8887 21.5016 61.8887 21.4016C61.8887 21.3016 61.8887 21.2016 61.8887 21.1016C61.8887 21.0016 61.8887 20.9015 61.8887 20.8015C61.8887 20.7015 61.8887 20.6016 61.8887 20.5016C61.8887 20.4016 61.8887 20.3015 61.8887 20.2015C61.8887 20.1015 61.8887 20.0016 61.8887 19.9016C61.8887 19.8016 61.8887 19.7016 61.8887 19.6016C61.8887 19.5016 61.8887 19.4015 61.8887 19.3015C61.8887 19.2015 61.8887 19.1016 61.8887 19.0016C61.8887 18.9016 61.8886 18.8015 61.9886 18.7015C61.9886 18.6015 61.9887 18.5016 62.0887 18.4016C62.0887 18.4016 62.0887 18.2016 62.1887 18.1016C62.1887 18.1016 62.2887 17.9015 62.3887 17.8015C62.3887 17.8015 62.4887 17.6016 62.5887 17.5016C63.6887 15.9016 65.2887 15.1015 67.1887 14.7015V14.6016Z" fill="black"/>
<path d="M67.5879 15.7031C68.7879 15.7031 69.9879 15.9031 70.9879 16.6031C72.0879 17.4031 72.7879 18.6032 72.9879 20.0032C73.1879 21.4032 72.9879 22.7031 72.0879 23.8031C71.0879 25.2031 69.7879 25.8031 68.1879 26.1031C67.0879 26.1031 66.1879 25.9032 65.2879 25.4032C64.0879 24.6032 63.1879 23.3032 62.8879 21.9032C62.5879 20.5032 62.8879 19.0031 63.7879 17.8031C64.7879 16.5031 66.0879 16.0031 67.5879 15.7031Z" fill="#FEFEFE"/>
<path d="M50.0885 8.40139C50.3885 8.40139 50.6884 8.40139 50.9884 8.40139C51.9884 8.40139 52.8885 8.40132 53.5885 9.20132C54.7885 10.5013 54.2885 14.1013 54.2885 15.8013H15.3885H11.3885C11.3885 14.0013 10.8885 10.2014 12.0885 8.90139C12.4885 8.50139 13.5885 8.50139 14.0885 8.40139C17.9885 8.20139 21.9884 8.40139 25.9884 8.40139H50.0885Z" fill="#FEFEFE"/>
<path d="M44.8887 11.7025C46.0887 11.7025 48.3887 11.4026 49.3887 11.9026C49.4887 12.2026 49.3887 12.3025 49.3887 12.6025L48.9886 12.8025C47.5886 12.8025 45.9887 13.0025 44.6887 12.8025C44.3887 12.6025 44.3887 12.6025 44.3887 12.2025C44.5887 11.9025 44.5887 11.9025 44.8887 11.7025Z" fill="black"/>
<path d="M17.2879 10.5C17.6879 10.5 17.9879 10.5 18.2879 10.7C18.8879 10.9 19.2879 11.4 19.4879 12C19.4879 12 19.4879 12.1 19.4879 12.2C19.4879 12.2 19.4879 12.3 19.4879 12.4C19.4879 12.4 19.4879 12.5 19.4879 12.6C19.4879 12.6 19.4879 12.6999 19.4879 12.7999C19.4879 12.7999 19.4879 12.9 19.4879 13C19.4879 13 19.4879 13.1 19.4879 13.2C19.4879 13.2 19.4879 13.3 19.4879 13.4C19.4879 13.4 19.4879 13.5 19.4879 13.6C19.0879 14.3 18.4879 14.5999 17.7879 14.7999C17.3879 14.7999 16.9879 14.8 16.5879 14.6C16.5879 14.6 16.4879 14.6 16.3879 14.5C16.3879 14.5 16.2879 14.5 16.1879 14.4C16.1879 14.4 16.0879 14.4 15.9879 14.2C15.9879 14.2 15.8879 14.1 15.7879 14C15.7879 14 15.7879 13.8999 15.6879 13.7999C15.6879 13.7999 15.6879 13.7 15.5879 13.6C15.5879 13.6 15.5879 13.5 15.5879 13.4C15.5879 13.4 15.5879 13.3 15.5879 13.2C15.5879 13.2 15.5879 13.1 15.5879 13C15.5879 13 15.5879 12.8999 15.5879 12.7999C15.5879 12.7999 15.5879 12.7 15.5879 12.6C15.5879 12.6 15.5879 12.5 15.5879 12.4C15.5879 12.3 15.5879 12.3 15.5879 12.2C15.5879 12.2 15.5879 12.1 15.5879 12C15.5879 12 15.5879 11.8999 15.5879 11.7999C15.5879 11.7999 15.5879 11.7 15.6879 11.6C16.0879 11 16.5879 10.8 17.2879 10.6V10.5Z" fill="black"/>
<path d="M17.1875 11.4032C17.6875 11.4032 18.0875 11.4031 18.3875 11.8031C18.3875 11.8031 18.3875 11.8032 18.3875 11.9032C18.3875 11.9032 18.3875 11.9032 18.3875 12.0032C18.3875 12.0032 18.3875 12.0031 18.3875 12.1031C18.3875 12.1031 18.3875 12.1031 18.3875 12.2031C18.3875 12.2031 18.3875 12.2031 18.3875 12.3031C18.3875 12.3031 18.3875 12.3032 18.3875 12.4032C18.3875 12.4032 18.3875 12.4032 18.3875 12.5032C18.3875 13.0032 17.9875 13.3031 17.5875 13.6031C17.1875 13.6031 16.6875 13.6031 16.3875 13.2031C16.1875 13.0031 16.1875 12.8031 16.1875 12.6031C16.1875 12.0031 16.5875 11.6031 16.9875 11.2031L17.1875 11.4032Z" fill="#FEFEFE"/>
<path d="M64.4875 1.10156C66.3875 1.10156 68.2875 1.10156 70.1875 1.10156V5.40161H70.3875C71.6875 5.70161 72.9875 6.10156 74.2875 6.60156C75.1875 5.60156 75.7875 4.40151 76.5875 3.30151C77.8875 4.20151 79.1875 5.10154 80.2875 6.20154C79.7875 7.30154 79.0875 8.40161 78.4875 9.40161C79.4875 10.3016 80.1875 11.4016 80.8875 12.5016C82.0875 12.1016 83.1875 11.5016 84.3875 11.0016C85.2875 12.8016 86.0875 14.7016 86.7875 16.5016C86.7875 16.5016 86.7875 16.5016 86.6875 16.5016H86.4875C85.2875 17.0016 84.0875 17.3016 82.8875 17.6016C83.2875 19.4016 83.3875 20.8015 83.0875 22.7015C84.3875 23.0015 85.6875 23.4015 86.9875 23.8015C86.4875 25.7015 85.9875 27.5015 85.2875 29.2015C84.0875 28.9015 82.8875 28.5016 81.6875 28.1016L78.8875 32.2015C79.5875 33.2015 80.4875 34.1016 81.2875 35.0016C79.9875 36.2016 78.4875 37.3015 77.0875 38.3015C75.9875 37.4015 75.0875 36.5016 74.1875 35.5016C72.8875 36.2016 71.6875 36.7016 70.1875 37.1016C70.3875 38.3016 70.4875 39.4016 70.4875 40.6016C68.5875 40.6016 66.6875 40.6016 64.8875 40.6016C64.4875 39.4016 64.4875 38.1015 64.4875 36.8015C63.7875 36.7015 62.9875 36.5016 62.2875 36.4016C61.6875 36.2016 61.2875 35.9016 60.7875 35.6016C60.2875 36.5016 59.6875 37.4015 59.1875 38.3015C59.3875 34.7015 59.2875 31.1016 59.2875 27.6016C60.2875 28.6016 61.2875 29.5015 62.4875 30.2015C64.8875 31.6015 67.6875 32.0015 70.3875 31.3015C70.5875 31.3015 70.6875 31.3016 70.8875 31.1016C71.0875 31.1016 71.1875 31.0016 71.3875 30.9016C71.5875 30.9016 71.6875 30.8015 71.8875 30.7015C72.0875 30.7015 72.1875 30.6016 72.3875 30.5016C72.5875 30.5016 72.6875 30.3015 72.8875 30.3015C73.0875 30.3015 73.1875 30.1016 73.3875 30.0016C73.4875 30.0016 73.6875 29.8015 73.7875 29.7015C73.8875 29.6015 74.0875 29.5016 74.1875 29.4016C74.2875 29.3016 74.4875 29.2016 74.5875 29.1016C74.6875 29.0016 74.8875 28.9015 74.9875 28.7015C75.0875 28.6015 75.2875 28.5015 75.3875 28.3015C75.4875 28.2015 75.5875 28.0016 75.7875 27.9016C75.8875 27.8016 75.9875 27.6016 76.0875 27.5016C76.1875 27.4016 76.2875 27.2016 76.3875 27.1016C76.4875 27.0016 76.5875 26.8015 76.6875 26.7015C76.6875 26.6015 76.8875 26.4015 76.9875 26.2015C78.3875 23.8015 78.6875 20.7016 77.8875 18.0016C77.0875 15.3016 75.2875 12.9016 72.8875 11.6016C72.6875 11.6016 72.5875 11.4016 72.3875 11.4016C72.1875 11.4016 72.0875 11.2015 71.8875 11.2015C71.6875 11.2015 71.5875 11.1016 71.3875 11.0016C71.1875 11.0016 71.0875 10.9015 70.8875 10.8015C70.6875 10.8015 70.5875 10.7016 70.3875 10.6016C70.1875 10.6016 70.0875 10.6016 69.8875 10.5016C69.6875 10.5016 69.5875 10.5016 69.3875 10.4016C69.1875 10.4016 69.0875 10.4016 68.8875 10.4016C68.6875 10.4016 68.5875 10.4016 68.3875 10.4016C68.1875 10.4016 67.9875 10.4016 67.8875 10.4016C67.6875 10.4016 67.4875 10.4016 67.3875 10.4016C67.1875 10.4016 66.9875 10.4016 66.8875 10.4016C66.6875 10.4016 66.5875 10.4016 66.3875 10.4016C66.1875 10.4016 66.0875 10.4016 65.8875 10.4016C65.6875 10.4016 65.5875 10.4016 65.3875 10.5016C65.1875 10.5016 65.0875 10.5016 64.8875 10.6016C61.7875 11.5016 59.5875 13.6016 58.0875 16.4016C57.1875 15.8016 56.4875 15.7015 55.4875 15.7015C55.4875 14.3015 55.4875 13.0016 55.4875 11.6016C55.4875 9.80156 54.9875 8.80156 53.6875 7.60156C55.0875 6.40156 56.4875 5.10159 57.9875 4.00159C58.7875 5.10159 59.4875 6.30151 60.4875 7.30151C61.7875 6.50151 63.1875 5.90161 64.6875 5.40161C64.6875 4.00161 64.6875 2.60154 64.6875 1.20154L64.4875 1.10156Z" fill="#80BBD7"/>
<path d="M5.48885 16.8999C7.68885 16.7999 9.88889 16.8999 12.0889 16.8999H24.8889C35.4889 16.8999 46.0889 16.7999 56.5889 16.8999C56.9889 17.1999 57.5889 17.4999 57.8889 17.8999C58.1889 18.2999 58.1889 18.7999 58.1889 19.3999C58.3889 27.1999 57.9889 35.0999 58.1889 42.8999C58.2889 49.2999 58.2889 55.5999 58.1889 61.9999C58.1889 64.3999 58.3889 66.9998 58.0889 69.2998C57.8889 70.2998 57.3889 70.8999 56.5889 71.4999C56.0889 71.6999 55.5889 71.7998 55.0889 71.7998C51.6889 71.7998 48.3889 71.7998 44.9889 71.7998H21.7889H11.4889C9.88885 71.7998 7.98888 71.9998 6.38888 71.7998C5.58888 71.6998 4.98889 71.1999 4.58889 70.5999C4.18889 69.9999 4.08889 69.3999 4.08889 68.5999C3.88889 64.5999 4.08889 60.5999 4.08889 56.5999V32.5999V23.1998C4.08889 21.7998 3.88889 19.9999 4.08889 18.5999C4.28889 17.7999 4.68888 17.3999 5.38888 16.8999H5.48885Z" fill="#FEFEFE"/>
<path d="M12.5875 24.9031C13.1875 24.9031 13.6875 24.9031 14.1875 24.9031C14.3875 25.1031 14.4875 25.2031 14.5875 25.5031L14.3875 25.803C13.4875 26.303 11.7875 26.1031 10.7875 26.1031C10.5875 26.1031 10.3875 26.1031 10.1875 26.1031C9.7875 26.1031 9.4875 26.1031 9.1875 25.7031C9.1875 25.5031 9.18754 25.403 9.28754 25.303C10.0875 24.703 11.4875 24.9031 12.4875 24.9031H12.5875Z" fill="black"/>
<path d="M9.58784 29.6008C10.7878 29.6008 18.8878 29.4008 19.4878 29.8008C19.6878 30.2008 19.5878 30.4008 19.4878 30.8008C18.0878 30.8008 10.4879 31.0008 9.78785 30.8008C9.68785 30.8008 9.5878 30.7008 9.4878 30.6008C9.3878 30.2008 9.4878 30.0008 9.4878 29.6008H9.58784Z" fill="black"/>
<path d="M13.6887 38.7998H27.4886C29.8886 38.7998 32.2887 38.5998 34.6887 38.7998C35.1887 38.7998 35.6887 38.8999 36.1887 39.0999L36.3887 39.4999C35.2887 40.1999 33.2886 39.9999 31.9886 39.9999H16.3887C14.6887 39.9999 11.6887 40.2999 10.1887 39.9999C9.78866 39.9999 9.58867 39.7999 9.38867 39.4999L9.58868 39.2998C10.7887 38.7998 12.4887 38.8999 13.7887 38.8999L13.6887 38.7998Z" fill="black"/>
<path d="M25.0887 29.6H44.1887C47.0887 29.6 50.0887 29.4 52.8887 29.6C53.2887 29.6 53.4887 29.6 53.7887 29.9C53.7887 30.3 53.7887 30.3999 53.6887 30.7999C48.4887 31.0999 43.2887 30.7999 38.0887 30.7999H29.9886C28.5886 30.7999 27.1887 30.7999 25.8887 30.7999C25.4887 30.7999 25.2887 30.8 24.8887 30.5C24.8887 30.1 24.8887 29.8 25.0887 29.5V29.6Z" fill="black"/>
<path d="M18.9881 25.0005H40.8881C44.6881 25.0005 49.2881 24.7005 52.9881 25.0005C53.2881 25.0005 53.3881 25.0005 53.5881 25.2005C53.7881 25.5005 53.7881 25.8005 53.6881 26.1005C46.2881 26.2005 38.8881 26.1005 31.4881 26.1005C29.7881 26.1005 20.0881 26.4005 19.0881 26.1005C18.8881 25.7005 18.9881 25.5005 19.0881 25.1005L18.9881 25.0005Z" fill="black"/>
<path d="M9.38772 34.3031H39.4877C42.8877 34.3031 46.2877 34.3031 49.7877 34.3031C50.6877 34.3031 51.5877 34.2031 52.5877 34.3031C53.0877 34.3031 53.4877 34.3031 53.8877 34.6031C54.0877 35.0031 53.9877 35.1032 53.8877 35.5032H23.3877H13.4877C12.4877 35.5032 11.4877 35.6032 10.4877 35.5032C10.0877 35.5032 9.68772 35.5031 9.38772 35.2031C9.18772 34.8031 9.38772 34.7031 9.38772 34.2031V34.3031Z" fill="black"/>
<g filter="url(#filter0_d_616_2715)">
<path d="M45.8875 43.8031C46.8875 43.8031 47.6875 44.1031 48.3875 44.7031C49.0875 45.3031 49.5875 46.2031 49.5875 47.1031C49.5875 48.1031 49.2875 48.9031 48.6875 49.7031L48.4875 49.9032C48.4875 49.9032 48.2875 50.1031 48.1875 50.1031C48.1875 50.1031 47.9875 50.2031 47.8875 50.3031C47.8875 50.3031 47.6875 50.4032 47.5875 50.5032C47.4875 50.5032 47.3875 50.5031 47.2875 50.6031C47.1875 50.6031 47.0875 50.6031 46.9875 50.6031C46.8875 50.6031 46.7875 50.6031 46.6875 50.6031C46.5875 50.6031 46.4875 50.6031 46.3875 50.6031C45.1875 50.6031 44.2875 50.0031 43.3875 49.2031C41.1875 50.9031 38.7875 52.3032 36.4875 53.9032C36.7875 54.6032 37.0875 55.3031 36.9875 56.1031C36.9875 57.1031 36.4875 57.9032 35.7875 58.5032C34.9875 59.1032 33.9875 59.5031 32.9875 59.3031C32.8875 59.3031 32.7875 59.3031 32.6875 59.3031C32.5875 59.3031 32.4875 59.3031 32.3875 59.3031C32.2875 59.3031 32.1875 59.3031 32.0875 59.2031C31.9875 59.2031 31.8875 59.1032 31.7875 59.0032C31.7875 59.0032 31.5875 58.9031 31.4875 58.8031C31.4875 58.8031 31.2875 58.7031 31.1875 58.6031L30.9875 58.4032C30.9875 58.4032 30.8875 58.2031 30.7875 58.1031C29.9875 56.9031 30.1875 55.6031 30.4875 54.2031C28.7875 53.2031 27.1875 52.3031 25.5875 51.2031C25.1875 51.4031 24.7875 51.7032 24.2875 51.9032C23.0875 52.4032 21.9875 52.2031 20.8875 51.6031C19.1875 52.8031 17.7875 54.3031 16.2875 55.7031C16.6875 56.6031 16.9875 57.7031 16.7875 58.7031C16.5875 59.7031 15.8875 60.2031 14.9875 60.7031C14.6875 60.7031 14.4875 60.9032 14.1875 60.9032C14.0875 60.9032 13.9875 60.9032 13.8875 60.9032C13.7875 60.9032 13.6875 60.9032 13.5875 60.9032C13.4875 60.9032 13.3875 60.9032 13.2875 60.9032C13.1875 60.9032 13.0875 60.9032 12.9875 60.9032C12.8875 60.9032 12.7875 60.9032 12.6875 60.9032C12.5875 60.9032 12.4875 60.9031 12.3875 60.8031C12.3875 60.8031 12.1875 60.8031 12.0875 60.7031C12.0875 60.7031 11.8875 60.6032 11.7875 60.5032C10.7875 59.8032 10.3875 58.9031 10.1875 57.8031C10.2875 57.3031 10.3875 56.9032 10.5875 56.4032C10.9875 55.6032 11.7875 54.9031 12.6875 54.6031C13.7875 54.3031 14.6875 54.5032 15.6875 55.0032C17.0875 53.4032 18.5875 52.0031 20.0875 50.6031C19.7875 50.0031 19.5875 49.4031 19.5875 48.8031C19.5875 47.9031 19.7875 46.9031 20.4875 46.3031C20.4875 46.3031 20.6875 46.1031 20.7875 46.1031C20.7875 46.1031 20.9875 46.0032 21.0875 45.9032C21.0875 45.9032 21.2875 45.8031 21.3875 45.7031C21.4875 45.7031 21.5875 45.6032 21.6875 45.5032C21.7875 45.5032 21.8875 45.5032 21.9875 45.4032C22.0875 45.4032 22.1875 45.4032 22.2875 45.4032C22.3875 45.4032 22.4875 45.4032 22.6875 45.4032C22.7875 45.4032 22.8875 45.4032 23.0875 45.4032C23.9875 45.4032 24.8875 45.8032 25.4875 46.4032C26.5875 47.6032 26.4875 49.1031 26.3875 50.6031C27.5875 51.0031 29.9875 52.7032 31.1875 53.4032C31.5875 53.2032 32.0875 53.0031 32.5875 52.8031C33.7875 52.4031 34.7875 52.8031 35.7875 53.3031L42.9875 48.5032C42.7875 47.4032 42.8875 46.2031 43.4875 45.2031C44.0875 44.3031 44.9875 43.9031 46.0875 43.7031L45.8875 43.8031Z" fill="black"/>
</g>
<path d="M13.0883 55.9009C13.4883 55.9009 13.8883 55.9009 14.1883 56.0009C14.7883 56.2009 15.2882 56.7008 15.4882 57.2008C15.4882 57.2008 15.4882 57.3009 15.4882 57.4009C15.4882 57.4009 15.4882 57.5008 15.4882 57.6008C15.4882 57.6008 15.4882 57.7008 15.4882 57.8008C15.4882 57.8008 15.4882 57.9009 15.4882 58.0009C15.4882 58.0009 15.4882 58.1008 15.4882 58.2008C15.4882 58.2008 15.4882 58.3009 15.4882 58.4009C15.4882 58.5009 15.4882 58.5008 15.4882 58.6008C15.4882 58.6008 15.4882 58.7008 15.4882 58.8008C15.1882 59.5008 14.5883 59.8008 13.8883 60.1008C13.5883 60.1008 13.1883 60.1008 12.8883 60.1008C12.2883 59.9008 11.7883 59.5009 11.5883 59.0009C11.2883 58.4009 11.2883 57.8008 11.5883 57.2008C11.8883 56.5008 12.4883 56.1008 13.1883 55.8008L13.0883 55.9009Z" fill="#242E3A"/>
<path d="M32.5884 54C32.9884 54 33.4884 54 33.8884 54C34.4884 54.1 35.0883 54.5 35.4883 55.1C35.7883 55.6 35.8884 56.2 35.7884 56.7C35.5884 57.6 34.9884 58.1 34.2884 58.6C33.9884 58.6 33.7883 58.6 33.4883 58.7C32.8883 58.7 32.2884 58.4 31.8884 58C31.3884 57.5 31.2884 56.8 31.3884 56.1C31.3884 55.2 31.9884 54.6 32.5884 54.1V54Z" fill="#69CDF0"/>
<path d="M22.6875 46.5C23.0875 46.5 23.4875 46.4999 23.7875 46.7999C24.3875 47.0999 24.7875 47.6999 24.9875 48.2999C24.9875 48.2999 24.9875 48.5 24.9875 48.6C24.9875 48.6 24.9875 48.8 24.9875 48.9C24.9875 48.9 24.9875 49.1 24.9875 49.2C24.9875 49.2 24.9875 49.4 24.9875 49.5C24.9875 49.5 24.9875 49.6999 24.9875 49.7999C24.9875 49.7999 24.9875 50 24.9875 50.1V50.2999C24.9875 50.2999 24.9875 50.5 24.8875 50.5C24.4875 51.2 23.7875 51.4 23.0875 51.6C22.6875 51.6 22.2875 51.4999 21.9875 51.2999C21.3875 50.9999 20.8875 50.3 20.6875 49.7V49.5V49.2999V49.1V48.9V48.7V48.5C20.6875 48.5 20.6875 48.3999 20.6875 48.2999C20.6875 48.2999 20.6875 48.2 20.7875 48.1C21.1875 47.4 21.8875 47.2 22.5875 47L22.6875 46.5Z" fill="#80BBD7"/>
<path d="M45.488 45.0023C45.788 45.0023 46.188 45.0023 46.488 45.0023C47.188 45.0023 47.788 45.6023 48.188 46.1023C48.188 46.1023 48.188 46.2022 48.288 46.3022C48.288 46.3022 48.288 46.4023 48.288 46.5023C48.288 46.5023 48.288 46.6023 48.288 46.7023C48.288 46.7023 48.288 46.8023 48.288 46.9023V47.1023V47.3022V47.5023V47.7023C48.088 48.6023 47.488 49.0023 46.688 49.4023C46.288 49.4023 45.888 49.5023 45.388 49.4023C45.388 49.4023 45.288 49.4023 45.188 49.4023C45.188 49.4023 45.088 49.4023 44.988 49.4023C44.988 49.4023 44.888 49.4023 44.788 49.4023C44.788 49.4023 44.688 49.4022 44.588 49.3022C44.588 49.3022 44.488 49.3023 44.388 49.2023C44.388 49.2023 44.288 49.2023 44.188 49.0023C44.188 49.0023 44.088 48.9022 43.988 48.8022C43.988 48.8022 43.988 48.7023 43.888 48.6023C43.488 48.0023 43.488 47.3023 43.688 46.6023C43.888 45.7023 44.488 45.3023 45.288 44.9023L45.488 45.0023Z" fill="#242E3A"/>
<defs>
<filter id="filter0_d_616_2715" x="0.1875" y="40.7031" width="59.4004" height="37.1992" filterUnits="userSpaceOnUse" color-interpolation-filters="sRGB">
<feFlood flood-opacity="0" result="BackgroundImageFix"/>
<feColorMatrix in="SourceAlpha" type="matrix" values="0 0 0 0 0 0 0 0 0 0 0 0 0 0 0 0 0 0 127 0" result="hardAlpha"/>
<feOffset dy="7"/>
<feGaussianBlur stdDeviation="5"/>
<feColorMatrix type="matrix" values="0 0 0 0 0 0 0 0 0 0 0 0 0 0 0 0 0 0 0.8 0"/>
<feBlend mode="normal" in2="BackgroundImageFix" result="effect1_dropShadow_616_2715"/>
<feBlend mode="normal" in="SourceGraphic" in2="effect1_dropShadow_616_2715" result="shape"/>
</filter>
</defs>
</svg>
