<svg width="105" height="106" viewBox="0 0 105 106" fill="none" xmlns="http://www.w3.org/2000/svg">
<g filter="url(#filter0_d_616_2683)">
<path d="M84.608 73.7999C87.708 73.7999 90.608 73.4999 93.108 75.8999L93.308 76.1C93.308 76.1 93.508 76.2999 93.508 76.3999C93.508 76.3999 93.608 76.6 93.708 76.7C93.708 76.7 93.808 76.9 93.908 77C93.908 77 94.008 77.1999 94.108 77.2999C94.108 77.2999 94.208 77.5 94.308 77.6C94.308 77.7 94.408 77.7999 94.508 77.8999C94.508 77.9999 94.508 78.1 94.608 78.2C94.608 78.3 94.608 78.4 94.708 78.5C94.708 78.6 94.708 78.6999 94.808 78.7999C94.808 78.8999 94.808 79 94.808 79.1C94.808 79.2 94.808 79.2999 94.808 79.3999C94.808 79.4999 94.808 79.6 94.808 79.7C94.808 79.8 94.808 79.9 94.808 80C94.808 80.1 94.808 80.1999 94.808 80.2999C94.808 80.3999 94.808 80.5 94.808 80.6C94.808 80.7 94.808 80.8 94.808 81C94.808 81.1 94.808 81.1999 94.808 81.3999C94.808 81.4999 94.808 81.5999 94.808 81.7999C94.808 81.8999 94.808 82 94.808 82.2C94.808 82.3 94.808 82.4 94.808 82.6C94.808 82.7 94.808 82.8 94.708 83C94.708 83.1 94.708 83.1999 94.608 83.3999C94.608 83.4999 94.608 83.6 94.508 83.7C94.508 83.8 94.508 83.9 94.308 84C94.108 84.1 94.208 84.1999 94.108 84.2999C94.108 84.3999 94.008 84.5 93.908 84.6C93.908 84.7 93.808 84.7999 93.708 84.8999C93.708 84.9999 93.608 85.1 93.508 85.2C93.508 85.2 93.308 85.4 93.308 85.5C93.308 85.5 93.108 85.6999 93.108 85.7999C93.108 85.7999 92.908 86 92.808 86.1C91.808 87.1 90.408 87.8 89.008 88.1C86.208 88.5 83.208 88.2999 80.408 88.2999H64.908H35.408C29.808 88.2999 24.208 88.3999 18.508 88.2999C16.308 88.2999 14.608 87.8 13.008 86.2C11.508 84.7 10.508 82.3999 10.208 80.2999C9.808 77.8999 10.108 75.1999 10.108 72.7999V59.7999V23.2C10.108 19.1 9.908 14.9999 10.108 10.8999C10.108 8.6999 10.608 6.79998 12.308 5.09998C12.408 5.09998 12.508 4.89993 12.608 4.79993C12.708 4.79993 12.808 4.6 12.908 4.5C13.008 4.5 13.108 4.29995 13.208 4.19995C13.308 4.19995 13.408 4 13.608 4C13.708 4 13.808 3.89993 14.008 3.79993C14.108 3.79993 14.208 3.69998 14.408 3.59998C14.508 3.59998 14.708 3.4999 14.808 3.3999C14.908 3.3999 15.108 3.29995 15.208 3.19995C15.308 3.19995 15.508 3.19998 15.608 3.09998C15.708 3.09998 15.908 3.1 16.008 3C16.108 3 16.308 3 16.408 3C16.508 3 16.708 3 16.808 3C16.908 3 17.108 3 17.208 3C17.308 3 17.508 3 17.608 3C17.708 3 17.908 3 18.008 3C18.108 3 18.308 3 18.408 3C20.808 3.1 22.908 4.2 24.508 6C25.708 7.3 26.308 8.6999 26.508 10.3999C26.808 12.4999 26.608 14.9 26.608 17V29.2999V73.7H32.008C32.008 66.9 31.808 59.9999 32.008 53.2999C33.808 53.1999 40.108 52.9 41.408 53.5C41.408 53.6 41.608 53.7999 41.608 53.7999C42.008 56.0999 41.808 58.7 41.808 61C41.808 65.3 41.808 69.4999 41.808 73.7999H46.308L46.408 45.2V43.2C47.308 42.5 54.308 42.6999 55.708 42.7999V73.7999C55.808 73.7999 60.208 73.7999 60.208 73.7999V48.1C60.208 44.1 60.008 39.8999 60.208 35.8999C60.208 35.3999 60.208 34.7999 60.608 34.3999C62.408 33.8999 67.608 34.0999 69.608 34.2999C69.908 38.6999 69.708 43.2 69.708 47.6V73.8999H74.308V44C74.308 38.5 74.108 32.9 74.408 27.5C76.608 27.5 82.108 27.1 83.908 27.6C84.208 28 84.308 28.5 84.308 29.1C84.508 33.2 84.308 37.4 84.308 41.6C84.308 52.4 84.108 63.2 84.308 74L84.608 73.7999Z" fill="black"/>
</g>
<g filter="url(#filter1_d_616_2683)">
<path d="M80.5078 81.8984C80.4078 80.8984 81.6078 79.4985 82.2078 78.7985C83.5078 77.0985 85.1078 75.4985 87.4078 75.1985C89.0078 74.9985 90.7078 75.5985 91.9078 76.5985C93.0078 77.5985 93.7079 78.9984 93.8079 80.3984C93.9079 81.9984 93.5078 83.5985 92.4078 84.7985C92.2078 84.9985 92.0079 85.1984 91.8079 85.3984C91.6079 85.5984 91.4078 85.6984 91.2078 85.8984C91.0078 85.9984 90.7078 86.1985 90.5078 86.2985C90.3078 86.3985 90.0079 86.4985 89.8079 86.5985C88.3079 86.8985 86.7078 86.6985 85.2078 86.5985C83.4078 85.1985 82.0078 83.5985 80.6078 81.7985L80.5078 81.8984Z" fill="#FEFEFE"/>
</g>
<g filter="url(#filter2_d_616_2683)">
<path d="M33.5078 54.6C35.8078 54.6 38.1078 54.6 40.4078 54.6V73.7H33.6078V54.5L33.5078 54.6Z" fill="#E5E6E1"/>
</g>
<g filter="url(#filter3_d_616_2683)">
<path d="M53.2088 44.3008C53.7088 44.3008 54.0088 44.3009 54.4088 44.5009C54.7088 47.7009 54.4088 51.1008 54.4088 54.3008V73.8008H49.1088C48.7088 73.8008 48.4088 73.8008 48.0088 73.8008C47.6088 73.1008 47.9088 47.2009 47.9088 44.5009H53.2088V44.3008Z" fill="#2FA6D0"/>
</g>
<g filter="url(#filter4_d_616_2683)">
<path d="M61.9086 35.6992C64.0086 35.6992 66.2086 35.6992 68.3086 35.6992V73.7992H61.8086C61.8086 61.0992 61.8086 48.3992 61.8086 35.6992H61.9086Z" fill="#242E3A"/>
</g>
<g filter="url(#filter5_d_616_2683)">
<path d="M16.6084 86.7975C15.5084 86.3975 14.7084 85.8976 13.9084 84.9976C12.9084 83.7976 12.1084 82.0976 11.8084 80.5976C11.4084 77.5976 11.6084 74.2975 11.6084 71.2975V53.8975V25.4976C11.6084 20.5976 11.4084 15.5975 11.6084 10.6975C11.7084 8.79755 12.1084 7.39757 13.6084 6.09757C15.0084 4.89757 16.9084 4.49755 18.7084 4.69755C20.9084 4.89755 22.4084 5.99757 23.7084 7.59757C23.7084 7.59757 23.6084 7.59757 23.5084 7.59757C20.8084 7.89757 18.2084 6.79752 16.1084 9.29752C15.2084 10.3975 14.8084 11.8975 14.7084 13.2975C14.4084 16.7975 14.7084 20.3975 14.7084 23.7975C14.7084 29.0975 14.7084 34.3975 14.7084 39.6975L14.5084 63.3975C14.5084 68.2975 14.4084 73.2976 15.0084 78.0976C15.2084 79.8976 15.9084 83.5975 17.4084 84.8975C17.6084 85.0975 17.8084 85.0975 18.0084 85.1975C17.6084 85.7975 17.0084 86.2975 16.5084 86.8975L16.6084 86.7975Z" fill="#E1E0E0"/>
</g>
<g filter="url(#filter6_d_616_2683)">
<path d="M75.9082 28.8008C78.2082 28.8008 80.6082 28.8008 83.0082 28.8008C83.2082 43.7008 83.0082 58.7008 83.0082 73.6008H76.1082V28.8008H75.9082Z" fill="#69CDF0"/>
</g>
<g filter="url(#filter7_d_616_2683)">
<path d="M26.8094 75.2974C45.7094 75.2974 64.6094 74.9974 83.5094 75.2974C81.8094 77.0974 79.8094 79.0974 78.8094 81.3974V81.6974C78.2094 81.8974 77.6094 81.8975 77.1094 81.9975C71.3094 82.1975 65.4094 81.9975 59.6094 81.9975L37.0094 81.7974C34.2094 81.7974 25.1094 82.1974 23.1094 81.5974C24.4094 79.5974 25.9094 77.5974 26.9094 75.3974L26.8094 75.2974Z" fill="#FEFEFE"/>
</g>
<g filter="url(#filter8_d_616_2683)">
<path d="M18.1078 85.1C17.8078 85.1 17.7078 84.9999 17.5078 84.7999C16.0078 83.4999 15.4078 79.9 15.1078 78C14.5078 73.2 14.6078 68.0999 14.6078 63.2999L14.8078 39.6C14.8078 34.3 14.8078 29 14.8078 23.7C14.8078 20.2 14.5078 16.6 14.8078 13.2C14.9078 11.8 15.3078 10.3 16.2078 9.19995C18.3078 6.69995 20.8078 7.8 23.6078 7.5C23.6078 7.5 23.7078 7.5 23.8078 7.5C25.2078 9.9 25.3078 11.9 25.2078 14.6C24.2078 14.6 21.7078 14.4 21.0078 15.2C21.0078 15.2 21.0078 15.1999 21.0078 15.2999C21.3078 15.6999 22.0078 15.8999 22.5078 15.8999C23.4078 15.9999 24.5078 15.8999 25.4078 15.8999V20.7C24.0078 20.7 22.0078 20.4 20.8078 21.2V21.5C22.3078 22.2 23.8078 22.1 25.4078 22V27C24.0078 27 22.2078 26.8 20.9078 27.5V27.7C22.0078 28.6 24.0078 28.3999 25.4078 28.3999V33.1C23.9078 33.1 22.4078 32.9 21.0078 33.6V33.8999C21.9078 34.7999 24.1078 34.5 25.4078 34.5V39C23.9078 39 22.1078 38.9 20.8078 39.7V39.8999C21.7078 40.7999 24.1078 40.4999 25.4078 40.3999V45.1C23.9078 45.1 22.4078 44.9 21.0078 45.6V45.8999C22.0078 46.6999 24.1078 46.3999 25.4078 46.3999V51.1C24.0078 51.1 22.2078 50.8 21.0078 51.6V51.8999C22.2078 52.6999 24.0078 52.5 25.4078 52.5V57.3999C24.0078 57.3999 22.2078 57.1999 20.9078 57.8999V58.1C22.1078 58.9 24.0078 58.6 25.4078 58.6V63.5C24.0078 63.5 22.3078 63.2 21.1078 64V64.2999C21.7078 64.9999 22.8078 65 23.7078 65H25.4078V69.7999C23.9078 69.7999 22.1078 69.5999 20.8078 70.3999V70.6C21.9078 71.5 24.1078 71.2 25.4078 71.2C25.4078 72.3 25.4078 73.4 25.6078 74.5C23.8078 78.1 21.1078 81.7999 18.4078 84.7999L18.1078 85.1Z" fill="#FEFEFE"/>
</g>
<defs>
<filter id="filter0_d_616_2683" x="0" y="0" width="104.808" height="105.352" filterUnits="userSpaceOnUse" color-interpolation-filters="sRGB">
<feFlood flood-opacity="0" result="BackgroundImageFix"/>
<feColorMatrix in="SourceAlpha" type="matrix" values="0 0 0 0 0 0 0 0 0 0 0 0 0 0 0 0 0 0 127 0" result="hardAlpha"/>
<feOffset dy="7"/>
<feGaussianBlur stdDeviation="5"/>
<feColorMatrix type="matrix" values="0 0 0 0 0 0 0 0 0 0 0 0 0 0 0 0 0 0 0.8 0"/>
<feBlend mode="normal" in2="BackgroundImageFix" result="effect1_dropShadow_616_2683"/>
<feBlend mode="normal" in="SourceGraphic" in2="effect1_dropShadow_616_2683" result="shape"/>
</filter>
<filter id="filter1_d_616_2683" x="70.502" y="72.1602" width="33.3203" height="31.5977" filterUnits="userSpaceOnUse" color-interpolation-filters="sRGB">
<feFlood flood-opacity="0" result="BackgroundImageFix"/>
<feColorMatrix in="SourceAlpha" type="matrix" values="0 0 0 0 0 0 0 0 0 0 0 0 0 0 0 0 0 0 127 0" result="hardAlpha"/>
<feOffset dy="7"/>
<feGaussianBlur stdDeviation="5"/>
<feColorMatrix type="matrix" values="0 0 0 0 0 0 0 0 0 0 0 0 0 0 0 0 0 0 0.8 0"/>
<feBlend mode="normal" in2="BackgroundImageFix" result="effect1_dropShadow_616_2683"/>
<feBlend mode="normal" in="SourceGraphic" in2="effect1_dropShadow_616_2683" result="shape"/>
</filter>
<filter id="filter2_d_616_2683" x="23.5078" y="51.5" width="26.9004" height="39.1992" filterUnits="userSpaceOnUse" color-interpolation-filters="sRGB">
<feFlood flood-opacity="0" result="BackgroundImageFix"/>
<feColorMatrix in="SourceAlpha" type="matrix" values="0 0 0 0 0 0 0 0 0 0 0 0 0 0 0 0 0 0 127 0" result="hardAlpha"/>
<feOffset dy="7"/>
<feGaussianBlur stdDeviation="5"/>
<feColorMatrix type="matrix" values="0 0 0 0 0 0 0 0 0 0 0 0 0 0 0 0 0 0 0.8 0"/>
<feBlend mode="normal" in2="BackgroundImageFix" result="effect1_dropShadow_616_2683"/>
<feBlend mode="normal" in="SourceGraphic" in2="effect1_dropShadow_616_2683" result="shape"/>
</filter>
<filter id="filter3_d_616_2683" x="37.8008" y="41.3008" width="26.7412" height="49.5" filterUnits="userSpaceOnUse" color-interpolation-filters="sRGB">
<feFlood flood-opacity="0" result="BackgroundImageFix"/>
<feColorMatrix in="SourceAlpha" type="matrix" values="0 0 0 0 0 0 0 0 0 0 0 0 0 0 0 0 0 0 127 0" result="hardAlpha"/>
<feOffset dy="7"/>
<feGaussianBlur stdDeviation="5"/>
<feColorMatrix type="matrix" values="0 0 0 0 0 0 0 0 0 0 0 0 0 0 0 0 0 0 0.8 0"/>
<feBlend mode="normal" in2="BackgroundImageFix" result="effect1_dropShadow_616_2683"/>
<feBlend mode="normal" in="SourceGraphic" in2="effect1_dropShadow_616_2683" result="shape"/>
</filter>
<filter id="filter4_d_616_2683" x="51.8086" y="32.6992" width="26.5" height="58.1016" filterUnits="userSpaceOnUse" color-interpolation-filters="sRGB">
<feFlood flood-opacity="0" result="BackgroundImageFix"/>
<feColorMatrix in="SourceAlpha" type="matrix" values="0 0 0 0 0 0 0 0 0 0 0 0 0 0 0 0 0 0 127 0" result="hardAlpha"/>
<feOffset dy="7"/>
<feGaussianBlur stdDeviation="5"/>
<feColorMatrix type="matrix" values="0 0 0 0 0 0 0 0 0 0 0 0 0 0 0 0 0 0 0.8 0"/>
<feBlend mode="normal" in2="BackgroundImageFix" result="effect1_dropShadow_616_2683"/>
<feBlend mode="normal" in="SourceGraphic" in2="effect1_dropShadow_616_2683" result="shape"/>
</filter>
<filter id="filter5_d_616_2683" x="1.51953" y="1.64844" width="32.1885" height="102.25" filterUnits="userSpaceOnUse" color-interpolation-filters="sRGB">
<feFlood flood-opacity="0" result="BackgroundImageFix"/>
<feColorMatrix in="SourceAlpha" type="matrix" values="0 0 0 0 0 0 0 0 0 0 0 0 0 0 0 0 0 0 127 0" result="hardAlpha"/>
<feOffset dy="7"/>
<feGaussianBlur stdDeviation="5"/>
<feColorMatrix type="matrix" values="0 0 0 0 0 0 0 0 0 0 0 0 0 0 0 0 0 0 0.8 0"/>
<feBlend mode="normal" in2="BackgroundImageFix" result="effect1_dropShadow_616_2683"/>
<feBlend mode="normal" in="SourceGraphic" in2="effect1_dropShadow_616_2683" result="shape"/>
</filter>
<filter id="filter6_d_616_2683" x="65.9082" y="25.8008" width="27.1885" height="64.8008" filterUnits="userSpaceOnUse" color-interpolation-filters="sRGB">
<feFlood flood-opacity="0" result="BackgroundImageFix"/>
<feColorMatrix in="SourceAlpha" type="matrix" values="0 0 0 0 0 0 0 0 0 0 0 0 0 0 0 0 0 0 127 0" result="hardAlpha"/>
<feOffset dy="7"/>
<feGaussianBlur stdDeviation="5"/>
<feColorMatrix type="matrix" values="0 0 0 0 0 0 0 0 0 0 0 0 0 0 0 0 0 0 0.8 0"/>
<feBlend mode="normal" in2="BackgroundImageFix" result="effect1_dropShadow_616_2683"/>
<feBlend mode="normal" in="SourceGraphic" in2="effect1_dropShadow_616_2683" result="shape"/>
</filter>
<filter id="filter7_d_616_2683" x="13.1094" y="72.1641" width="80.4004" height="26.9219" filterUnits="userSpaceOnUse" color-interpolation-filters="sRGB">
<feFlood flood-opacity="0" result="BackgroundImageFix"/>
<feColorMatrix in="SourceAlpha" type="matrix" values="0 0 0 0 0 0 0 0 0 0 0 0 0 0 0 0 0 0 127 0" result="hardAlpha"/>
<feOffset dy="7"/>
<feGaussianBlur stdDeviation="5"/>
<feColorMatrix type="matrix" values="0 0 0 0 0 0 0 0 0 0 0 0 0 0 0 0 0 0 0.8 0"/>
<feBlend mode="normal" in2="BackgroundImageFix" result="effect1_dropShadow_616_2683"/>
<feBlend mode="normal" in="SourceGraphic" in2="effect1_dropShadow_616_2683" result="shape"/>
</filter>
<filter id="filter8_d_616_2683" x="4.60156" y="4.5" width="31.0059" height="97.6016" filterUnits="userSpaceOnUse" color-interpolation-filters="sRGB">
<feFlood flood-opacity="0" result="BackgroundImageFix"/>
<feColorMatrix in="SourceAlpha" type="matrix" values="0 0 0 0 0 0 0 0 0 0 0 0 0 0 0 0 0 0 127 0" result="hardAlpha"/>
<feOffset dy="7"/>
<feGaussianBlur stdDeviation="5"/>
<feColorMatrix type="matrix" values="0 0 0 0 0 0 0 0 0 0 0 0 0 0 0 0 0 0 0.8 0"/>
<feBlend mode="normal" in2="BackgroundImageFix" result="effect1_dropShadow_616_2683"/>
<feBlend mode="normal" in="SourceGraphic" in2="effect1_dropShadow_616_2683" result="shape"/>
</filter>
</defs>
</svg>
