<svg width="52" height="55" viewBox="0 0 52 55" fill="none" xmlns="http://www.w3.org/2000/svg">
<g filter="url(#filter0_d_616_2749)">
<path d="M33.2 13.7L34 11.5C34.7 9.5 34.3 8 33.1 8L18 8.5C16.7 8.5 16.4 10.1 17.2 12L18 13.9C13.2 16.5 10 21.4 10 27C10 35.3 17 42.1 25.7 42.1C34.4 42.1 41.4 35.4 41.4 27C41.4 18.6 38.1 16.3 33.2 13.8V13.7ZM25.7 35.8C20.5 35.8 16.2 31.7 16.2 26.7C16.2 21.7 17.9 20.8 20.4 19.2L24.6 28.7C25.4 30.6 26.7 30.5 27.5 28.6L31.1 19.3C33.6 20.9 35.3 23.7 35.3 26.8C35.3 31.8 31 35.9 25.8 35.9L25.7 35.8Z" fill="url(#paint0_linear_616_2749)"/>
</g>
<defs>
<filter id="filter0_d_616_2749" x="0" y="0" width="51.4004" height="54.1016" filterUnits="userSpaceOnUse" color-interpolation-filters="sRGB">
<feFlood flood-opacity="0" result="BackgroundImageFix"/>
<feColorMatrix in="SourceAlpha" type="matrix" values="0 0 0 0 0 0 0 0 0 0 0 0 0 0 0 0 0 0 127 0" result="hardAlpha"/>
<feOffset dy="2"/>
<feGaussianBlur stdDeviation="5"/>
<feColorMatrix type="matrix" values="0 0 0 0 0 0 0 0 0 0 0 0 0 0 0 0 0 0 0.6 0"/>
<feBlend mode="normal" in2="BackgroundImageFix" result="effect1_dropShadow_616_2749"/>
<feBlend mode="normal" in="SourceGraphic" in2="effect1_dropShadow_616_2749" result="shape"/>
</filter>
<linearGradient id="paint0_linear_616_2749" x1="10" y1="25" x2="41.4" y2="25" gradientUnits="userSpaceOnUse">
<stop stop-color="#002D4B"/>
<stop offset="1" stop-color="#002133"/>
</linearGradient>
</defs>
</svg>
