<svg width="160" height="113" viewBox="0 0 160 113" fill="none" xmlns="http://www.w3.org/2000/svg">
<g filter="url(#filter0_d_625_373)">
<path d="M90.8 48.8999V37.2H84.1C83.8 35.1 83.4 32.9999 82.8 31.0999L88.2 28L82.4 17.8999L77.4 20.8C76 19 74.5 17.3999 72.8 15.8999L75.5 11.2L65.4 5.3999L62.8 9.80005C60.6 8.90005 58.4 8.2999 56 7.8999V3H44.3V7.8999C41.9 8.2999 39.6 9.00005 37.4 9.80005L35 5.59985L24.9 11.3999L27.5 15.8999C25.8 17.3999 24.2 19.1 22.8 21L18.2 18.3L12.4 28.3999L17.5 31.3999C16.9 33.4999 16.4 35.6 16.2 37.8H10V49.5H16.9C17.4 51.5 18 53.4 18.8 55.2L12.6 58.8L18.4 68.8999L25.2 65C26.5 66.4 27.8 67.6 29.3 68.7L25.3 75.5999L35.4 81.3999L39.6 74.0999C41.3 74.5999 43 75 44.7 75.3V83.8H56.4V75.2C58.1 74.9 59.8 74.3999 61.4 73.8999L65.7 81.3L75.8 75.5L71.6 68.3C73 67.2 74.3 65.8999 75.5 64.5999L82.5 68.5999L88.3 58.5L81.7 54.7C82.4 52.9 83 51.1 83.4 49.2H90.7L90.8 48.8999ZM76.4 41.3999C76.4 55.8999 64.7 67.5999 50.2 67.5999C35.7 67.5999 24 55.8999 24 41.3999C24 26.8999 35.7 15.2 50.2 15.2C64.7 15.2 76.4 26.8999 76.4 41.3999Z" fill="#2FA6D0"/>
<path d="M50.2 19.8008C38.2 19.8008 28.5 29.5007 28.5 41.5007C28.5 53.5007 38.2 63.2007 50.2 63.2007C62.2 63.2007 71.9 53.5007 71.9 41.5007C71.9 29.5007 62.2 19.8008 50.2 19.8008ZM50.2 59.3008C40.3 59.3008 32.3 51.3006 32.3 41.4006C32.3 31.5006 40.3 23.5007 50.2 23.5007C60.1 23.5007 68.1 31.5006 68.1 41.4006C68.1 51.3006 60.1 59.3008 50.2 59.3008Z" fill="#2FA6D0"/>
</g>
<g filter="url(#filter1_d_625_373)">
<path d="M149.4 73.7993V66.4993H145.2C145 65.1993 144.8 63.8991 144.4 62.5991L147.8 60.5991L144.1 54.1992L140.9 55.9993C140 54.8993 139.1 53.7992 138 52.8992L139.7 49.8992L133.3 46.1992L131.7 48.9993C130.3 48.4993 128.9 48.0993 127.4 47.7993V44.6992H120.1V47.7993C118.6 48.0993 117.2 48.4993 115.8 48.9993L114.3 46.2993L107.9 49.9993L109.5 52.7993C108.4 53.7993 107.4 54.7993 106.5 55.9993L103.6 54.2993L99.9004 60.6992L103.1 62.5991C102.7 63.8991 102.4 65.1991 102.3 66.5991H98.4004V73.8992H102.8C103.1 75.0992 103.5 76.2993 104 77.4993L100.1 79.7993L103.8 86.1992L108.1 83.6992C108.9 84.5992 109.8 85.2991 110.7 86.0991L108.2 90.4993L114.6 94.1992L117.3 89.5991C118.3 89.8991 119.4 90.1992 120.5 90.3992V95.6992H127.8V90.2993C128.9 90.0993 129.9 89.7993 131 89.4993L133.7 94.0991L140.1 90.3992L137.5 85.7993C138.4 85.0993 139.2 84.2993 140 83.4993L144.4 85.9993L148.1 79.5991L143.9 77.1992C144.4 76.0992 144.7 74.8992 145 73.6992H149.6L149.4 73.7993ZM140.4 69.0991C140.4 78.1991 133 85.5991 123.9 85.5991C114.8 85.5991 107.4 78.1991 107.4 69.0991C107.4 59.9991 114.8 52.5991 123.9 52.5991C133 52.5991 140.4 59.9991 140.4 69.0991Z" fill="#2FA6D0"/>
<path d="M123.8 55.5C116.3 55.5 110.2 61.5999 110.2 69.0999C110.2 76.5999 116.3 82.7 123.8 82.7C131.3 82.7 137.4 76.5999 137.4 69.0999C137.4 61.5999 131.3 55.5 123.8 55.5ZM123.8 80.3999C117.6 80.3999 112.5 75.2999 112.5 69.0999C112.5 62.8999 117.6 57.8 123.8 57.8C130 57.8 135.1 62.8999 135.1 69.0999C135.1 75.2999 130 80.3999 123.8 80.3999Z" fill="#2FA6D0"/>
</g>
<defs>
<filter id="filter0_d_625_373" x="0" y="0" width="100.8" height="100.801" filterUnits="userSpaceOnUse" color-interpolation-filters="sRGB">
<feFlood flood-opacity="0" result="BackgroundImageFix"/>
<feColorMatrix in="SourceAlpha" type="matrix" values="0 0 0 0 0 0 0 0 0 0 0 0 0 0 0 0 0 0 127 0" result="hardAlpha"/>
<feOffset dy="7"/>
<feGaussianBlur stdDeviation="5"/>
<feColorMatrix type="matrix" values="0 0 0 0 0 0 0 0 0 0 0 0 0 0 0 0 0 0 0.8 0"/>
<feBlend mode="normal" in2="BackgroundImageFix" result="effect1_dropShadow_625_373"/>
<feBlend mode="normal" in="SourceGraphic" in2="effect1_dropShadow_625_373" result="shape"/>
</filter>
<filter id="filter1_d_625_373" x="88.4004" y="41.6992" width="71.2002" height="71" filterUnits="userSpaceOnUse" color-interpolation-filters="sRGB">
<feFlood flood-opacity="0" result="BackgroundImageFix"/>
<feColorMatrix in="SourceAlpha" type="matrix" values="0 0 0 0 0 0 0 0 0 0 0 0 0 0 0 0 0 0 127 0" result="hardAlpha"/>
<feOffset dy="7"/>
<feGaussianBlur stdDeviation="5"/>
<feColorMatrix type="matrix" values="0 0 0 0 0 0 0 0 0 0 0 0 0 0 0 0 0 0 0.8 0"/>
<feBlend mode="normal" in2="BackgroundImageFix" result="effect1_dropShadow_625_373"/>
<feBlend mode="normal" in="SourceGraphic" in2="effect1_dropShadow_625_373" result="shape"/>
</filter>
</defs>
</svg>
