<svg width="133" height="124" viewBox="0 0 133 124" fill="none" xmlns="http://www.w3.org/2000/svg">
<g filter="url(#filter0_d_616_2566)">
<path d="M102.3 97.1016L101.8 96.4016C104.8 94.1016 107.6 91.4015 110.1 88.5015C112.6 85.6015 114.7 82.3016 116.4 78.9016C118.2 75.4016 119.5 71.7015 120.4 68.0015C121.3 64.1015 121.8 60.1015 121.8 56.0015C121.8 49.2015 120.5 42.6015 117.8 36.3015C115.3 30.3015 111.6 24.9015 107 20.2015C102.4 15.6015 97.0001 11.9016 90.9001 9.40155C84.7001 6.80155 78.1002 5.40155 71.2002 5.40155V4.60156C78.1002 4.60156 84.9002 6.00156 91.2002 8.60156C97.3002 11.2016 102.8 14.9016 107.5 19.6016C112.2 24.3016 115.9 29.8016 118.5 35.9016C121.2 42.2016 122.5 49.0016 122.5 55.9016C122.5 62.8016 122 64.1016 121.1 68.1016C120.2 71.9016 118.8 75.7015 117 79.2015C115.2 82.7015 113.1 85.9016 110.6 88.9016C108.1 91.9016 105.3 94.6016 102.2 96.9016L102.3 97.1016Z" fill="#2BB0B3"/>
<path d="M74.1 7.60004L69.5 5.29999L74.1 3V7.60004Z" fill="#0A5659"/>
<path d="M104 54.2984L114.8 53.8984C114.5 47.3984 112.9 41.2984 110.1 35.8984L100.5 40.7984C102.6 44.8984 103.8 49.4984 104 54.2984Z" fill="#CED6DB"/>
<path d="M71.4008 88.2984C62.4008 88.2984 54.3008 84.6984 48.4008 78.8984L40.8008 86.5984C48.7008 94.3984 59.4008 99.1984 71.4008 99.1984C83.4008 99.1984 72.9008 99.1984 73.6008 99.1984L73.0008 88.3984C72.4008 88.3984 71.9008 88.3984 71.3008 88.3984L71.4008 88.2984Z" fill="#CED6DB"/>
<path d="M101.101 69.2961L110.901 73.7961C111.601 72.3961 112.101 70.8961 112.601 69.3961L102.401 65.9961C102.001 67.0961 101.601 68.1961 101.101 69.2961Z" fill="#CED6DB"/>
<path d="M88.9004 83.1969L94.7004 92.2969C100 88.8969 104.5 84.4969 107.9 79.1969L98.8004 73.2969C96.2004 77.1969 92.8004 80.5969 88.9004 83.0969V83.1969Z" fill="#CED6DB"/>
<path d="M103.701 60.4961C103.501 61.8961 103.201 63.2961 102.801 64.6961L113.201 67.6961C113.701 65.8961 114.101 63.9961 114.401 62.0961L103.701 60.4961Z" fill="#CED6DB"/>
<path d="M103.9 59.0969L114.6 60.2969C114.6 59.4969 114.7 58.6969 114.8 57.8969L104 57.2969C104 57.8969 104 58.4969 103.9 59.0969Z" fill="#CED6DB"/>
<path d="M99 38.0977L108.1 32.2976C100.8 20.6976 88.1 12.8977 73.6 12.0977L73 22.8976C83.9 23.4976 93.4 29.3977 98.9 38.0977H99Z" fill="#E5E6E1"/>
<path d="M39.9 64.2969L29.5 67.1969C30 69.0969 30.6 70.8969 31.4 72.5969L41.3 68.3969C40.7 67.0969 40.3 65.6969 39.9 64.2969Z" fill="#CED6DB"/>
<path d="M74.4004 88.0969L75.4004 98.8969C79.9004 98.4969 84.3004 97.3969 88.3004 95.6969L84.1004 85.7969C81.1004 87.0969 77.8004 87.8969 74.4004 88.1969V88.0969Z" fill="#CED6DB"/>
<path d="M38.7004 55.5969C38.7004 45.7969 43.0004 36.9969 49.9004 30.9969L42.8004 22.7969C33.7004 30.7969 27.9004 42.4969 27.9004 55.5969C27.9004 68.6969 28.3004 62.1969 29.0004 65.2969L39.5004 62.8969C39.0004 60.4969 38.7004 58.0969 38.7004 55.5969Z" fill="#CED6DB"/>
<path d="M44.7004 74.4984L35.9004 80.6984C37.0004 82.2984 38.2004 83.7984 39.5004 85.1984L47.4004 77.7984C46.4004 76.6984 45.5004 75.5984 44.7004 74.3984V74.4984Z" fill="#CED6DB"/>
<path d="M85.4004 85.0992L90.0004 94.8992C90.4004 94.6992 90.8004 94.4992 91.1004 94.2992L86.2004 84.6992C85.9004 84.7992 85.6004 84.9992 85.4004 85.0992Z" fill="#CED6DB"/>
<path d="M41.9006 69.5961L32.1006 74.1961C32.9006 75.8961 33.9006 77.5961 34.9006 79.1961L44.0006 73.2961C43.2006 72.0961 42.5006 70.7961 41.9006 69.4961V69.5961Z" fill="#CED6DB"/>
<path d="M70.1006 22.9992L69.7006 12.1992C66.9006 12.2992 64.2006 12.6992 61.6006 13.2992L64.1006 23.7992C66.1006 23.2992 68.1006 23.0992 70.1006 22.9992Z" fill="#E5E6E1"/>
<path d="M61.2006 24.5984L57.8006 14.3984C53.6006 15.7984 49.6006 17.7984 46.1006 20.3984L52.4006 29.1984C55.1006 27.2984 58.1006 25.6984 61.3006 24.5984H61.2006Z" fill="#E5E6E1"/>
<path d="M92.6008 102.298L92.3008 101.598C92.6008 101.498 93.0008 101.298 93.3008 101.098L93.6008 101.798C93.3008 101.998 92.9008 102.098 92.6008 102.298Z" fill="#2FA6D0"/>
<path d="M71.8004 106.8C71.3004 106.8 70.8004 106.8 70.3004 106.8V106C71.0004 106 71.8004 106 72.5004 106V106.8C72.3004 106.8 72.1004 106.8 71.9004 106.8H71.8004ZM73.6004 106.7V105.9C74.3004 105.9 75.0004 105.9 75.7004 105.8V106.6C75.0004 106.6 74.3004 106.6 73.6004 106.7ZM69.2004 106.7C68.5004 106.7 67.7004 106.7 67.0004 106.5V105.7C67.8004 105.7 68.5004 105.8 69.2004 105.9V106.7ZM76.8004 106.5V105.7C77.4004 105.7 78.2004 105.5 78.9004 105.4V106.2C78.3004 106.3 77.6004 106.4 76.8004 106.5ZM65.9004 106.4C65.2004 106.4 64.4004 106.2 63.7004 106.1V105.3C64.5004 105.4 65.3004 105.5 66.0004 105.6V106.4H65.9004ZM80.1004 106.1V105.3C80.7004 105.2 81.4004 105.1 82.1004 104.9L82.3004 105.7C81.6004 105.8 80.9004 106 80.1004 106.1ZM62.6004 105.9C61.9004 105.8 61.2004 105.6 60.5004 105.5L60.7004 104.7C61.4004 104.9 62.1004 105 62.8004 105.1V105.9H62.6004ZM83.3004 105.5L83.1004 104.7C83.8004 104.5 84.5004 104.4 85.2004 104.2L85.4004 105C84.7004 105.2 84.0004 105.4 83.3004 105.5ZM59.4004 105.3C58.7004 105.1 58.0004 104.9 57.3004 104.7L57.5004 103.9C58.2004 104.1 58.9004 104.3 59.6004 104.5L59.4004 105.3ZM86.5004 104.6L86.3004 103.8C87.0004 103.6 87.7004 103.4 88.4004 103.1L88.7004 103.9C88.0004 104.1 87.3004 104.4 86.6004 104.6H86.5004ZM56.3004 104.4C55.6004 104.2 54.9004 103.9 54.2004 103.7L54.5004 102.9C55.2004 103.1 55.9004 103.4 56.5004 103.6L56.3004 104.4ZM89.6004 103.6L89.3004 102.8C90.0004 102.6 90.6004 102.3 91.3004 102L91.6004 102.8C90.9004 103.1 90.2004 103.4 89.6004 103.6ZM53.2004 103.3C52.5004 103 51.8004 102.8 51.2004 102.5L51.5004 101.7C52.2004 102 52.8004 102.3 53.5004 102.5L53.2004 103.3ZM50.2004 102C49.5004 101.7 48.9004 101.4 48.2004 101L48.6004 100.3C49.2004 100.6 49.9004 100.9 50.5004 101.2L50.2004 101.9V102ZM47.2004 100.5C46.6004 100.2 45.9004 99.8 45.3004 99.4L45.7004 98.7C46.3004 99.1 46.9004 99.4 47.6004 99.8L47.2004 100.5ZM44.4004 98.9C43.8004 98.5 43.2004 98.1 42.6004 97.7L43.1004 97C43.7004 97.4 44.3004 97.8 44.9004 98.2L44.5004 98.9H44.4004ZM41.7004 97C41.1004 96.6 40.5004 96.1 40.0004 95.7L40.5004 95.1C41.1004 95.5 41.6004 96 42.2004 96.4L41.7004 97.1V97ZM39.1004 95C38.5004 94.5 38.0004 94.1 37.4004 93.6L37.9004 93C38.4004 93.5 39.0004 94 39.5004 94.4L39.0004 95H39.1004ZM36.6004 92.8C36.1004 92.3 35.5004 91.8 35.0004 91.3L35.6004 90.7C36.1004 91.2 36.6004 91.7 37.1004 92.2L36.5004 92.8H36.6004ZM34.3004 90.5C33.8004 90 33.3004 89.4 32.8004 88.9L33.4004 88.4C33.9004 88.9 34.3004 89.5 34.8004 90L34.2004 90.6L34.3004 90.5ZM32.1004 88.1C31.6004 87.5 31.2004 87 30.7004 86.4L31.4004 85.9C31.8004 86.5 32.3004 87 32.7004 87.6L32.1004 88.1ZM30.1004 85.5C29.7004 84.9 29.3004 84.3 28.9004 83.7L29.6004 83.3C30.0004 83.9 30.4004 84.5 30.8004 85.1L30.1004 85.6V85.5ZM28.3004 82.7C27.9004 82.1 27.5004 81.5 27.2004 80.8L27.9004 80.4C28.3004 81 28.6004 81.6 29.0004 82.2L28.3004 82.6V82.7ZM26.6004 79.9C26.3004 79.3 25.9004 78.6 25.6004 78L26.3004 77.6C26.6004 78.2 26.9004 78.9 27.3004 79.5L26.6004 79.9ZM25.2004 77C24.9004 76.3 24.6004 75.7 24.3004 75L25.1004 74.7C25.4004 75.4 25.7004 76 26.0004 76.7L25.3004 77H25.2004ZM23.9004 73.9C23.6004 73.2 23.4004 72.5 23.2004 71.8L24.0004 71.5C24.2004 72.2 24.5004 72.9 24.7004 73.5L23.9004 73.8V73.9ZM22.8004 70.8C22.6004 70.1 22.4004 69.4 22.2004 68.7L23.0004 68.5C23.2004 69.2 23.4004 69.9 23.6004 70.6L22.8004 70.8ZM21.9004 67.7C21.7004 67 21.6004 66.3 21.4004 65.6L22.2004 65.4C22.3004 66.1 22.5004 66.8 22.7004 67.5L21.9004 67.7ZM21.2004 64.5C21.1004 63.8 21.0004 63.1 20.9004 62.3H21.7004C21.7004 62.9 21.9004 63.6 22.0004 64.3H21.2004V64.5ZM20.7004 61.2C20.7004 60.5 20.6004 59.7 20.5004 59H21.3004C21.3004 59.7 21.4004 60.4 21.5004 61.1H20.7004V61.2ZM20.5004 57.9C20.5004 57.2 20.5004 56.4 20.5004 55.7H21.3004C21.3004 56.4 21.3004 57.1 21.3004 57.8H20.5004V57.9ZM21.2004 54.7H20.4004C20.4004 54 20.4004 53.2 20.4004 52.5H21.2004C21.2004 53.3 21.2004 54 21.2004 54.7ZM21.4004 51.4H20.6004C20.6004 50.6 20.7004 49.9 20.8004 49.2H21.6004C21.6004 50 21.4004 50.7 21.4004 51.4ZM21.8004 48.2H21.0004C21.1004 47.4 21.2004 46.6 21.4004 45.9L22.2004 46.1C22.1004 46.8 21.9004 47.5 21.8004 48.2ZM22.3004 45L21.5004 44.8C21.6004 44.1 21.8004 43.4 22.0004 42.7L22.8004 42.9C22.6004 43.6 22.5004 44.3 22.3004 45ZM23.1004 41.9L22.3004 41.7C22.5004 41 22.7004 40.3 22.9004 39.6L23.7004 39.9C23.5004 40.6 23.3004 41.3 23.1004 42V41.9ZM24.1004 38.8L23.3004 38.5C23.5004 37.8 23.8004 37.1 24.1004 36.4L24.9004 36.7C24.6004 37.4 24.4004 38 24.1004 38.7V38.8ZM25.2004 35.8L24.4004 35.5C24.7004 34.8 25.0004 34.2 25.3004 33.5L26.0004 33.8C25.7004 34.4 25.4004 35.1 25.1004 35.8H25.2004Z" fill="#2FA6D0"/>
<path d="M26.6004 32.7984L25.9004 32.3984C26.1004 32.0984 26.2004 31.6984 26.4004 31.3984L27.1004 31.7984C26.9004 32.0984 26.8004 32.3984 26.6004 32.7984Z" fill="#2FA6D0"/>
<path d="M71.4002 103.298C65.0002 103.298 58.8002 102.098 53.0002 99.5984C47.4002 97.1984 42.3002 93.7984 38.0002 89.4984C33.7002 85.1984 30.2002 80.0984 27.9002 74.4984C25.4002 68.6984 24.2002 62.4984 24.2002 56.0984C24.2002 49.6984 25.4002 43.4984 27.9002 37.6984C30.3002 32.0984 33.7002 26.9984 38.0002 22.6984C42.3002 18.3984 47.4002 14.8984 53.0002 12.5984C58.8002 10.0984 65.0002 8.89844 71.4002 8.89844C77.8002 8.89844 79.2002 9.3984 82.9002 10.2984C86.5002 11.1984 90.1002 12.5984 93.4002 14.2984C99.9002 17.7984 105.6 22.7984 109.9 28.7984L109.4 29.1984C105.2 23.1984 99.5002 18.2984 93.1002 14.8984C89.8002 13.1984 86.3002 11.7984 82.7002 10.8984C79.0002 9.99844 75.2002 9.49841 71.3002 9.49841C65.0002 9.49841 58.9002 10.6984 53.2002 13.1984C47.6002 15.4984 42.7002 18.8984 38.4002 23.1984C34.1002 27.4984 30.8002 32.4984 28.4002 37.9984C26.0002 43.6984 24.7002 49.8984 24.7002 56.0984C24.7002 62.2984 25.9002 68.4984 28.4002 74.1984C30.7002 79.7984 34.1002 84.6984 38.4002 88.9984C42.7002 93.2984 47.7002 96.5984 53.2002 98.9984C58.9002 101.398 65.1002 102.698 71.3002 102.698V103.398L71.4002 103.298Z" fill="#A1A7AD"/>
<path d="M28.2 82.8015C28 82.8015 27.7 82.8015 27.4 82.8015H14.4C12 82.8015 10 80.7015 10 78.2015C10 75.7015 10.5 75.9015 11.3 75.0015C12.1 74.2015 13.1 73.7016 14.2 73.6016C14.5 72.2016 15.8 71.3015 17.2 71.3015C18.6 71.3015 18.2 71.4015 18.7 71.7015C19.9 70.1015 21.8 69.1016 23.8 69.1016C25.8 69.1016 26.6 69.6015 27.7 70.5015C28.8 71.3015 29.6 72.5015 29.9 73.8015C30.8 74.1015 31.5 74.7015 32.1 75.5015C32.7 76.3015 33 77.3015 33 78.2015C33 80.8015 30.9 82.9016 28.3 82.9016L28.2 82.8015ZM27.5 82.2015C27.7 82.2015 28 82.2015 28.2 82.2015C30.5 82.2015 32.4 80.3015 32.4 78.0015C32.4 75.7015 31.2 74.6016 29.6 74.1016H29.5V73.9016C29.2 72.7016 28.5 71.5015 27.4 70.7015C26.4 69.9015 25.1 69.5015 23.8 69.5015C21.9 69.5015 20.1 70.5016 19 72.1016L18.8 72.3015L18.6 72.1016C18.2 71.8016 17.7 71.7015 17.2 71.7015C16 71.7015 14.9 72.6015 14.7 73.8015V74.0015H14.4C13.3 74.0015 12.4 74.5015 11.6 75.2015C10.9 76.0015 10.5 77.0015 10.5 78.0015C10.5 80.2015 12.3 82.0016 14.4 82.1016H27.5V82.2015Z" fill="#49494A"/>
<path d="M71.4 79.2976L51 67.4976V43.8976L71.4 32.0977L91.8 43.8976V67.4976H91.6C91.6 67.5976 71.4 79.2976 71.4 79.2976ZM51.7 67.0977L71.3 78.3976L90.9 67.0977V44.3976L71.3 33.0977L51.7 44.3976V67.0977Z" fill="#49494A"/>
<path d="M51.6994 67.2984L51.3994 66.8984L52.3994 65.1984L52.8994 65.4984L51.8994 67.1984H51.6994V67.2984ZM90.5994 67.0984L88.7994 66.2984L88.9994 65.7984L90.4994 66.4984L89.5994 64.9984L90.0994 64.6984L91.0994 66.3984L90.7994 66.5984L90.5994 67.0984ZM52.6994 66.7984L52.4994 66.2984L54.2994 65.4984L54.4994 65.9984L52.6994 66.7984ZM87.7994 65.7984L85.9994 64.9984L86.1994 64.4984L87.9994 65.2984L87.7994 65.7984ZM55.4994 65.5984L55.2994 65.0984L57.0994 64.2984L57.2994 64.7984L55.4994 65.5984ZM84.9994 64.5984L83.1994 63.7984L83.3994 63.2984L85.1994 64.0984L84.9994 64.5984ZM53.3994 64.4984L52.8994 64.1984L53.8994 62.4984L54.3994 62.7984L53.3994 64.4984ZM58.2994 64.2984L58.0994 63.7984L59.8994 62.9984L60.0994 63.4984L58.2994 64.2984ZM89.0994 63.9984L88.0994 62.2984L88.5994 61.9984L89.5994 63.6984L89.0994 63.9984ZM82.1994 63.2984L80.3994 62.4984L80.5994 61.9984L82.3994 62.7984L82.1994 63.2984ZM61.0994 63.0984L60.8994 62.5984L62.6994 61.7984L62.8994 62.2984L61.0994 63.0984ZM79.3994 62.0984L77.5994 61.2984L77.7994 60.7984L79.5994 61.5984L79.3994 62.0984ZM54.8994 61.8984L54.3994 61.5984L55.3994 59.8984L55.8994 60.1984L54.8994 61.8984ZM63.8994 61.7984L63.6994 61.2984L65.4994 60.4984L65.6994 60.9984L63.8994 61.7984ZM87.4994 61.3984L86.4994 59.6984L86.9994 59.3984L87.9994 61.0984L87.4994 61.3984ZM76.5994 60.7984L74.7994 59.9984L74.9994 59.4984L76.7994 60.2984L76.5994 60.7984ZM66.6994 60.4984L66.4994 59.9984L68.2994 59.1984L68.4994 59.6984L66.6994 60.4984ZM73.7994 59.4984L71.9994 58.6984L72.1994 58.1984L73.9994 58.9984L73.7994 59.4984ZM69.4994 59.2984L69.2994 58.7984L71.0994 57.9984L71.2994 58.4984L69.4994 59.2984ZM56.3994 59.1984L55.8994 58.8984L56.8994 57.1984L57.3994 57.4984L56.3994 59.1984ZM85.9994 58.6984L84.9994 56.9984L85.4994 56.6984L86.4994 58.3984L85.9994 58.6984ZM57.9994 56.5984L57.4994 56.2984L58.4994 54.5984L58.9994 54.8984L57.9994 56.5984ZM84.4994 56.0984L83.4994 54.3984L83.9994 54.0984L84.9994 55.7984L84.4994 56.0984ZM59.4994 53.8984L58.9994 53.5984L59.9994 51.8984L60.4994 52.1984L59.4994 53.8984ZM82.9994 53.3984L81.9994 51.6984L82.4994 51.3984L83.4994 53.0984L82.9994 53.3984ZM60.9994 51.2984L60.4994 50.9984L61.4994 49.2984L61.9994 49.5984L60.9994 51.2984ZM81.3994 50.7984L80.3994 49.0984L80.8994 48.7984L81.8994 50.4984L81.3994 50.7984ZM62.5994 48.5984L62.0994 48.2984L63.0994 46.5984L63.5994 46.8984L62.5994 48.5984ZM79.8994 48.0984L78.8994 46.3984L79.3994 46.0984L80.3994 47.7984L79.8994 48.0984ZM64.0994 45.9984L63.5994 45.6984L64.5994 43.9984L65.0994 44.2984L64.0994 45.9984ZM78.3994 45.4984L77.3994 43.7984L77.8994 43.4984L78.8994 45.1984L78.3994 45.4984ZM65.5994 43.2984L65.0994 42.9984L66.0994 41.2984L66.5994 41.5984L65.5994 43.2984ZM76.7994 42.7984L75.7994 41.0984L76.2994 40.7984L77.2994 42.4984L76.7994 42.7984ZM67.0994 40.6984L66.5994 40.3984L67.5994 38.6984L68.0994 38.9984L67.0994 40.6984ZM75.2994 40.1984L74.2994 38.4984L74.7994 38.1984L75.7994 39.8984L75.2994 40.1984ZM68.6994 37.9984L68.1994 37.6984L69.1994 35.9984L69.6994 36.2984L68.6994 37.9984ZM73.7994 37.4984L72.7994 35.7984L73.2994 35.4984L74.2994 37.1984L73.7994 37.4984ZM70.1994 35.3984L69.6994 35.0984L70.6994 33.3984L71.1994 33.6984L70.1994 35.3984ZM72.1994 34.8984L71.1994 33.1984L71.6994 32.8984L72.6994 34.5984L72.1994 34.8984Z" fill="#49494A"/>
<path d="M71.6994 78.7984L71.1994 78.4984L72.1994 76.7984L72.6994 77.0984L71.6994 78.7984ZM70.6994 78.2984L69.6994 76.5984L70.1994 76.2984L71.1994 77.9984L70.6994 78.2984ZM73.2994 76.1984L72.7994 75.8984L73.7994 74.1984L74.2994 74.4984L73.2994 76.1984ZM69.1994 75.6984L68.1994 73.9984L68.6994 73.6984L69.6994 75.3984L69.1994 75.6984ZM74.7994 73.4984L74.2994 73.1984L75.2994 71.4984L75.7994 71.7984L74.7994 73.4984ZM67.6994 72.9984L66.6994 71.2984L67.1994 70.9984L68.1994 72.6984L67.6994 72.9984ZM76.2994 70.8984L75.7994 70.5984L76.7994 68.8984L77.2994 69.1984L76.2994 70.8984ZM66.0994 70.3984L65.0994 68.6984L65.5994 68.3984L66.5994 70.0984L66.0994 70.3984ZM77.7994 68.1984L77.2994 67.8984L78.2994 66.1984L78.7994 66.4984L77.7994 68.1984ZM64.5994 67.6984L63.5994 65.9984L64.0994 65.6984L65.0994 67.3984L64.5994 67.6984ZM79.3994 65.5984L78.8994 65.2984L79.8994 63.5984L80.3994 63.8984L79.3994 65.5984ZM63.0994 65.0984L62.0994 63.3984L62.5994 63.0984L63.5994 64.7984L63.0994 65.0984ZM80.8994 62.8984L80.3994 62.5984L81.3994 60.8984L81.8994 61.1984L80.8994 62.8984ZM61.4994 62.3984L60.4994 60.6984L60.9994 60.3984L61.9994 62.0984L61.4994 62.3984ZM82.3994 60.2984L81.8994 59.9984L82.8994 58.2984L83.3994 58.5984L82.3994 60.2984ZM59.9994 59.7984L58.9994 58.0984L59.4994 57.7984L60.4994 59.4984L59.9994 59.7984ZM83.9994 57.5984L83.4994 57.2984L84.4994 55.5984L84.9994 55.8984L83.9994 57.5984ZM58.4994 57.0984L57.4994 55.3984L57.9994 55.0984L58.9994 56.7984L58.4994 57.0984ZM85.4994 54.9984L84.9994 54.6984L85.9994 52.9984L86.4994 53.2984L85.4994 54.9984ZM56.8994 54.4984L55.8994 52.7984L56.3994 52.4984L57.3994 54.1984L56.8994 54.4984ZM70.9994 53.7984L69.1994 52.9984L69.3994 52.4984L71.1994 53.2984L70.9994 53.7984ZM72.2994 53.4984L72.0994 52.9984L73.8994 52.1984L74.0994 52.6984L72.2994 53.4984ZM68.2994 52.4984L66.4994 51.6984L66.6994 51.1984L68.4994 51.9984L68.2994 52.4984ZM86.9994 52.2984L86.4994 51.9984L87.4994 50.2984L87.9994 50.5984L86.9994 52.2984ZM75.0994 52.1984L74.8994 51.6984L76.6994 50.8984L76.8994 51.3984L75.0994 52.1984ZM55.3994 51.7984L54.3994 50.0984L54.8994 49.7984L55.8994 51.4984L55.3994 51.7984ZM65.4994 51.1984L63.6994 50.3984L63.8994 49.8984L65.6994 50.6984L65.4994 51.1984ZM77.7994 50.9984L77.5994 50.4984L79.3994 49.6984L79.5994 50.1984L77.7994 50.9984ZM62.6994 49.9984L60.8994 49.1984L61.0994 48.6984L62.8994 49.4984L62.6994 49.9984ZM80.5994 49.6984L80.3994 49.1984L82.1994 48.3984L82.3994 48.8984L80.5994 49.6984ZM88.5994 49.6984L88.0994 49.3984L89.0994 47.6984L89.5994 47.9984L88.5994 49.6984ZM53.8994 49.1984L52.8994 47.4984L53.3994 47.1984L54.3994 48.8984L53.8994 49.1984ZM59.8994 48.6984L58.0994 47.8984L58.2994 47.3984L60.0994 48.1984L59.8994 48.6984ZM83.3994 48.4984L83.1994 47.9984L84.9994 47.1984L85.1994 47.6984L83.3994 48.4984ZM57.0994 47.4984L55.2994 46.6984L55.4994 46.1984L57.2994 46.9984L57.0994 47.4984ZM86.1994 47.1984L85.9994 46.6984L87.7994 45.8984L87.9994 46.3984L86.1994 47.1984ZM90.0994 46.9984L89.5994 46.6984L90.4994 45.1984L88.9994 45.8984L88.7994 45.3984L90.5994 44.5984L90.7994 45.0984L91.0994 45.2984L90.0994 46.9984ZM52.3994 46.4984L51.3994 44.7984L51.6994 44.3984V44.5984H51.8994C51.8994 44.4984 52.8994 46.1984 52.8994 46.1984L52.3994 46.4984ZM54.2994 46.1984L52.4994 45.3984L52.6994 44.8984L54.4994 45.6984L54.2994 46.1984Z" fill="#49494A"/>
<path d="M74.919 33.8534C75.4356 31.9907 74.3444 30.062 72.4817 29.5454C70.619 29.0288 68.6902 30.1201 68.1736 31.9828C67.657 33.8455 68.7483 35.7742 70.611 36.2908C72.4737 36.8074 74.4025 35.7161 74.919 33.8534Z" fill="#0A5659"/>
<g style="mix-blend-mode:multiply" opacity="0.5">
<path d="M71.3994 36.1992C69.3994 36.1992 67.8994 34.5992 67.8994 32.6992C67.8994 30.7992 69.4994 29.1992 71.3994 29.1992V36.2992V36.1992Z" fill="#0A5659"/>
</g>
<path d="M67.3994 78.9C67.3994 76.7 69.1994 75 71.2994 75C73.3994 75 75.1995 76.8 75.1995 78.9C75.1995 81 73.3994 82.8 71.2994 82.8C69.1994 82.8 67.3994 81 67.3994 78.9Z" fill="#2BB0B3"/>
<g style="mix-blend-mode:multiply" opacity="0.5">
<path d="M71.4 82.8C69.2 82.8 67.5 81 67.5 78.9C67.5 76.8 69.3 75 71.4 75V82.9V82.8Z" fill="#2BB0B3"/>
</g>
<path d="M47.3994 44.6969C47.3994 42.4969 49.1994 40.7969 51.2994 40.7969C53.3994 40.7969 55.1994 42.5969 55.1994 44.6969C55.1994 46.7969 53.3994 48.5969 51.2994 48.5969C49.1994 48.5969 47.3994 46.7969 47.3994 44.6969Z" fill="#2BB0B3"/>
<path d="M91.4996 48.8C93.9297 48.8 95.8996 46.8301 95.8996 44.4C95.8996 41.97 93.9297 40 91.4996 40C89.0696 40 87.0996 41.97 87.0996 44.4C87.0996 46.8301 89.0696 48.8 91.4996 48.8Z" fill="#2FA6D0"/>
<g style="mix-blend-mode:multiply" opacity="0.5">
<path d="M91.4996 48.9016C89.0996 48.9016 87.0996 46.9015 87.0996 44.5015C87.0996 42.1015 89.0996 40.1016 91.4996 40.1016V49.0015V48.9016Z" fill="#A60C24"/>
</g>
<path d="M94.3839 67.8376C94.4905 66.3502 93.3712 65.058 91.8839 64.9514C90.3965 64.8448 89.1043 65.9641 88.9977 67.4515C88.8911 68.9388 90.0104 70.231 91.4978 70.3376C92.9851 70.4442 94.2773 69.3249 94.3839 67.8376Z" fill="#2BB0B3"/>
<g style="mix-blend-mode:multiply" opacity="0.5">
<path d="M91.4001 69.7984C89.9001 69.7984 88.7002 68.5984 88.7002 67.0984C88.7002 65.5984 89.9001 64.3984 91.4001 64.3984V69.7984Z" fill="#2BB0B3"/>
</g>
<path d="M79.8049 56.8036C80.5643 52.115 77.379 47.6986 72.6905 46.9392C68.0019 46.1798 63.5855 49.3651 62.8261 54.0536C62.0668 58.7422 65.252 63.1586 69.9405 63.9179C74.6291 64.6773 79.0455 61.4921 79.8049 56.8036Z" fill="#A1A7AD"/>
<path d="M51.2998 61.0977C47.9998 61.0977 45.2998 63.7977 45.2998 67.0977C45.2998 70.3977 47.9998 73.0977 51.2998 73.0977C54.5998 73.0977 57.2998 70.3977 57.2998 67.0977C57.2998 63.7977 54.5998 61.0977 51.2998 61.0977ZM51.2998 70.0977C49.5998 70.0977 48.2998 68.6977 48.2998 67.0977C48.2998 65.4977 49.6998 64.0977 51.2998 64.0977C52.8998 64.0977 54.2998 65.4977 54.2998 67.0977C54.2998 68.6977 52.8998 70.0977 51.2998 70.0977Z" fill="#0A5659"/>
<g style="mix-blend-mode:multiply" opacity="0.5">
<path d="M51.2998 71.0977C49.0998 71.0977 47.2998 69.2977 47.2998 67.0977C47.2998 64.8977 49.0998 63.0977 51.2998 63.0977V61.0977C47.9998 61.0977 45.2998 63.7977 45.2998 67.0977C45.2998 70.3977 47.9998 73.0977 51.2998 73.0977V71.0977Z" fill="#0A5659"/>
</g>
<g style="mix-blend-mode:multiply">
<path d="M81.1996 55.2C81.1996 55.4 81.1996 55.6 81.1996 55.8C81.1996 61.2 76.7996 65.6 71.3996 65.6C65.9996 65.6 61.5996 61.2 61.5996 55.8C61.5996 50.4 65.9996 46 71.3996 46V39.5C62.3996 39.5 55.0996 46.8 55.0996 55.8C55.0996 64.8 62.3996 72.1 71.3996 72.1C80.3996 72.1 87.6996 64.8 87.6996 55.8C87.6996 46.8 87.6996 55.4 87.6996 55.2H81.1996Z" fill="#CED6DB"/>
</g>
<path d="M77.2002 55.3992C77.0002 52.4992 74.7002 50.0992 71.7002 49.8992V49.1992H70.9001V49.8992C68.0001 50.0992 65.6001 52.3992 65.4001 55.3992H64.7002V56.1992H65.4001C65.6001 59.0992 67.9001 61.4992 70.9001 61.6992V62.3992H71.7002V61.6992C74.6002 61.4992 77.0002 59.1992 77.2002 56.1992H77.9001V55.3992H77.2002ZM71.8002 52.4992V51.9992C72.7002 51.9992 73.5002 52.4992 74.1002 53.0992L73.4001 53.7992C72.9001 53.2992 72.2001 52.9992 71.4001 52.9992C70.6001 52.9992 69.9001 53.2992 69.4001 53.7992L68.7002 53.0992C69.3002 52.4992 70.1002 52.0992 71.0002 51.9992V52.4992H71.8002ZM75.2002 56.1992C75.2002 57.0992 74.7002 57.8992 74.1002 58.4992L73.4001 57.7992C73.9001 57.2992 74.2002 56.5992 74.2002 55.7992C74.2002 54.9992 73.9001 54.2992 73.4001 53.7992L74.1002 53.0992C74.7002 53.6992 75.1002 54.4992 75.2002 55.3992H74.7002V56.1992H75.2002ZM67.5002 55.3992C67.5002 54.4992 68.0002 53.6992 68.6002 53.0992L69.3002 53.7992C68.8002 54.2992 68.5002 54.9992 68.5002 55.7992C68.5002 56.5992 68.8002 57.2992 69.3002 57.7992L68.6002 58.4992C68.0002 57.8992 67.6002 57.0992 67.5002 56.1992H68.0002V55.3992H67.5002ZM68.9001 55.7992C68.9001 55.0992 69.2002 54.4992 69.6002 54.0992C70.0002 53.6992 70.7002 53.3992 71.3002 53.3992C72.0002 53.3992 72.6002 53.6992 73.0002 54.0992C73.4002 54.4992 73.7002 55.1992 73.7002 55.7992C73.7002 56.4992 73.4002 57.0992 73.0002 57.4992C72.6002 57.8992 71.9002 58.1992 71.3002 58.1992C70.7002 58.1992 70.0002 57.8992 69.6002 57.4992C69.2002 57.0992 68.9001 56.3992 68.9001 55.7992ZM67.7002 52.0992C68.6002 51.1992 69.7002 50.6992 71.0002 50.5992V51.5992C69.0002 51.7992 67.4002 53.3992 67.2002 55.3992H66.2002C66.2002 54.0992 66.8002 52.9992 67.7002 52.0992ZM71.0002 60.8992C69.7002 60.8992 68.6002 60.2992 67.7002 59.3992C66.8002 58.4992 66.3002 57.3992 66.2002 56.0992H67.2002C67.4002 58.0992 69.0002 59.6992 71.0002 59.8992V60.8992ZM71.0002 59.0992V59.5992C70.1002 59.5992 69.3002 59.0992 68.7002 58.4992L69.4001 57.7992C69.9001 58.2992 70.6001 58.5992 71.4001 58.5992C72.2001 58.5992 72.9001 58.2992 73.4001 57.7992L74.1002 58.4992C73.5002 59.0992 72.7002 59.4992 71.8002 59.5992V59.0992H71.0002ZM75.0002 59.3992C74.1002 60.2992 73.0002 60.7992 71.7002 60.8992V59.8992C73.7002 59.6992 75.3002 58.0992 75.5002 56.0992H76.5002C76.5002 57.3992 75.9002 58.4992 75.0002 59.3992ZM75.6002 55.3992C75.4002 53.3992 73.8002 51.7992 71.8002 51.5992V50.5992C73.1002 50.5992 74.2002 51.1992 75.1002 52.0992C76.0002 52.9992 76.5002 54.0992 76.6002 55.3992H75.6002Z" fill="#49494A"/>
<g style="mix-blend-mode:multiply" opacity="0.5">
<path d="M51.2994 48.5969C49.0994 48.5969 47.3994 46.7969 47.3994 44.6969C47.3994 42.5969 49.1994 40.7969 51.2994 40.7969V48.6969V48.5969Z" fill="#2BB0B3"/>
</g>
</g>
<defs>
<filter id="filter0_d_616_2566" x="0" y="0" width="132.5" height="123.801" filterUnits="userSpaceOnUse" color-interpolation-filters="sRGB">
<feFlood flood-opacity="0" result="BackgroundImageFix"/>
<feColorMatrix in="SourceAlpha" type="matrix" values="0 0 0 0 0 0 0 0 0 0 0 0 0 0 0 0 0 0 127 0" result="hardAlpha"/>
<feOffset dy="7"/>
<feGaussianBlur stdDeviation="5"/>
<feColorMatrix type="matrix" values="0 0 0 0 0 0 0 0 0 0 0 0 0 0 0 0 0 0 0.8 0"/>
<feBlend mode="normal" in2="BackgroundImageFix" result="effect1_dropShadow_616_2566"/>
<feBlend mode="normal" in="SourceGraphic" in2="effect1_dropShadow_616_2566" result="shape"/>
</filter>
</defs>
</svg>
