<svg width="231" height="111" viewBox="0 0 231 111" fill="none" xmlns="http://www.w3.org/2000/svg">
<g filter="url(#filter0_d_609_8129)">
<path d="M16.9994 93.9L14.8994 92L18.6994 87.8L20.7994 89.7L16.9994 93.9ZM22.7994 87.5L20.6994 85.6L24.4994 81.4L26.5994 83.3L22.7994 87.5ZM28.5994 81.1L26.4994 79.2L30.2994 75L32.3994 76.9L28.5994 81.1ZM34.3994 74.8L32.2994 72.9L36.0994 68.7L38.1994 70.6L34.3994 74.8ZM101.799 71.8L97.0994 68.6L98.6994 66.2L103.399 69.4L101.799 71.8ZM105.599 69.9L103.499 68L107.299 63.8L109.399 65.7L105.599 69.9ZM40.0994 68.4L37.9994 66.5L41.7994 62.3L43.8994 64.2L40.0994 68.4ZM94.6994 67L89.9994 63.8L91.5994 61.4L96.2994 64.6L94.6994 67ZM111.399 63.5L109.299 61.6L113.099 57.4L115.199 59.3L111.399 63.5ZM87.4994 62.2L82.7994 59L84.3994 56.6L89.0994 59.8L87.4994 62.2ZM45.8994 62.1L43.7994 60.2L47.5994 56L49.6994 57.9L45.8994 62.1ZM80.3994 57.3L75.6994 54.1L77.2994 51.7L81.9994 54.9L80.3994 57.3ZM117.099 57.1L114.999 55.2L118.799 51L120.899 52.9L117.099 57.1ZM51.6994 55.7L49.5994 53.8L53.3994 49.6L55.4994 51.5L51.6994 55.7ZM73.2994 52.5L68.5994 49.3L70.1994 46.9L74.8994 50.1L73.2994 52.5ZM182.199 51.9L180.399 49.7L184.899 46.1L186.699 48.3L182.199 51.9ZM178.199 50.8L174.899 46.1L177.199 44.4L180.499 49.1L178.199 50.8ZM122.899 50.8L120.799 48.9L124.599 44.7L126.699 46.6L122.899 50.8ZM57.3994 49.3L55.2994 47.4L59.0994 43.2L61.1994 45.1L57.3994 49.3ZM66.1994 47.7L61.4994 44.5L63.0994 42.1L67.7994 45.3L66.1994 47.7ZM188.899 46.5L187.099 44.3L191.599 40.7L193.399 42.9L188.899 46.5ZM128.699 44.4L126.599 42.5L130.399 38.3L132.499 40.2L128.699 44.4ZM173.299 43.8L169.999 39.1L172.299 37.4L175.599 42.1L173.299 43.8ZM195.499 41.1L193.699 38.9L198.199 35.3L199.999 37.5L195.499 41.1ZM134.399 38.1L132.299 36.2L136.099 32L138.199 33.9L134.399 38.1ZM168.299 36.8L164.999 32.1L167.299 30.4L170.599 35.1L168.299 36.8ZM202.199 35.7L200.399 33.5L204.899 29.9L206.699 32.1L202.199 35.7ZM140.199 31.7L138.099 29.8L141.899 25.6L143.999 27.5L140.199 31.7ZM208.899 30.3L207.099 28.1L211.599 24.5L213.399 26.7L208.899 30.3ZM163.299 29.9L159.999 25.2L162.299 23.5L165.599 28.2L163.299 29.9ZM145.999 25.3L143.899 23.4L147.699 19.2L149.799 21.1L145.999 25.3ZM158.299 22.9L154.999 18.2L157.299 16.5L160.599 21.2L158.299 22.9ZM151.799 19L149.699 17.1L152.999 13.5H155.199C155.199 13.6 155.699 14.3 155.699 14.3L154.699 15L155.099 15.4L151.799 19Z" fill="#80BBD7"/>
<path d="M15.9996 98.8C19.2581 98.8 21.8997 96.1585 21.8997 92.9C21.8997 89.6415 19.2581 87 15.9996 87C12.7412 87 10.0996 89.6415 10.0996 92.9C10.0996 96.1585 12.7412 98.8 15.9996 98.8Z" fill="#0A5659"/>
<path d="M60.5992 48.9016C63.8577 48.9016 66.4992 46.2601 66.4992 43.0016C66.4992 39.7431 63.8577 37.1016 60.5992 37.1016C57.3407 37.1016 54.6992 39.7431 54.6992 43.0016C54.6992 46.2601 57.3407 48.9016 60.5992 48.9016Z" fill="#242E3A"/>
<path d="M108.6 70.2007C108.6 73.5007 105.9 76.1007 102.7 76.1007C99.4998 76.1007 96.7998 73.4007 96.7998 70.2007C96.7998 67.0007 99.4998 64.3008 102.7 64.3008C105.9 64.3008 108.6 67.0007 108.6 70.2007Z" fill="#2FA6D0"/>
<path d="M158.184 18.5469C160.488 16.2429 160.488 12.5071 158.184 10.2031C155.88 7.89896 152.144 7.89896 149.84 10.2031C147.536 12.5071 147.536 16.2429 149.84 18.5469C152.144 20.851 155.88 20.851 158.184 18.5469Z" fill="#242E3A"/>
<path d="M186.4 50.7985C186.4 54.0985 183.7 56.6984 180.5 56.6984C177.3 56.6984 174.6 53.9985 174.6 50.7985C174.6 47.5985 177.3 44.8984 180.5 44.8984C183.7 44.8984 186.4 47.5985 186.4 50.7985Z" fill="#2FA6D0"/>
<path d="M220.4 24.0016C220.4 27.3016 217.7 29.9016 214.5 29.9016C211.3 29.9016 208.6 27.2016 208.6 24.0016C208.6 20.8016 211.3 18.1016 214.5 18.1016C217.7 18.1016 220.4 20.8016 220.4 24.0016Z" fill="#242E3A"/>
</g>
<defs>
<filter id="filter0_d_609_8129" x="0.0996094" y="0.476562" width="230.3" height="110.324" filterUnits="userSpaceOnUse" color-interpolation-filters="sRGB">
<feFlood flood-opacity="0" result="BackgroundImageFix"/>
<feColorMatrix in="SourceAlpha" type="matrix" values="0 0 0 0 0 0 0 0 0 0 0 0 0 0 0 0 0 0 127 0" result="hardAlpha"/>
<feOffset dy="2"/>
<feGaussianBlur stdDeviation="5"/>
<feColorMatrix type="matrix" values="0 0 0 0 0 0 0 0 0 0 0 0 0 0 0 0 0 0 0.6 0"/>
<feBlend mode="normal" in2="BackgroundImageFix" result="effect1_dropShadow_609_8129"/>
<feBlend mode="normal" in="SourceGraphic" in2="effect1_dropShadow_609_8129" result="shape"/>
</filter>
</defs>
</svg>
