<svg width="65" height="83" viewBox="0 0 65 83" fill="none" xmlns="http://www.w3.org/2000/svg">
<g filter="url(#filter0_d_600_7280)">
<path d="M46.1004 48.9016V8.10156L31.5004 19.6016L16.9004 9.10156L17.7004 49.1016H10.4004L31.9004 70.9016L54.2004 48.8016L46.1004 48.9016Z" fill="#002D4B"/>
<g opacity="0.1">
<path d="M17.8 46.3008V49.0007L10.5 49.1007L12.7 51.3008L43.2 59.9008L48.2 54.9008L17.8 46.3008Z" fill="white"/>
<path d="M36.1002 66.8008L41.2002 61.8008L16.2002 54.8008L24.9002 63.7007L36.1002 66.8008Z" fill="white"/>
<path d="M17.5996 37.3008L17.6996 43.8008L50.1996 52.9008L54.3996 48.8008H46.1996V45.4008L17.5996 37.3008Z" fill="white"/>
<path d="M46.2002 16V8L38.7002 13.9L46.2002 16Z" fill="white"/>
<path d="M17.2002 19.3984L17.3002 25.7985L46.2002 33.8984V27.4984L17.2002 19.3984Z" fill="white"/>
<path d="M28.4004 67.1992L32.0004 70.8993L34.1004 68.7993L28.4004 67.1992Z" fill="white"/>
<path d="M36.4 15.7985L31.6 19.4984L20 11.1984L17 10.3984L17.2 16.7985L46.2 24.9984V18.5984L36.4 15.7985Z" fill="white"/>
<path d="M17.4004 28.3008L17.5004 34.8008L46.2004 42.8008V36.4008L17.4004 28.3008Z" fill="white"/>
</g>
<path d="M32.5002 20.0016L46.1002 9.40161V8.10156L31.7002 19.4016L32.5002 20.0016Z" fill="#A1AAAD"/>
<path d="M46.1 49.4008L53.8 49.3008L54.4 48.8008L46 48.9008L46.1 49.4008Z" fill="#A1AAAD"/>
<path d="M11.3 49.6016L18.6 49.5016L17.8 10.0016L16.7 9.10156L17.5 49.0016L10 49.1016L31.8 71.0016L32.1 70.7015L11.3 49.6016Z" fill="#A1AAAD"/>
<path d="M16.7002 9.10156L32.1002 20.2015L32.5002 20.0016L31.7002 19.4016L31.5002 19.6016L16.9002 9.10156H16.7002Z" fill="#A1AAAD"/>
</g>
<defs>
<filter id="filter0_d_600_7280" x="0" y="0" width="64.4004" height="83" filterUnits="userSpaceOnUse" color-interpolation-filters="sRGB">
<feFlood flood-opacity="0" result="BackgroundImageFix"/>
<feColorMatrix in="SourceAlpha" type="matrix" values="0 0 0 0 0 0 0 0 0 0 0 0 0 0 0 0 0 0 127 0" result="hardAlpha"/>
<feOffset dy="2"/>
<feGaussianBlur stdDeviation="5"/>
<feColorMatrix type="matrix" values="0 0 0 0 0 0 0 0 0 0 0 0 0 0 0 0 0 0 0.6 0"/>
<feBlend mode="normal" in2="BackgroundImageFix" result="effect1_dropShadow_600_7280"/>
<feBlend mode="normal" in="SourceGraphic" in2="effect1_dropShadow_600_7280" result="shape"/>
</filter>
</defs>
</svg>
