<svg width="105" height="67" viewBox="0 0 105 67" fill="none" xmlns="http://www.w3.org/2000/svg">
<g filter="url(#filter0_d_616_2750)">
<path d="M36.3125 9.00029L28.9125 14.8003C26.5125 16.2003 24.0126 17.1003 22.2126 17.6003C21.9126 17.6003 21.7125 17.6003 21.4125 17.6003H16.5125C9.41254 17.6003 10.0125 24.2003 10.0125 32.3003C10.0125 40.4003 9.51254 47.0003 16.5125 47.0003H21.4125C26.2125 46.8003 29.9125 48.3003 32.3125 49.9003L35.9125 53.0003C38.4125 55.1003 40.4125 54.1003 40.5125 50.8003L40.9125 11.4003C40.9125 8.10032 38.9125 7.00029 36.3125 9.00029Z" fill="url(#paint0_linear_616_2750)"/>
<path d="M54.7123 30.7007C54.7123 35.5007 53.0123 39.0007 50.9123 38.6007C48.8123 38.2007 47.1123 34.6007 47.1123 30.7007C47.1123 26.8007 48.8123 23.2007 50.9123 22.8007C53.0123 22.4007 54.7123 25.9007 54.7123 30.7007Z" fill="url(#paint1_linear_616_2750)"/>
<path d="M67.9125 32.8009C67.9125 38.0009 66.2125 41.9009 64.1125 41.5009C62.0125 41.0009 60.3125 36.4009 60.3125 31.2009V29.8009C60.3125 24.6009 62.0125 19.9009 64.1125 19.5009C66.2125 19.1009 67.9125 23.0009 67.9125 28.2009V32.8009Z" fill="url(#paint2_linear_616_2750)"/>
<path d="M81.0121 35.7985C81.0121 40.9985 79.3122 44.8985 77.2122 44.4985C75.1122 43.9985 73.4121 39.3985 73.4121 34.0985V26.3985C73.4121 21.1985 75.1122 16.5985 77.2122 16.0985C79.3122 15.6985 81.0121 19.5985 81.0121 24.8985V35.7985Z" fill="url(#paint3_linear_616_2750)"/>
<path d="M94.1127 38.6995C94.1127 43.8995 92.4127 47.7994 90.3127 47.2994C88.2127 46.7994 86.5127 42.0995 86.5127 36.8995V22.8995C86.5127 17.6995 88.2127 13.0995 90.3127 12.6995C92.4127 12.2995 94.1127 16.2994 94.1127 21.4994V38.6995Z" fill="url(#paint4_linear_616_2750)"/>
</g>
<defs>
<filter id="filter0_d_616_2750" x="0" y="0" width="104.112" height="66.1016" filterUnits="userSpaceOnUse" color-interpolation-filters="sRGB">
<feFlood flood-opacity="0" result="BackgroundImageFix"/>
<feColorMatrix in="SourceAlpha" type="matrix" values="0 0 0 0 0 0 0 0 0 0 0 0 0 0 0 0 0 0 127 0" result="hardAlpha"/>
<feOffset dy="2"/>
<feGaussianBlur stdDeviation="5"/>
<feColorMatrix type="matrix" values="0 0 0 0 0 0 0 0 0 0 0 0 0 0 0 0 0 0 0.6 0"/>
<feBlend mode="normal" in2="BackgroundImageFix" result="effect1_dropShadow_616_2750"/>
<feBlend mode="normal" in="SourceGraphic" in2="effect1_dropShadow_616_2750" result="shape"/>
</filter>
<linearGradient id="paint0_linear_616_2750" x1="10.0125" y1="31.0003" x2="40.9125" y2="31.0003" gradientUnits="userSpaceOnUse">
<stop stop-color="#002D4B"/>
<stop offset="1" stop-color="#002133"/>
</linearGradient>
<linearGradient id="paint1_linear_616_2750" x1="47.2123" y1="30.7007" x2="54.7123" y2="30.7007" gradientUnits="userSpaceOnUse">
<stop stop-color="#002D4B"/>
<stop offset="1" stop-color="#002133"/>
</linearGradient>
<linearGradient id="paint2_linear_616_2750" x1="60.3125" y1="30.5009" x2="67.9125" y2="30.5009" gradientUnits="userSpaceOnUse">
<stop stop-color="#002D4B"/>
<stop offset="1" stop-color="#002133"/>
</linearGradient>
<linearGradient id="paint3_linear_616_2750" x1="73.5121" y1="30.1985" x2="81.0121" y2="30.1985" gradientUnits="userSpaceOnUse">
<stop stop-color="#002D4B"/>
<stop offset="1" stop-color="#002133"/>
</linearGradient>
<linearGradient id="paint4_linear_616_2750" x1="86.6127" y1="29.9994" x2="94.1127" y2="29.9994" gradientUnits="userSpaceOnUse">
<stop stop-color="#002D4B"/>
<stop offset="1" stop-color="#002133"/>
</linearGradient>
</defs>
</svg>
