<svg width="50" height="64" viewBox="0 0 50 64" fill="none" xmlns="http://www.w3.org/2000/svg">
<g filter="url(#filter0_d_616_2757)">
<path d="M34.8084 8.86386L27.8084 14.3639C25.5084 15.6639 23.2084 16.5638 21.5084 16.9638C21.2084 16.9638 21.0084 16.9638 20.8084 16.9638H16.2084C9.50839 16.9638 10.0084 23.1639 10.0084 30.8639C10.0084 38.5639 9.50839 44.7638 16.2084 44.7638H20.8084C25.4084 44.5638 28.8084 45.9638 31.1084 47.4638L34.5084 50.3639C36.8084 52.3639 38.8084 51.4639 38.8084 48.3639L39.2084 11.1639C39.2084 8.06385 37.3085 7.06384 34.9085 8.96384L34.8084 8.86386ZM36.5084 42.2638C35.3084 43.2638 33.5085 43.1639 32.4085 42.0639L25.4085 34.5639L18.4085 42.2638C17.4085 43.3638 15.6085 43.5639 14.4085 42.5639C13.2085 41.5639 13.1084 39.8638 14.1084 38.7638L21.6084 30.5639L14.6084 23.0639C13.5084 21.9639 13.7084 20.2638 14.8084 19.2638C16.0084 18.2638 17.8085 18.3638 18.9085 19.4638L25.4085 26.4638L31.8084 19.4638C32.8084 18.3638 34.6084 18.1639 35.8084 19.1639C37.0084 20.1639 37.1084 21.8638 36.1084 22.9638L29.2084 30.4638L36.7084 38.5639C37.7084 39.6639 37.6084 41.3639 36.5084 42.3639V42.2638Z" fill="url(#paint0_linear_616_2757)"/>
</g>
<defs>
<filter id="filter0_d_616_2757" x="0" y="0" width="49.208" height="63.4297" filterUnits="userSpaceOnUse" color-interpolation-filters="sRGB">
<feFlood flood-opacity="0" result="BackgroundImageFix"/>
<feColorMatrix in="SourceAlpha" type="matrix" values="0 0 0 0 0 0 0 0 0 0 0 0 0 0 0 0 0 0 127 0" result="hardAlpha"/>
<feOffset dy="2"/>
<feGaussianBlur stdDeviation="5"/>
<feColorMatrix type="matrix" values="0 0 0 0 0 0 0 0 0 0 0 0 0 0 0 0 0 0 0.6 0"/>
<feBlend mode="normal" in2="BackgroundImageFix" result="effect1_dropShadow_616_2757"/>
<feBlend mode="normal" in="SourceGraphic" in2="effect1_dropShadow_616_2757" result="shape"/>
</filter>
<linearGradient id="paint0_linear_616_2757" x1="9.90843" y1="29.5639" x2="39.1084" y2="29.5639" gradientUnits="userSpaceOnUse">
<stop stop-color="#002D4B"/>
<stop offset="1" stop-color="#002133"/>
</linearGradient>
</defs>
</svg>
