<svg width="92" height="58" viewBox="0 0 92 58" fill="none" xmlns="http://www.w3.org/2000/svg">
<g filter="url(#filter0_d_616_2624)">
<path d="M14.7354 44.8436C14.7354 44.7436 14.7354 44.5436 14.7354 44.4436C14.7354 44.1436 12.7354 42.3436 12.3354 41.8436C11.4354 40.6436 10.6354 39.3436 10.2354 37.9436C9.63538 35.6436 10.2354 33.4436 11.4354 31.4436C14.2354 27.0436 17.9354 28.3436 22.0354 27.2436C22.4354 27.1436 23.0354 26.9436 23.2354 26.5436C23.8354 25.8436 25.1354 19.4436 26.5354 17.0436C28.9354 12.8436 32.5354 9.94361 37.2354 8.74361C43.2354 7.14361 49.8354 8.04361 54.5354 12.2436C55.5354 13.1436 56.7354 15.0436 57.8354 15.5436H58.0354C58.4354 16.6436 58.7354 18.3436 59.9354 18.7436C59.9354 18.7436 60.1354 18.7436 60.2354 18.7436C60.7354 19.7436 61.3354 20.7436 61.9354 21.6436C65.6354 20.1436 69.2354 19.1436 73.1354 20.8436C77.7354 22.8436 79.2354 27.7436 80.3354 28.3436C80.4354 28.3436 80.6354 28.3436 80.7354 28.4436C81.5354 31.4436 80.7354 34.8436 79.2354 37.5436C77.5354 40.4436 74.3354 43.5436 71.0354 44.4436C68.1354 45.1436 17.0354 45.5436 14.4354 44.4436L14.7354 44.8436Z" fill="#69CDF0"/>
</g>
<defs>
<filter id="filter0_d_616_2624" x="0" y="0" width="91.0508" height="57.125" filterUnits="userSpaceOnUse" color-interpolation-filters="sRGB">
<feFlood flood-opacity="0" result="BackgroundImageFix"/>
<feColorMatrix in="SourceAlpha" type="matrix" values="0 0 0 0 0 0 0 0 0 0 0 0 0 0 0 0 0 0 127 0" result="hardAlpha"/>
<feOffset dy="2"/>
<feGaussianBlur stdDeviation="5"/>
<feColorMatrix type="matrix" values="0 0 0 0 0 0 0 0 0 0 0 0 0 0 0 0 0 0 0.6 0"/>
<feBlend mode="normal" in2="BackgroundImageFix" result="effect1_dropShadow_616_2624"/>
<feBlend mode="normal" in="SourceGraphic" in2="effect1_dropShadow_616_2624" result="shape"/>
</filter>
</defs>
</svg>
