<svg width="20" height="33" viewBox="0 0 20 33" fill="none" xmlns="http://www.w3.org/2000/svg">
<path d="M19.6 30.8V15.4C19.6 15.1 19.6 14.8 19.4 14.6C19.3 13.9 18.6 13.3 17.9 13.3H17.1C17.1 13.2 13.8 13.2 13.8 13.2C13.8 13.3 5.80002 13.3 5.80002 13.3V7.90002C5.80002 5.40002 7.59999 3.30005 9.89999 3.30005C12.2 3.30005 14 5.30002 14 7.90002V9.09998H17.3V7.19995C17.3 3.19995 14.1 0 10.1 0C6.10001 0 2.89999 3.19995 2.89999 7.19995V13.1H2.80002C2.80002 13.2 2.5 13.2 2.5 13.2C2.3 13.2 2.09999 13.1 1.89999 13.1C0.799994 13.1 0 14.2 0 15.5V30.6C0 31 1.82986e-05 31.4 0.300018 31.8C0.600018 32.5 1.19999 32.9 1.89999 32.9C2.59999 32.9 2.3 32.9 2.5 32.8H18.1C19.1 32.8 19.8 32 19.8 31.1C19.8 30.2 19.8 30.8 19.8 30.7L19.6 30.8ZM3 16.1C3 15.5 3.50001 15 4.10001 15C4.70001 15 5.20001 15.5 5.20001 16.1C5.20001 16.7 4.70001 17.2 4.10001 17.2C3.50001 17.2 3 16.7 3 16.1ZM4 21.8L3.70001 22.4V21.8H4ZM3.70001 24.3L4.89999 21.8H7.19998L3.70001 29V24.3ZM4.39999 29.5L8.19998 21.8H11L7.19998 29.5H4.39999ZM8.10001 29.5L11.9 21.8H14.6L10.8 29.5H8.10001ZM15.6 29.5H14.8L15.6 27.9V29.5ZM15.6 26L13.9 29.5H11.7L15.5 21.8H15.6V26ZM16.3 16.1C16.3 16.7 15.8 17.3 15.1 17.3C14.4 17.3 13.9 16.8 13.9 16.1C13.9 15.5 14.4 14.9 15.1 14.9C15.8 14.9 16.3 15.4 16.3 16.1Z" fill="url(#paint0_linear_600_7955)"/>
<defs>
<linearGradient id="paint0_linear_600_7955" x1="-0.2" y1="16.5" x2="19.7" y2="16.5" gradientUnits="userSpaceOnUse">
<stop stop-color="#002D4B"/>
<stop offset="1" stop-color="#002133"/>
</linearGradient>
</defs>
</svg>
