<svg width="54" height="58" viewBox="0 0 54 58" fill="none" xmlns="http://www.w3.org/2000/svg">
<g filter="url(#filter0_d_616_2746)">
<path d="M12.1996 24.3984V34.4984C12.1996 40.7984 17.2996 45.9984 23.4996 45.9984H30.3996C36.5996 45.9984 41.6996 40.7984 41.6996 34.4984V24.3984H12.0996H12.1996ZM21.9996 38.2984C21.9996 39.6984 20.8996 40.8984 19.5996 40.8984C18.2996 40.8984 17.1996 39.6984 17.1996 38.2984V30.4984C17.1996 29.0984 18.2996 27.8984 19.5996 27.8984C20.8996 27.8984 21.9996 29.0984 21.9996 30.4984V38.2984ZM29.5996 38.2984C29.5996 39.6984 28.4996 40.8984 27.1996 40.8984C25.8996 40.8984 24.7996 39.6984 24.7996 38.2984V30.4984C24.7996 29.0984 25.8996 27.8984 27.1996 27.8984C28.4996 27.8984 29.5996 29.0984 29.5996 30.4984V38.2984ZM37.0996 38.2984C37.0996 39.6984 35.9996 40.8984 34.6996 40.8984C33.3996 40.8984 32.2996 39.6984 32.2996 38.2984V30.4984C32.2996 29.0984 33.3996 27.8984 34.6996 27.8984C35.9996 27.8984 37.0996 29.0984 37.0996 30.4984V38.2984Z" fill="url(#paint0_linear_616_2746)"/>
<path d="M37 12.1H30.9C31.3 11.7 31.5 11.1 31.5 10.5C31.5 9.1 30.4 8 29 8H24.4C23 8 21.9 9.1 21.9 10.5C21.9 11.9 22.1 11.7 22.5 12.1H16.4C12.9 12.1 10 14.6 10 17.6C10 20.6 10.5 20 11.3 20.9H42.1C42.9 20 43.4 18.9 43.4 17.6C43.4 14.6 40.5 12.1 37 12.1Z" fill="url(#paint1_linear_616_2746)"/>
</g>
<defs>
<filter id="filter0_d_616_2746" x="0" y="0" width="53.4004" height="58" filterUnits="userSpaceOnUse" color-interpolation-filters="sRGB">
<feFlood flood-opacity="0" result="BackgroundImageFix"/>
<feColorMatrix in="SourceAlpha" type="matrix" values="0 0 0 0 0 0 0 0 0 0 0 0 0 0 0 0 0 0 127 0" result="hardAlpha"/>
<feOffset dy="2"/>
<feGaussianBlur stdDeviation="5"/>
<feColorMatrix type="matrix" values="0 0 0 0 0 0 0 0 0 0 0 0 0 0 0 0 0 0 0.6 0"/>
<feBlend mode="normal" in2="BackgroundImageFix" result="effect1_dropShadow_616_2746"/>
<feBlend mode="normal" in="SourceGraphic" in2="effect1_dropShadow_616_2746" result="shape"/>
</filter>
<linearGradient id="paint0_linear_616_2746" x1="12.1996" y1="35.2984" x2="41.7996" y2="35.2984" gradientUnits="userSpaceOnUse">
<stop stop-color="#002D4B"/>
<stop offset="1" stop-color="#002133"/>
</linearGradient>
<linearGradient id="paint1_linear_616_2746" x1="10" y1="14.4" x2="43.4" y2="14.4" gradientUnits="userSpaceOnUse">
<stop stop-color="#002D4B"/>
<stop offset="1" stop-color="#002133"/>
</linearGradient>
</defs>
</svg>
