<svg width="252" height="162" viewBox="0 0 252 162" fill="none" xmlns="http://www.w3.org/2000/svg">
<path d="M77.7 82.0015H58V70.1016H77.7V82.0015ZM59.1 81.0015H76.7V71.1016H59.1V81.0015Z" fill="#2FA6D0" stroke="black" stroke-miterlimit="10"/>
<path d="M41.5 122.699C35.7 122.699 31 117.999 31 112.199C31 106.399 35.7 101.699 41.5 101.699C47.3 101.699 52 106.399 52 112.199C52 117.999 47.3 122.699 41.5 122.699ZM41.5 102.699C36.3 102.699 32 106.999 32 112.199C32 117.399 36.3 121.699 41.5 121.699C46.7 121.699 51 117.399 51 112.199C51 106.999 46.7 102.699 41.5 102.699Z" fill="#2FA6D0" stroke="black" stroke-miterlimit="10"/>
<path d="M235.6 88.8992C231.5 88.8992 227.7 87.2991 224.9 84.4991C222 81.5991 220.5 77.7992 220.5 73.7992C220.5 69.7992 222.1 65.8992 224.9 63.0992C227.8 60.1992 231.6 58.6992 235.6 58.6992C239.6 58.6992 243.5 60.2992 246.3 63.0992C249.2 65.9992 250.7 69.7992 250.7 73.7992C250.7 77.7992 249.1 81.6991 246.3 84.4991C243.4 87.3991 239.6 88.8992 235.6 88.8992ZM235.6 59.5992C231.8 59.5992 228.3 61.0992 225.6 63.6992C222.9 66.3992 221.5 69.8992 221.5 73.6992C221.5 77.4992 223 80.9992 225.6 83.6992C228.3 86.3992 231.8 87.7992 235.6 87.7992C239.4 87.7992 242.9 86.2992 245.6 83.6992C248.3 80.9992 249.7 77.4992 249.7 73.6992C249.7 69.8992 248.2 66.3992 245.6 63.6992C242.9 60.9992 239.4 59.5992 235.6 59.5992Z" fill="#2FA6D0" stroke="black" stroke-miterlimit="10"/>
<path d="M118.2 161.001C112.1 161.001 107.1 156.001 107.1 149.901C107.1 143.801 112.1 138.801 118.2 138.801C124.3 138.801 129.3 143.801 129.3 149.901C129.3 156.001 124.3 161.001 118.2 161.001ZM118.2 139.801C112.6 139.801 108.1 144.301 108.1 149.901C108.1 155.501 112.6 160.001 118.2 160.001C123.8 160.001 128.3 155.501 128.3 149.901C128.3 144.301 123.8 139.801 118.2 139.801Z" fill="#2FA6D0" stroke="black" stroke-miterlimit="10"/>
<path d="M108.3 159.699C105.3 159.699 102.8 157.199 102.8 154.199C102.8 151.199 105.3 148.699 108.3 148.699C111.3 148.699 113.8 151.199 113.8 154.199C113.8 157.199 111.3 159.699 108.3 159.699ZM108.3 149.699C105.8 149.699 103.8 151.699 103.8 154.199C103.8 156.699 105.8 158.699 108.3 158.699C110.8 158.699 112.8 156.699 112.8 154.199C112.8 151.699 110.8 149.699 108.3 149.699Z" fill="#2FA6D0" stroke="black" stroke-miterlimit="10"/>
<path d="M210.6 148.099H190.9V114.398H210.6V148.099ZM192 146.998H209.6V115.398H192V146.998Z" fill="#2FA6D0" stroke="black" stroke-miterlimit="10"/>
<path d="M50.6004 154.398H50.0004V153.898H50.6004V154.398ZM50.6004 153.398H50.0004V152.298H50.6004V153.398ZM50.6004 151.599H50.0004V150.498H50.6004V151.599ZM50.6004 149.898H50.0004V148.798H50.6004V149.898ZM50.6004 148.198H50.0004V147.099H50.6004V148.198ZM50.6004 146.498H50.0004V145.398H50.6004V146.498ZM50.6004 144.798H50.0004V143.698H50.6004V144.798ZM50.6004 142.998H50.0004V141.898H50.6004V142.998ZM50.6004 141.298H50.0004V140.198H50.6004V141.298ZM50.6004 139.599H50.0004V138.498H50.6004V139.599ZM50.6004 137.898H50.0004V136.798H50.6004V137.898ZM21.2004 137.798L20.9004 137.298L21.9004 136.698L22.2004 137.198L21.2004 137.798ZM22.7004 136.898L22.4004 136.398L23.4004 135.798L23.7004 136.298L22.7004 136.898ZM50.6004 136.198H50.0004V135.099H50.6004V136.198ZM24.2004 136.099L23.9004 135.599L24.9004 134.998L25.2004 135.498L24.2004 136.099ZM25.7004 135.198L25.4004 134.698L26.4004 134.099L26.7004 134.599L25.7004 135.198ZM50.6004 134.498H50.0004V133.398H50.6004V134.498ZM27.1004 134.398L26.8004 133.898L27.8004 133.298L28.1004 133.798L27.1004 134.398ZM28.6004 133.498L28.3004 132.998L29.3004 132.398L29.6004 132.898L28.6004 133.498ZM50.6004 132.698H50.0004V131.599H50.6004V132.698ZM30.1004 132.599L29.8004 132.099L30.8004 131.498L31.1004 131.998L30.1004 132.599ZM31.6004 131.798L31.3004 131.298L32.3004 130.698L32.6004 131.198L31.6004 131.798ZM50.6004 130.998H50.0004V129.898H50.6004V130.998ZM33.1004 130.898L32.8004 130.398L33.8004 129.798L34.1004 130.298L33.1004 130.898ZM34.6004 130.099L34.3004 129.599L35.3004 128.998L35.6004 129.498L34.6004 130.099ZM50.6004 129.298H50.0004V128.198H50.6004V129.298ZM36.1004 129.198L35.8004 128.698L36.8004 128.099L37.1004 128.599L36.1004 129.198ZM37.6004 128.298L37.3004 127.798L38.3004 127.198L38.6004 127.698L37.6004 128.298ZM50.6004 127.599H50.0004V126.498H50.6004V127.599ZM39.0004 127.498L38.7004 126.998L39.7004 126.398L40.0004 126.898L39.0004 127.498ZM40.5004 126.599L40.2004 126.099L41.2004 125.498L41.5004 125.998L40.5004 126.599ZM50.6004 125.898H50.0004V124.798H50.6004V125.898ZM42.0004 125.798L41.7004 125.298L42.7004 124.698L43.0004 125.198L42.0004 125.798ZM43.5004 124.898L43.2004 124.398L44.2004 123.798L44.5004 124.298L43.5004 124.898ZM50.6004 124.099H50.0004V122.998H50.6004V124.099ZM45.0004 124.099L44.7004 123.599L45.7004 122.998L46.0004 123.498L45.0004 124.099ZM46.5004 123.198L46.2004 122.698L47.2004 122.099L47.5004 122.599L46.5004 123.198ZM50.6004 122.398H50.0004V121.298H50.6004V122.398ZM48.0004 122.298L47.7004 121.798L48.7004 121.198L49.0004 121.698L48.0004 122.298ZM49.5004 121.498L49.2004 120.998L50.2004 120.398L50.6004 120.599H50.3004V120.798C50.4004 120.798 49.5004 121.398 49.5004 121.398V121.498Z" fill="#2FA6D0" stroke="black" stroke-miterlimit="10"/>
<path d="M37.82 77.3446L34.4277 80.5977L34.843 81.0307L38.2353 77.7776L37.82 77.3446Z" fill="#2FA6D0" stroke="black" stroke-miterlimit="10"/>
<path d="M37.0159 88.2184L36.9678 88.8164L47.434 89.6585L47.4821 89.0605L37.0159 88.2184Z" fill="#2FA6D0" stroke="black" stroke-miterlimit="10"/>
<path d="M114.9 128.599C108.5 128.599 102.2 127.298 96.4004 124.898C90.7004 122.498 85.6004 119.098 81.3004 114.698C76.9004 110.298 73.5004 105.199 71.1004 99.5985C68.6004 93.6985 67.4004 87.4985 67.4004 81.0985C67.4004 74.6985 68.7004 68.3985 71.1004 62.5985C73.5004 56.8985 76.9004 51.7984 81.3004 47.4984L82.1004 48.2985C77.8004 52.5985 74.5004 57.4985 72.1004 63.0985C69.7004 68.7985 68.4004 74.8985 68.4004 81.1985C68.4004 87.4985 69.6004 93.5985 72.1004 99.2985C74.4004 104.798 77.8004 109.799 82.1004 114.099C86.4004 118.399 91.3004 121.699 96.9004 124.099C102.6 126.499 108.7 127.798 115 127.798C121.3 127.798 127.4 126.599 133.1 124.099C138.6 121.799 143.6 118.399 147.9 114.099C152.2 109.799 155.5 104.898 157.9 99.2985C160.3 93.5985 161.6 87.4985 161.6 81.1985C161.6 74.8985 160.4 68.7985 157.9 63.0985C155.6 57.5985 152.2 52.5985 147.9 48.2985C143.6 43.9985 138.7 40.6985 133.1 38.2985C127.4 35.8985 121.3 34.5985 115 34.5985C108.7 34.5985 102.7 35.7985 97.0004 38.1985L96.6004 37.0985C102.4 34.5985 108.6 33.3984 115 33.3984C121.4 33.3984 127.7 34.6985 133.5 37.0985C139.2 39.4985 144.3 42.8985 148.6 47.2985C153 51.6985 156.4 56.7984 158.8 62.3984C161.3 68.2984 162.5 74.4984 162.5 80.8984C162.5 87.2984 161.2 93.5984 158.8 99.3984C156.4 105.098 153 110.198 148.6 114.498C144.2 118.898 139.1 122.298 133.5 124.698C127.6 127.198 121.4 128.398 115 128.398L114.9 128.599Z" fill="#2FA6D0" stroke="black" stroke-miterlimit="10"/>
<path d="M114.9 131.299C112.8 131.299 110.6 131.199 108.5 130.899C102 130.099 95.8998 127.999 90.1998 124.799C84.4998 121.599 79.5998 117.399 75.4998 112.299C71.2998 106.999 68.2998 100.999 66.3998 94.4991C64.5998 87.9991 64.0998 81.1992 64.9998 74.5992C65.7998 68.0992 67.8998 61.9992 71.0998 56.2992C74.2998 50.5992 78.4998 45.6992 83.5998 41.5992C88.8998 37.3992 94.8998 34.3991 101.4 32.4991C105.4 31.3991 109.5 30.7992 113.6 30.6992V31.7992C109.6 31.8992 105.6 32.4992 101.7 33.5992C95.2998 35.3992 89.3999 38.3991 84.2999 42.4991C79.2999 46.4991 75.1998 51.2992 72.0998 56.8992C68.9998 62.4992 66.9998 68.4992 66.0998 74.7992C65.2998 81.2992 65.6998 87.8992 67.4998 94.2992C69.2998 100.699 72.2998 106.599 76.3998 111.699C80.3998 116.699 85.1999 120.799 90.7999 123.899C96.3999 126.999 102.4 128.999 108.7 129.899C110.8 130.199 112.9 130.299 115 130.299C119.4 130.299 123.9 129.699 128.2 128.499C135 126.599 141.2 123.399 146.6 118.899C149.2 116.699 151.5 114.299 153.6 111.699C155.7 109.099 157.5 106.199 159 103.199L160 103.699C158.5 106.799 156.6 109.699 154.5 112.399C152.4 115.099 149.9 117.599 147.3 119.799C141.8 124.399 135.5 127.699 128.5 129.699C124.1 130.899 119.5 131.599 115 131.599L114.9 131.299Z" fill="#2FA6D0" stroke="black" stroke-miterlimit="10"/>
<path d="M114.8 134.198C113.7 134.198 112.7 134.198 111.6 134.198C105.4 133.798 99.4 132.398 93.7 129.998C87.9 127.498 82.6 124.098 78 119.698L78.8 118.898C83.3 123.098 88.5 126.498 94.2 128.998C99.8 131.398 105.7 132.799 111.7 133.099C117.8 133.499 123.8 132.798 129.7 130.998C135.7 129.198 141.4 126.398 146.4 122.498C152 118.198 156.7 112.998 160.2 106.898C163.6 100.998 165.8 94.5984 166.7 87.8984C167.6 81.1984 167.3 74.3984 165.6 67.8984C163.9 61.0984 160.8 54.7985 156.6 49.1985C152.3 43.4985 147 38.8984 140.9 35.3984C135 31.9984 128.5 29.7984 121.8 28.9984L122 27.8984C128.9 28.7984 135.5 30.9984 141.6 34.4984C147.9 38.0984 153.3 42.7985 157.7 48.5985C162.1 54.3985 165.2 60.7985 166.9 67.6985C168.6 74.3985 169 81.2985 168 88.1985C167.1 95.0985 164.8 101.599 161.4 107.599C157.8 113.799 153.1 119.198 147.3 123.498C142.1 127.398 136.4 130.298 130.2 132.198C125.3 133.698 120.2 134.398 115 134.398L114.8 134.198Z" fill="#2FA6D0" stroke="black" stroke-miterlimit="10"/>
<path d="M60.6004 18.7008H40.9004V6.80078H60.6004V18.7008ZM42.0004 17.7008H59.6004V7.80078H42.0004V17.7008Z" fill="#2FA6D0" stroke="black" stroke-miterlimit="10"/>
<path d="M199.4 143.199H180.8V154.899H199.4V143.199Z" fill="#2FA6D0" stroke="black" stroke-miterlimit="10"/>
<path d="M183.4 3.10156H138V25.8015H183.4V3.10156Z" fill="#2FA6D0" stroke="black" stroke-miterlimit="10"/>
<path d="M243.5 7.30078H220.8V18.6008H243.5V7.30078Z" fill="#2FA6D0" stroke="black" stroke-miterlimit="10"/>
<path d="M111 112.6L109.2 123.1C115.5 124.2 121.7 123.8 127.5 122.3L124.8 112C120.4 113.2 115.8 113.4 111.1 112.6H111Z" fill="#2FA6D0" stroke="black" stroke-miterlimit="10"/>
<path d="M84.9998 74.3008C86.7998 65.7008 91.9998 58.6008 98.7998 54.2008L92.9998 45.3008C83.8998 51.3008 77.0998 60.6008 74.6998 72.1008C74.4998 72.8008 74.3998 73.5008 74.2998 74.3008L84.7998 76.0007C84.7998 75.5007 84.9998 74.9008 85.0998 74.4008L84.9998 74.3008Z" fill="#2FA6D0" stroke="black" stroke-miterlimit="10"/>
<path d="M97.1998 106.699L90.7998 115.199C91.9998 116.099 93.2998 116.999 94.6998 117.799L100.1 108.699C99.0998 108.099 98.0998 107.499 97.1998 106.799V106.699Z" fill="#2FA6D0" stroke="black" stroke-miterlimit="10"/>
<path d="M86.2998 92.1016L76.2998 95.8015C78.3998 101.602 81.7998 106.802 86.0998 111.202L93.5998 103.702C90.2998 100.402 87.7998 96.5016 86.1998 92.1016H86.2998Z" fill="#2FA6D0" stroke="black" stroke-miterlimit="10"/>
<path d="M101.3 109.301L96.2998 118.701C97.8998 119.601 99.6998 120.401 101.4 121.001L105.1 111.101C103.8 110.601 102.5 110.001 101.3 109.401V109.301Z" fill="#2FA6D0" stroke="black" stroke-miterlimit="10"/>
<path d="M103 121.5C103.7 121.7 104.5 122 105.3 122.2L108.1 112C107.5 111.8 107 111.7 106.4 111.5L103.1 121.6L103 121.5Z" fill="#2FA6D0" stroke="black" stroke-miterlimit="10"/>
<path d="M127.5 111.101L131.2 121.101C143.8 116.401 154 105.901 157.7 92.1008L147.5 89.3008C144.7 99.7008 137.1 107.601 127.6 111.101H127.5Z" fill="#2FA6D0" stroke="black" stroke-miterlimit="10"/>
<path d="M114.5 48.9008L113.9 38.3008C112 38.4008 110.1 38.6007 108.3 39.0007L110.3 49.4008C111.7 49.1008 113.1 49.0008 114.5 48.9008Z" fill="#2FA6D0" stroke="black" stroke-miterlimit="10"/>
<path d="M84.5001 77.2001L74.0001 76C73.5001 80.4 73.7001 84.8001 74.5001 89.1001L84.9002 87.1001C84.3002 83.9001 84.1001 80.6 84.5001 77.3V77.2001Z" fill="#2FA6D0" stroke="black" stroke-miterlimit="10"/>
<path d="M123.1 49.5C132.5 51.5 140.1 57.5 144.4 65.3L153.7 60.2C147.9 49.8 137.8 41.8 125.3 39.2C122.1 38.5 118.9 38.2 115.7 38.3L115.9 48.9C118.3 48.9 120.7 49.1 123.1 49.6V49.5Z" fill="#2FA6D0" stroke="black" stroke-miterlimit="10"/>
<path d="M103.7 51.5007L99.5 41.8008C97.8 42.5008 96.1 43.4008 94.5 44.4008L100 53.5007C101.2 52.8007 102.5 52.1008 103.8 51.6008L103.7 51.5007Z" fill="#2FA6D0" stroke="black" stroke-miterlimit="10"/>
<path d="M85.0998 88.3008L74.7998 90.7008C74.7998 91.1008 74.9998 91.5008 75.0998 91.9008L85.3998 89.2008C85.3998 88.9008 85.1998 88.6008 85.1998 88.3008H85.0998Z" fill="#2FA6D0" stroke="black" stroke-miterlimit="10"/>
<path d="M101.101 41.0007L104.901 50.9008C106.201 50.4008 107.601 50.0008 109.001 49.6008L106.601 39.3008C104.801 39.7008 102.901 40.3007 101.201 41.0007H101.101Z" fill="#2FA6D0" stroke="black" stroke-miterlimit="10"/>
<path d="M159.1 80.1992L148.5 80.3992C148.5 82.3992 148.4 84.3992 148 86.3992L158.5 88.1992C159 85.4992 159.2 82.7992 159.1 80.1992Z" fill="#2FA6D0" stroke="black" stroke-miterlimit="10"/>
<path d="M148.3 77.5007L158.8 76.3008C158.3 71.9008 157.2 67.7008 155.4 63.8008L145.7 68.0007C147 71.0007 147.9 74.2007 148.3 77.5007Z" fill="#2FA6D0" stroke="black" stroke-miterlimit="10"/>
<path d="M193.8 96.0992L191.4 96.9991L192.7 98.0992L184 108.399L177.6 103.099L166.5 116.399L167.8 117.499L177.8 105.499L184.1 110.699L184.2 110.799L194 99.1992L195.2 100.199L195.7 97.6992L196.2 95.1992L193.8 96.0992Z" fill="#2FA6D0" stroke="black" stroke-miterlimit="10"/>
<path d="M173.1 122.801H168V138.001H173.1V122.801Z" fill="#2FA6D0" stroke="black" stroke-miterlimit="10"/>
<path d="M180.1 114.102H175V138.102H180.1V114.102Z" fill="#2FA6D0" stroke="black" stroke-miterlimit="10"/>
<path d="M187.2 117.699H182.1V138.099H187.2V117.699Z" fill="#2FA6D0" stroke="black" stroke-miterlimit="10"/>
<path d="M194.3 109.602H189.2V138.102H194.3V109.602Z" fill="#2FA6D0" stroke="black" stroke-miterlimit="10"/>
<path d="M66.4004 125.799C66.4004 121.399 63.6004 117.599 59.8004 116.099C62.0004 114.399 63.5004 111.799 63.5004 108.799C63.5004 103.799 59.4004 99.6992 54.4004 99.6992C49.4004 99.6992 45.3004 103.799 45.3004 108.799C45.3004 113.799 46.8004 114.499 49.0004 116.099C45.1004 117.599 42.4004 121.399 42.4004 125.799V132.299H51.8004L51.6004 131.999L53.0004 122.199L51.6004 119.099L53.0004 115.999H55.8004L57.2004 119.099L55.8004 122.199L57.2004 131.999L57.0004 132.299H66.4004V125.799Z" fill="#2FA6D0" stroke="black" stroke-miterlimit="10"/>
<path d="M55.8006 122.2L57.2006 119.1L55.8006 116H53.0005L51.6006 119.1L53.0005 122.2L51.6006 132L51.8006 132.3L54.2006 136.4H54.6006L57.0005 132.3L57.2006 132L55.8006 122.2Z" fill="#2FA6D0" stroke="black" stroke-miterlimit="10"/>
<path d="M45.7002 21.9C45.7002 21.5 45.7002 21.0001 45.7002 20.6001C45.7002 20.4001 45.7002 20.3001 45.7002 20.1001C45.7002 19.8001 45.6002 19.4001 45.5002 19.1001C45.5002 19.0001 45.5002 18.8001 45.4002 18.7001C45.3002 18.4001 45.2002 18.1 45.0002 17.8C45.0002 17.7 44.9002 17.6 44.8002 17.4C44.7002 17.1 44.5002 16.9001 44.4002 16.6001C44.4002 16.5001 44.3002 16.4 44.2002 16.3C44.0002 16 43.8002 15.8 43.6002 15.5C43.6002 15.5 43.4002 15.3001 43.3002 15.2001C43.1002 15.0001 42.9002 14.8001 42.7002 14.6001C42.7002 14.6001 42.5002 14.4 42.4002 14.3C42.2002 14.1 41.9002 13.9 41.7002 13.8C41.6002 13.8 41.5002 13.6001 41.4002 13.6001C41.2002 13.4001 40.9002 13.3001 40.6002 13.1001C40.5002 13.1001 40.4002 13 40.2002 12.9C39.9002 12.7 39.6002 12.6 39.2002 12.5C39.1002 12.5 38.9002 12.5 38.8002 12.4C38.5002 12.3 38.2002 12.2001 37.8002 12.1001C37.6002 12.1001 37.5002 12.1001 37.3002 12.1001C36.9002 12.1001 36.6002 12.1 36.2002 12C36.1002 12 35.9002 12 35.8002 12C35.7002 12 35.6002 12.0001 35.6002 12.2001V21.9L34.9002 22.4L33.0002 23.7001L28.8002 26.7001L27.7002 27.5C27.7002 27.5 27.7002 27.5001 27.7002 27.6001V27.7001C27.9002 27.9001 28.1002 28.2 28.2002 28.4C28.2002 28.4 28.4002 28.6001 28.5002 28.7001C28.7002 28.9001 28.9002 29.1 29.1002 29.3C29.1002 29.3 29.3002 29.5001 29.4002 29.6001C29.7002 29.8001 29.9002 30.0001 30.2002 30.2001C30.3002 30.2001 30.4002 30.3 30.5002 30.4C30.8002 30.6 31.0002 30.7 31.3002 30.8C31.4002 30.8 31.5002 30.9 31.7002 31C32.0002 31.1 32.3002 31.2 32.6002 31.3C32.7002 31.3 32.9002 31.3 33.0002 31.4C33.3002 31.4 33.7002 31.6001 34.0002 31.6001C34.2002 31.6001 34.3002 31.6001 34.5002 31.6001C34.9002 31.6001 35.4002 31.6001 35.8002 31.6001C36.0002 31.6001 36.2002 31.6001 36.3002 31.6001C36.8002 31.6001 37.3002 31.6 37.7002 31.4C37.9002 31.4 38.2002 31.3001 38.4002 31.2001C39.1002 31.0001 39.8002 30.7 40.5002 30.4C41.2002 30 41.8002 29.6001 42.3002 29.1001C42.6002 28.8001 42.9002 28.5001 43.2002 28.2001C43.7002 27.6001 44.1002 27 44.5002 26.4C44.9002 25.7 45.1002 25.1 45.3002 24.3C45.3002 24.1 45.4002 23.8001 45.5002 23.6001C45.5002 23.1001 45.7002 22.7001 45.7002 22.2001C45.7002 22.0001 45.7002 21.8001 45.7002 21.7001V21.9Z" fill="#2FA6D0" stroke="black" stroke-miterlimit="10"/>
<path d="M58.1996 54.6008L60.0996 55.4008L61.5996 52.2008L59.6996 51.4008C59.6996 51.4008 59.1996 50.9008 59.0996 49.6008C59.0996 49.3008 59.0996 49.1008 59.0996 48.8008C59.1996 47.4008 59.8996 46.9008 59.8996 46.9008L61.7996 46.2008L60.5996 42.9008L58.6996 43.6008C58.6996 43.6008 57.8996 43.6008 56.7996 42.6008L56.5996 42.4008C55.5996 41.2008 55.6996 40.4008 55.6996 40.4008L56.4996 38.5007L53.2996 37.0007L52.4996 38.9008C52.4996 38.9008 51.8996 39.5007 50.3996 39.5007C50.2996 39.5007 50.1996 39.5007 50.0996 39.5007C48.6996 39.4007 48.1996 38.7008 48.1996 38.7008L47.4996 36.8008L44.1996 38.0007L44.8996 39.9008C44.8996 39.9008 44.8996 40.7008 43.8996 41.8008L43.6996 42.0007C42.4996 43.0007 41.6996 42.9008 41.6996 42.9008L39.7996 42.1008L38.2996 45.3008L40.1996 46.1008C40.1996 46.1008 40.7996 46.7008 40.7996 48.2008C40.7996 48.3008 40.7996 48.4007 40.7996 48.5007C40.6996 49.9007 39.9996 50.4008 39.9996 50.4008L38.0996 51.1008L39.2996 54.4008L41.1996 53.7008C41.1996 53.7008 41.9996 53.7008 43.0996 54.7008C43.2996 54.9008 43.3996 55.0008 43.5996 55.2008C44.3996 56.2008 44.2996 57.0007 44.2996 57.0007L43.4996 58.9008L46.6996 60.4008L47.4996 58.5007C47.4996 58.5007 48.1996 57.8008 49.8996 57.9008C51.3996 58.0008 51.8996 58.7008 51.8996 58.7008L52.5996 60.6008L55.8996 59.4008L55.1996 57.5007C55.1996 57.5007 55.1996 56.5008 56.4996 55.3008C57.5996 54.4008 58.3996 54.5007 58.3996 54.5007L58.1996 54.6008ZM47.5996 53.8008C44.7996 52.5008 43.5996 49.3007 44.8996 46.5007C46.1996 43.7007 49.3996 42.5008 52.1996 43.8008C54.9996 45.1008 56.1996 48.3008 54.8996 51.1008C53.5996 53.9008 50.3996 55.1008 47.5996 53.8008Z" fill="#2FA6D0" stroke="black" stroke-miterlimit="10"/>
<path d="M66.5998 41L67.3998 41.7001L68.5998 40.4L67.7998 39.7001C67.7998 39.7001 67.5998 39.4001 67.7998 38.7001C67.7998 38.6001 67.8998 38.4 67.8998 38.3C68.1998 37.6 68.5998 37.5 68.5998 37.5H69.6998V35.6001H68.5998C68.5998 35.6001 68.1998 35.6 67.7998 34.8C67.7998 34.8 67.7998 34.7001 67.7998 34.6001C67.4998 33.9001 67.6998 33.5 67.6998 33.5L68.3998 32.7001L67.0998 31.5L66.3998 32.3C66.3998 32.3 65.9998 32.5 65.2998 32.3C65.2998 32.3 65.1998 32.3 65.0998 32.3C64.3998 32 64.2998 31.6001 64.2998 31.6001V30.5H62.3998V31.6001C62.3998 31.6001 62.3998 32 61.5998 32.4C61.5998 32.4 61.4998 32.4 61.3998 32.4C60.6998 32.7 60.2998 32.5 60.2998 32.5L59.4998 31.8L58.2998 33.1001L59.0998 33.8C59.0998 33.8 59.2998 34.2 59.0998 34.9C59.0998 34.9 59.0998 35.0001 59.0998 35.1001C58.7998 35.8001 58.3998 35.9 58.3998 35.9H57.2998V37.8H58.3998C58.3998 37.8 58.7998 37.8001 59.1998 38.6001C59.1998 38.7001 59.1998 38.8 59.3998 38.9C59.5998 39.5 59.3998 39.9 59.3998 39.9L58.6998 40.7001L59.9998 41.9L60.6998 41.1001C60.6998 41.1001 61.0998 40.9001 61.9998 41.1001C62.6998 41.4001 62.7998 41.8 62.7998 41.8V42.9H64.6998V41.8C64.6998 41.8 64.6998 41.3 65.5998 41C66.2998 40.7 66.5998 41 66.5998 41ZM61.4998 38.8C60.3998 37.7 60.2998 35.9 61.3998 34.8C62.4998 33.7 64.2998 33.6001 65.3998 34.7001C66.4998 35.8001 66.5998 37.6001 65.4998 38.7001C64.3998 39.8001 62.5998 39.9 61.4998 38.8Z" fill="#2FA6D0" stroke="black" stroke-miterlimit="10"/>
<path d="M219.3 11H162.5V48.3H219.3V11Z" fill="#2FA6D0" stroke="black" stroke-miterlimit="10"/>
<path d="M214.4 16.1016H167.4V43.2015H214.4V16.1016Z" fill="#2FA6D0" stroke="black" stroke-miterlimit="10"/>
<path d="M193.6 40.8015L190.2 20.8015L185.9 30.1016H175.7V29.3015H185.3L190.6 18.1016L193.8 37.0015L196.4 26.9015H206.1V27.7015H197L193.6 40.8015Z" fill="#2FA6D0" stroke="black" stroke-miterlimit="10"/>
<path d="M199.3 48.3008H182.4V53.1008H199.3V48.3008Z" fill="#2FA6D0" stroke="black" stroke-miterlimit="10"/>
<path d="M204.4 53.1016H177.5V55.7015H204.4V53.1016Z" fill="#2FA6D0" stroke="black" stroke-miterlimit="10"/>
<path d="M216.4 45.3984H165.3V13.8984H216.4V45.3984ZM165.7 45.0985H216.2V14.1985H165.7V45.0985Z" fill="#2FA6D0" stroke="black" stroke-miterlimit="10"/>
<path d="M28.3714 93.6118C31.9578 92.9601 34.3367 89.5245 33.685 85.9381C33.0332 82.3518 29.5976 79.9728 26.0113 80.6246C22.4249 81.2763 20.0459 84.712 20.6977 88.2983C21.3494 91.8846 24.7851 94.2636 28.3714 93.6118Z" fill="#2FA6D0" stroke="black" stroke-miterlimit="10"/>
<path d="M52.0996 89C52.0996 87.9 51.1996 87 50.0996 87C48.9996 87 48.0996 87.9 48.0996 89C48.0996 90.1 48.9996 91 50.0996 91C51.1996 91 52.0996 90.1 52.0996 89Z" fill="#2FA6D0" stroke="black" stroke-miterlimit="10"/>
<path d="M26.8004 97.3V94C23.2004 94 20.2004 91 20.2004 87.4C20.2004 83.8 23.2004 80.8 26.8004 80.8V77.5C31.8004 77.5 36.0004 81.3001 36.6004 86.1001C36.0004 81.2001 31.8004 77.5 26.8004 77.5C21.8004 77.5 16.9004 81.9 16.9004 87.4C16.9004 92.9 21.3004 97.3 26.8004 97.3C32.3004 97.3 32.3004 96.1001 34.1004 94.1001C32.3004 96.1001 29.7004 97.3 26.8004 97.3Z" fill="#2FA6D0"/>
<path d="M26.8004 97.3V94C23.2004 94 20.2004 91 20.2004 87.4C20.2004 83.8 23.2004 80.8 26.8004 80.8V77.5M26.8004 97.3C21.3004 97.3 16.9004 92.9 16.9004 87.4C16.9004 81.9 21.8004 77.5 26.8004 77.5M26.8004 97.3C32.3004 97.3 32.3004 96.1001 34.1004 94.1001C32.3004 96.1001 29.7004 97.3 26.8004 97.3ZM26.8004 77.5C31.8004 77.5 36.0004 81.3001 36.6004 86.1001C36.0004 81.2001 31.8004 77.5 26.8004 77.5Z" stroke="black" stroke-miterlimit="10"/>
<path d="M26.7998 77.5V80.8C30.3998 80.8 33.3998 83.8 33.3998 87.4C33.3998 91 30.3998 94 26.7998 94V97.3C29.6998 97.3 32.2998 96.1001 34.0998 94.1001C34.0998 94.1001 34.1998 94 34.2998 93.9C35.7998 92.2 36.6998 89.9 36.6998 87.4C36.6998 84.9 36.6998 86.6001 36.6998 86.1001C36.0998 81.2001 31.8998 77.5 26.8998 77.5H26.7998Z" fill="#2FA6D0" stroke="black" stroke-miterlimit="10"/>
<path d="M52.7996 89C52.7996 87.5 51.5996 86.3 50.0996 86.3V85C47.8996 85 46.0996 86.8 46.0996 89C46.0996 91.2 47.8996 93 50.0996 93V91.7001C51.5996 91.7001 52.7996 90.5 52.7996 89ZM48.0996 89C48.0996 87.9 48.9996 87 50.0996 87C51.1996 87 52.0996 87.9 52.0996 89C52.0996 90.1 51.1996 91 50.0996 91C48.9996 91 48.0996 90.1 48.0996 89Z" fill="#2FA6D0" stroke="black" stroke-miterlimit="10"/>
<path d="M53.9004 87.8008C53.9004 88.0008 53.9004 88.2008 54.0004 88.3008C54.0004 88.1008 54.0004 87.9008 53.9004 87.8008Z" fill="#2FA6D0" stroke="black" stroke-miterlimit="10"/>
<path d="M53.7998 87.4023C53.7998 87.5023 53.7998 87.6024 53.8998 87.8024C53.8998 87.7024 53.8998 87.6023 53.7998 87.4023Z" fill="#2FA6D0" stroke="black" stroke-miterlimit="10"/>
<path d="M54.1 89.6016C54.1 90.2016 53.8 90.7015 53.5 91.2015C53.8 90.7015 54 90.2016 54.1 89.6016Z" fill="#2FA6D0" stroke="black" stroke-miterlimit="10"/>
<path d="M54.0998 88.3015C54.0998 88.1015 54.0998 87.9015 53.9998 87.8015C53.9998 87.7015 53.9998 87.6015 53.8998 87.4015C53.2998 86.1015 51.8998 85.1016 50.2998 85.1016V86.4015C51.7998 86.4015 52.9998 87.6016 52.9998 89.1016C52.9998 90.6016 51.7998 91.8015 50.2998 91.8015V93.1016C51.6998 93.1016 52.9998 92.4015 53.6998 91.3015C53.9998 90.8015 54.1998 90.3015 54.2998 89.7015C54.2998 89.5015 54.2998 89.3016 54.2998 89.1016C54.2998 88.9016 54.2998 88.8015 54.2998 88.7015V88.5015L54.0998 88.3015Z" fill="#2FA6D0" stroke="black" stroke-miterlimit="10"/>
<path d="M33.1002 71.9015C35.0002 71.9015 36.5002 70.4015 36.5002 68.5015C36.5002 66.6015 35.0002 65.1016 33.1002 65.1016C31.2002 65.1016 29.7002 66.6015 29.7002 68.5015C29.7002 70.4015 31.2002 71.9015 33.1002 71.9015Z" fill="#2FA6D0" stroke="black" stroke-miterlimit="10"/>
<path d="M19.1002 102.402C16.7002 102.402 14.7002 104.402 14.7002 106.802C14.7002 109.202 16.7002 111.202 19.1002 111.202C21.5002 111.202 23.5002 109.202 23.5002 106.802C23.5002 104.402 21.5002 102.402 19.1002 102.402Z" fill="#2FA6D0" stroke="black" stroke-miterlimit="10"/>
<path d="M14.451 74.3901C15.4184 74.1614 16.0173 73.1917 15.7886 72.2243C15.5599 71.2568 14.5903 70.658 13.6228 70.8867C12.6554 71.1154 12.0565 72.085 12.2852 73.0524C12.5139 74.0199 13.4835 74.6188 14.451 74.3901Z" fill="#2FA6D0" stroke="black" stroke-miterlimit="10"/>
<path d="M39.9926 77.4997C40.0308 76.5063 39.2563 75.6701 38.263 75.6319C37.2696 75.5938 36.4334 76.3681 36.3953 77.3615C36.3571 78.3549 37.1314 79.1911 38.1248 79.2293C39.1182 79.2674 39.9544 78.4931 39.9926 77.4997Z" fill="#2FA6D0" stroke="black" stroke-miterlimit="10"/>
<path d="M3.5 86.9023C2.1 86.9023 1 88.0023 1 89.4023C1 90.8023 2.1 91.9023 3.5 91.9023C4.9 91.9023 6 90.8023 6 89.4023C6 88.0023 4.9 86.9023 3.5 86.9023Z" fill="#2FA6D0" stroke="black" stroke-miterlimit="10"/>
<path d="M226.5 126.602H205V154.501H226.5V126.602Z" fill="#2FA6D0" stroke="black" stroke-miterlimit="10"/>
<path d="M223.9 128.801H207.5V136.501H223.9V128.801Z" fill="#2FA6D0" stroke="black" stroke-miterlimit="10"/>
<path d="M214.5 140.1H212.4V138H210.7V140.1H208.6V141.8H210.7V143.9H212.4V141.8H214.5V140.1Z" fill="#2FA6D0" stroke="black" stroke-miterlimit="10"/>
<path d="M214.3 147.601L213 146.301L211.5 147.801L210.1 146.301L208.8 147.601L210.3 149.001L208.8 150.501L210.1 151.701L211.5 150.301L213 151.701L214.3 150.501L212.8 149.001L214.3 147.601Z" fill="#2FA6D0" stroke="black" stroke-miterlimit="10"/>
<path d="M223 140.102H217.1V141.901H223V140.102Z" fill="#2FA6D0" stroke="black" stroke-miterlimit="10"/>
<path d="M221.473 146.227L217.301 150.398L218.574 151.671L222.745 147.499L221.473 146.227Z" fill="#2FA6D0" stroke="black" stroke-miterlimit="10"/>
<path d="M218.9 146.3C219.3 146.7 219.3 147.4 218.9 147.8C218.5 148.2 217.8 148.2 217.4 147.8C217 147.4 217 146.7 217.4 146.3C217.8 145.9 218.5 145.9 218.9 146.3Z" fill="#2FA6D0" stroke="black" stroke-miterlimit="10"/>
<path d="M222.699 150.198C223.099 150.598 223.099 151.298 222.699 151.698C222.299 152.098 221.599 152.098 221.199 151.698C220.799 151.298 220.799 150.598 221.199 150.198C221.599 149.798 222.299 149.798 222.699 150.198Z" fill="#2FA6D0" stroke="black" stroke-miterlimit="10"/>
<path d="M82.0996 16.5H78.0996V19.1001H82.0996V16.5Z" fill="#2FA6D0" stroke="black" stroke-miterlimit="10"/>
<path d="M82.0996 13H78.0996V15.6001H82.0996V13Z" fill="#2FA6D0" stroke="black" stroke-miterlimit="10"/>
<path d="M82.0996 20.1016H78.0996V28.3015H82.0996V20.1016Z" fill="#2FA6D0" stroke="black" stroke-miterlimit="10"/>
<path d="M77.0996 16.5H73.0996V19.1001H77.0996V16.5Z" fill="#2FA6D0" stroke="black" stroke-miterlimit="10"/>
<path d="M77.0996 13H73.0996V15.6001H77.0996V13Z" fill="#2FA6D0" stroke="black" stroke-miterlimit="10"/>
<path d="M77.0996 9.5H73.0996V12.1001H77.0996V9.5Z" fill="#2FA6D0" stroke="black" stroke-miterlimit="10"/>
<path d="M77.0996 6H73.0996V8.6001H77.0996V6Z" fill="#2FA6D0" stroke="black" stroke-miterlimit="10"/>
<path d="M77.0996 20.1016H73.0996V28.3015H77.0996V20.1016Z" fill="#2FA6D0" stroke="black" stroke-miterlimit="10"/>
<path d="M87.2998 20.1016H83.2998V22.7015H87.2998V20.1016Z" fill="#2FA6D0" stroke="black" stroke-miterlimit="10"/>
<path d="M87.2998 16.6016H83.2998V19.2015H87.2998V16.6016Z" fill="#2FA6D0" stroke="black" stroke-miterlimit="10"/>
<path d="M91.7998 25.6992H87.7998V28.2992H91.7998V25.6992Z" fill="#2FA6D0" stroke="black" stroke-miterlimit="10"/>
<path d="M87.2998 23.6992H83.2998V28.2992H87.2998V23.6992Z" fill="#2FA6D0" stroke="black" stroke-miterlimit="10"/>
<path d="M239.4 41.4984C238.8 40.9984 238 40.6984 236.8 40.3984L235.8 40.1985V36.3984C235.8 36.3984 235.9 36.3984 236 36.3984C236.7 36.7984 237.2 37.3985 237.2 38.2985H240.2C240.2 36.6985 239.6 35.4985 238.4 34.6985C237.6 34.0985 236.8 33.7985 235.8 33.5985V31.3984H233.2V33.4984C231.9 33.6984 230.8 34.0985 230 34.7985C229 35.6985 228.5 36.7985 228.5 38.0985C228.5 39.3985 229 40.5985 230 41.2985C230.6 41.6985 231.6 42.0984 233.1 42.3984V46.4984C232.5 46.3984 232.1 46.0985 231.8 45.6985C231.5 45.3985 231.3 44.8985 231.2 44.1985H228.2C228.2 45.7985 228.8 46.9984 229.9 47.8984C230.7 48.5984 231.8 48.9985 233.1 49.0985V51.2985H235.7V49.1985C237.1 48.9985 238.2 48.5984 239 47.8984C240.1 46.9984 240.6 45.8984 240.6 44.4984C240.6 43.0984 240.2 42.0984 239.3 41.3984L239.4 41.4984ZM232.2 39.1985C231.7 38.8985 231.5 38.4984 231.5 37.9984C231.5 37.4984 231.7 36.9985 232.2 36.5985C232.5 36.3985 232.8 36.2985 233.2 36.1985V39.4984C232.7 39.3984 232.4 39.1985 232.2 39.0985V39.1985ZM236.4 46.4984C236.2 46.4984 236.1 46.4985 235.9 46.5985V43.0985C236.4 43.1985 236.8 43.3985 237.1 43.5985C237.5 43.8985 237.8 44.2985 237.8 44.6985C237.8 45.4985 237.4 46.0984 236.5 46.3984L236.4 46.4984Z" fill="#2FA6D0" stroke="black" stroke-miterlimit="10"/>
<path d="M93.0002 137H89.1002L85.4002 143.4L81.6002 137H77.7002L82.5002 145.1H80.7002V147.7H83.6002V148.2H80.7002V150.8H83.6002V154.2H87.1002V150.8H90.0002V148.2H87.1002V147.7H90.0002V145.1H88.2002L93.0002 137Z" fill="#2FA6D0" stroke="black" stroke-miterlimit="10"/>
<path d="M53.8002 150C53.4002 149.5 52.8002 149.2 52.2002 148.9C53.2002 148.2 53.8002 147 53.8002 145.7C53.8002 144.4 53.8002 145.3 53.8002 145.2C53.3002 145.2 50.8002 145.1 49.9002 143.5C49.0002 145.1 46.5002 145.2 46.0002 145.2C46.0002 145.4 46.0002 145.6 46.0002 145.7C46.0002 147 46.6002 148.2 47.6002 148.9C47.0002 149.1 46.5002 149.5 46.0002 150C45.2002 150.8 44.7002 151.9 44.7002 153.2V156H55.1002V153.2C55.1002 152 54.6002 150.9 53.8002 150Z" fill="#2FA6D0" stroke="black" stroke-miterlimit="10"/>
<path d="M45.4004 145.2V148C45.4004 148.7 45.6004 149.4 45.9004 150C46.3004 149.5 46.9004 149.2 47.5004 148.9C46.5004 148.2 45.9004 147 45.9004 145.7C45.9004 144.4 45.9004 145.3 45.9004 145.2C46.4004 145.2 48.9004 145.1 49.8004 143.5V141.8V141H49.5004C47.2004 141 45.4004 142.8 45.4004 145.1V145.2Z" fill="#2FA6D0" stroke="black" stroke-miterlimit="10"/>
<path d="M50.2007 141.198H49.8008V141.798C49.8008 141.898 49.8008 141.898 49.8008 141.898V143.599C49.8008 143.599 50.4008 144.599 52.1008 145.099C52.1008 145.099 52.2008 145.099 52.3008 145.099C52.3008 145.099 52.5008 145.099 52.6008 145.099C52.6008 145.099 52.6007 145.099 52.7007 145.099C52.8007 145.099 52.9008 145.099 53.1008 145.099C53.3008 145.099 53.4008 145.099 53.6008 145.099C53.6008 145.299 53.6008 145.499 53.6008 145.599C53.6008 146.899 53.0007 147.998 52.0007 148.798C52.6007 148.998 53.1008 149.398 53.6008 149.798C53.9008 149.198 54.1008 148.498 54.1008 147.798V144.998C54.1008 142.698 52.3007 140.898 50.0007 140.898L50.2007 141.198Z" fill="#2FA6D0" stroke="black" stroke-miterlimit="10"/>
<path d="M106.7 1V2.6001H121.4V20.9H122.8V1H106.7Z" fill="#2FA6D0" stroke="black" stroke-miterlimit="10"/>
<path d="M118.2 23.6016H104.1V3.10156H121V20.5015L118.2 23.6016Z" fill="#2FA6D0" stroke="black" stroke-miterlimit="10"/>
<path d="M121 20.5H118.2V23.6001L121 20.5Z" fill="#2FA6D0" stroke="black" stroke-miterlimit="10"/>
<path d="M119.4 5.80078H109.2V6.10083H119.4V5.80078Z" fill="#2FA6D0" stroke="black" stroke-miterlimit="10"/>
<path d="M119.4 6.89844H105.4V7.19849H119.4V6.89844Z" fill="#2FA6D0" stroke="black" stroke-miterlimit="10"/>
<path d="M119.4 8.10156H105.4V8.40149H119.4V8.10156Z" fill="#2FA6D0" stroke="black" stroke-miterlimit="10"/>
<path d="M119.4 15.1992H105.4V15.4991H119.4V15.1992Z" fill="#2FA6D0" stroke="black" stroke-miterlimit="10"/>
<path d="M119.4 16.5H105.4V16.8H119.4V16.5Z" fill="#2FA6D0" stroke="black" stroke-miterlimit="10"/>
<path d="M119.4 17.8008H105.4V18.1008H119.4V17.8008Z" fill="#2FA6D0" stroke="black" stroke-miterlimit="10"/>
<path d="M119.4 19H105.4V19.3H119.4V19Z" fill="#2FA6D0" stroke="black" stroke-miterlimit="10"/>
<path d="M116.6 20.3008H105.4V20.6008H116.6V20.3008Z" fill="#2FA6D0" stroke="black" stroke-miterlimit="10"/>
<path d="M114.3 9.69922H105.4V14.0992H114.3V9.69922Z" fill="#2FA6D0" stroke="black" stroke-miterlimit="10"/>
<path d="M119.1 9.69922H115.1V14.0992H119.1V9.69922Z" fill="#2FA6D0" stroke="black" stroke-miterlimit="10"/>
<path d="M129.4 154.198H115.1L117.5 147.898H127.1L129.4 154.198Z" fill="#2FA6D0" stroke="black" stroke-miterlimit="10"/>
<path d="M144.1 154.198H129.8L132.1 147.898H141.8L144.1 154.198Z" fill="#2FA6D0" stroke="black" stroke-miterlimit="10"/>
<path d="M158.8 154.198H144.5L146.8 147.898H156.5L158.8 154.198Z" fill="#2FA6D0" stroke="black" stroke-miterlimit="10"/>
<path d="M136.7 147.101H122.5L124.8 140.801H134.4L136.7 147.101Z" fill="#2FA6D0" stroke="black" stroke-miterlimit="10"/>
<path d="M151.4 147.101H137.2L139.5 140.801H149.1L151.4 147.101Z" fill="#2FA6D0" stroke="black" stroke-miterlimit="10"/>
<path d="M144.3 140.3H130L132.4 134H142L144.3 140.3Z" fill="#2FA6D0" stroke="black" stroke-miterlimit="10"/>
<path d="M230 104.001C228.6 102.601 226.7 101.801 224.7 101.801C222.7 101.801 220.8 102.601 219.4 104.001C218 105.401 217.2 107.301 217.2 109.301C217.2 111.301 218 113.201 219.4 114.601C220.8 116.001 222.7 116.801 224.7 116.801C226.7 116.801 228.6 116.001 230 114.601C231.4 113.201 232.2 111.301 232.2 109.301C232.2 107.301 231.4 105.401 230 104.001ZM225 116.201V115.001H224.4V116.201C220.8 116.101 217.9 113.101 217.7 109.501H218.9V108.901H217.7C217.8 105.301 220.8 102.401 224.4 102.201V103.401H225V102.201C228.6 102.301 231.5 105.301 231.7 108.901H230.5V109.501H231.7C231.6 113.101 228.6 116.001 225 116.201Z" fill="#2FA6D0" stroke="black" stroke-miterlimit="10"/>
<path d="M225 104.402H224.4V109.602H226.8V109.002H225V104.402Z" fill="#2FA6D0" stroke="black" stroke-miterlimit="10"/>
<path d="M140.4 62.3984L133.5 58.3984L126.6 62.3984L133.5 66.3984L140.4 62.3984Z" fill="#2FA6D0" stroke="black" stroke-miterlimit="10"/>
<path d="M126.6 62.3984V106.298L133.5 110.298V66.3984L126.6 62.3984Z" fill="#2FA6D0" stroke="black" stroke-miterlimit="10"/>
<path d="M133.5 66.3984V110.298L140.4 106.298V62.3984L133.5 66.3984Z" fill="#2FA6D0" stroke="black" stroke-miterlimit="10"/>
<path d="M130 95L123.1 91L116.2 95L123.1 99L130 95Z" fill="#2FA6D0" stroke="black" stroke-miterlimit="10"/>
<path d="M116.2 95V112.7L123.1 116.7V99L116.2 95Z" fill="#2FA6D0" stroke="black" stroke-miterlimit="10"/>
<path d="M123.101 99V116.7L130.001 112.7V95L123.101 99Z" fill="#2FA6D0" stroke="black" stroke-miterlimit="10"/>
<path d="M119.7 80.6992L112.8 76.6992L105.9 80.6992L112.8 84.6992L119.7 80.6992Z" fill="#2FA6D0" stroke="black" stroke-miterlimit="10"/>
<path d="M105.9 80.6992V118.999L112.8 122.999V84.6992L105.9 80.6992Z" fill="#2FA6D0" stroke="black" stroke-miterlimit="10"/>
<path d="M112.801 84.6992V122.999L119.701 118.999V80.6992L112.801 84.6992Z" fill="#2FA6D0" stroke="black" stroke-miterlimit="10"/>
<path d="M109.3 107.599L102.4 103.699L95.5 107.599L102.4 111.599L109.3 107.599Z" fill="#2FA6D0" stroke="black" stroke-miterlimit="10"/>
<path d="M95.5 107.598V125.298L102.4 129.298V111.598L95.5 107.598Z" fill="#2FA6D0" stroke="black" stroke-miterlimit="10"/>
<path d="M102.4 111.598V129.298L109.3 125.298V107.598L102.4 111.598Z" fill="#2FA6D0" stroke="black" stroke-miterlimit="10"/>
<path d="M127.5 39.0985L123.3 42.3984L126.4 43.4984L115.5 67.8984L99.8998 62.2985L85.7998 93.7985L88.9998 94.9984L101.7 66.4984L116.9 71.9984L117.3 72.0985L129.6 44.5985L132.6 45.6985L132.1 40.7985L131.6 35.8984L127.5 39.0985Z" fill="#2FA6D0" stroke="black" stroke-miterlimit="10"/>
<path d="M167.6 82.3015L168.1 81.8015C167.9 81.7015 167.7 81.6016 167.5 81.6016C167.1 81.6016 166.7 81.9015 166.6 82.3015H167.6Z" fill="#2FA6D0" stroke="black" stroke-miterlimit="10"/>
<path d="M212.2 77.1992C212.3 77.5992 212.7 77.7992 213.1 77.7992C213.5 77.7992 213.5 77.7992 213.7 77.5992L213.1 77.1992H212.2Z" fill="#2FA6D0" stroke="black" stroke-miterlimit="10"/>
<path d="M195.7 73.1008V72.5007H196.6C196.5 72.1007 196.1 71.8008 195.7 71.8008C195.3 71.8008 194.7 72.2008 194.7 72.8008C194.7 73.4008 195.1 73.8008 195.7 73.8008C196.3 73.8008 196.5 73.5008 196.6 73.1008H195.7Z" fill="#2FA6D0" stroke="black" stroke-miterlimit="10"/>
<path d="M223 73.3008C223 73.2008 223.1 73.0008 223.1 72.8008C223.1 72.3008 222.7 71.8008 222.1 71.8008C221.5 71.8008 221.3 72.1007 221.2 72.5007H222.3L223 73.2008V73.3008Z" fill="#2FA6D0" stroke="black" stroke-miterlimit="10"/>
<path d="M182.7 82.1016C182.7 82.2016 182.6 82.4016 182.6 82.6016C182.6 83.1016 183 83.6016 183.6 83.6016C184.2 83.6016 184.4 83.3015 184.5 82.9015H183.4L182.7 82.2015V82.1016Z" fill="#2FA6D0" stroke="black" stroke-miterlimit="10"/>
<path d="M184.5 82.3015C184.4 81.9015 184 81.6016 183.6 81.6016C183.2 81.6016 183.3 81.6015 183.1 81.7015L183.7 82.3015H184.5Z" fill="#2FA6D0" stroke="black" stroke-miterlimit="10"/>
<path d="M221.2 73.1016C221.3 73.5016 221.7 73.8015 222.1 73.8015C222.5 73.8015 222.4 73.8015 222.6 73.7015L222 73.1016H221.2Z" fill="#2FA6D0" stroke="black" stroke-miterlimit="10"/>
<path d="M166.6 82.9009C166.7 83.3009 167.1 83.601 167.5 83.601C167.9 83.601 168.5 83.201 168.5 82.601C168.5 82.001 168.5 82.4009 168.5 82.3009L167.9 82.9009H166.7H166.6Z" fill="#2FA6D0" stroke="black" stroke-miterlimit="10"/>
<path d="M214 77.1008C214 77.0008 214 76.9008 214 76.8008C214 76.3008 213.6 75.8008 213 75.8008C212.4 75.8008 212.1 76.1008 212 76.6008H213.1L213.9 77.1008H214Z" fill="#2FA6D0" stroke="black" stroke-miterlimit="10"/>
<path d="M238.1 73.1016L237.6 73.6016C237.8 73.7016 238 73.8015 238.2 73.8015C238.6 73.8015 239 73.5016 239.1 73.1016H238.1Z" fill="#2FA6D0" stroke="black" stroke-miterlimit="10"/>
<path d="M239.1 72.5007C239 72.1007 238.6 71.8008 238.2 71.8008C237.8 71.8008 237.2 72.2008 237.2 72.8008C237.2 73.4008 237.2 73.0008 237.2 73.1008L237.8 72.5007H239H239.1Z" fill="#2FA6D0" stroke="black" stroke-miterlimit="10"/>
<path d="M202.6 72.5H197C197 72.6 197 72.7 197 72.8C197 72.9 197 73.0001 197 73.1001H202.6C202.6 73.1001 202.6 72.9 202.6 72.8C202.6 72.7 202.6 72.6 202.6 72.5Z" fill="#2FA6D0" stroke="black" stroke-miterlimit="10"/>
<path d="M211.8 68.6992H208.7C208.7 68.6992 208.7 68.8991 208.7 68.9991C208.7 69.0991 208.7 69.1992 208.7 69.2992H211.8C211.8 69.2992 211.8 69.0991 211.8 68.9991C211.8 68.8991 211.8 68.7992 211.8 68.6992Z" fill="#2FA6D0" stroke="black" stroke-miterlimit="10"/>
<path d="M206.6 69.5L204.3 71.8C204.5 71.8 204.6 72.0001 204.7 72.2001L207 69.9C206.8 69.8 206.7 69.6 206.6 69.5Z" fill="#2FA6D0" stroke="black" stroke-miterlimit="10"/>
<path d="M216.1 71.8015L213.9 69.6016C213.8 69.8016 213.7 69.9015 213.5 70.0015L215.7 72.2015C215.8 72.0015 216 71.9015 216.1 71.8015Z" fill="#2FA6D0" stroke="black" stroke-miterlimit="10"/>
<path d="M226.2 76.5L223.2 73.5C223.1 73.7 223 73.8 222.8 73.9L225.8 76.9C225.8 76.7 226 76.6 226.2 76.5Z" fill="#2FA6D0" stroke="black" stroke-miterlimit="10"/>
<path d="M223 73.3015L222.3 72.6016H221.2C221.2 72.6016 221.2 72.8015 221.2 72.9015C221.2 73.0015 221.2 73.1015 221.2 73.2015H222L222.6 73.8015C222.8 73.8015 222.9 73.6015 223 73.4015V73.3015Z" fill="#2FA6D0" stroke="black" stroke-miterlimit="10"/>
<path d="M245.299 72.5H239.399C239.399 72.6 239.399 72.7 239.399 72.8C239.399 72.9 239.399 73.0001 239.399 73.1001H245.299C245.299 73.1001 245.299 72.9 245.299 72.8C245.299 72.7 245.299 72.6 245.299 72.5Z" fill="#2FA6D0" stroke="black" stroke-miterlimit="10"/>
<path d="M220.8 72.5H217.8C217.8 72.5 217.8 72.7 217.8 72.8C217.8 72.9 217.8 73.0001 217.8 73.1001H220.8C220.8 73.1001 220.8 72.9 220.8 72.8C220.8 72.7 220.8 72.6 220.8 72.5Z" fill="#2FA6D0" stroke="black" stroke-miterlimit="10"/>
<path d="M232.299 77.1992H227.899C227.899 77.1992 227.899 77.3991 227.899 77.4991C227.899 77.5991 227.899 77.6992 227.899 77.7992H232.299C232.299 77.7992 232.299 77.5991 232.299 77.4991C232.299 77.3991 232.299 77.2992 232.299 77.1992Z" fill="#2FA6D0" stroke="black" stroke-miterlimit="10"/>
<path d="M239.1 73.1001C239.1 73.1001 239.1 72.9 239.1 72.8C239.1 72.7 239.1 72.6 239.1 72.5H237.9L237.3 73.1001C237.3 73.3001 237.5 73.4001 237.6 73.6001L238.1 73.1001H239.1Z" fill="#2FA6D0" stroke="black" stroke-miterlimit="10"/>
<path d="M237 73.4023L234 76.4023C234.2 76.4023 234.3 76.6024 234.4 76.8024L237.4 73.8024C237.2 73.7024 237.1 73.5023 237 73.4023Z" fill="#2FA6D0" stroke="black" stroke-miterlimit="10"/>
<path d="M195.7 73.1001H196.6C196.6 73.1001 196.6 72.9 196.6 72.8C196.6 72.7 196.6 72.6 196.6 72.5H195.7V73.1001Z" fill="#2FA6D0" stroke="black" stroke-miterlimit="10"/>
<path d="M218.2 79.8008L214.3 77.3008C214.3 77.5008 214.1 77.6008 214 77.8008L217.9 80.3008C217.9 80.1008 218.1 79.9008 218.2 79.8008Z" fill="#2FA6D0" stroke="black" stroke-miterlimit="10"/>
<path d="M188.4 75.8L185.6 72.5C185.6 72.7 185.4 72.8 185.2 72.9L188 76.1001C188.1 75.9001 188.2 75.8001 188.4 75.7001V75.8Z" fill="#2FA6D0" stroke="black" stroke-miterlimit="10"/>
<path d="M183.499 71.6016H173.399C173.399 71.6016 173.399 71.8015 173.399 71.9015C173.399 72.0015 173.399 72.1015 173.399 72.2015H183.499C183.499 72.2015 183.499 72.1015 183.499 72.0015C183.499 71.9015 183.499 71.7016 183.499 71.6016Z" fill="#2FA6D0" stroke="black" stroke-miterlimit="10"/>
<path d="M211.8 76.6016H190.2C190.2 76.6016 190.2 76.7015 190.2 76.8015C190.2 76.9015 190.2 77.1015 190.2 77.2015H211.9C211.9 77.1015 211.9 77.0015 211.9 76.8015C211.9 76.6015 211.9 76.7016 211.9 76.6016H211.8Z" fill="#2FA6D0" stroke="black" stroke-miterlimit="10"/>
<path d="M214 77.1016L213.2 76.6016H212.1C212.1 76.6016 212.1 76.7015 212.1 76.8015C212.1 76.9015 212.1 77.1015 212.1 77.2015H213L213.6 77.6016C213.8 77.5016 213.9 77.3016 213.9 77.1016H214Z" fill="#2FA6D0" stroke="black" stroke-miterlimit="10"/>
<path d="M171.199 72.4023L166.799 76.7024L166.399 77.2024L161.899 81.5023C162.099 81.5023 162.299 81.7024 162.399 81.8024L171.499 72.9023C171.299 72.8023 171.199 72.6023 171.099 72.4023H171.199Z" fill="#2FA6D0" stroke="black" stroke-miterlimit="10"/>
<path d="M166.9 76.8015L162.7 72.6016C162.7 72.8016 162.5 72.9015 162.3 73.0015L166.4 77.1016L166.8 76.8015H166.9Z" fill="#2FA6D0" stroke="black" stroke-miterlimit="10"/>
<path d="M168.7 82.0015L171.7 79.0015C171.5 79.0015 171.4 78.8016 171.3 78.6016L168.3 81.6016C168.5 81.7016 168.6 81.9015 168.7 82.0015Z" fill="#2FA6D0" stroke="black" stroke-miterlimit="10"/>
<path d="M173.399 78.2015H177.799C177.799 78.2015 177.799 78.0015 177.799 77.9015C177.799 77.8015 177.799 77.7016 177.799 77.6016H173.399C173.399 77.6016 173.399 77.8015 173.399 77.9015C173.399 78.0015 173.399 78.1015 173.399 78.2015Z" fill="#2FA6D0" stroke="black" stroke-miterlimit="10"/>
<path d="M179.5 78.9L182.5 81.9C182.6 81.7 182.7 81.6 182.9 81.5L179.9 78.5C179.9 78.7 179.7 78.8 179.5 78.9Z" fill="#2FA6D0" stroke="black" stroke-miterlimit="10"/>
<path d="M199.1 85.8992L201.4 83.5992C201.2 83.5992 201.1 83.3992 201 83.1992L198.7 85.4991C198.9 85.5991 199 85.7992 199.1 85.8992Z" fill="#2FA6D0" stroke="black" stroke-miterlimit="10"/>
<path d="M166.6 82.3008C166.6 82.3008 166.6 82.5008 166.6 82.6008C166.6 82.7008 166.6 82.8008 166.6 82.9008H167.8L168.4 82.3008C168.4 82.1008 168.2 82.0008 168.1 81.8008L167.6 82.3008H166.6Z" fill="#2FA6D0" stroke="black" stroke-miterlimit="10"/>
<path d="M184.899 82.9008H187.899C187.899 82.9008 187.899 82.7008 187.899 82.6008C187.899 82.5008 187.899 82.4008 187.899 82.3008H184.899C184.899 82.3008 184.899 82.5008 184.899 82.6008C184.899 82.7008 184.899 82.8008 184.899 82.9008Z" fill="#2FA6D0" stroke="black" stroke-miterlimit="10"/>
<path d="M189.5 83.5992L191.7 85.7992C191.8 85.5992 191.9 85.4992 192.1 85.3992L189.9 83.1992C189.8 83.3992 189.6 83.4992 189.5 83.5992Z" fill="#2FA6D0" stroke="black" stroke-miterlimit="10"/>
<path d="M193.8 86.7015H196.9C196.9 86.7015 196.9 86.5015 196.9 86.4015C196.9 86.3015 196.9 86.2016 196.9 86.1016H193.8C193.8 86.1016 193.8 86.3015 193.8 86.4015C193.8 86.5015 193.8 86.6015 193.8 86.7015Z" fill="#2FA6D0" stroke="black" stroke-miterlimit="10"/>
<path d="M203 82.9008H208.8C208.8 82.9008 208.8 82.7008 208.8 82.6008C208.8 82.5008 208.8 82.4008 208.8 82.3008H203C203 82.3008 203 82.5008 203 82.6008C203 82.7008 203 82.8008 203 82.9008Z" fill="#2FA6D0" stroke="black" stroke-miterlimit="10"/>
<path d="M160.5 82.3008H158C158 82.3008 158 82.5008 158 82.6008C158 82.7008 158 82.8008 158 82.9008H160.6C160.6 82.9008 160.6 82.7008 160.6 82.6008C160.6 82.5008 160.6 82.4008 160.6 82.3008H160.5Z" fill="#2FA6D0" stroke="black" stroke-miterlimit="10"/>
<path d="M162.7 82.9008H166.2C166.2 82.8008 166.2 82.7008 166.2 82.6008C166.2 82.5008 166.2 82.4008 166.2 82.3008H162.7C162.7 82.3008 162.7 82.5008 162.7 82.6008C162.7 82.7008 162.7 82.8008 162.7 82.9008Z" fill="#2FA6D0" stroke="black" stroke-miterlimit="10"/>
<path d="M182.7 82.1016L183.4 82.8015H184.5C184.5 82.8015 184.5 82.6015 184.5 82.5015C184.5 82.4015 184.5 82.3015 184.5 82.2015H183.7L183.1 81.6016C182.9 81.6016 182.8 81.8015 182.7 82.0015V82.1016Z" fill="#2FA6D0" stroke="black" stroke-miterlimit="10"/>
<path d="M166.2 82.9008C166.3 83.5008 166.9 83.9008 167.5 83.9008C168.1 83.9008 168.8 83.3008 168.8 82.6008C168.8 81.9008 168.8 82.2007 168.7 82.0007C168.7 81.8007 168.5 81.7008 168.3 81.6008C168.1 81.4008 167.8 81.3008 167.5 81.3008C166.9 81.3008 166.3 81.8008 166.2 82.4008C166.2 82.4008 166.2 82.6008 166.2 82.7008C166.2 82.8008 166.2 82.9007 166.2 83.0007V82.9008ZM167.5 81.6008C167.7 81.6008 167.9 81.6008 168.1 81.8008C168.3 81.9008 168.4 82.1008 168.4 82.3008C168.4 82.4008 168.4 82.5008 168.4 82.6008C168.4 83.1008 168 83.6008 167.4 83.6008C166.8 83.6008 166.6 83.3008 166.5 82.9008C166.5 82.9008 166.5 82.7008 166.5 82.6008C166.5 82.5008 166.5 82.4008 166.5 82.3008C166.6 81.9008 167 81.6008 167.4 81.6008H167.5Z" fill="#2FA6D0" stroke="black" stroke-miterlimit="10"/>
<path d="M171.7 78.9991C171.9 78.9991 172 79.0992 172.2 79.0992C172.7 79.0992 173.2 78.6992 173.3 78.1992C173.3 78.1992 173.3 77.9992 173.3 77.8992C173.3 77.7992 173.3 77.6992 173.3 77.5992C173.2 77.0992 172.7 76.6992 172.2 76.6992C171.7 76.6992 171.1 77.1992 171.1 77.7992C171.1 78.3992 171.1 78.1992 171.3 78.3992C171.4 78.5992 171.6 78.6992 171.7 78.7992V78.9991Z" fill="#2FA6D0" stroke="black" stroke-miterlimit="10"/>
<path d="M177.8 78.2008C177.9 78.7008 178.4 79.1008 178.9 79.1008C179.4 79.1008 179.3 79.1008 179.5 78.9008C179.7 78.8008 179.8 78.7007 179.9 78.5007C179.9 78.3007 180.1 78.1008 180.1 77.9008C180.1 77.3008 179.6 76.8008 179 76.8008C178.4 76.8008 178 77.2008 177.9 77.7008C177.9 77.7008 177.9 77.9007 177.9 78.0007C177.9 78.1007 177.9 78.2008 177.9 78.3008L177.8 78.2008Z" fill="#2FA6D0" stroke="black" stroke-miterlimit="10"/>
<path d="M182.5 81.9008C182.4 82.1008 182.3 82.3008 182.3 82.6008C182.3 83.3008 182.9 83.9008 183.6 83.9008C184.3 83.9008 184.8 83.5008 184.9 82.9008C184.9 82.9008 184.9 82.7008 184.9 82.6008C184.9 82.5008 184.9 82.4008 184.9 82.3008C184.8 81.7008 184.2 81.3008 183.6 81.3008C183 81.3008 183.1 81.3007 182.9 81.5007C182.7 81.6007 182.6 81.7008 182.5 81.9008ZM183.6 81.6008C184 81.6008 184.4 81.9008 184.5 82.3008C184.5 82.3008 184.5 82.5008 184.5 82.6008C184.5 82.7008 184.5 82.8008 184.5 82.9008C184.4 83.3008 184 83.6008 183.6 83.6008C183.2 83.6008 182.6 83.2008 182.6 82.6008C182.6 82.0008 182.6 82.3008 182.7 82.1008C182.7 81.9008 182.9 81.8008 183.1 81.7008C183.2 81.7008 183.4 81.6008 183.6 81.6008Z" fill="#2FA6D0" stroke="black" stroke-miterlimit="10"/>
<path d="M187.899 82.9015C187.999 83.4015 188.499 83.8015 188.999 83.8015C189.499 83.8015 189.399 83.8015 189.499 83.7015C189.699 83.7015 189.799 83.5015 189.899 83.3015C189.999 83.1015 190.099 82.9015 190.099 82.7015C190.099 82.1015 189.599 81.6016 188.999 81.6016C188.399 81.6016 187.999 82.0015 187.899 82.5015C187.899 82.5015 187.899 82.7015 187.899 82.8015C187.899 82.9015 187.899 83.0016 187.899 83.1016V82.9015Z" fill="#2FA6D0" stroke="black" stroke-miterlimit="10"/>
<path d="M191.7 85.8015C191.6 86.0015 191.5 86.2015 191.5 86.4015C191.5 87.0015 192 87.5015 192.6 87.5015C193.2 87.5015 193.6 87.1016 193.7 86.6016C193.7 86.6016 193.7 86.4015 193.7 86.3015C193.7 86.2015 193.7 86.1015 193.7 86.0015C193.6 85.5015 193.1 85.1016 192.6 85.1016C192.1 85.1016 192.2 85.1015 192 85.2015C191.8 85.2015 191.7 85.4016 191.6 85.6016L191.7 85.8015Z" fill="#2FA6D0" stroke="black" stroke-miterlimit="10"/>
<path d="M196.899 86.7024C196.999 87.2024 197.499 87.6024 197.999 87.6024C198.499 87.6024 199.099 87.1023 199.099 86.5023C199.099 85.9023 199.099 86.1023 198.999 86.0023C198.999 85.8023 198.799 85.7024 198.599 85.6024C198.399 85.5024 198.199 85.4023 197.999 85.4023C197.499 85.4023 196.999 85.8024 196.899 86.3024C196.899 86.3024 196.899 86.5024 196.899 86.6024C196.899 86.7024 196.899 86.8023 196.899 86.9023V86.7024Z" fill="#2FA6D0" stroke="black" stroke-miterlimit="10"/>
<path d="M201.4 83.6024C201.6 83.6024 201.7 83.7024 201.9 83.7024C202.4 83.7024 202.9 83.3023 203 82.9023C203 82.9023 203 82.7024 203 82.6024C203 82.5024 203 82.4024 203 82.3024C202.9 81.8024 202.4 81.4023 201.9 81.4023C201.4 81.4023 200.8 81.9023 200.8 82.5023C200.8 83.1023 200.8 82.9024 201 83.1024C201.1 83.3024 201.2 83.4023 201.4 83.5023V83.6024Z" fill="#2FA6D0" stroke="black" stroke-miterlimit="10"/>
<path d="M158 82.3024C157.9 81.8024 157.4 81.4023 156.9 81.4023C156.4 81.4023 155.8 81.9023 155.8 82.5023C155.8 83.1023 156.3 83.6024 156.9 83.6024C157.5 83.6024 157.9 83.2024 158 82.8024C158 82.8024 158 82.6023 158 82.5023C158 82.4023 158 82.3024 158 82.2024V82.3024Z" fill="#2FA6D0" stroke="black" stroke-miterlimit="10"/>
<path d="M208.8 82.9C208.9 83.4 209.4 83.7001 209.9 83.7001C210.4 83.7001 211 83.2001 211 82.6001C211 82.0001 210.5 81.5 209.9 81.5C209.3 81.5 208.9 81.9 208.8 82.4C208.8 82.4 208.8 82.6001 208.8 82.7001C208.8 82.8001 208.8 82.9 208.8 83V82.9Z" fill="#2FA6D0" stroke="black" stroke-miterlimit="10"/>
<path d="M239.4 72.5C239.3 71.9 238.7 71.5 238.1 71.5C237.5 71.5 236.8 72.1 236.8 72.8C236.8 73.5 236.8 73.2 236.9 73.4C236.9 73.6 237.1 73.7 237.3 73.8C237.5 74 237.8 74.1001 238.1 74.1001C238.7 74.1001 239.3 73.6 239.4 73C239.4 73 239.4 72.8001 239.4 72.7001C239.4 72.6001 239.4 72.5 239.4 72.4V72.5ZM238.1 73.8C237.9 73.8 237.7 73.8001 237.5 73.6001C237.3 73.5001 237.2 73.3001 237.2 73.1001C237.2 73.0001 237.2 72.9 237.2 72.8C237.2 72.3 237.6 71.8 238.2 71.8C238.8 71.8 239 72.1 239.1 72.5C239.1 72.5 239.1 72.7 239.1 72.8C239.1 72.9 239.1 73.0001 239.1 73.1001C239 73.5001 238.6 73.8 238.2 73.8H238.1Z" fill="#2FA6D0" stroke="black" stroke-miterlimit="10"/>
<path d="M233.9 76.5023C233.7 76.5023 233.6 76.4023 233.4 76.4023C232.9 76.4023 232.4 76.8024 232.3 77.3024C232.3 77.3024 232.3 77.5024 232.3 77.6024C232.3 77.7024 232.3 77.8023 232.3 77.9023C232.4 78.4023 232.9 78.8024 233.4 78.8024C233.9 78.8024 234.5 78.3024 234.5 77.7024C234.5 77.1024 234.5 77.3024 234.3 77.1024C234.2 76.9024 234 76.8024 233.9 76.7024V76.5023Z" fill="#2FA6D0" stroke="black" stroke-miterlimit="10"/>
<path d="M227.9 77.2008C227.8 76.7008 227.3 76.3008 226.8 76.3008C226.3 76.3008 226.4 76.3007 226.2 76.5007C226 76.6007 225.9 76.7008 225.8 76.9008C225.8 77.1008 225.6 77.3007 225.6 77.5007C225.6 78.1007 226.1 78.6008 226.7 78.6008C227.3 78.6008 227.7 78.2008 227.8 77.7008C227.8 77.7008 227.8 77.5008 227.8 77.4008C227.8 77.3008 227.8 77.2008 227.8 77.1008L227.9 77.2008Z" fill="#2FA6D0" stroke="black" stroke-miterlimit="10"/>
<path d="M223.2 73.5C223.3 73.3 223.4 73.1 223.4 72.8C223.4 72.1 222.8 71.5 222.1 71.5C221.4 71.5 220.9 71.9 220.8 72.5C220.8 72.5 220.8 72.7 220.8 72.8C220.8 72.9 220.8 73.0001 220.8 73.1001C220.9 73.7001 221.5 74.1001 222.1 74.1001C222.7 74.1001 222.6 74.1 222.8 73.9C223 73.8 223.1 73.7 223.2 73.5ZM222.1 73.8C221.7 73.8 221.3 73.5001 221.2 73.1001C221.2 73.1001 221.2 72.9 221.2 72.8C221.2 72.7 221.2 72.6 221.2 72.5C221.3 72.1 221.7 71.8 222.1 71.8C222.5 71.8 223.1 72.2 223.1 72.8C223.1 73.4 223.1 73.1 223 73.3C223 73.5 222.8 73.6001 222.6 73.7001C222.5 73.7001 222.3 73.8 222.1 73.8Z" fill="#2FA6D0" stroke="black" stroke-miterlimit="10"/>
<path d="M217.8 72.5015C217.7 72.0015 217.2 71.6016 216.7 71.6016C216.2 71.6016 216.3 71.6015 216.2 71.7015C216 71.7015 215.9 71.9016 215.8 72.1016C215.7 72.3016 215.6 72.5015 215.6 72.7015C215.6 73.3015 216.1 73.8015 216.7 73.8015C217.3 73.8015 217.7 73.4015 217.8 72.9015C217.8 72.9015 217.8 72.7016 217.8 72.6016C217.8 72.5016 217.8 72.4015 217.8 72.3015V72.5015Z" fill="#2FA6D0" stroke="black" stroke-miterlimit="10"/>
<path d="M213.899 69.6024C213.999 69.4024 214.099 69.2023 214.099 69.0023C214.099 68.4023 213.599 67.9023 212.999 67.9023C212.399 67.9023 211.999 68.3024 211.899 68.8024C211.899 68.8024 211.899 69.0024 211.899 69.1024C211.899 69.2024 211.899 69.3023 211.899 69.4023C211.999 69.9023 212.499 70.3024 212.999 70.3024C213.499 70.3024 213.399 70.3024 213.599 70.2024C213.799 70.2024 213.899 70.0024 213.999 69.8024L213.899 69.6024Z" fill="#2FA6D0" stroke="black" stroke-miterlimit="10"/>
<path d="M208.7 68.7008C208.6 68.2008 208.1 67.8008 207.6 67.8008C207.1 67.8008 206.5 68.3008 206.5 68.9008C206.5 69.5008 206.5 69.3008 206.6 69.4008C206.6 69.6008 206.8 69.7008 207 69.8008C207.2 69.9008 207.4 70.0007 207.6 70.0007C208.1 70.0007 208.6 69.6008 208.7 69.1008C208.7 69.1008 208.7 68.9008 208.7 68.8008C208.7 68.7008 208.7 68.6007 208.7 68.5007V68.7008Z" fill="#2FA6D0" stroke="black" stroke-miterlimit="10"/>
<path d="M204.3 71.7992C204.1 71.7992 204 71.6992 203.8 71.6992C203.3 71.6992 202.8 72.0991 202.7 72.4991C202.7 72.4991 202.7 72.6992 202.7 72.7992C202.7 72.8992 202.7 72.9992 202.7 73.0992C202.8 73.5992 203.3 73.9991 203.8 73.9991C204.3 73.9991 204.9 73.4992 204.9 72.8992C204.9 72.2992 204.9 72.4992 204.7 72.2992C204.6 72.0992 204.5 71.9992 204.3 71.8992V71.7992Z" fill="#2FA6D0" stroke="black" stroke-miterlimit="10"/>
<path d="M246.4 71.6992C245.9 71.6992 245.4 72.0991 245.3 72.4991C245.3 72.4991 245.3 72.6992 245.3 72.7992C245.3 72.8992 245.3 72.9992 245.3 73.0992C245.4 73.5992 245.9 73.9991 246.4 73.9991C246.9 73.9991 247.5 73.4992 247.5 72.8992C247.5 72.2992 247 71.7992 246.4 71.7992V71.6992Z" fill="#2FA6D0" stroke="black" stroke-miterlimit="10"/>
<path d="M196.999 72.5C196.899 71.9 196.299 71.5 195.699 71.5C195.099 71.5 194.399 72.1 194.399 72.8C194.399 73.5 194.999 74.1001 195.699 74.1001C196.399 74.1001 196.899 73.6 196.999 73C196.999 73 196.999 72.8001 196.999 72.7001C196.999 72.6001 196.999 72.5 196.999 72.4V72.5ZM195.699 73.8C195.199 73.8 194.699 73.4 194.699 72.8C194.699 72.2 195.099 71.8 195.699 71.8C196.299 71.8 196.499 72.1 196.599 72.5C196.599 72.5 196.599 72.7 196.599 72.8C196.599 72.9 196.599 73.0001 196.599 73.1001C196.499 73.5001 196.099 73.8 195.699 73.8Z" fill="#2FA6D0" stroke="black" stroke-miterlimit="10"/>
<path d="M161.9 81.5C161.8 81.5 161.7 81.5 161.6 81.5C161.1 81.5 160.6 81.9 160.5 82.4C160.5 82.4 160.5 82.6001 160.5 82.7001C160.5 82.8001 160.5 82.9 160.5 83C160.6 83.5 161.1 83.8 161.6 83.8C162.1 83.8 162.6 83.4 162.7 83C162.7 83 162.7 82.8001 162.7 82.7001C162.7 82.6001 162.7 82.5 162.7 82.4C162.7 82.2 162.5 82 162.4 81.9C162.3 81.8 162.1 81.7001 161.9 81.6001V81.5Z" fill="#2FA6D0" stroke="black" stroke-miterlimit="10"/>
<path d="M173.4 71.5992C173.3 71.0992 172.8 70.6992 172.3 70.6992C171.8 70.6992 171.2 71.1992 171.2 71.7992C171.2 72.3992 171.2 72.0992 171.3 72.2992C171.3 72.4992 171.5 72.5992 171.7 72.7992C171.9 72.8992 172.1 72.9991 172.4 72.9991C172.9 72.9991 173.4 72.5992 173.5 72.1992C173.5 72.1992 173.5 71.9992 173.5 71.8992C173.5 71.7992 173.5 71.6992 173.5 71.5992H173.4Z" fill="#2FA6D0" stroke="black" stroke-miterlimit="10"/>
<path d="M185.6 72.5023C185.6 72.3023 185.7 72.2023 185.7 72.0023C185.7 71.4023 185.2 70.9023 184.6 70.9023C184 70.9023 183.7 71.2024 183.5 71.7024C183.5 71.8024 183.5 72.0024 183.5 72.1024C183.5 72.2024 183.5 72.2024 183.5 72.3024C183.5 72.8024 184.1 73.3024 184.6 73.3024C185.1 73.3024 185.1 73.3024 185.3 73.1024C185.5 73.0024 185.6 72.8024 185.7 72.7024L185.6 72.5023Z" fill="#2FA6D0" stroke="black" stroke-miterlimit="10"/>
<path d="M190.1 76.6016C190.1 76.1016 189.5 75.6016 189 75.6016C188.5 75.6016 188.6 75.6015 188.4 75.8015C188.2 75.8015 188.1 76.0015 188 76.2015C187.9 76.4015 187.8 76.6015 187.8 76.8015C187.8 77.4015 188.3 77.9015 188.9 77.9015C189.5 77.9015 189.8 77.6016 190 77.1016C190 77.0016 190 76.9015 190 76.7015C190 76.5015 190 76.6015 190 76.5015L190.1 76.6016Z" fill="#2FA6D0" stroke="black" stroke-miterlimit="10"/>
<path d="M214.3 77.3C214.3 77.1 214.4 77 214.4 76.8C214.4 76.1 213.8 75.5 213.1 75.5C212.4 75.5 211.9 76.0001 211.8 76.6001C211.8 76.6001 211.8 76.7 211.8 76.8C211.8 76.9 211.8 77.1001 211.8 77.2001C212 77.7001 212.5 78.1001 213.1 78.1001C213.7 78.1001 213.7 78 214 77.8C214.1 77.7 214.3 77.5 214.3 77.3ZM213.1 77.8C212.7 77.8 212.3 77.6001 212.2 77.2001C212.2 77.1001 212.2 77 212.2 76.8C212.2 76.6 212.2 76.7001 212.2 76.6001C212.2 76.2001 212.7 75.8 213.2 75.8C213.7 75.8 214.2 76.2 214.2 76.8C214.2 77.4 214.2 77.0001 214.2 77.1001C214.2 77.3001 214 77.4001 213.9 77.6001C213.7 77.7001 213.5 77.8 213.3 77.8H213.1Z" fill="#2FA6D0" stroke="black" stroke-miterlimit="10"/>
<path d="M218.999 79.5C218.699 79.5 218.399 79.6 218.199 79.8C218.099 79.9 217.999 80.1 217.899 80.3C217.899 80.4 217.899 80.5001 217.899 80.6001C217.899 81.2001 218.399 81.7001 218.999 81.7001C219.599 81.7001 220.099 81.2001 220.099 80.6001C220.099 80.0001 219.599 79.5 218.999 79.5Z" fill="#2FA6D0" stroke="black" stroke-miterlimit="10"/>
<path d="M162.6 72.5023C162.6 72.4023 162.7 72.2023 162.7 72.0023C162.7 71.4023 162.2 70.9023 161.6 70.9023C161 70.9023 160.5 71.4023 160.5 72.0023C160.5 72.6023 161 73.1024 161.6 73.1024C162.2 73.1024 162.1 73.1023 162.3 72.9023C162.5 72.8023 162.6 72.6023 162.7 72.5023H162.6Z" fill="#2FA6D0" stroke="black" stroke-miterlimit="10"/>
<path d="M207.6 99.6992C206.5 99.6992 205.6 100.599 205.6 101.699C205.6 102.799 206.5 103.699 207.6 103.699C208.7 103.699 209.6 102.799 209.6 101.699C209.6 100.599 208.7 99.6992 207.6 99.6992Z" fill="#2FA6D0" stroke="black" stroke-miterlimit="10"/>
<g style="mix-blend-mode:multiply" opacity="0.5">
<mask id="mask0_609_6819" style="mask-type:luminance" maskUnits="userSpaceOnUse" x="205" y="99" width="3" height="5">
<path d="M207.6 99.6992H205.6V103.699H207.6V99.6992Z" fill="white"/>
</mask>
<g mask="url(#mask0_609_6819)">
<path d="M207.6 103.801C206.5 103.801 205.6 102.901 205.6 101.801C205.6 100.701 206.5 99.8008 207.6 99.8008V103.801Z" fill="#2FA6D0" stroke="black" stroke-miterlimit="10"/>
</g>
<path d="M207.6 99.6992H205.6V103.699H207.6V99.6992Z" fill="#2FA6D0" stroke="black" stroke-miterlimit="10"/>
</g>
<path d="M78.0996 116.5C76.9996 116.5 76.0996 117.4 76.0996 118.5C76.0996 119.6 76.9996 120.5 78.0996 120.5C79.1996 120.5 80.0996 119.6 80.0996 118.5C80.0996 117.4 79.1996 116.5 78.0996 116.5Z" fill="#2FA6D0" stroke="black" stroke-miterlimit="10"/>
<g style="mix-blend-mode:multiply" opacity="0.5">
<mask id="mask1_609_6819" style="mask-type:luminance" maskUnits="userSpaceOnUse" x="76" y="116" width="3" height="5">
<path d="M78.0996 116.5H76.0996V120.5H78.0996V116.5Z" fill="white"/>
</mask>
<g mask="url(#mask1_609_6819)">
<path d="M78.0996 120.5C76.9996 120.5 76.0996 119.6 76.0996 118.5C76.0996 117.4 76.9996 116.5 78.0996 116.5V120.5Z" fill="#2FA6D0" stroke="black" stroke-miterlimit="10"/>
</g>
<path d="M78.0996 116.5H76.0996V120.5H78.0996V116.5Z" fill="#2FA6D0" stroke="black" stroke-miterlimit="10"/>
</g>
<path d="M243.6 117.801C240.7 117.801 238.4 120.101 238.4 123.001C238.4 125.901 240.7 128.201 243.6 128.201C246.5 128.201 248.8 125.901 248.8 123.001C248.8 120.101 246.5 117.801 243.6 117.801Z" fill="#2FA6D0" stroke="black" stroke-miterlimit="10"/>
<g style="mix-blend-mode:multiply" opacity="0.5">
<mask id="mask2_609_6819" style="mask-type:luminance" maskUnits="userSpaceOnUse" x="238" y="117" width="6" height="12">
<path d="M243.6 117.801H238.4V128.201H243.6V117.801Z" fill="white"/>
</mask>
<g mask="url(#mask2_609_6819)">
<path d="M243.6 128.201C240.7 128.201 238.4 125.901 238.4 123.001C238.4 120.101 240.7 117.801 243.6 117.801V128.201Z" fill="#2FA6D0" stroke="black" stroke-miterlimit="10"/>
</g>
<path d="M243.6 117.801H238.4V128.201H243.6V117.801Z" fill="#2FA6D0" stroke="black" stroke-miterlimit="10"/>
</g>
<path d="M148.9 30.6992C145.4 30.6992 142.6 33.4991 142.6 36.9991C142.6 40.4991 145.4 43.2992 148.9 43.2992C152.4 43.2992 155.2 40.4991 155.2 36.9991C155.2 33.4991 152.4 30.6992 148.9 30.6992Z" fill="#2FA6D0" stroke="black" stroke-miterlimit="10"/>
<g style="mix-blend-mode:multiply" opacity="0.5">
<mask id="mask3_609_6819" style="mask-type:luminance" maskUnits="userSpaceOnUse" x="142" y="30" width="7" height="14">
<path d="M148.9 30.6992H142.6V43.2992H148.9V30.6992Z" fill="white"/>
</mask>
<g mask="url(#mask3_609_6819)">
<path d="M148.9 43.2992C145.4 43.2992 142.6 40.4991 142.6 36.9991C142.6 33.4991 145.4 30.6992 148.9 30.6992V43.2992Z" fill="#2FA6D0" stroke="black" stroke-miterlimit="10"/>
</g>
<path d="M148.9 30.6992H142.6V43.2992H148.9V30.6992Z" fill="#2FA6D0" stroke="black" stroke-miterlimit="10"/>
</g>
</svg>
