<svg width="91" height="107" viewBox="0 0 91 107" fill="none" xmlns="http://www.w3.org/2000/svg">
<path d="M50.7753 0C28.7753 0 10.9753 17.7998 10.9753 39.7998C10.9753 61.7998 13.6753 54.6998 17.7753 63.2998C18.0753 63.9998 21.2753 65.4 23.2753 63.7C36.9753 52.4 69.1753 55.9998 76.4753 63.2998C80.4753 67.2998 66.6754 81 53.1754 87C43.8753 91.1 30.8753 86 31.9753 87.5C39.6753 98.3 47.2753 106.3 50.8753 106.3C58.6753 106.3 90.6753 61.7998 90.6753 39.7998C90.6753 17.7998 72.8753 0 50.8753 0H50.7753ZM22.3753 16.7998C25.8753 12.4998 30.4753 8.99995 35.4753 6.69995H35.6754C35.8754 6.69995 35.9754 6.6999 36.1754 6.8999C36.3754 7.0999 36.3754 7.39985 36.1754 7.59985C33.4754 10.9999 31.1753 15.2 29.4753 20.2C29.4753 20.3 29.2754 20.5 29.1754 20.5C29.1754 20.5 28.9753 20.5 28.8753 20.5C28.7753 20.5 28.7754 20.5 28.6754 20.5C26.3754 19.7 24.2753 18.6999 22.3753 17.5999C22.2753 17.5999 22.0753 17.4 22.0753 17.2C22.0753 17 22.0754 16.9 22.1754 16.7L22.3753 16.7998ZM19.4753 20.7C19.5753 20.5 19.7753 20.3999 19.9753 20.3999C20.1753 20.3999 20.1753 20.3999 20.2753 20.3999C22.4753 21.6999 24.9753 22.8999 27.8753 23.8999C28.1753 23.8999 28.2753 24.2999 28.2753 24.5999C27.2753 28.6999 26.6753 33.0999 26.5753 37.5999C26.5753 37.8999 26.2753 38.2 25.9753 38.2H14.6753C14.4753 38.2 14.3753 38.2 14.2753 38C14.1753 37.9 14.0753 37.6999 14.0753 37.5999C14.4753 31.5999 16.3753 25.8 19.4753 20.7ZM19.9753 59.5999C19.7753 59.5999 19.5753 59.5998 19.4753 59.2998C16.3753 54.1998 14.4753 48.3999 14.0753 42.3999C14.0753 42.1999 14.0753 42.1 14.2753 42C14.3753 41.9 14.5753 41.7998 14.6753 41.7998H25.9753C26.2753 41.7998 26.5753 41.9999 26.5753 42.3999C26.7753 46.8999 27.2753 51.1999 28.2753 55.3999C28.2753 55.6999 28.2753 55.9999 27.8753 56.0999C25.0753 57.0999 22.4753 58.2999 20.2753 59.5999C20.2753 59.5999 20.0753 59.5999 19.9753 59.5999ZM48.9753 51.8999C48.9753 52.1999 48.6753 52.5 48.3753 52.5C42.8753 52.7 37.4753 53.4 32.4753 54.7C32.4753 54.7 32.4753 54.7 32.3753 54.7C32.2753 54.7 32.1753 54.7 32.0753 54.7C31.9753 54.7 31.8753 54.4998 31.7753 54.2998C30.8753 50.4998 30.3754 46.6 30.1754 42.5C30.1754 42.3 30.1753 42.1999 30.3753 42.0999C30.4753 41.9999 30.6753 41.8999 30.7753 41.8999H48.3753C48.6753 41.8999 48.9753 42.2 48.9753 42.5V51.8999ZM48.9753 37.7C48.9753 38 48.6753 38.2998 48.3753 38.2998H30.7753C30.5753 38.2998 30.4753 38.2999 30.3753 38.0999C30.2753 37.9999 30.1754 37.8 30.1754 37.7C30.3754 33.6 30.8753 29.6999 31.7753 25.8999C31.7753 25.6999 31.8753 25.6 32.0753 25.5C32.0753 25.5 32.2753 25.5 32.3753 25.5C32.4753 25.5 32.3753 25.5 32.4753 25.5C37.4753 26.8 42.7753 27.5 48.3753 27.7C48.6753 27.7 48.9753 27.9998 48.9753 28.2998V37.7ZM48.9753 23.3999C48.9753 23.5999 48.9753 23.6998 48.7753 23.7998C48.6753 23.8998 48.4753 24 48.3753 24C43.1753 23.8 38.1753 23.2 33.5753 22C33.3753 22 33.2754 21.9 33.1754 21.7C33.1754 21.6 33.1754 21.4 33.1754 21.2C36.4754 11.6 42.0753 4.99985 48.2753 3.59985C48.2753 3.59985 48.2753 3.59985 48.3753 3.59985C48.4753 3.59985 48.6753 3.59995 48.7753 3.69995C48.8753 3.79995 48.9753 3.99995 48.9753 4.19995V23.3999ZM81.4753 20.5C81.6753 20.5 81.8753 20.4998 81.9753 20.7998C85.0753 25.8998 86.9753 31.7 87.3753 37.7C87.3753 37.9 87.3753 37.9999 87.1753 38.0999C87.0753 38.1999 86.8753 38.2998 86.7753 38.2998H75.4753C75.1753 38.2998 74.8753 38.1 74.8753 37.7C74.6753 33.2 74.1753 28.9 73.1753 24.7C73.1753 24.4 73.1753 24.1 73.5753 24C76.3753 23 78.9753 21.8 81.1753 20.5C81.1753 20.5 81.3753 20.5 81.4753 20.5ZM65.2753 6.7998C65.3753 6.6998 65.5753 6.59985 65.7753 6.59985C65.9753 6.59985 65.9753 6.59985 65.9753 6.59985C71.0753 8.89985 75.5753 12.4 79.0753 16.7C79.1753 16.8 79.2753 17 79.1753 17.2C79.1753 17.4 79.0753 17.4999 78.8753 17.5999C76.9753 18.6999 74.8753 19.7 72.5753 20.5C72.5753 20.5 72.4753 20.5 72.3753 20.5C72.2753 20.5 72.1753 20.5 72.0753 20.5C71.9753 20.5 71.8753 20.3 71.7753 20.2C70.0753 15.2 67.8753 10.9999 65.0753 7.59985C64.8753 7.39985 64.8753 7.0999 65.0753 6.8999L65.2753 6.7998ZM52.5753 4.19995C52.5753 3.99995 52.5753 3.89995 52.7753 3.69995C52.8753 3.69995 52.9754 3.59985 53.1754 3.59985C53.3754 3.59985 53.1753 3.59985 53.2753 3.59985C59.3753 4.99985 65.0753 11.6 68.3753 21.2C68.3753 21.4 68.3753 21.5 68.3753 21.7C68.3753 21.8 68.1753 21.9 67.9753 22C63.3753 23.2 58.3753 23.9 53.1754 24C52.9754 24 52.8753 23.9998 52.7753 23.7998C52.6753 23.6998 52.5753 23.4999 52.5753 23.3999V4.19995ZM52.5753 28.2C52.5753 27.9 52.8754 27.5999 53.1754 27.5999C58.7754 27.3999 64.0753 26.6999 69.0753 25.3999C69.0753 25.3999 69.0753 25.3999 69.1753 25.3999C69.2753 25.3999 69.3753 25.3999 69.4753 25.3999C69.5753 25.3999 69.6753 25.5998 69.7753 25.7998C70.6753 29.5998 71.1753 33.4999 71.3753 37.5999C71.3753 37.7999 71.3753 37.9 71.1753 38C71.0753 38.1 70.8753 38.2 70.7753 38.2H53.1754C52.8754 38.2 52.5753 37.8999 52.5753 37.5999V28.2ZM52.5753 42.5C52.5753 42.2 52.8754 41.8999 53.1754 41.8999H70.7753C70.9753 41.8999 71.0753 41.8999 71.1753 42.0999C71.2753 42.1999 71.3753 42.4 71.3753 42.5C71.1753 46.6 70.6753 50.4998 69.7753 54.2998C69.7753 54.4998 69.6753 54.6 69.4753 54.7C69.4753 54.7 69.2753 54.7 69.1753 54.7C69.0753 54.7 69.1753 54.7 69.0753 54.7C64.0753 53.4 58.7754 52.7 53.1754 52.5C52.8754 52.5 52.5753 52.1999 52.5753 51.8999V42.5ZM81.9753 59.3999C81.8753 59.5999 81.6753 59.7 81.4753 59.7C81.2753 59.7 81.2753 59.7 81.1753 59.7C78.9753 58.4 76.3753 57.2 73.5753 56.2C73.2753 56.2 73.1753 55.8 73.1753 55.5C74.1753 51.4 74.7753 47 74.8753 42.5C74.8753 42.2 75.1753 41.8999 75.4753 41.8999H86.7753C86.9753 41.8999 87.0753 41.8999 87.1753 42.0999C87.2753 42.1999 87.3753 42.4 87.3753 42.5C86.9753 48.5 85.0753 54.2999 81.9753 59.3999ZM31.2753 63.7998L60.3753 63.3999L38.7753 82.5C38.3753 82.9 37.9753 82.7 37.8753 82.2L37.4753 77.2C30.5753 78.7 23.5753 78.5 17.7753 76.5C10.1753 74 5.27534 68.4998 2.47534 62.2998C-1.82466 53.1998 -0.0246873 42.6 4.07531 36.2C5.47531 33.9 7.27532 31.4999 9.27532 30.3999C8.67532 32.4999 8.77534 33.5998 8.47534 35.7998C8.27534 36.1998 7.97532 37.3 7.77532 37.7C4.87532 43.5 4.2753 52.8 6.8753 58.2C10.0753 64.7 16.0753 68.0998 21.9753 69.2998C25.6753 70.0998 30.4753 69.6999 34.3753 68.8999L30.9753 64.7C30.5753 64.3 30.7753 63.8999 31.3753 63.8999L31.2753 63.7998Z" fill="#242E3A"/>
</svg>
