<svg width="47" height="35" viewBox="0 0 47 35" fill="none" xmlns="http://www.w3.org/2000/svg">
<path d="M42.5 26.1H40.4C40.4 26 40.5 25.9 40.5 25.7V8.40002C40.5 8.30002 40.6 8.2 40.6 8C40.6 7.8 40.6 7.69998 40.4 7.59998C40.4 7.29998 40.1 7.19995 39.8 7.19995C39.5 7.19995 39.7 7.19995 39.6 7.19995H32.8C33 6.59995 33.2 5.89995 33.2 5.19995C33.2 2.29995 31 0 28.2 0H15.8C13 0 10.8 2.29995 10.8 5.19995C10.8 8.09995 10.9 6.59995 11.2 7.19995H5C5 7.19995 4.99999 7.19995 4.89999 7.19995C4.89999 7.19995 4.90002 7.19995 4.80002 7.19995C4.40002 7.19995 4 7.6 4 8V14.4C1.8 14.4 0 16.4 0 18.7C0 21 1.90001 23 4.10001 23H14.3C16.6 23 18.4 21.1 18.4 18.7C18.4 16.3 16.5 14.4 14.3 14.4H5.60001V8.79993H12.3C13.2 9.79993 14.5 10.4 15.9 10.4H20.3V26.5C19.9 26.4 19.6 26.2999 19.2 26.2999H9C6.7 26.2999 4.89999 28.2 4.89999 30.6C4.89999 33 6.8 34.9 9 34.9H19.2C21.5 34.9 23.3 33 23.3 30.6C23.3 28.2 22.6 27.9 21.6 27.1V10.4H28.4C29.8 10.4 31.1 9.79993 32 8.79993H39.4V25.7C39.4 25.8 39.4 25.9 39.5 26.1H30.8C28.4 26.1 26.5 28.1 26.5 30.5C26.5 32.9 28.4 34.9 30.8 34.9H42.6C45 34.9 46.9 32.9 46.9 30.5C46.9 28.1 45 26.1 42.6 26.1H42.5Z" fill="url(#paint0_linear_625_341)"/>
<defs>
<linearGradient id="paint0_linear_625_341" x1="0" y1="17.5" x2="46.8" y2="17.5" gradientUnits="userSpaceOnUse">
<stop stop-color="#002D4B"/>
<stop offset="1" stop-color="#002133"/>
</linearGradient>
</defs>
</svg>
