<svg width="73" height="56" viewBox="0 0 73 56" fill="none" xmlns="http://www.w3.org/2000/svg">
<g filter="url(#filter0_d_625_362)">
<path d="M60.8414 8.09985H51.3414C50.9414 8.09985 50.5414 8.60005 50.3414 9.30005C50.1414 9.50005 50.0414 9.7 49.9414 10L40.3414 31.8H25.0414C23.8414 31.8 22.9414 32.9 22.9414 34.3C22.9414 35.7 23.8414 36.8 25.0414 36.8H42.4414C43.4414 36.8 44.3414 36 44.5414 34.8C44.5414 34.8 44.5414 34.6999 44.5414 34.5999L53.8414 13H60.8414C61.4414 13 62.0414 11.9 62.0414 10.5C62.0414 9.1 61.5414 8 60.8414 8V8.09985Z" fill="url(#paint0_linear_625_362)"/>
<path d="M37.5414 30.2993C38.5414 30.2993 39.0415 30.1991 39.3415 30.0991C39.6415 30.1991 41.3414 26.3991 43.2414 21.5991C44.7414 17.6991 45.5414 15.3992 45.9414 13.8992C45.9414 13.6992 46.0414 13.5992 46.0414 13.3992C46.0414 13.2992 46.0414 13.0993 46.0414 12.9993C46.0414 12.9993 46.0414 12.9992 46.0414 12.8992C46.0414 11.5992 44.6414 10.6992 42.7414 10.6992H14.4414C14.1414 10.6992 13.9415 10.6992 13.6415 10.6992C13.5415 10.6992 13.4414 10.6992 13.2414 10.6992C10.7414 10.8992 10.1415 12.9993 10.1415 12.9993C10.0415 13.2993 9.94141 13.5993 10.0414 13.7993C10.0414 14.2993 10.0414 14.7992 10.4414 15.1992L20.7414 29.3992C21.2414 30.0992 22.0414 30.2991 22.9414 30.0991H37.4414L37.5414 30.2993ZM16.8415 15.5991H40.1415C39.6415 16.7991 39.0414 18.0991 38.5414 19.5991C37.6414 21.7991 36.9414 23.7992 36.4414 25.3992H23.8415L16.8415 15.6992V15.5991Z" fill="url(#paint1_linear_625_362)"/>
<path d="M25.9418 38C24.4418 38 23.3418 39.1 23.3418 40.5C23.3418 41.9 24.5418 43 25.9418 43C27.3418 43 28.5417 41.9 28.5417 40.5C28.5417 39.1 27.3418 38 25.9418 38Z" fill="url(#paint2_linear_625_362)"/>
<path d="M40.7416 38.1992C39.3416 38.1992 38.1416 39.2992 38.1416 40.6992C38.1416 42.0992 39.3416 43.1992 40.7416 43.1992C42.1416 43.1992 43.3416 42.0992 43.3416 40.6992C43.3416 39.2992 42.1416 38.1992 40.7416 38.1992Z" fill="url(#paint3_linear_625_362)"/>
</g>
<defs>
<filter id="filter0_d_625_362" x="0" y="0" width="72.041" height="55.1992" filterUnits="userSpaceOnUse" color-interpolation-filters="sRGB">
<feFlood flood-opacity="0" result="BackgroundImageFix"/>
<feColorMatrix in="SourceAlpha" type="matrix" values="0 0 0 0 0 0 0 0 0 0 0 0 0 0 0 0 0 0 127 0" result="hardAlpha"/>
<feOffset dy="2"/>
<feGaussianBlur stdDeviation="5"/>
<feColorMatrix type="matrix" values="0 0 0 0 0 0 0 0 0 0 0 0 0 0 0 0 0 0 0.6 0"/>
<feBlend mode="normal" in2="BackgroundImageFix" result="effect1_dropShadow_625_362"/>
<feBlend mode="normal" in="SourceGraphic" in2="effect1_dropShadow_625_362" result="shape"/>
</filter>
<linearGradient id="paint0_linear_625_362" x1="22.8414" y1="22.5" x2="62.0414" y2="22.5" gradientUnits="userSpaceOnUse">
<stop stop-color="#002D4B"/>
<stop offset="1" stop-color="#002133"/>
</linearGradient>
<linearGradient id="paint1_linear_625_362" x1="10.2414" y1="20.4993" x2="46.2414" y2="20.4993" gradientUnits="userSpaceOnUse">
<stop stop-color="#002D4B"/>
<stop offset="1" stop-color="#002133"/>
</linearGradient>
<linearGradient id="paint2_linear_625_362" x1="23.3418" y1="40.5" x2="28.5417" y2="40.5" gradientUnits="userSpaceOnUse">
<stop stop-color="#002D4B"/>
<stop offset="1" stop-color="#002133"/>
</linearGradient>
<linearGradient id="paint3_linear_625_362" x1="38.1416" y1="40.6992" x2="43.3416" y2="40.6992" gradientUnits="userSpaceOnUse">
<stop stop-color="#002D4B"/>
<stop offset="1" stop-color="#002133"/>
</linearGradient>
</defs>
</svg>
