<svg width="125" height="90" viewBox="0 0 125 90" fill="none" xmlns="http://www.w3.org/2000/svg">
<g filter="url(#filter0_d_625_376)">
<path d="M21.7082 3.5C21.9082 3.5 22.1082 3.5 22.4082 3.5C41.0082 3.3 59.6082 3.69995 78.1082 3.69995H95.4082C98.4082 3.69995 101.708 3.39995 104.708 3.69995C106.308 3.89995 107.808 4.80002 108.908 5.90002C110.108 7.10002 110.608 8.80002 110.808 10.4C111.108 12.4 111.008 14.4 111.008 16.4V26.2001V64.4C112.108 64.4 113.208 64.3999 114.308 64.4999C114.608 64.6999 114.708 64.8 114.708 65.1C114.808 66.8 113.708 69.0999 112.508 70.2999C109.908 72.8999 106.408 72.8999 103.008 72.7999C83.8082 72.9999 64.7082 72.7999 45.5082 72.7999H27.5082C24.1082 72.7999 20.5082 73.0999 17.1082 72.7999C15.5082 72.6999 13.8082 72.2001 12.5082 71.2001C11.0082 70.1001 10.2082 68.3999 10.0082 66.4999C10.0082 65.7999 9.90816 65.3 10.4082 64.6C11.6082 63.9 14.5082 64.2999 15.9082 64.2999V26.9C16.0082 26.9 16.0082 15.4999 16.0082 15.4999C16.0082 13.0999 15.9082 10.6999 16.0082 8.29993C16.0082 7.39993 16.3082 6.69988 16.8082 5.99988C17.9082 4.29988 19.7082 3.4 21.6082 3L21.7082 3.5Z" fill="black"/>
</g>
<g filter="url(#filter1_d_625_376)">
<path d="M17.4082 64.7027C17.4082 47.1027 17.2082 29.4025 17.4082 11.8025C17.4082 9.50252 17.4082 7.70257 19.2082 6.10257C20.0082 5.40257 20.9082 5.20257 21.9082 5.10257C25.0082 4.70257 28.4082 5.00247 31.5082 5.00247C37.0082 5.00247 42.4082 5.00247 47.9082 5.00247C60.5082 4.90247 73.1082 5.20266 85.7082 5.20266H97.5082C99.6082 5.20266 101.808 4.90266 103.908 5.20266C105.408 5.40266 106.608 5.90261 107.608 6.90261C108.408 7.70261 109.008 8.60266 109.208 9.70266C109.708 11.9027 109.308 21.5027 109.308 24.7027V64.6026H17.4082V64.7027Z" fill="#E5E6E1"/>
</g>
<g filter="url(#filter2_d_625_376)">
<path d="M88.008 54.2021C88.208 54.2021 88.508 54.2019 88.808 54.3019C89.108 54.6019 89.208 54.702 89.208 55.102L89.008 55.402C87.408 56.102 78.708 55.7021 76.208 55.7021H75.508C75.208 55.4021 75.008 55.3019 74.908 55.0019C74.808 54.8019 74.808 54.902 74.908 54.602C75.908 53.802 85.908 54.102 88.008 54.102V54.2021Z" fill="black"/>
</g>
<g filter="url(#filter3_d_625_376)">
<path d="M36.4078 31.1C37.2078 31 37.8078 31.1001 38.6078 31.2001V31.4C38.7078 32.7 38.8078 33.9999 38.7078 35.2999C38.7078 36.0999 38.4078 37.1 38.5078 37.9C38.5078 38.2 38.7078 38.5001 38.9078 38.7001C39.8078 39.5001 42.8078 39.2001 44.0078 39.2001C45.1078 39.7001 48.2078 39.3999 49.6078 39.4999C48.0078 39.4999 39.8078 39.9 38.9078 39.4C38.7078 39.1 38.3078 38.4999 38.0078 38.2999C37.6078 38.0999 36.0078 39.3999 35.5078 39.4999C34.6078 39.6999 30.0078 39.5001 29.0078 39.2001C30.5078 39.2001 35.1078 39.7001 36.1078 38.7001C36.6078 38.2001 36.3078 32.4 36.4078 31.1Z" fill="#FEFEFE"/>
</g>
<g filter="url(#filter4_d_625_376)">
<path d="M75.2078 30.4004C78.8078 30.4004 102.908 30.0004 104.208 30.4004L104.408 30.8003C104.308 31.2003 104.308 31.3004 103.908 31.6004H84.7078C81.7078 31.8004 78.5078 32.1005 75.6078 31.7005C75.3078 31.7005 75.2078 31.7004 75.0078 31.4004C75.0078 30.9004 75.0078 30.8003 75.2078 30.3003V30.4004Z" fill="black"/>
</g>
<g filter="url(#filter5_d_625_376)">
<path d="M75.408 36.4029C81.508 36.2029 87.608 36.4029 93.608 36.4029C96.708 36.4029 100.608 36.1029 103.608 36.4029C104.108 36.4029 104.108 36.4028 104.408 36.8028C104.408 37.3028 104.408 37.3029 104.008 37.7029H86.308C83.008 37.8029 79.608 38.0029 76.308 37.9029C75.808 37.9029 75.608 37.9029 75.208 37.4029C75.208 37.0029 75.208 36.8029 75.408 36.4029Z" fill="black"/>
</g>
<g filter="url(#filter6_d_625_376)">
<path d="M75.2079 42.3023C78.7079 42.2023 82.3079 42.3023 85.8079 42.3023C91.5079 42.3023 97.1079 42.3023 102.808 42.3023C103.508 42.3023 104.108 42.3023 104.608 42.8023C104.608 43.2023 104.608 43.4023 104.408 43.8023C99.8079 44.1023 95.0079 43.8023 90.3079 43.8023C85.7079 43.8023 80.9079 44.0023 76.3079 43.8023C75.9079 43.8023 75.5079 43.8022 75.1079 43.5022C75.0079 43.0022 75.1079 42.8023 75.1079 42.3023H75.2079Z" fill="black"/>
</g>
<g filter="url(#filter7_d_625_376)">
<path d="M75.4078 48.2014C78.1078 48.1014 103.308 47.9014 104.208 48.2014C104.308 48.2014 104.408 48.4012 104.608 48.5012C104.608 49.0012 104.608 49.2014 104.308 49.7014C98.2078 49.9014 92.1078 49.7014 86.0078 49.7014H79.2078C78.1078 49.7014 76.9078 49.8014 75.9078 49.7014C75.4078 49.7014 75.3078 49.5013 75.0078 49.1013C75.0078 48.6013 75.0078 48.6014 75.4078 48.2014Z" fill="black"/>
</g>
<g filter="url(#filter8_d_625_376)">
<path d="M29.708 41.4009V41.1008C30.308 41.1008 31.008 41.1007 31.608 41.0007C32.208 41.0007 32.808 41.0007 33.508 41.0007C34.108 41.0007 34.708 41.1009 35.308 41.2009C35.908 41.2009 36.508 41.4007 37.108 41.5007C38.508 41.8007 39.908 40.4008 41.208 41.1008C40.408 41.2008 39.508 41.1007 38.808 41.5007C38.408 42.3007 38.408 48.7009 38.708 49.7009C38.708 50.0009 38.908 50.1008 39.108 50.3008C39.208 50.3008 39.308 50.3008 39.408 50.3008C40.408 50.5008 41.608 50.2007 42.608 50.5007C42.608 50.5007 42.508 50.5007 42.408 50.5007C42.308 50.5007 42.208 50.5007 42.108 50.5007C41.308 50.6007 40.208 50.3009 39.608 50.7009C39.508 51.1009 39.408 51.4008 39.508 51.8008C40.408 52.6008 42.008 51.9009 43.108 52.4009C42.208 52.4009 39.708 52.1009 39.108 52.7009C38.408 53.4009 38.608 54.6007 38.608 55.5007C38.408 56.7007 38.508 58.1009 38.508 59.4009L38.308 58.9009H38.508L38.408 57.2009C37.908 57.0009 37.108 57.1008 36.608 57.1008V59.3008C36.208 57.3008 36.608 55.1008 36.308 53.1008C36.308 53.1008 36.208 53.0009 36.108 52.9009C35.408 52.2009 33.808 52.4009 32.908 52.4009C33.508 52.1009 34.508 52.2009 35.208 52.2009V50.5007C34.108 50.5007 32.808 50.7008 31.808 50.3008C33.308 50.3008 34.708 50.3009 36.208 50.2009C36.408 47.3009 36.308 44.2009 36.208 41.2009C34.108 41.0009 31.908 41.2009 29.808 41.2009L29.708 41.4009Z" fill="#FEFEFE"/>
</g>
<g filter="url(#filter9_d_625_376)">
<path d="M54.6082 52.701C57.7082 52.701 63.5082 52.3009 66.3082 52.9009C66.6082 53.2009 66.5082 53.0009 66.6082 53.4009C66.8082 54.5009 66.8082 59.0009 66.6082 60.1009C66.6082 60.5009 66.3082 60.8009 66.1082 61.1009C63.9082 61.2009 56.5082 61.5008 54.8082 60.8008C54.5082 60.4008 54.3082 60.1008 54.3082 59.5008C54.2082 58.3008 54.0082 53.501 54.6082 52.701Z" fill="black"/>
</g>
<g filter="url(#filter10_d_625_376)">
<path d="M55.708 54.1001H65.208C65.208 55.9001 65.208 57.8001 65.108 59.6001C62.108 60.1001 58.708 59.7001 55.708 59.6001V54V54.1001Z" fill="#69CDF0"/>
</g>
<g filter="url(#filter11_d_625_376)">
<path d="M43.2081 52.6996C45.9081 52.6996 48.8081 52.5996 51.5081 52.8996C51.5081 54.7996 52.0081 58.9995 51.2081 60.5995C49.8081 61.4995 41.2081 61.3994 39.4081 60.9994C39.2081 60.9994 39.2081 60.9996 39.0081 60.8996C38.4081 59.5996 39.0081 57.3996 38.7081 55.8996C38.7081 54.9996 38.5081 53.7995 39.2081 53.0995C39.8081 52.4995 42.3081 52.7995 43.2081 52.7995V52.6996Z" fill="black"/>
</g>
<g filter="url(#filter12_d_625_376)">
<path d="M40.208 54.1016H50.008C50.008 56.0016 50.008 57.8017 50.008 59.7017H40.208V54.1016Z" fill="#69CDF0"/>
</g>
<g filter="url(#filter13_d_625_376)">
<path d="M33.0078 52.7022C33.9078 52.7022 35.5078 52.5022 36.2078 53.2022C36.2078 53.2022 36.3078 53.3022 36.4078 53.4022C36.2078 55.3022 36.8078 59.4022 36.0078 60.9022C35.8078 60.9022 35.6078 61.1021 35.4078 61.1021C34.2078 61.4021 24.3078 61.4022 23.6078 60.9022C22.7078 59.1022 23.2078 54.9021 23.2078 52.8021C26.4078 52.6021 29.7078 52.8021 33.0078 52.8021V52.7022Z" fill="black"/>
</g>
<g filter="url(#filter14_d_625_376)">
<path d="M24.4082 54.1001H34.8082V59.7002C31.4082 59.9002 27.9082 59.7002 24.4082 59.7002V54V54.1001Z" fill="#69CDF0"/>
</g>
<g filter="url(#filter15_d_625_376)">
<path d="M54.6076 41.4002C57.0076 41.4002 64.4076 41.0001 66.2076 41.6001C66.5076 41.7001 66.6076 41.8001 66.7076 42.1001C67.0076 42.8001 66.9076 48.2002 66.7076 49.2002C66.7076 49.7002 66.5076 50.0002 66.3076 50.4002C63.6076 50.6002 57.0076 50.7002 54.5076 50.2002C54.4076 50.0002 54.3076 49.9001 54.2076 49.6001C54.0076 48.7001 54.0076 43.4001 54.2076 42.3001C54.2076 41.9001 54.4076 41.6001 54.6076 41.3001V41.4002Z" fill="black"/>
</g>
<g filter="url(#filter16_d_625_376)">
<path d="M55.708 42.8008C58.908 42.8008 62.108 42.8008 65.308 42.8008V49.0007H55.808V42.8008H55.708Z" fill="#69CDF0"/>
</g>
<g filter="url(#filter17_d_625_376)">
<path d="M55.0084 29.8008C57.3084 29.8008 64.7084 29.3009 66.4084 30.4009C67.0084 31.4009 66.8084 36.5008 66.7084 37.8008C66.7084 38.4008 66.4084 38.7009 66.0084 39.1009C63.0084 39.2009 57.4084 39.4009 54.6084 38.9009C54.4084 38.6009 54.3084 38.101 54.3084 37.701C54.3084 36.801 54.3084 35.9008 54.3084 35.0008C54.3084 33.4008 53.8084 31.0008 55.0084 29.8008Z" fill="black"/>
</g>
<g filter="url(#filter18_d_625_376)">
<path d="M55.8076 31.2017C58.9076 31.1017 62.1076 31.2017 65.2076 31.2017C65.2076 33.3017 65.2076 35.5016 65.2076 37.6016C62.1076 37.6016 58.9076 37.6016 55.8076 37.6016C55.8076 35.4016 55.8076 33.3016 55.8076 31.1016V31.2017Z" fill="#69CDF0"/>
</g>
<g filter="url(#filter19_d_625_376)">
<path d="M39.2076 50.5023C39.0076 50.3023 38.9076 50.1025 38.8076 49.9025C38.5076 48.9025 38.5076 42.5025 38.9076 41.7025C39.6076 41.3025 40.5076 41.5023 41.3076 41.5023C43.4076 41.6023 49.6076 41.1024 51.2076 41.8024C51.6076 42.6024 51.6076 48.8023 51.4076 50.0023C50.3076 51.1023 41.3076 50.4024 39.1076 50.6024L39.2076 50.5023Z" fill="black"/>
</g>
<g filter="url(#filter20_d_625_376)">
<path d="M40.208 42.8008H50.108V49.0007H40.208V42.8008Z" fill="#69CDF0"/>
</g>
<g filter="url(#filter21_d_625_376)">
<path d="M29.7079 41.3999C31.8079 41.3999 34.0079 41.2999 36.1079 41.3999C36.2079 44.2999 36.3079 47.3999 36.1079 50.3999C34.6079 50.3999 33.2079 50.3998 31.7079 50.4998C29.0079 50.0998 25.8079 50.4999 23.1079 50.3999C23.0079 47.3999 23.1079 44.3999 23.1079 41.3999C25.3079 41.3999 27.5079 41.4999 29.7079 41.3999Z" fill="black"/>
</g>
<g filter="url(#filter22_d_625_376)">
<path d="M24.5078 42.8008H34.7078V49.1008C31.3078 49.1008 27.9078 49.1008 24.6078 49.1008V42.8008H24.5078Z" fill="#69CDF0"/>
</g>
<g filter="url(#filter23_d_625_376)">
<path d="M38.6078 31.2007C38.6078 30.6007 38.6078 30.4006 39.0078 29.9006C40.6078 29.6006 42.3078 29.8006 43.9078 29.9006C46.4078 29.9006 49.0078 29.9006 51.5078 29.9006C51.5078 33.0006 51.5078 36.0006 51.5078 39.1006C49.0078 39.1006 46.5078 39.1006 44.0078 39.1006C42.8078 39.1006 39.8078 39.4006 38.9078 38.6006C38.6078 38.4006 38.5078 38.1005 38.5078 37.8005C38.5078 37.0005 38.7078 36.1007 38.7078 35.2007C38.7078 33.9007 38.7078 32.6005 38.7078 31.3005V31.1006L38.6078 31.2007Z" fill="black"/>
</g>
<g filter="url(#filter24_d_625_376)">
<path d="M48.9083 31.2031C49.3083 31.2031 49.6083 31.2031 50.1083 31.2031C50.4083 33.2031 50.1083 35.6031 50.1083 37.7031H41.6083C41.1083 37.7031 40.7083 37.703 40.2083 37.603C39.9083 35.603 40.1083 33.2031 40.1083 31.2031H48.8083H48.9083Z" fill="#69CDF0"/>
</g>
<g filter="url(#filter25_d_625_376)">
<path d="M23.3076 29.9003C26.6076 29.7003 32.7076 29.6003 35.9076 29.9003C36.3076 30.2003 36.3076 30.5001 36.5076 31.0001C36.5076 32.2001 36.7076 38.1002 36.2076 38.6002C35.2076 39.5002 30.6076 39.0002 29.1076 39.1002C27.2076 38.9002 25.1076 39.1001 23.2076 39.0001C23.2076 36.0001 23.1076 32.9003 23.3076 29.9003Z" fill="black"/>
</g>
<g filter="url(#filter26_d_625_376)">
<path d="M24.6084 31.3008H34.9084V37.6008H24.6084V31.3008Z" fill="#69CDF0"/>
</g>
<g filter="url(#filter27_d_625_376)">
<path d="M48.0079 5.0022C60.6079 4.9022 73.2079 5.20239 85.8079 5.20239H97.6079C99.7079 5.20239 101.908 4.90239 104.008 5.20239C105.508 5.40239 106.708 5.90234 107.708 6.90234C108.508 7.70234 109.108 8.60239 109.308 9.70239V25.4023C102.808 25.4023 96.3079 25.2024 89.9079 25.2024C82.9079 25.2024 75.808 25.3024 68.708 25.2024C65.108 25.1024 61.5079 24.7023 57.9079 24.6023C59.1079 24.3023 60.8079 24.6023 62.0079 24.6023C60.2079 23.1023 57.8079 22.4023 56.1079 20.9023C54.0079 20.9023 51.5079 21.3024 49.5079 20.7024C44.9079 20.5024 26.8079 21.2022 23.9079 20.3022C23.3079 19.0022 23.6079 12.0022 23.9079 10.3022C24.8079 10.3022 25.7079 10.3022 26.6079 10.3022C28.0079 9.80225 29.6079 10.3023 31.0079 9.90234C32.1079 9.60234 33.1079 8.80225 34.1079 8.30225C35.2079 7.80225 35.9079 8.00234 37.0079 8.40234C40.0079 9.70234 43.108 9.1022 46.208 9.0022C46.908 9.0022 48.2079 9.00225 48.8079 8.80225C49.9079 8.30225 51.308 7.10234 51.708 5.90234C51.708 5.90234 51.708 5.80239 51.708 5.70239L52.208 5.5022V5.30225C51.108 4.80225 49.3079 5.5022 48.3079 5.0022C48.3079 5.0022 48.2079 5.00234 48.1079 4.90234L48.0079 5.0022Z" fill="#FEFEFE"/>
</g>
<defs>
<filter id="filter0_d_625_376" x="0" y="0" width="124.715" height="89.9336" filterUnits="userSpaceOnUse" color-interpolation-filters="sRGB">
<feFlood flood-opacity="0" result="BackgroundImageFix"/>
<feColorMatrix in="SourceAlpha" type="matrix" values="0 0 0 0 0 0 0 0 0 0 0 0 0 0 0 0 0 0 127 0" result="hardAlpha"/>
<feOffset dy="7"/>
<feGaussianBlur stdDeviation="5"/>
<feColorMatrix type="matrix" values="0 0 0 0 0 0 0 0 0 0 0 0 0 0 0 0 0 0 0.8 0"/>
<feBlend mode="normal" in2="BackgroundImageFix" result="effect1_dropShadow_625_376"/>
<feBlend mode="normal" in="SourceGraphic" in2="effect1_dropShadow_625_376" result="shape"/>
</filter>
<filter id="filter1_d_625_376" x="7.31934" y="1.89453" width="112.141" height="79.8086" filterUnits="userSpaceOnUse" color-interpolation-filters="sRGB">
<feFlood flood-opacity="0" result="BackgroundImageFix"/>
<feColorMatrix in="SourceAlpha" type="matrix" values="0 0 0 0 0 0 0 0 0 0 0 0 0 0 0 0 0 0 127 0" result="hardAlpha"/>
<feOffset dy="7"/>
<feGaussianBlur stdDeviation="5"/>
<feColorMatrix type="matrix" values="0 0 0 0 0 0 0 0 0 0 0 0 0 0 0 0 0 0 0.8 0"/>
<feBlend mode="normal" in2="BackgroundImageFix" result="effect1_dropShadow_625_376"/>
<feBlend mode="normal" in="SourceGraphic" in2="effect1_dropShadow_625_376" result="shape"/>
</filter>
<filter id="filter2_d_625_376" x="64.833" y="51.0469" width="34.375" height="21.7695" filterUnits="userSpaceOnUse" color-interpolation-filters="sRGB">
<feFlood flood-opacity="0" result="BackgroundImageFix"/>
<feColorMatrix in="SourceAlpha" type="matrix" values="0 0 0 0 0 0 0 0 0 0 0 0 0 0 0 0 0 0 127 0" result="hardAlpha"/>
<feOffset dy="7"/>
<feGaussianBlur stdDeviation="5"/>
<feColorMatrix type="matrix" values="0 0 0 0 0 0 0 0 0 0 0 0 0 0 0 0 0 0 0.8 0"/>
<feBlend mode="normal" in2="BackgroundImageFix" result="effect1_dropShadow_625_376"/>
<feBlend mode="normal" in="SourceGraphic" in2="effect1_dropShadow_625_376" result="shape"/>
</filter>
<filter id="filter3_d_625_376" x="19.0078" y="28.0586" width="40.5996" height="28.5938" filterUnits="userSpaceOnUse" color-interpolation-filters="sRGB">
<feFlood flood-opacity="0" result="BackgroundImageFix"/>
<feColorMatrix in="SourceAlpha" type="matrix" values="0 0 0 0 0 0 0 0 0 0 0 0 0 0 0 0 0 0 127 0" result="hardAlpha"/>
<feOffset dy="7"/>
<feGaussianBlur stdDeviation="5"/>
<feColorMatrix type="matrix" values="0 0 0 0 0 0 0 0 0 0 0 0 0 0 0 0 0 0 0.8 0"/>
<feBlend mode="normal" in2="BackgroundImageFix" result="effect1_dropShadow_625_376"/>
<feBlend mode="normal" in="SourceGraphic" in2="effect1_dropShadow_625_376" result="shape"/>
</filter>
<filter id="filter4_d_625_376" x="65.0078" y="27.2227" width="49.4004" height="21.6758" filterUnits="userSpaceOnUse" color-interpolation-filters="sRGB">
<feFlood flood-opacity="0" result="BackgroundImageFix"/>
<feColorMatrix in="SourceAlpha" type="matrix" values="0 0 0 0 0 0 0 0 0 0 0 0 0 0 0 0 0 0 127 0" result="hardAlpha"/>
<feOffset dy="7"/>
<feGaussianBlur stdDeviation="5"/>
<feColorMatrix type="matrix" values="0 0 0 0 0 0 0 0 0 0 0 0 0 0 0 0 0 0 0.8 0"/>
<feBlend mode="normal" in2="BackgroundImageFix" result="effect1_dropShadow_625_376"/>
<feBlend mode="normal" in="SourceGraphic" in2="effect1_dropShadow_625_376" result="shape"/>
</filter>
<filter id="filter5_d_625_376" x="65.208" y="33.2695" width="49.2002" height="21.6602" filterUnits="userSpaceOnUse" color-interpolation-filters="sRGB">
<feFlood flood-opacity="0" result="BackgroundImageFix"/>
<feColorMatrix in="SourceAlpha" type="matrix" values="0 0 0 0 0 0 0 0 0 0 0 0 0 0 0 0 0 0 127 0" result="hardAlpha"/>
<feOffset dy="7"/>
<feGaussianBlur stdDeviation="5"/>
<feColorMatrix type="matrix" values="0 0 0 0 0 0 0 0 0 0 0 0 0 0 0 0 0 0 0.8 0"/>
<feBlend mode="normal" in2="BackgroundImageFix" result="effect1_dropShadow_625_376"/>
<feBlend mode="normal" in="SourceGraphic" in2="effect1_dropShadow_625_376" result="shape"/>
</filter>
<filter id="filter6_d_625_376" x="65.0635" y="39.2578" width="49.5449" height="21.6797" filterUnits="userSpaceOnUse" color-interpolation-filters="sRGB">
<feFlood flood-opacity="0" result="BackgroundImageFix"/>
<feColorMatrix in="SourceAlpha" type="matrix" values="0 0 0 0 0 0 0 0 0 0 0 0 0 0 0 0 0 0 127 0" result="hardAlpha"/>
<feOffset dy="7"/>
<feGaussianBlur stdDeviation="5"/>
<feColorMatrix type="matrix" values="0 0 0 0 0 0 0 0 0 0 0 0 0 0 0 0 0 0 0.8 0"/>
<feBlend mode="normal" in2="BackgroundImageFix" result="effect1_dropShadow_625_376"/>
<feBlend mode="normal" in="SourceGraphic" in2="effect1_dropShadow_625_376" result="shape"/>
</filter>
<filter id="filter7_d_625_376" x="65.0078" y="45.043" width="49.5996" height="21.7461" filterUnits="userSpaceOnUse" color-interpolation-filters="sRGB">
<feFlood flood-opacity="0" result="BackgroundImageFix"/>
<feColorMatrix in="SourceAlpha" type="matrix" values="0 0 0 0 0 0 0 0 0 0 0 0 0 0 0 0 0 0 127 0" result="hardAlpha"/>
<feOffset dy="7"/>
<feGaussianBlur stdDeviation="5"/>
<feColorMatrix type="matrix" values="0 0 0 0 0 0 0 0 0 0 0 0 0 0 0 0 0 0 0.8 0"/>
<feBlend mode="normal" in2="BackgroundImageFix" result="effect1_dropShadow_625_376"/>
<feBlend mode="normal" in="SourceGraphic" in2="effect1_dropShadow_625_376" result="shape"/>
</filter>
<filter id="filter8_d_625_376" x="19.708" y="37.9023" width="33.4004" height="38.5" filterUnits="userSpaceOnUse" color-interpolation-filters="sRGB">
<feFlood flood-opacity="0" result="BackgroundImageFix"/>
<feColorMatrix in="SourceAlpha" type="matrix" values="0 0 0 0 0 0 0 0 0 0 0 0 0 0 0 0 0 0 127 0" result="hardAlpha"/>
<feOffset dy="7"/>
<feGaussianBlur stdDeviation="5"/>
<feColorMatrix type="matrix" values="0 0 0 0 0 0 0 0 0 0 0 0 0 0 0 0 0 0 0.8 0"/>
<feBlend mode="normal" in2="BackgroundImageFix" result="effect1_dropShadow_625_376"/>
<feBlend mode="normal" in="SourceGraphic" in2="effect1_dropShadow_625_376" result="shape"/>
</filter>
<filter id="filter9_d_625_376" x="44.1943" y="49.5703" width="32.5635" height="28.6797" filterUnits="userSpaceOnUse" color-interpolation-filters="sRGB">
<feFlood flood-opacity="0" result="BackgroundImageFix"/>
<feColorMatrix in="SourceAlpha" type="matrix" values="0 0 0 0 0 0 0 0 0 0 0 0 0 0 0 0 0 0 127 0" result="hardAlpha"/>
<feOffset dy="7"/>
<feGaussianBlur stdDeviation="5"/>
<feColorMatrix type="matrix" values="0 0 0 0 0 0 0 0 0 0 0 0 0 0 0 0 0 0 0.8 0"/>
<feBlend mode="normal" in2="BackgroundImageFix" result="effect1_dropShadow_625_376"/>
<feBlend mode="normal" in="SourceGraphic" in2="effect1_dropShadow_625_376" result="shape"/>
</filter>
<filter id="filter10_d_625_376" x="45.708" y="51" width="29.5" height="25.8477" filterUnits="userSpaceOnUse" color-interpolation-filters="sRGB">
<feFlood flood-opacity="0" result="BackgroundImageFix"/>
<feColorMatrix in="SourceAlpha" type="matrix" values="0 0 0 0 0 0 0 0 0 0 0 0 0 0 0 0 0 0 127 0" result="hardAlpha"/>
<feOffset dy="7"/>
<feGaussianBlur stdDeviation="5"/>
<feColorMatrix type="matrix" values="0 0 0 0 0 0 0 0 0 0 0 0 0 0 0 0 0 0 0.8 0"/>
<feBlend mode="normal" in2="BackgroundImageFix" result="effect1_dropShadow_625_376"/>
<feBlend mode="normal" in="SourceGraphic" in2="effect1_dropShadow_625_376" result="shape"/>
</filter>
<filter id="filter11_d_625_376" x="28.6816" y="49.6836" width="32.9805" height="28.6094" filterUnits="userSpaceOnUse" color-interpolation-filters="sRGB">
<feFlood flood-opacity="0" result="BackgroundImageFix"/>
<feColorMatrix in="SourceAlpha" type="matrix" values="0 0 0 0 0 0 0 0 0 0 0 0 0 0 0 0 0 0 127 0" result="hardAlpha"/>
<feOffset dy="7"/>
<feGaussianBlur stdDeviation="5"/>
<feColorMatrix type="matrix" values="0 0 0 0 0 0 0 0 0 0 0 0 0 0 0 0 0 0 0.8 0"/>
<feBlend mode="normal" in2="BackgroundImageFix" result="effect1_dropShadow_625_376"/>
<feBlend mode="normal" in="SourceGraphic" in2="effect1_dropShadow_625_376" result="shape"/>
</filter>
<filter id="filter12_d_625_376" x="30.208" y="51.1016" width="29.7998" height="25.6016" filterUnits="userSpaceOnUse" color-interpolation-filters="sRGB">
<feFlood flood-opacity="0" result="BackgroundImageFix"/>
<feColorMatrix in="SourceAlpha" type="matrix" values="0 0 0 0 0 0 0 0 0 0 0 0 0 0 0 0 0 0 127 0" result="hardAlpha"/>
<feOffset dy="7"/>
<feGaussianBlur stdDeviation="5"/>
<feColorMatrix type="matrix" values="0 0 0 0 0 0 0 0 0 0 0 0 0 0 0 0 0 0 0.8 0"/>
<feBlend mode="normal" in2="BackgroundImageFix" result="effect1_dropShadow_625_376"/>
<feBlend mode="normal" in="SourceGraphic" in2="effect1_dropShadow_625_376" result="shape"/>
</filter>
<filter id="filter13_d_625_376" x="13.0693" y="49.6758" width="33.3691" height="28.6328" filterUnits="userSpaceOnUse" color-interpolation-filters="sRGB">
<feFlood flood-opacity="0" result="BackgroundImageFix"/>
<feColorMatrix in="SourceAlpha" type="matrix" values="0 0 0 0 0 0 0 0 0 0 0 0 0 0 0 0 0 0 127 0" result="hardAlpha"/>
<feOffset dy="7"/>
<feGaussianBlur stdDeviation="5"/>
<feColorMatrix type="matrix" values="0 0 0 0 0 0 0 0 0 0 0 0 0 0 0 0 0 0 0.8 0"/>
<feBlend mode="normal" in2="BackgroundImageFix" result="effect1_dropShadow_625_376"/>
<feBlend mode="normal" in="SourceGraphic" in2="effect1_dropShadow_625_376" result="shape"/>
</filter>
<filter id="filter14_d_625_376" x="14.4082" y="51" width="30.4004" height="25.7891" filterUnits="userSpaceOnUse" color-interpolation-filters="sRGB">
<feFlood flood-opacity="0" result="BackgroundImageFix"/>
<feColorMatrix in="SourceAlpha" type="matrix" values="0 0 0 0 0 0 0 0 0 0 0 0 0 0 0 0 0 0 127 0" result="hardAlpha"/>
<feOffset dy="7"/>
<feGaussianBlur stdDeviation="5"/>
<feColorMatrix type="matrix" values="0 0 0 0 0 0 0 0 0 0 0 0 0 0 0 0 0 0 0.8 0"/>
<feBlend mode="normal" in2="BackgroundImageFix" result="effect1_dropShadow_625_376"/>
<feBlend mode="normal" in="SourceGraphic" in2="effect1_dropShadow_625_376" result="shape"/>
</filter>
<filter id="filter15_d_625_376" x="44.0576" y="38.2695" width="32.8389" height="29.293" filterUnits="userSpaceOnUse" color-interpolation-filters="sRGB">
<feFlood flood-opacity="0" result="BackgroundImageFix"/>
<feColorMatrix in="SourceAlpha" type="matrix" values="0 0 0 0 0 0 0 0 0 0 0 0 0 0 0 0 0 0 127 0" result="hardAlpha"/>
<feOffset dy="7"/>
<feGaussianBlur stdDeviation="5"/>
<feColorMatrix type="matrix" values="0 0 0 0 0 0 0 0 0 0 0 0 0 0 0 0 0 0 0.8 0"/>
<feBlend mode="normal" in2="BackgroundImageFix" result="effect1_dropShadow_625_376"/>
<feBlend mode="normal" in="SourceGraphic" in2="effect1_dropShadow_625_376" result="shape"/>
</filter>
<filter id="filter16_d_625_376" x="45.708" y="39.8008" width="29.5996" height="26.1992" filterUnits="userSpaceOnUse" color-interpolation-filters="sRGB">
<feFlood flood-opacity="0" result="BackgroundImageFix"/>
<feColorMatrix in="SourceAlpha" type="matrix" values="0 0 0 0 0 0 0 0 0 0 0 0 0 0 0 0 0 0 127 0" result="hardAlpha"/>
<feOffset dy="7"/>
<feGaussianBlur stdDeviation="5"/>
<feColorMatrix type="matrix" values="0 0 0 0 0 0 0 0 0 0 0 0 0 0 0 0 0 0 0.8 0"/>
<feBlend mode="normal" in2="BackgroundImageFix" result="effect1_dropShadow_625_376"/>
<feBlend mode="normal" in="SourceGraphic" in2="effect1_dropShadow_625_376" result="shape"/>
</filter>
<filter id="filter17_d_625_376" x="44.2051" y="26.6875" width="32.6172" height="29.5391" filterUnits="userSpaceOnUse" color-interpolation-filters="sRGB">
<feFlood flood-opacity="0" result="BackgroundImageFix"/>
<feColorMatrix in="SourceAlpha" type="matrix" values="0 0 0 0 0 0 0 0 0 0 0 0 0 0 0 0 0 0 127 0" result="hardAlpha"/>
<feOffset dy="7"/>
<feGaussianBlur stdDeviation="5"/>
<feColorMatrix type="matrix" values="0 0 0 0 0 0 0 0 0 0 0 0 0 0 0 0 0 0 0.8 0"/>
<feBlend mode="normal" in2="BackgroundImageFix" result="effect1_dropShadow_625_376"/>
<feBlend mode="normal" in="SourceGraphic" in2="effect1_dropShadow_625_376" result="shape"/>
</filter>
<filter id="filter18_d_625_376" x="45.8076" y="28.1016" width="29.4004" height="26.5" filterUnits="userSpaceOnUse" color-interpolation-filters="sRGB">
<feFlood flood-opacity="0" result="BackgroundImageFix"/>
<feColorMatrix in="SourceAlpha" type="matrix" values="0 0 0 0 0 0 0 0 0 0 0 0 0 0 0 0 0 0 127 0" result="hardAlpha"/>
<feOffset dy="7"/>
<feGaussianBlur stdDeviation="5"/>
<feColorMatrix type="matrix" values="0 0 0 0 0 0 0 0 0 0 0 0 0 0 0 0 0 0 0.8 0"/>
<feBlend mode="normal" in2="BackgroundImageFix" result="effect1_dropShadow_625_376"/>
<feBlend mode="normal" in="SourceGraphic" in2="effect1_dropShadow_625_376" result="shape"/>
</filter>
<filter id="filter19_d_625_376" x="28.5938" y="38.4219" width="32.9453" height="29.2188" filterUnits="userSpaceOnUse" color-interpolation-filters="sRGB">
<feFlood flood-opacity="0" result="BackgroundImageFix"/>
<feColorMatrix in="SourceAlpha" type="matrix" values="0 0 0 0 0 0 0 0 0 0 0 0 0 0 0 0 0 0 127 0" result="hardAlpha"/>
<feOffset dy="7"/>
<feGaussianBlur stdDeviation="5"/>
<feColorMatrix type="matrix" values="0 0 0 0 0 0 0 0 0 0 0 0 0 0 0 0 0 0 0.8 0"/>
<feBlend mode="normal" in2="BackgroundImageFix" result="effect1_dropShadow_625_376"/>
<feBlend mode="normal" in="SourceGraphic" in2="effect1_dropShadow_625_376" result="shape"/>
</filter>
<filter id="filter20_d_625_376" x="30.208" y="39.8008" width="29.9004" height="26.1992" filterUnits="userSpaceOnUse" color-interpolation-filters="sRGB">
<feFlood flood-opacity="0" result="BackgroundImageFix"/>
<feColorMatrix in="SourceAlpha" type="matrix" values="0 0 0 0 0 0 0 0 0 0 0 0 0 0 0 0 0 0 127 0" result="hardAlpha"/>
<feOffset dy="7"/>
<feGaussianBlur stdDeviation="5"/>
<feColorMatrix type="matrix" values="0 0 0 0 0 0 0 0 0 0 0 0 0 0 0 0 0 0 0.8 0"/>
<feBlend mode="normal" in2="BackgroundImageFix" result="effect1_dropShadow_625_376"/>
<feBlend mode="normal" in="SourceGraphic" in2="effect1_dropShadow_625_376" result="shape"/>
</filter>
<filter id="filter21_d_625_376" x="13.0635" y="38.3555" width="33.1602" height="29.1445" filterUnits="userSpaceOnUse" color-interpolation-filters="sRGB">
<feFlood flood-opacity="0" result="BackgroundImageFix"/>
<feColorMatrix in="SourceAlpha" type="matrix" values="0 0 0 0 0 0 0 0 0 0 0 0 0 0 0 0 0 0 127 0" result="hardAlpha"/>
<feOffset dy="7"/>
<feGaussianBlur stdDeviation="5"/>
<feColorMatrix type="matrix" values="0 0 0 0 0 0 0 0 0 0 0 0 0 0 0 0 0 0 0.8 0"/>
<feBlend mode="normal" in2="BackgroundImageFix" result="effect1_dropShadow_625_376"/>
<feBlend mode="normal" in="SourceGraphic" in2="effect1_dropShadow_625_376" result="shape"/>
</filter>
<filter id="filter22_d_625_376" x="14.5078" y="39.8008" width="30.2002" height="26.3008" filterUnits="userSpaceOnUse" color-interpolation-filters="sRGB">
<feFlood flood-opacity="0" result="BackgroundImageFix"/>
<feColorMatrix in="SourceAlpha" type="matrix" values="0 0 0 0 0 0 0 0 0 0 0 0 0 0 0 0 0 0 127 0" result="hardAlpha"/>
<feOffset dy="7"/>
<feGaussianBlur stdDeviation="5"/>
<feColorMatrix type="matrix" values="0 0 0 0 0 0 0 0 0 0 0 0 0 0 0 0 0 0 0.8 0"/>
<feBlend mode="normal" in2="BackgroundImageFix" result="effect1_dropShadow_625_376"/>
<feBlend mode="normal" in="SourceGraphic" in2="effect1_dropShadow_625_376" result="shape"/>
</filter>
<filter id="filter23_d_625_376" x="28.5078" y="26.7422" width="33" height="29.4141" filterUnits="userSpaceOnUse" color-interpolation-filters="sRGB">
<feFlood flood-opacity="0" result="BackgroundImageFix"/>
<feColorMatrix in="SourceAlpha" type="matrix" values="0 0 0 0 0 0 0 0 0 0 0 0 0 0 0 0 0 0 127 0" result="hardAlpha"/>
<feOffset dy="7"/>
<feGaussianBlur stdDeviation="5"/>
<feColorMatrix type="matrix" values="0 0 0 0 0 0 0 0 0 0 0 0 0 0 0 0 0 0 0.8 0"/>
<feBlend mode="normal" in2="BackgroundImageFix" result="effect1_dropShadow_625_376"/>
<feBlend mode="normal" in="SourceGraphic" in2="effect1_dropShadow_625_376" result="shape"/>
</filter>
<filter id="filter24_d_625_376" x="30.043" y="28.2031" width="30.1982" height="26.5" filterUnits="userSpaceOnUse" color-interpolation-filters="sRGB">
<feFlood flood-opacity="0" result="BackgroundImageFix"/>
<feColorMatrix in="SourceAlpha" type="matrix" values="0 0 0 0 0 0 0 0 0 0 0 0 0 0 0 0 0 0 127 0" result="hardAlpha"/>
<feOffset dy="7"/>
<feGaussianBlur stdDeviation="5"/>
<feColorMatrix type="matrix" values="0 0 0 0 0 0 0 0 0 0 0 0 0 0 0 0 0 0 0.8 0"/>
<feBlend mode="normal" in2="BackgroundImageFix" result="effect1_dropShadow_625_376"/>
<feBlend mode="normal" in="SourceGraphic" in2="effect1_dropShadow_625_376" result="shape"/>
</filter>
<filter id="filter25_d_625_376" x="13.1826" y="26.7109" width="33.3643" height="29.4375" filterUnits="userSpaceOnUse" color-interpolation-filters="sRGB">
<feFlood flood-opacity="0" result="BackgroundImageFix"/>
<feColorMatrix in="SourceAlpha" type="matrix" values="0 0 0 0 0 0 0 0 0 0 0 0 0 0 0 0 0 0 127 0" result="hardAlpha"/>
<feOffset dy="7"/>
<feGaussianBlur stdDeviation="5"/>
<feColorMatrix type="matrix" values="0 0 0 0 0 0 0 0 0 0 0 0 0 0 0 0 0 0 0.8 0"/>
<feBlend mode="normal" in2="BackgroundImageFix" result="effect1_dropShadow_625_376"/>
<feBlend mode="normal" in="SourceGraphic" in2="effect1_dropShadow_625_376" result="shape"/>
</filter>
<filter id="filter26_d_625_376" x="14.6084" y="28.3008" width="30.2998" height="26.3008" filterUnits="userSpaceOnUse" color-interpolation-filters="sRGB">
<feFlood flood-opacity="0" result="BackgroundImageFix"/>
<feColorMatrix in="SourceAlpha" type="matrix" values="0 0 0 0 0 0 0 0 0 0 0 0 0 0 0 0 0 0 127 0" result="hardAlpha"/>
<feOffset dy="7"/>
<feGaussianBlur stdDeviation="5"/>
<feColorMatrix type="matrix" values="0 0 0 0 0 0 0 0 0 0 0 0 0 0 0 0 0 0 0.8 0"/>
<feBlend mode="normal" in2="BackgroundImageFix" result="effect1_dropShadow_625_376"/>
<feBlend mode="normal" in="SourceGraphic" in2="effect1_dropShadow_625_376" result="shape"/>
</filter>
<filter id="filter27_d_625_376" x="13.5615" y="1.90234" width="105.746" height="40.5" filterUnits="userSpaceOnUse" color-interpolation-filters="sRGB">
<feFlood flood-opacity="0" result="BackgroundImageFix"/>
<feColorMatrix in="SourceAlpha" type="matrix" values="0 0 0 0 0 0 0 0 0 0 0 0 0 0 0 0 0 0 127 0" result="hardAlpha"/>
<feOffset dy="7"/>
<feGaussianBlur stdDeviation="5"/>
<feColorMatrix type="matrix" values="0 0 0 0 0 0 0 0 0 0 0 0 0 0 0 0 0 0 0.8 0"/>
<feBlend mode="normal" in2="BackgroundImageFix" result="effect1_dropShadow_625_376"/>
<feBlend mode="normal" in="SourceGraphic" in2="effect1_dropShadow_625_376" result="shape"/>
</filter>
</defs>
</svg>
