<svg width="68" height="64" viewBox="0 0 68 64" fill="none" xmlns="http://www.w3.org/2000/svg">
<path d="M27.3 0.122583C32.5 -0.577417 38.5 1.82262 42.7 4.72262C47.8 8.22262 51.4 14.0226 52.5 20.1226C54 28.2226 51.4 33.8226 46.9 40.3226C48.2 41.3226 49.3 42.4226 50.5 43.5226C51.3 42.6226 52.1 41.8226 53.1 41.0226C55.1 42.7226 56.8 44.8226 58.7 46.6226C61 48.9226 65.4 52.8226 67.1 55.2226C67.5 55.8226 67.7 56.6226 67.8 57.3226C67.8 58.7226 67.3 60.1226 66.4 61.1226C65.4 62.1226 64.1 62.6226 62.7 62.6226C59.4 62.6226 56.5 58.3226 54.3 56.1226C51.5 53.4226 48.7 50.7226 46.2 47.7226C46.8 47.0226 47.5 46.4226 48.1 45.8226L44.8 42.4226C41.4 45.3226 36.9 47.1226 32.5 47.6226C26.3 48.3226 20 46.0226 15.1 42.1226C14.8 41.8226 14.5 41.6226 14.2 41.3226C13.9 41.0226 13.6 40.7226 13.3 40.5226C13 40.2226 12.7 39.9226 12.4 39.6226C12.1 39.3226 11.9 39.0226 11.6 38.7226C11.3 38.4226 11.1 38.1226 10.8 37.7226C10.6 37.4226 10.3 37.0226 10.1 36.7226C9.89999 36.4226 9.69999 36.0226 9.39999 35.7226C9.19999 35.4226 8.99999 35.0226 8.79999 34.6226C8.59999 34.2226 8.4 33.9226 8.2 33.5226C8 33.1226 7.9 32.8226 7.7 32.4226C7.5 32.0226 7.39999 31.6226 7.29999 31.3226C7.19999 30.9226 6.99999 30.5226 6.89999 30.1226C6.79999 29.7226 6.69999 29.3226 6.59999 28.9226C6.59999 28.5226 6.39999 28.1226 6.29999 27.7226C6.29999 27.3226 6.19999 26.9226 6.09999 26.5226C6.09999 26.1226 6 25.7226 6 25.3226C6 24.9226 6 24.5226 6 24.2226C6 23.8226 6 23.4226 6 23.1226C6 22.7226 6 22.3226 6 22.0226C6 21.6226 6 21.2226 6 20.9226C6 20.5226 5.99999 20.1226 6.09999 19.8226C6.09999 19.4226 6.19999 19.1226 6.29999 18.7226C6.29999 18.3226 6.5 18.0226 6.5 17.6226C6.5 17.2226 6.69999 16.9226 6.79999 16.5226C6.89999 16.1226 7 15.8226 7.2 15.4226C7.3 15.0226 7.49999 14.7226 7.59999 14.3226C7.69999 13.9226 7.89999 13.6226 8.09999 13.3226C8.29999 13.0226 8.39999 12.6226 8.59999 12.3226C8.79999 12.0226 9 11.6226 9.2 11.3226C9.4 11.0226 9.59999 10.7226 9.79999 10.3226C9.99999 10.0226 10.2 9.72263 10.5 9.42263C10.7 9.12263 11 8.82261 11.2 8.52261C15.3 3.52261 21 0.82262 27.4 0.22262L27.3 0.122583Z" fill="black"/>
<path d="M53.1002 43.2227C54.7002 44.5227 56.2002 46.4226 57.7002 48.0226C60.0002 50.4226 62.4002 52.7227 64.7002 55.2227C65.5002 56.1227 66.2002 57.0227 66.0002 58.2227C66.0002 59.1227 65.5002 59.8227 64.8002 60.4227C63.7002 61.3227 62.9002 61.3227 61.6002 61.2227C59.6002 60.0227 50.0002 49.9227 48.2002 47.7227C49.9002 46.2227 51.4002 44.6227 53.1002 43.2227Z" fill="#2FA6D0"/>
<path d="M15.8 40.8244C14.9 40.1244 14.2 39.3244 13.4 38.5244C9.19999 33.8244 7.29999 27.8244 7.59999 21.6244C7.59999 21.2244 7.59999 20.9244 7.59999 20.5244C7.59999 20.1244 7.59999 19.8244 7.69999 19.5244C7.69999 19.2244 7.79999 18.8244 7.89999 18.5244C7.89999 18.2244 7.99999 17.8244 8.09999 17.5244C8.09999 17.2244 8.29999 16.8244 8.39999 16.5244C8.49999 16.2244 8.59999 15.8244 8.69999 15.5244C8.79999 15.2244 8.89999 14.8244 9.09999 14.5244C9.19999 14.2244 9.4 13.9244 9.5 13.5244C9.7 13.2244 9.8 12.9244 10 12.6244C10.2 12.3244 10.3 12.0244 10.5 11.7244C10.7 11.4244 10.9 11.1244 11.1 10.8244C11.3 10.5244 11.5 10.2244 11.7 9.92442C11.9 9.62442 12.1 9.32437 12.4 9.12437C12.6 8.82437 12.9 8.62438 13.1 8.32438C13.3 8.02438 13.6 7.82439 13.8 7.52439C14.1 7.32439 14.3 7.02438 14.6 6.82438C18.7 3.22438 24.5 1.42438 29.9 1.82438C30.3 1.82438 30.6 1.82442 31 1.92442C31.4 1.92442 31.7 1.92437 32.1 2.12437C32.5 2.12437 32.8 2.22438 33.2 2.32438C33.6 2.32438 33.9 2.52437 34.3 2.62437C34.7 2.62437 35 2.82442 35.4 2.92442C35.8 3.02442 36.1 3.12438 36.4 3.32438C36.7 3.42438 37.1 3.62441 37.4 3.72441C37.7 3.82441 38.1 4.02441 38.4 4.22441C38.7 4.42441 39.1 4.52441 39.4 4.72441C39.7 4.92441 40 5.12438 40.4 5.32438C40.7 5.52438 41 5.72442 41.3 5.92442C41.6 6.12442 41.9 6.32437 42.2 6.62437C42.5 6.82437 42.8 7.12438 43.1 7.32438C43.4 7.52438 43.7 7.82439 43.9 8.02439C44.1 8.22439 44.4 8.52438 44.7 8.82438C45 9.12438 45.2 9.32437 45.5 9.62437H45.3C44.2 9.52437 40.6 7.22441 39.4 6.72441C33 3.92441 24 5.02441 18.4 9.22441C14.4 12.2244 11.3 17.3244 10.6 22.3244C10.6 22.6244 10.6 22.9244 10.5 23.2244C10.5 23.5244 10.5 23.8244 10.5 24.1244C10.5 24.4244 10.5 24.7244 10.5 25.0244C10.5 25.3244 10.5 25.6244 10.5 25.9244C10.5 26.2244 10.5 26.5244 10.5 26.8244C10.5 27.1244 10.5 27.4244 10.5 27.7244C10.5 28.0244 10.5 28.3244 10.5 28.6244C10.5 28.9244 10.5 29.2244 10.6 29.5244C10.6 29.8244 10.7 30.1244 10.8 30.3244C10.8 30.6244 10.9 30.9244 11 31.1244C11 31.4244 11.1 31.7244 11.2 31.9244C11.2 32.2244 11.4 32.5244 11.5 32.7244C11.5 33.0244 11.7 33.2244 11.8 33.5244C11.9 33.8244 12 34.0244 12.1 34.3244C12.2 34.6244 12.3 34.8244 12.5 35.1244C12.6 35.4244 12.8 35.6244 12.9 35.9244C13.5 37.1244 15.8 40.1244 15.8 41.3244V40.8244Z" fill="#FEFEFE"/>
<g filter="url(#filter0_d_625_412)">
<path d="M15.8 40.8229C15.8 39.7229 13.5 36.723 12.9 35.423C12.8 35.123 12.6 34.9229 12.5 34.6229C12.4 34.3229 12.3 34.1229 12.1 33.8229C12 33.5229 11.9 33.3229 11.8 33.0229C11.7 32.7229 11.6 32.523 11.5 32.223C11.5 31.923 11.3 31.723 11.2 31.423C11.2 31.123 11 30.8229 11 30.6229C11 30.3229 10.9 30.0229 10.8 29.8229C10.8 29.5229 10.7 29.2229 10.6 29.0229C10.6 28.7229 10.6 28.4229 10.5 28.1229C10.5 27.8229 10.5 27.523 10.5 27.223C10.5 26.923 10.5 26.6229 10.5 26.3229C10.5 26.0229 10.5 25.723 10.5 25.423C10.5 25.123 10.5 24.8229 10.5 24.5229C10.5 24.2229 10.5 23.9229 10.5 23.6229C10.5 23.3229 10.5 23.023 10.5 22.723C10.5 22.423 10.5 22.1229 10.6 21.8229C11.3 16.9229 14.4 11.723 18.4 8.72296C24 4.62296 33 3.52296 39.4 6.22296C40.6 6.72296 44.2 9.02292 45.3 9.12292H45.5C49.4 13.1229 51.3 19.223 51.2 24.723C51.1 30.823 48.2 36.523 43.8 40.723C40 44.423 34.4 46.1229 29.2 46.0229C24.8 45.9229 18.9 44.0229 15.8 40.8229C15.8 40.8229 15.8 40.7229 15.7 40.6229L15.8 40.8229Z" fill="#80BBD7"/>
</g>
<path d="M36.8004 15.6211C38.4004 16.6211 39.8004 18.6211 41.0004 20.1211C36.4004 24.8211 31.6004 29.5211 27.2004 34.3211C25.0004 32.3211 22.9004 30.1211 20.8004 28.0211C19.3004 26.5211 17.7004 25.0211 16.4004 23.2211C18.0004 22.1211 19.2004 20.3211 20.4004 18.9211C22.8004 20.8211 24.8004 23.4211 27.1004 25.5211C28.8004 23.6211 30.6004 21.9211 32.3004 20.1211C33.7004 18.6211 35.2004 16.9211 36.8004 15.6211Z" fill="black"/>
<path d="M36.5998 17.5219C37.5998 18.3219 38.3998 19.2218 39.1998 20.1218C35.1998 24.1218 31.2998 28.6218 27.0998 32.3218C24.7998 30.3218 22.6998 28.1219 20.5998 25.9219L18.2998 23.5219C18.9998 22.6219 19.7998 21.8219 20.5998 20.9219C22.8998 22.8219 24.9998 25.4218 26.9998 27.6218C29.9998 24.1218 33.4998 20.8219 36.6998 17.4219L36.5998 17.5219Z" fill="#FBCA64"/>
<defs>
<filter id="filter0_d_625_412" x="0.5" y="1.74609" width="60.7041" height="61.2812" filterUnits="userSpaceOnUse" color-interpolation-filters="sRGB">
<feFlood flood-opacity="0" result="BackgroundImageFix"/>
<feColorMatrix in="SourceAlpha" type="matrix" values="0 0 0 0 0 0 0 0 0 0 0 0 0 0 0 0 0 0 127 0" result="hardAlpha"/>
<feOffset dy="7"/>
<feGaussianBlur stdDeviation="5"/>
<feColorMatrix type="matrix" values="0 0 0 0 0 0 0 0 0 0 0 0 0 0 0 0 0 0 0.8 0"/>
<feBlend mode="normal" in2="BackgroundImageFix" result="effect1_dropShadow_625_412"/>
<feBlend mode="normal" in="SourceGraphic" in2="effect1_dropShadow_625_412" result="shape"/>
</filter>
</defs>
</svg>
