<svg width="198" height="150" viewBox="0 0 198 150" fill="none" xmlns="http://www.w3.org/2000/svg">
<g filter="url(#filter0_d_625_259)">
<path d="M175.5 113.102H158.2V114.901H175.5V113.102Z" fill="#69CDF0"/>
<path d="M36.3481 109.224L20.8721 123.859L22.1088 125.167L37.5848 110.532L36.3481 109.224Z" fill="#1F2548"/>
<path d="M52.5124 105.789L51.2285 107.051L67.4897 123.598L68.7735 122.337L52.5124 105.789Z" fill="#69CDF0"/>
<path d="M129.537 11.6767L127.768 12.0078L132.146 35.4017L133.915 35.0706L129.537 11.6767Z" fill="#69CDF0"/>
<path d="M165.607 23.5544L145.378 35.9023L146.316 37.4387L166.545 25.0907L165.607 23.5544Z" fill="#A60C24"/>
<path d="M16.1135 76.2265L15.0303 77.6641L39.3088 95.9593L40.3921 94.5217L16.1135 76.2265Z" fill="#1F2548"/>
<path d="M149.5 35.0009L136 42.1008L122.5 35.0009L136 27.8008L149.5 35.0009Z" fill="#69CDF0"/>
<path d="M122.5 35V49.6L136 56.7V42.1L122.5 35Z" fill="#CED6DB"/>
<path d="M149.5 35V49.6L136 56.7V42.1L149.5 35Z" fill="#A1A7AD"/>
<path d="M159.3 105.401L145.9 112.501L132.4 105.401L145.9 98.3008L159.3 105.401Z" fill="#69CDF0"/>
<path d="M132.4 105.402V120.002L145.9 127.102V112.502L132.4 105.402Z" fill="#CED6DB"/>
<path d="M159.301 105.402V120.002L145.801 127.102V112.502L159.301 105.402Z" fill="#A1A7AD"/>
<path d="M57.9004 94.4008L44.4004 101.601L30.9004 94.4008L44.4004 87.3008L57.9004 94.4008Z" fill="#69CDF0"/>
<path d="M30.9004 94.4023V109.002L44.4004 116.202V101.602L30.9004 94.4023Z" fill="#CED6DB"/>
<path d="M57.9004 94.4023V109.002L44.4004 116.202V101.602L57.9004 94.4023Z" fill="#A1A7AD"/>
<path d="M76.6004 120.102H64.4004V132.302H76.6004V120.102Z" fill="#1F2548"/>
<path d="M135.4 3H123.2V15.2H135.4V3Z" fill="#1F2548"/>
<path d="M170.5 17.8984H158.3V30.0985H170.5V17.8984Z" fill="#69CDF0"/>
<path d="M187.7 107.898H175.5V120.099H187.7V107.898Z" fill="#1F2548"/>
<path d="M24.7996 120.102H12.5996V132.302H24.7996V120.102Z" fill="#69CDF0"/>
<path d="M22.2 67.8984H10V80.0985H22.2V67.8984Z" fill="#1F2548"/>
<path d="M57.3998 95.3992L56.2998 93.9993L59.1998 91.7992L60.2998 93.1992L57.3998 95.3992ZM61.6998 91.9993L60.5998 90.5992L63.4998 88.3992L64.5998 89.7992L61.6998 91.9993ZM65.9998 88.6992L64.8998 87.2992L67.7998 85.0992L68.8998 86.4993L65.9998 88.6992ZM70.2998 85.3992L69.1998 83.9993L72.0998 81.7992L73.1998 83.1992L70.2998 85.3992ZM74.4998 82.0992L73.3998 80.6992L76.2998 78.4993L77.3998 79.8992L74.4998 82.0992ZM78.7998 78.7992L77.6998 77.3992L80.5998 75.1992L81.6998 76.5992L78.7998 78.7992Z" fill="#49494A"/>
<path d="M138.8 102.099L138.2 101.798L139 100.198L139.6 100.499L138.8 102.099ZM136.6 100.999L133.4 99.3984L134.2 97.7985L137.4 99.3984L136.6 100.999ZM131.7 98.6985L128.5 97.0985L129.3 95.4985L132.5 97.0985L131.7 98.6985ZM126.9 96.2985L123.7 94.6985L124.5 93.0985L127.7 94.6985L126.9 96.2985ZM122 93.8984L118.8 92.2985L119.6 90.6985L122.8 92.2985L122 93.8984ZM117.1 91.4985L113.9 89.8984L114.7 88.2985L117.9 89.8984L117.1 91.4985ZM112.3 89.0985L109.1 87.4985L109.9 85.8984L113.1 87.4985L112.3 89.0985Z" fill="#49494A"/>
<path d="M113.5 66.6L112.4 65.2L115.2 63L116.3 64.3999L113.5 66.6ZM117.8 63.2999L116.7 61.8999L119.5 59.7L120.6 61.1L117.8 63.2999ZM122 59.8999L120.9 58.5L123.7 56.2999L124.8 57.7L122 59.8999ZM126.3 56.6L125.2 55.2L128 53L129.1 54.3999L126.3 56.6Z" fill="#49494A"/>
<path d="M118.7 63.6992L95.8996 75.6992L73.0996 63.6992L95.8996 51.6992L118.7 63.6992Z" fill="#69CDF0"/>
<path d="M73.0996 63.6992V88.2992L95.8996 100.299V75.6992L73.0996 63.6992Z" fill="#CED6DB"/>
<path d="M118.6 63.6992V88.2992L95.7998 100.299V75.6992L118.6 63.6992Z" fill="#A1A7AD"/>
</g>
<defs>
<filter id="filter0_d_625_259" x="0" y="0" width="197.7" height="149.301" filterUnits="userSpaceOnUse" color-interpolation-filters="sRGB">
<feFlood flood-opacity="0" result="BackgroundImageFix"/>
<feColorMatrix in="SourceAlpha" type="matrix" values="0 0 0 0 0 0 0 0 0 0 0 0 0 0 0 0 0 0 127 0" result="hardAlpha"/>
<feOffset dy="7"/>
<feGaussianBlur stdDeviation="5"/>
<feColorMatrix type="matrix" values="0 0 0 0 0 0 0 0 0 0 0 0 0 0 0 0 0 0 0.8 0"/>
<feBlend mode="normal" in2="BackgroundImageFix" result="effect1_dropShadow_625_259"/>
<feBlend mode="normal" in="SourceGraphic" in2="effect1_dropShadow_625_259" result="shape"/>
</filter>
</defs>
</svg>
