<svg width="102" height="102" viewBox="0 0 102 102" fill="none" xmlns="http://www.w3.org/2000/svg">
<g filter="url(#filter0_d_625_342)">
<path d="M53 93.0001C28.2 93.0001 8 72.8001 8 48.0001C8 23.2001 28.2 3 53 3C77.8 3 98 23.2001 98 48.0001C98 72.8001 77.8 93.0001 53 93.0001ZM55.6 65.9C55.4 65.9 55.3 65.9 55.1 66.1C55 66.2 54.9 66.4 54.9 66.6V88.0001C54.9 88.2001 54.9 88.4001 55.1 88.5001C55.2 88.5001 55.4 88.6 55.5 88.6C55.6 88.6 55.5 88.6 55.6 88.6C62.4 87 68.7 79.7001 72.4 69.0001C72.4 68.8001 72.4 68.6001 72.4 68.5001C72.4 68.3001 72.2 68.2001 72 68.2001C66.9 66.9001 61.3 66.1 55.5 65.9H55.6ZM50.2999 65.9C44.4999 66.1 38.9999 66.8001 33.7999 68.2001C33.5999 68.2001 33.5 68.4001 33.4 68.5001C33.4 68.7001 33.3 68.8001 33.4 69.0001C37.1 79.7001 43.4 87 50.2 88.6C50.2 88.6 50.1999 88.6 50.2999 88.6C50.3999 88.6 50.6 88.6001 50.7 88.5001C50.9 88.4001 50.9 88.2001 50.9 88.0001V66.6C50.9 66.4 50.9 66.3 50.7 66.1C50.6 66 50.4 65.9 50.2 65.9H50.2999ZM28.7 69.7001C28.7 69.7001 28.6 69.7001 28.5 69.7001C25.9 70.6001 23.6 71.7 21.5 72.9C21.3 72.9 21.2 73.1999 21.2 73.2999C21.2 73.4999 21.1999 73.6999 21.2999 73.7999C25.1999 78.5999 30.3 82.5 35.9 85.1C35.9 85.1 36.1 85.1 36.2 85.1C36.4 85.1 36.6 85.0999 36.7 84.7999C36.9 84.5999 36.9 84.2001 36.7 84.0001C33.6 80.2001 31.0999 75.5001 29.2999 70.0001C29.2999 69.8001 29.1 69.7 29 69.6C29 69.6 28.8 69.6 28.7 69.6V69.7001ZM77.2 69.7001C77.2 69.7001 77 69.7001 76.9 69.7001C76.7 69.7001 76.6 69.9 76.6 70.1C74.7 75.7 72.2 80.4 69.2 84.1C69 84.3 69 84.7 69.2 84.9C69.3 85.1 69.5 85.2001 69.7 85.2001C69.9 85.2001 69.9 85.2001 70 85.2001C75.6 82.6001 80.7 78.7 84.6 73.9C84.7 73.8 84.8 73.6 84.7 73.4C84.7 73.2 84.6 73.0001 84.4 73.0001C82.3 71.8001 80 70.6999 77.4 69.7999C77.4 69.7999 77.3 69.7999 77.2 69.7999V69.7001ZM80.6 50.0001C80.2 50.0001 80 50.3 80 50.6C79.8 55.6 79.2 60.5001 78.1 65.0001C78.1 65.3001 78.2 65.6999 78.5 65.7999C81.6 66.8999 84.5 68.2001 86.9 69.7001C87 69.7001 87.1 69.7001 87.2 69.7001C87.4 69.7001 87.5999 69.6 87.7999 69.4C91.2999 63.7 93.3999 57.2 93.7999 50.6C93.7999 50.4 93.8 50.2 93.6 50.1C93.5 50 93.3 49.9 93.1 49.9H80.6V50.0001ZM12.7999 50.0001C12.5999 50.0001 12.3999 50.0001 12.2999 50.2001C12.1999 50.3001 12.1 50.5001 12.1 50.7001C12.5 57.3001 14.6 63.8001 18.1 69.5001C18.2 69.7001 18.4 69.7999 18.7 69.7999C19 69.7999 18.9 69.7999 19 69.7999C21.5 68.2999 24.3 67 27.4 65.9C27.7 65.8 27.8999 65.5 27.7999 65.1C26.6999 60.5 26.1 55.7001 25.9 50.7001C25.9 50.4001 25.5999 50.1 25.2999 50.1H12.7999V50.0001ZM30.7 50.0001C30.5 50.0001 30.4 50.0001 30.2 50.2001C30.1 50.3001 30 50.5001 30 50.7001C30.2 55.2001 30.7999 59.5999 31.7999 63.7999C31.7999 63.9999 31.9 64.1001 32.1 64.2001C32.2 64.2001 32.3 64.2001 32.4 64.2001C32.5 64.2001 32.5 64.2001 32.6 64.2001C38.1 62.8001 44.0999 61.9001 50.2999 61.7001C50.6999 61.7001 50.9 61.4 50.9 61.1V50.6C50.9 50.2 50.5999 50.0001 50.2999 50.0001H30.7ZM55.6 50.0001C55.2 50.0001 55 50.3 55 50.6V61.1C55 61.5 55.3 61.7001 55.6 61.7001C61.8 61.9001 67.6999 62.7001 73.2999 64.2001C73.2999 64.2001 73.4 64.2001 73.5 64.2001C73.6 64.2001 73.6999 64.2001 73.7999 64.2001C73.8999 64.2001 74.1 63.9999 74.1 63.7999C75.1 59.5999 75.7 55.2001 75.9 50.7001C75.9 50.5001 75.9 50.4001 75.7 50.2001C75.6 50.1001 75.4 50.0001 75.2 50.0001H55.6ZM87.2 26.2001C87.1 26.2001 87 26.2001 86.9 26.2001C84.4 27.7001 81.6 29 78.5 30.1C78.2 30.2 78 30.5 78.1 30.9C79.2 35.5 79.8 40.2999 80 45.2999C80 45.6999 80.3 45.9 80.6 45.9H93.1C93.3 45.9 93.5 45.9001 93.6 45.7001C93.7 45.6001 93.7999 45.4001 93.7999 45.2001C93.3999 38.6001 91.2999 32.1 87.7999 26.4C87.6999 26.2 87.5 26.1 87.2 26.1V26.2001ZM73.5 31.7001C73.5 31.7001 73.3999 31.7001 73.2999 31.7001C67.7999 33.1001 61.8 34.0001 55.6 34.2001C55.2 34.2001 55 34.4999 55 34.7999V45.2999C55 45.6999 55.3 45.9 55.6 45.9H75.2C75.4 45.9 75.5 45.9001 75.7 45.7001C75.8 45.6001 75.9 45.4001 75.9 45.2001C75.7 40.7001 75.1 36.3 74.1 32.1C74.1 31.9 73.9999 31.8001 73.7999 31.7001C73.6999 31.7001 73.6 31.7001 73.5 31.7001ZM32.5 31.7001C32.4 31.7001 32.3 31.7001 32.2 31.7001C32.1 31.7001 31.9 31.9 31.9 32.1C30.9 36.3 30.3 40.7001 30.1 45.2001C30.1 45.4001 30.0999 45.5001 30.2999 45.7001C30.3999 45.8001 30.5999 45.9 30.7999 45.9H50.4C50.8 45.9 51 45.5999 51 45.2999V34.7999C51 34.3999 50.7 34.2001 50.4 34.2001C44.2 34.0001 38.3 33.2001 32.7 31.7001C32.7 31.7001 32.6 31.7001 32.5 31.7001ZM18.7 26.2001C18.5 26.2001 18.3 26.3001 18.1 26.5001C14.6 32.2001 12.5 38.5999 12.1 45.2999C12.1 45.4999 12.0999 45.6999 12.2999 45.7999C12.3999 45.8999 12.5999 46.0001 12.7999 46.0001H25.2999C25.6999 46.0001 25.9 45.7 25.9 45.4C26.1 40.4 26.6999 35.5001 27.7999 31.0001C27.7999 30.7001 27.7 30.3001 27.4 30.2001C24.3 29.1001 21.4 27.7999 19 26.2999C18.9 26.2999 18.8 26.2999 18.7 26.2999V26.2001ZM55.6 7.40002C55.5 7.40002 55.3 7.4 55.2 7.5C55 7.6 55 7.8 55 8V29.4C55 29.6 55 29.7 55.2 29.9C55.3 30 55.5 30.1 55.7 30.1C61.5 29.9 67 29.1999 72.2 27.7999C72.4 27.7999 72.5 27.6001 72.6 27.5001C72.6 27.3001 72.7 27.2001 72.6 27.0001C68.9 16.3001 62.5999 9.00002 55.7999 7.40002C55.7999 7.40002 55.8 7.40002 55.7 7.40002H55.6ZM50.2999 7.40002C50.2999 7.40002 50.3 7.40002 50.2 7.40002C43.4 9.00002 37.1 16.3001 33.4 27.0001C33.4 27.2001 33.4 27.4001 33.4 27.5001C33.4 27.7001 33.5999 27.7999 33.7999 27.7999C38.8999 29.0999 44.4999 29.9 50.2999 30.1C50.4999 30.1 50.5999 30.1 50.7999 29.9C50.8999 29.8 51 29.6 51 29.4V8C51 7.8 50.9999 7.6 50.7999 7.5C50.6999 7.5 50.5 7.40002 50.4 7.40002H50.2999ZM69.7 10.7001C69.5 10.7001 69.3 10.7001 69.2 11.0001C69 11.2001 69 11.5999 69.2 11.7999C72.3 15.5999 74.8 20.2999 76.6 25.7999C76.6 25.9999 76.8 26.1001 76.9 26.2001C76.9 26.2001 77.1 26.2001 77.2 26.2001C77.3 26.2001 77.3 26.2001 77.4 26.2001C80 25.3001 82.3 24.2001 84.4 23.0001C84.6 23.0001 84.7 22.7 84.7 22.6C84.7 22.4 84.7 22.2 84.6 22.1C80.7 17.3 75.6 13.3999 70 10.7999C70 10.7999 69.8 10.7999 69.7 10.7999V10.7001ZM36.2 10.7001C36.2 10.7001 36 10.7001 35.9 10.7001C30.3 13.3001 25.1999 17.2001 21.2999 22.0001C21.1999 22.1001 21.1 22.3001 21.2 22.5001C21.2 22.7001 21.3 22.9 21.5 22.9C23.6 24.1 25.9 25.2 28.5 26.1C28.5 26.1 28.6 26.1 28.7 26.1C28.8 26.1 28.9 26.1 29 26.1C29.2 26.1 29.2999 25.9001 29.2999 25.7001C31.1999 20.1001 33.7 15.4001 36.7 11.7001C36.9 11.5001 36.9 11.1 36.7 10.9C36.6 10.7 36.4 10.6 36.2 10.6V10.7001Z" fill="#242E3A"/>
</g>
<defs>
<filter id="filter0_d_625_342" x="0" y="0" width="102" height="102" filterUnits="userSpaceOnUse" color-interpolation-filters="sRGB">
<feFlood flood-opacity="0" result="BackgroundImageFix"/>
<feColorMatrix in="SourceAlpha" type="matrix" values="0 0 0 0 0 0 0 0 0 0 0 0 0 0 0 0 0 0 127 0" result="hardAlpha"/>
<feOffset dx="-2" dy="3"/>
<feGaussianBlur stdDeviation="3"/>
<feColorMatrix type="matrix" values="0 0 0 0 0 0 0 0 0 0 0 0 0 0 0 0 0 0 0.7 0"/>
<feBlend mode="normal" in2="BackgroundImageFix" result="effect1_dropShadow_625_342"/>
<feBlend mode="normal" in="SourceGraphic" in2="effect1_dropShadow_625_342" result="shape"/>
</filter>
</defs>
</svg>
