<svg width="492" height="519" viewBox="0 0 492 519" fill="none" xmlns="http://www.w3.org/2000/svg">
<path d="M246.629 176.301H244.829V180.701H246.629V176.301Z" fill="#2D2E2D"/>
<path d="M246.629 169.801H244.829V174.201H246.629V169.801Z" fill="#2D2E2D"/>
<path d="M246.629 163.301H244.829V167.701H246.629V163.301Z" fill="#2D2E2D"/>
<path d="M246.629 156.801H244.829V161.201H246.629V156.801Z" fill="#2D2E2D"/>
<path d="M246.629 150.301H244.829V154.701H246.629V150.301Z" fill="#2D2E2D"/>
<path d="M246.629 143.801H244.829V148.201H246.629V143.801Z" fill="#2D2E2D"/>
<path d="M246.629 137.301H244.829V141.701H246.629V137.301Z" fill="#2D2E2D"/>
<path d="M246.629 130.801H244.829V135.201H246.629V130.801Z" fill="#2D2E2D"/>
<path d="M246.629 124.301H244.829V128.701H246.629V124.301Z" fill="#2D2E2D"/>
<path d="M246.629 117.801H244.829V122.201H246.629V117.801Z" fill="#2D2E2D"/>
<path d="M246.629 111.301H244.829V115.701H246.629V111.301Z" fill="#2D2E2D"/>
<path d="M246.629 104.801H244.829V109.201H246.629V104.801Z" fill="#2D2E2D"/>
<path d="M246.629 98.3008H244.829V102.701H246.629V98.3008Z" fill="#2D2E2D"/>
<path d="M246.629 91.8008H244.829V96.2007H246.629V91.8008Z" fill="#2D2E2D"/>
<path d="M246.629 85.3984H244.829V89.7986H246.629V85.3984Z" fill="#2D2E2D"/>
<path d="M246.629 78.8984H244.829V83.2986H246.629V78.8984Z" fill="#2D2E2D"/>
<path d="M246.629 72.3984H244.829V76.7986H246.629V72.3984Z" fill="#2D2E2D"/>
<path d="M246.629 65.8984H244.829V70.2986H246.629V65.8984Z" fill="#2D2E2D"/>
<path d="M246.629 59.3984H244.829V63.7986H246.629V59.3984Z" fill="#2D2E2D"/>
<path d="M246.629 52.8984H244.829V57.2986H246.629V52.8984Z" fill="#2D2E2D"/>
<path d="M246.629 46.3984H244.829V50.7986H246.629V46.3984Z" fill="#2D2E2D"/>
<path d="M246.629 39.8984H244.829V44.2986H246.629V39.8984Z" fill="#2D2E2D"/>
<path d="M246.629 33.3984H244.829V37.7986H246.629V33.3984Z" fill="#2D2E2D"/>
<path d="M246.629 26.8984H244.829V31.2986H246.629V26.8984Z" fill="#2D2E2D"/>
<path d="M246.629 20.3984H244.829V24.7986H246.629V20.3984Z" fill="#2D2E2D"/>
<path d="M252.929 7.19995C252.929 3.19995 249.729 0 245.729 0C241.729 0 238.529 3.19995 238.529 7.19995C238.529 11.2 241.229 13.9 244.829 14.3V18.2H246.629V14.3C250.129 13.8 252.929 10.8 252.929 7.19995Z" fill="#2D2E2D"/>
<path d="M315.898 213.276L312.289 215.793L313.319 217.269L316.928 214.752L315.898 213.276Z" fill="#2D2E2D"/>
<path d="M321.428 209.311L317.819 211.828L318.849 213.304L322.458 210.787L321.428 209.311Z" fill="#2D2E2D"/>
<path d="M326.358 206.041L322.749 208.559L323.779 210.035L327.387 207.517L326.358 206.041Z" fill="#2D2E2D"/>
<path d="M332.269 201.619L328.66 204.137L329.69 205.613L333.299 203.096L332.269 201.619Z" fill="#2D2E2D"/>
<path d="M336.699 199.252L333.091 201.77L334.121 203.246L337.729 200.728L336.699 199.252Z" fill="#2D2E2D"/>
<path d="M342.572 194.6L338.963 197.117L339.993 198.594L343.601 196.076L342.572 194.6Z" fill="#2D2E2D"/>
<path d="M346.802 192.334L343.193 194.852L344.223 196.328L347.832 193.81L346.802 192.334Z" fill="#2D2E2D"/>
<path d="M353.114 187.412L349.505 189.93L350.535 191.406L354.143 188.889L353.114 187.412Z" fill="#2D2E2D"/>
<path d="M358.243 183.842L354.635 186.359L355.665 187.836L359.273 185.318L358.243 183.842Z" fill="#2D2E2D"/>
<path d="M363.774 179.975L360.165 182.492L361.195 183.968L364.803 181.451L363.774 179.975Z" fill="#2D2E2D"/>
<path d="M368.404 177.209L364.795 179.727L365.825 181.203L369.434 178.685L368.404 177.209Z" fill="#2D2E2D"/>
<path d="M374.415 172.486L370.807 175.004L371.837 176.48L375.445 173.963L374.415 172.486Z" fill="#2D2E2D"/>
<path d="M379.588 168.936L375.979 171.453L377.009 172.929L380.618 170.412L379.588 168.936Z" fill="#2D2E2D"/>
<path d="M384.117 166.369L380.509 168.887L381.539 170.363L385.147 167.846L384.117 166.369Z" fill="#2D2E2D"/>
<path d="M390.23 161.647L386.621 164.164L387.651 165.64L391.26 163.123L390.23 161.647Z" fill="#2D2E2D"/>
<path d="M395.259 158.279L391.65 160.797L392.68 162.273L396.289 159.756L395.259 158.279Z" fill="#2D2E2D"/>
<path d="M401.289 153.514L397.681 156.031L398.71 157.507L402.319 154.99L401.289 153.514Z" fill="#2D2E2D"/>
<path d="M407.019 149.244L403.41 151.762L404.44 153.238L408.049 150.721L407.019 149.244Z" fill="#2D2E2D"/>
<path d="M412.074 145.838L408.465 148.355L409.495 149.832L413.103 147.314L412.074 145.838Z" fill="#2D2E2D"/>
<path d="M417.104 142.572L413.495 145.09L414.525 146.566L418.134 144.049L417.104 142.572Z" fill="#2D2E2D"/>
<path d="M423.033 138.006L419.425 140.523L420.455 142L424.063 139.482L423.033 138.006Z" fill="#2D2E2D"/>
<path d="M428.064 134.736L424.455 137.254L425.485 138.73L429.094 136.213L428.064 134.736Z" fill="#2D2E2D"/>
<path d="M432.575 132.315L428.967 134.832L429.997 136.308L433.605 133.791L432.575 132.315Z" fill="#2D2E2D"/>
<path d="M437.906 128.647L434.297 131.164L435.327 132.64L438.935 130.123L437.906 128.647Z" fill="#2D2E2D"/>
<path d="M443.635 124.279L440.026 126.797L441.056 128.273L444.665 125.756L443.635 124.279Z" fill="#2D2E2D"/>
<path d="M459.029 123.401C462.329 121.101 463.129 116.601 460.829 113.401C458.529 110.101 454.029 109.301 450.829 111.601C447.829 113.701 446.929 117.701 448.529 120.801L445.329 123.101L446.429 124.601L449.629 122.301C452.029 124.901 456.029 125.501 459.029 123.401Z" fill="#2D2E2D"/>
<path d="M321.701 290.987L321.079 292.676L325.208 294.195L325.83 292.506L321.701 290.987Z" fill="#2D2E2D"/>
<path d="M327.866 294.358L327.244 296.047L331.373 297.566L331.995 295.877L327.866 294.358Z" fill="#2D2E2D"/>
<path d="M333.91 294.388L333.291 296.078L337.423 297.59L338.042 295.9L333.91 294.388Z" fill="#2D2E2D"/>
<path d="M340.101 298.061L339.479 299.75L343.609 301.269L344.23 299.58L340.101 298.061Z" fill="#2D2E2D"/>
<path d="M346.172 299.897L345.551 301.586L349.68 303.105L350.302 301.416L346.172 299.897Z" fill="#2D2E2D"/>
<path d="M352.143 301.83L351.521 303.52L355.651 305.039L356.272 303.35L352.143 301.83Z" fill="#2D2E2D"/>
<path d="M358.308 304.502L357.687 306.191L361.816 307.711L362.437 306.021L358.308 304.502Z" fill="#2D2E2D"/>
<path d="M364.379 305.537L363.758 307.227L367.887 308.746L368.509 307.057L364.379 305.537Z" fill="#2D2E2D"/>
<path d="M370.544 308.604L369.923 310.293L374.052 311.812L374.674 310.123L370.544 308.604Z" fill="#2D2E2D"/>
<path d="M376.615 310.639L375.993 312.328L380.122 313.847L380.744 312.158L376.615 310.639Z" fill="#2D2E2D"/>
<path d="M382.78 313.108L382.158 314.797L386.287 316.316L386.909 314.627L382.78 313.108Z" fill="#2D2E2D"/>
<path d="M388.75 315.244L388.129 316.934L392.258 318.453L392.88 316.764L388.75 315.244Z" fill="#2D2E2D"/>
<path d="M394.822 316.479L394.2 318.168L398.33 319.687L398.951 317.998L394.822 316.479Z" fill="#2D2E2D"/>
<path d="M400.987 321.748L400.365 323.438L404.495 324.957L405.116 323.267L400.987 321.748Z" fill="#2D2E2D"/>
<path d="M407.058 321.983L406.437 323.672L410.566 325.191L411.188 323.502L407.058 321.983Z" fill="#2D2E2D"/>
<path d="M413.223 325.752L412.602 327.441L416.731 328.961L417.352 327.271L413.223 325.752Z" fill="#2D2E2D"/>
<path d="M419.293 327.787L418.672 329.477L422.801 330.996L423.423 329.307L419.293 327.787Z" fill="#2D2E2D"/>
<path d="M425.324 327.549L424.702 329.238L428.831 330.758L429.453 329.068L425.324 327.549Z" fill="#2D2E2D"/>
<path d="M431.395 333.084L430.773 334.773L434.903 336.293L435.524 334.604L431.395 333.084Z" fill="#2D2E2D"/>
<path d="M437.56 333.256L436.938 334.945L441.068 336.465L441.689 334.775L437.56 333.256Z" fill="#2D2E2D"/>
<path d="M443.63 335.69L443.009 337.379L447.138 338.898L447.76 337.209L443.63 335.69Z" fill="#2D2E2D"/>
<path d="M449.702 337.725L449.08 339.414L453.21 340.933L453.831 339.244L449.702 337.725Z" fill="#2D2E2D"/>
<path d="M455.767 339.795L455.146 341.484L459.275 343.004L459.897 341.314L455.767 339.795Z" fill="#2D2E2D"/>
<path d="M461.938 344.127L461.316 345.816L465.446 347.336L466.067 345.646L461.938 344.127Z" fill="#2D2E2D"/>
<path d="M468.002 345.998L467.381 347.688L471.51 349.207L472.132 347.518L468.002 345.998Z" fill="#2D2E2D"/>
<path d="M481.729 358.9C485.429 360.3 489.629 358.4 490.929 354.6C492.329 350.9 490.429 346.7 486.629 345.4C483.229 344.1 479.429 345.7 477.729 348.8L474.029 347.4L473.429 349.1L477.129 350.5C476.329 354 478.229 357.6 481.629 358.9H481.729Z" fill="#2D2E2D"/>
<path d="M263.773 343.429L262.031 343.883L263.14 348.141L264.882 347.687L263.773 343.429Z" fill="#2D2E2D"/>
<path d="M267.708 348.317L265.967 348.773L267.083 353.03L268.824 352.573L267.708 348.317Z" fill="#2D2E2D"/>
<path d="M267.926 355.383L266.185 355.84L267.301 360.096L269.042 359.639L267.926 355.383Z" fill="#2D2E2D"/>
<path d="M271.372 360.571L269.631 361.027L270.747 365.283L272.489 364.827L271.372 360.571Z" fill="#2D2E2D"/>
<path d="M271.415 367.832L269.674 368.289L270.79 372.545L272.531 372.088L271.415 367.832Z" fill="#2D2E2D"/>
<path d="M272.561 374.422L270.82 374.879L271.937 379.135L273.678 378.678L272.561 374.422Z" fill="#2D2E2D"/>
<path d="M276.208 379.508L274.467 379.965L275.583 384.221L277.324 383.764L276.208 379.508Z" fill="#2D2E2D"/>
<path d="M278.025 385.574L276.284 386.031L277.401 390.287L279.142 389.83L278.025 385.574Z" fill="#2D2E2D"/>
<path d="M277.272 393.364L275.531 393.82L276.648 398.076L278.389 397.619L277.272 393.364Z" fill="#2D2E2D"/>
<path d="M281.115 398.324L279.374 398.781L280.491 403.037L282.232 402.58L281.115 398.324Z" fill="#2D2E2D"/>
<path d="M280.273 406.167L278.531 406.621L279.64 410.879L281.382 410.425L280.273 406.167Z" fill="#2D2E2D"/>
<path d="M282.107 412.335L280.365 412.789L281.474 417.047L283.216 416.593L282.107 412.335Z" fill="#2D2E2D"/>
<path d="M283.843 418.628L282.102 419.082L283.211 423.34L284.953 422.886L283.843 418.628Z" fill="#2D2E2D"/>
<path d="M287.968 423.328L286.227 423.785L287.343 428.041L289.084 427.585L287.968 423.328Z" fill="#2D2E2D"/>
<path d="M287.614 430.817L285.873 431.273L286.99 435.529L288.731 435.073L287.614 430.817Z" fill="#2D2E2D"/>
<path d="M289.558 436.977L287.816 437.434L288.933 441.689L290.674 441.233L289.558 436.977Z" fill="#2D2E2D"/>
<path d="M292.204 442.668L290.463 443.125L291.579 447.381L293.32 446.924L292.204 442.668Z" fill="#2D2E2D"/>
<path d="M295.05 448.153L293.309 448.609L294.425 452.865L296.166 452.409L295.05 448.153Z" fill="#2D2E2D"/>
<path d="M293.593 456.418L291.852 456.875L292.968 461.131L294.709 460.674L293.593 456.418Z" fill="#2D2E2D"/>
<path d="M296.414 461.809L294.673 462.266L295.789 466.522L297.531 466.065L296.414 461.809Z" fill="#2D2E2D"/>
<path d="M299.457 467.27L297.716 467.727L298.832 471.983L300.573 471.526L299.457 467.27Z" fill="#2D2E2D"/>
<path d="M299.007 474.874L297.266 475.328L298.375 479.586L300.117 479.132L299.007 474.874Z" fill="#2D2E2D"/>
<path d="M300.646 481.219L298.905 481.676L300.022 485.932L301.763 485.475L300.646 481.219Z" fill="#2D2E2D"/>
<path d="M303.892 486.508L302.151 486.965L303.268 491.221L305.009 490.764L303.892 486.508Z" fill="#2D2E2D"/>
<path d="M306.036 492.469L304.295 492.926L305.411 497.182L307.153 496.725L306.036 492.469Z" fill="#2D2E2D"/>
<path d="M301.429 512.202C302.429 516.002 306.329 518.302 310.229 517.302C314.029 516.302 316.329 512.402 315.329 508.502C314.429 505.002 311.029 502.702 307.429 503.202L306.429 499.402L304.629 499.902L305.629 503.702C302.329 505.002 300.429 508.602 301.329 512.202H301.429Z" fill="#2D2E2D"/>
<path d="M224.539 343.922L223.557 348.211L225.311 348.613L226.294 344.324L224.539 343.922Z" fill="#2D2E2D"/>
<path d="M223.067 350.691L222.085 354.98L223.84 355.382L224.822 351.093L223.067 350.691Z" fill="#2D2E2D"/>
<path d="M221.514 355.119L220.539 359.41L222.294 359.809L223.269 355.518L221.514 355.119Z" fill="#2D2E2D"/>
<path d="M220.199 361.856L219.217 366.145L220.971 366.546L221.954 362.257L220.199 361.856Z" fill="#2D2E2D"/>
<path d="M218.706 369.524L217.724 373.812L219.478 374.214L220.461 369.925L218.706 369.524Z" fill="#2D2E2D"/>
<path d="M217.189 374.924L216.214 379.215L217.969 379.614L218.944 375.323L217.189 374.924Z" fill="#2D2E2D"/>
<path d="M215.64 380.063L214.657 384.352L216.412 384.753L217.394 380.465L215.64 380.063Z" fill="#2D2E2D"/>
<path d="M214.366 388.356L213.384 392.645L215.138 393.046L216.121 388.757L214.366 388.356Z" fill="#2D2E2D"/>
<path d="M212.973 395.125L211.99 399.414L213.745 399.816L214.727 395.527L212.973 395.125Z" fill="#2D2E2D"/>
<path d="M211.501 401.395L210.519 405.684L212.273 406.085L213.255 401.797L211.501 401.395Z" fill="#2D2E2D"/>
<path d="M210.004 407.488L209.021 411.777L210.776 412.179L211.758 407.89L210.004 407.488Z" fill="#2D2E2D"/>
<path d="M208.533 411.859L207.551 416.148L209.305 416.55L210.287 412.261L208.533 411.859Z" fill="#2D2E2D"/>
<path d="M206.938 416.426L205.956 420.715L207.711 421.117L208.693 416.828L206.938 416.426Z" fill="#2D2E2D"/>
<path d="M205.665 425.121L204.683 429.41L206.437 429.812L207.42 425.523L205.665 425.121Z" fill="#2D2E2D"/>
<path d="M204.092 430.03L203.117 434.32L204.872 434.719L205.847 430.428L204.092 430.03Z" fill="#2D2E2D"/>
<path d="M202.703 437.385L201.729 441.676L203.484 442.075L204.459 437.784L202.703 437.385Z" fill="#2D2E2D"/>
<path d="M201.426 445.555L200.443 449.844L202.198 450.246L203.18 445.957L201.426 445.555Z" fill="#2D2E2D"/>
<path d="M199.731 448.223L198.749 452.512L200.503 452.914L201.486 448.625L199.731 448.223Z" fill="#2D2E2D"/>
<path d="M198.46 457.895L197.478 462.184L199.232 462.585L200.214 458.297L198.46 457.895Z" fill="#2D2E2D"/>
<path d="M197.063 464.485L196.081 468.773L197.836 469.175L198.818 464.886L197.063 464.485Z" fill="#2D2E2D"/>
<path d="M195.42 467.03L194.445 471.32L196.2 471.719L197.175 467.428L195.42 467.03Z" fill="#2D2E2D"/>
<path d="M193.998 475.024L193.016 479.312L194.77 479.714L195.753 475.425L193.998 475.024Z" fill="#2D2E2D"/>
<path d="M192.626 483.996L191.644 488.285L193.398 488.687L194.38 484.398L192.626 483.996Z" fill="#2D2E2D"/>
<path d="M191.23 490.188L190.248 494.477L192.002 494.878L192.985 490.589L191.23 490.188Z" fill="#2D2E2D"/>
<path d="M189.658 494.758L188.676 499.047L190.43 499.449L191.413 495.16L189.658 494.758Z" fill="#2D2E2D"/>
<path d="M179.629 510.197C178.729 514.097 181.129 517.897 185.029 518.797C188.929 519.697 192.729 517.297 193.629 513.397C194.429 509.797 192.429 506.297 189.129 504.997L190.029 501.197L188.229 500.797L187.329 504.597C183.729 504.297 180.429 506.597 179.629 510.197Z" fill="#2D2E2D"/>
<path d="M167.266 292.192L163.187 293.84L163.861 295.509L167.94 293.86L167.266 292.192Z" fill="#2D2E2D"/>
<path d="M160.502 295.164L156.423 296.812L157.097 298.481L161.177 296.833L160.502 295.164Z" fill="#2D2E2D"/>
<path d="M156.599 295.989L152.522 297.645L153.2 299.312L157.276 297.657L156.599 295.989Z" fill="#2D2E2D"/>
<path d="M150.312 298.703L146.232 300.352L146.907 302.021L150.986 300.372L150.312 298.703Z" fill="#2D2E2D"/>
<path d="M142.155 302.613L138.075 304.262L138.75 305.931L142.829 304.282L142.155 302.613Z" fill="#2D2E2D"/>
<path d="M138.212 303.556L134.136 305.211L134.813 306.879L138.89 305.223L138.212 303.556Z" fill="#2D2E2D"/>
<path d="M132.464 305.852L128.385 307.5L129.059 309.169L133.139 307.521L132.464 305.852Z" fill="#2D2E2D"/>
<path d="M125.6 308.817L121.523 310.473L122.201 312.14L126.277 310.485L125.6 308.817Z" fill="#2D2E2D"/>
<path d="M118.574 312.09L114.494 313.738L115.168 315.407L119.248 313.759L118.574 312.09Z" fill="#2D2E2D"/>
<path d="M112.617 314.399L108.537 316.047L109.211 317.716L113.291 316.068L112.617 314.399Z" fill="#2D2E2D"/>
<path d="M107.053 316.473L102.974 318.121L103.648 319.79L107.728 318.142L107.053 316.473Z" fill="#2D2E2D"/>
<path d="M102.026 318.238L97.9463 319.887L98.6206 321.556L102.7 319.907L102.026 318.238Z" fill="#2D2E2D"/>
<path d="M94.518 321.773L90.4355 323.414L91.1069 325.084L95.1894 323.443L94.518 321.773Z" fill="#2D2E2D"/>
<path d="M90.105 323.024L86.0254 324.672L86.6997 326.341L90.7793 324.693L90.105 323.024Z" fill="#2D2E2D"/>
<path d="M82.734 326.438L78.6572 328.094L79.3344 329.762L83.4112 328.106L82.734 326.438Z" fill="#2D2E2D"/>
<path d="M77.7779 328.016L73.7012 329.672L74.3783 331.339L78.4551 329.684L77.7779 328.016Z" fill="#2D2E2D"/>
<path d="M70.1509 331.633L66.0713 333.281L66.7456 334.95L70.8252 333.302L70.1509 331.633Z" fill="#2D2E2D"/>
<path d="M64.1411 334.121L60.0586 335.762L60.73 337.432L64.8125 335.791L64.1411 334.121Z" fill="#2D2E2D"/>
<path d="M58.5679 336.211L54.4883 337.859L55.1626 339.528L59.2422 337.88L58.5679 336.211Z" fill="#2D2E2D"/>
<path d="M52.4038 338.684L48.3242 340.332L48.9985 342.001L53.0781 340.353L52.4038 338.684Z" fill="#2D2E2D"/>
<path d="M46.6772 341.047L42.5977 342.695L43.272 344.364L47.3515 342.716L46.6772 341.047Z" fill="#2D2E2D"/>
<path d="M42.313 342.219L38.2334 343.867L38.9077 345.536L42.9873 343.888L42.313 342.219Z" fill="#2D2E2D"/>
<path d="M33.9487 346.293L29.8691 347.941L30.5434 349.61L34.623 347.962L33.9487 346.293Z" fill="#2D2E2D"/>
<path d="M28.8296 348.098L24.75 349.746L25.4242 351.415L29.5038 349.767L28.8296 348.098Z" fill="#2D2E2D"/>
<path d="M22.8657 350.469L18.7861 352.117L19.4604 353.786L23.54 352.138L22.8657 350.469Z" fill="#2D2E2D"/>
<path d="M4.52912 350.998C0.829117 352.498 -0.970884 356.698 0.529116 360.398C2.02912 364.098 6.22914 365.898 9.92914 364.398C13.3291 362.998 15.1291 359.398 14.2291 355.898L17.8291 354.398L17.1291 352.698L13.5291 354.198C11.8291 351.098 7.92912 349.698 4.52912 351.098V350.998Z" fill="#2D2E2D"/>
<path d="M173.229 213.828L172.246 215.336L175.932 217.739L176.915 216.231L173.229 213.828Z" fill="#2D2E2D"/>
<path d="M167.493 211.223L166.51 212.73L170.196 215.133L171.179 213.626L167.493 211.223Z" fill="#2D2E2D"/>
<path d="M162.328 206.592L161.348 208.102L165.038 210.498L166.018 208.988L162.328 206.592Z" fill="#2D2E2D"/>
<path d="M157.347 201.992L156.364 203.5L160.05 205.903L161.033 204.395L157.347 201.992Z" fill="#2D2E2D"/>
<path d="M151.028 200.933L150.045 202.441L153.731 204.844L154.714 203.336L151.028 200.933Z" fill="#2D2E2D"/>
<path d="M148.629 200.099L149.629 198.599L146.029 196.199L145.029 197.699L148.629 200.099Z" fill="#2D2E2D"/>
<path d="M140.728 191.988L139.745 193.496L143.431 195.899L144.414 194.391L140.728 191.988Z" fill="#2D2E2D"/>
<path d="M135.47 187.963L134.489 189.473L138.18 191.869L139.16 190.36L135.47 187.963Z" fill="#2D2E2D"/>
<path d="M129.182 186.957L128.199 188.465L131.885 190.868L132.868 189.36L129.182 186.957Z" fill="#2D2E2D"/>
<path d="M123.947 182.953L122.964 184.461L126.65 186.864L127.633 185.356L123.947 182.953Z" fill="#2D2E2D"/>
<path d="M119.318 176.608L118.338 178.117L122.028 180.514L123.009 179.004L119.318 176.608Z" fill="#2D2E2D"/>
<path d="M113.546 174.207L112.563 175.715L116.25 178.118L117.233 176.61L113.546 174.207Z" fill="#2D2E2D"/>
<path d="M107.813 171.802L106.827 173.309L110.509 175.718L111.495 174.212L107.813 171.802Z" fill="#2D2E2D"/>
<path d="M102.946 166.164L101.963 167.672L105.649 170.075L106.632 168.567L102.946 166.164Z" fill="#2D2E2D"/>
<path d="M96.62 165.611L95.6396 167.121L99.3297 169.517L100.31 168.008L96.62 165.611Z" fill="#2D2E2D"/>
<path d="M91.9589 159.678L90.9785 161.188L94.6686 163.584L95.6489 162.074L91.9589 159.678Z" fill="#2D2E2D"/>
<path d="M85.9644 157.828L84.9814 159.336L88.6673 161.739L89.6503 160.231L85.9644 157.828Z" fill="#2D2E2D"/>
<path d="M80.1253 155.416L79.1396 156.922L82.8215 159.331L83.8071 157.825L80.1253 155.416Z" fill="#2D2E2D"/>
<path d="M75.2642 150.082L74.2812 151.59L77.9673 153.993L78.9503 152.485L75.2642 150.082Z" fill="#2D2E2D"/>
<path d="M69.5992 147.141L68.6162 148.648L72.3021 151.051L73.2851 149.543L69.5992 147.141Z" fill="#2D2E2D"/>
<path d="M64.0182 144.051L63.0352 145.559L66.721 147.961L67.704 146.453L64.0182 144.051Z" fill="#2D2E2D"/>
<path d="M59.399 138.094L58.416 139.602L62.1021 142.004L63.0851 140.497L59.399 138.094Z" fill="#2D2E2D"/>
<path d="M53.2183 136.707L52.2354 138.215L55.9214 140.618L56.9044 139.11L53.2183 136.707Z" fill="#2D2E2D"/>
<path d="M47.8824 133.004L46.8994 134.512L50.5855 136.915L51.5685 135.407L47.8824 133.004Z" fill="#2D2E2D"/>
<path d="M42.2183 129.859L41.2354 131.367L44.9212 133.77L45.9042 132.262L42.2183 129.859Z" fill="#2D2E2D"/>
<path d="M35.0293 116.4C31.7293 114.2 27.2293 115.201 25.0293 118.501C22.8293 121.801 23.8293 126.301 27.1293 128.501C30.2293 130.501 34.2293 129.901 36.5293 127.101L39.8293 129.2L40.8293 127.7L37.5293 125.601C39.1293 122.401 38.0293 118.4 35.0293 116.4Z" fill="#2D2E2D"/>
<path d="M177.129 222.999L119.029 256.599L60.9287 222.999V155.999L119.029 122.398L177.129 155.999V222.999Z" fill="#2FA6D0"/>
<path d="M176.629 369.201L118.629 402.701L60.5293 369.201V302.102L118.629 268.602L176.629 302.102V369.201Z" fill="#242E3A"/>
<path d="M302.829 442.201L244.729 475.802L186.729 442.201V375.102L244.729 341.602L302.829 375.102V442.201Z" fill="#25ABE0"/>
<path d="M428.829 369.201L370.729 402.802L312.629 369.201V302.102L370.729 268.602L428.829 302.102V369.201Z" fill="#1F2548"/>
<path d="M428.829 222.999L370.729 256.599L312.629 222.999V155.999L370.729 122.398L428.829 155.999V222.999Z" fill="#2FA6D0"/>
<path d="M302.829 150.201L244.729 183.802L186.729 150.201V83.2014L244.729 49.6016L302.829 83.2014V150.201Z" fill="#242E3A"/>
<path d="M371.13 335.901L244.63 408.901L118.229 335.901V189.801L244.63 116.801L371.13 189.801V335.901Z" fill="white"/>
<path d="M287.729 141.501L244.729 166.201L201.829 141.501V91.9014L244.729 67.1016L287.729 91.9014V141.501Z" fill="#E5E6E1"/>
<path d="M160.329 165.501L118.229 189.802V238.701L72.5293 213.802L72.6293 164.201L115.629 139.602L160.329 165.501Z" fill="#E5E6E1"/>
<path d="M413.629 214.3L370.729 239.1L327.829 214.3V164.7L370.729 140L413.629 164.7V214.3Z" fill="#E5E6E1"/>
<path d="M413.629 360.501L370.729 385.201L327.829 360.501V310.901L370.729 286.102L413.629 310.901V360.501Z" fill="#E5E6E1"/>
<path d="M287.729 433.501L244.729 458.201L201.829 433.501V383.901L244.729 359.102L287.729 383.901V433.501Z" fill="#E5E6E1"/>
<path d="M161.529 360.401L118.629 385.201L75.6289 360.401V310.901L118.629 286.102L161.529 310.901V360.401Z" fill="#E5E6E1"/>
<path fill-rule="evenodd" clip-rule="evenodd" d="M272.329 159.501C215.229 144.201 156.629 178.101 141.329 235.201C126.029 292.301 159.929 350.901 217.029 366.201C274.129 381.501 332.729 347.501 348.029 290.501C363.329 233.401 329.429 174.801 272.329 159.501ZM222.929 344.001C178.129 332.001 151.429 286.001 163.429 241.101C175.429 196.301 221.429 169.601 266.329 181.601C311.129 193.601 337.829 239.601 325.829 284.501C313.829 329.301 267.829 355.901 222.929 344.001Z" fill="white"/>
<path fill-rule="evenodd" clip-rule="evenodd" d="M329.029 285.399C316.529 331.999 268.729 359.699 222.029 347.199C175.429 334.699 147.729 286.799 160.229 240.199C172.729 193.599 220.529 165.899 267.229 178.299C313.829 190.799 341.529 238.699 329.029 285.299V285.399Z" fill="white"/>
<g style="mix-blend-mode:multiply" opacity="0.5">
<path fill-rule="evenodd" clip-rule="evenodd" d="M329.029 285.399C316.529 331.999 268.729 359.699 222.029 347.199C175.429 334.699 147.729 286.799 160.229 240.199C172.729 193.599 220.529 165.899 267.229 178.299C313.829 190.799 341.529 238.699 329.029 285.299V285.399Z" fill="#090909"/>
</g>
</svg>
