<svg width="160" height="159" viewBox="0 0 160 159" fill="none" xmlns="http://www.w3.org/2000/svg">
<g filter="url(#filter0_d_625_344)">
<path d="M47.6583 58.8439L46.0664 60.5039L57.2537 71.2321L58.8456 69.5721L47.6583 58.8439Z" fill="#49494A"/>
<path d="M92.0998 57.9656L89.7998 57.4656L90.4998 54.1656L92.7998 54.6656L92.0998 57.9656ZM93.1998 52.3657L90.8998 51.8657L91.7998 47.3657L94.0998 47.8657L93.1998 52.3657ZM94.4998 45.5656L92.1998 45.0656L93.0998 40.5656L95.3998 41.0656L94.4998 45.5656ZM95.8998 38.8657L93.5998 38.3656L94.4998 33.8656L96.7998 34.3656L95.8998 38.8657ZM97.2998 32.0656L94.9998 31.5656L95.8998 27.0656L98.1998 27.5656L97.2998 32.0656ZM98.5998 25.2656L96.2998 24.7656L97.1998 20.2656L99.4998 20.7656L98.5998 25.2656Z" fill="#49494A"/>
<path d="M128.333 40.056L103.477 65.2617L105.114 66.8766L129.97 41.6709L128.333 40.056Z" fill="#49494A"/>
<path d="M107.955 103.094L106.826 105.098L141.065 124.39L142.194 122.386L107.955 103.094Z" fill="#49494A"/>
<path d="M57.1634 103.545L23.7021 126.715L25.0114 128.606L58.4727 105.436L57.1634 103.545Z" fill="#49494A"/>
<path d="M83.7004 57.7656C65.6004 57.7656 50.9004 72.4657 50.9004 90.5657C50.9004 108.666 65.6004 123.366 83.7004 123.366C101.8 123.366 116.5 108.666 116.5 90.5657C116.5 72.4657 101.8 57.7656 83.7004 57.7656ZM83.7004 112.466C71.6004 112.466 61.8004 102.666 61.8004 90.5657C61.8004 78.4657 71.6004 68.6656 83.7004 68.6656C95.8004 68.6656 105.6 78.4657 105.6 90.5657C105.6 102.666 95.8004 112.466 83.7004 112.466Z" fill="#242E3A"/>
<g style="mix-blend-mode:multiply" opacity="0.5">
<path d="M83.7004 112.467C71.6004 112.467 61.8004 102.667 61.8004 90.5671C61.8004 78.4671 71.6004 68.6671 83.7004 68.6671V57.8672C65.6004 57.8672 50.9004 72.5671 50.9004 90.6671C50.9004 108.767 65.6004 123.467 83.7004 123.467V112.667V112.467Z" fill="#0A5659"/>
</g>
<path d="M38.1002 35.9648C30.7002 35.9648 24.7002 41.9649 24.7002 49.3649C24.7002 56.7649 30.7002 62.7648 38.1002 62.7648C45.5002 62.7648 51.5002 56.7649 51.5002 49.3649C51.5002 41.9649 45.5002 35.9648 38.1002 35.9648ZM38.1002 56.1648C34.4002 56.1648 31.3002 53.1649 31.3002 49.3649C31.3002 45.5649 34.3002 42.5648 38.1002 42.5648C41.9002 42.5648 44.9002 45.5649 44.9002 49.3649C44.9002 53.1649 41.9002 56.1648 38.1002 56.1648Z" fill="#2BB0B3"/>
<g style="mix-blend-mode:multiply" opacity="0.5">
<path d="M38.1002 58.2664C33.2002 58.2664 29.2002 54.2665 29.2002 49.3665C29.2002 44.4665 33.2002 40.4664 38.1002 40.4664V36.0664C30.7002 36.0664 24.7002 42.0664 24.7002 49.4664C24.7002 56.8664 30.7002 62.8665 38.1002 62.8665V58.4664V58.2664Z" fill="#2FA6D0"/>
</g>
<path d="M112.732 22.071C114.6 14.1702 109.709 6.25124 101.808 4.38356C93.9076 2.51588 85.9887 7.4067 84.121 15.3075C82.2533 23.2084 87.1442 31.1273 95.045 32.995C102.946 34.8627 110.865 29.9718 112.732 22.071Z" fill="#2FA6D0"/>
<path d="M39.4 127.165C39.4 135.265 32.8 141.865 24.7 141.865C16.6 141.865 10 135.265 10 127.165C10 119.065 16.6 112.465 24.7 112.465C32.8 112.465 39.4 119.065 39.4 127.165Z" fill="#FEFEFE"/>
<path d="M130.25 48.5078C134.8 47.9491 138.036 43.8079 137.477 39.2581C136.918 34.7083 132.777 31.4728 128.227 32.0315C123.678 32.5901 120.442 36.7313 121.001 41.2811C121.559 45.8309 125.701 49.0664 130.25 48.5078Z" fill="#A1A7AD"/>
<path d="M150 123.265C150 127.865 146.3 131.565 141.7 131.565C137.1 131.565 133.4 127.865 133.4 123.265C133.4 118.665 137.1 114.965 141.7 114.965C146.3 114.965 150 118.665 150 123.265Z" fill="#69CDF0"/>
</g>
<defs>
<filter id="filter0_d_625_344" x="0" y="0.984375" width="160" height="157.879" filterUnits="userSpaceOnUse" color-interpolation-filters="sRGB">
<feFlood flood-opacity="0" result="BackgroundImageFix"/>
<feColorMatrix in="SourceAlpha" type="matrix" values="0 0 0 0 0 0 0 0 0 0 0 0 0 0 0 0 0 0 127 0" result="hardAlpha"/>
<feOffset dy="7"/>
<feGaussianBlur stdDeviation="5"/>
<feColorMatrix type="matrix" values="0 0 0 0 0 0 0 0 0 0 0 0 0 0 0 0 0 0 0.8 0"/>
<feBlend mode="normal" in2="BackgroundImageFix" result="effect1_dropShadow_625_344"/>
<feBlend mode="normal" in="SourceGraphic" in2="effect1_dropShadow_625_344" result="shape"/>
</filter>
</defs>
</svg>
