<svg width="231" height="111" viewBox="0 0 231 111" fill="none" xmlns="http://www.w3.org/2000/svg">
<g filter="url(#filter0_d_625_328)">
<path d="M16.8998 93.8688L14.7998 91.9688L18.5998 87.7688L20.6998 89.6687L16.8998 93.8688ZM22.6998 87.4688L20.5998 85.5687L24.3998 81.3688L26.4998 83.2688L22.6998 87.4688ZM28.4998 81.0687L26.3998 79.1687L30.1998 74.9688L32.2998 76.8688L28.4998 81.0687ZM34.2998 74.7688L32.1998 72.8688L35.9998 68.6687L38.0998 70.5687L34.2998 74.7688ZM101.7 71.7688L96.9998 68.5687L98.5998 66.1687L103.3 69.3688L101.7 71.7688ZM105.5 69.8688L103.4 67.9688L107.2 63.7688L109.3 65.6687L105.5 69.8688ZM39.9998 68.3688L37.8998 66.4688L41.6998 62.2688L43.7998 64.1687L39.9998 68.3688ZM94.5998 66.9688L89.8998 63.7688L91.4998 61.3688L96.1998 64.5687L94.5998 66.9688ZM111.3 63.4688L109.2 61.5687L113 57.3688L115.1 59.2688L111.3 63.4688ZM87.3998 62.1687L82.6998 58.9688L84.2998 56.5687L88.9998 59.7688L87.3998 62.1687ZM45.7998 62.0687L43.6998 60.1687L47.4998 55.9688L49.5998 57.8688L45.7998 62.0687ZM80.2998 57.2688L75.5998 54.0687L77.1998 51.6687L81.8998 54.8688L80.2998 57.2688ZM117 57.0687L114.9 55.1687L118.7 50.9688L120.8 52.8688L117 57.0687ZM51.5998 55.6687L49.4998 53.7688L53.2998 49.5687L55.3998 51.4688L51.5998 55.6687ZM73.1998 52.4688L68.4998 49.2688L70.0998 46.8688L74.7998 50.0687L73.1998 52.4688ZM182.1 51.8688L180.3 49.6687L184.8 46.0687L186.6 48.2688L182.1 51.8688ZM178.1 50.7688L174.8 46.0687L177.1 44.3688L180.4 49.0687L178.1 50.7688ZM122.8 50.7688L120.7 48.8688L124.5 44.6687L126.6 46.5687L122.8 50.7688ZM57.2998 49.2688L55.1998 47.3688L58.9998 43.1687L61.0998 45.0687L57.2998 49.2688ZM66.0998 47.6687L61.3998 44.4688L62.9998 42.0687L67.6998 45.2688L66.0998 47.6687ZM188.8 46.4688L187 44.2688L191.5 40.6687L193.3 42.8688L188.8 46.4688ZM128.6 44.3688L126.5 42.4688L130.3 38.2688L132.4 40.1687L128.6 44.3688ZM173.2 43.7688L169.9 39.0687L172.2 37.3688L175.5 42.0687L173.2 43.7688ZM195.4 41.0687L193.6 38.8688L198.1 35.2688L199.9 37.4688L195.4 41.0687ZM134.3 38.0687L132.2 36.1687L136 31.9688L138.1 33.8688L134.3 38.0687ZM168.2 36.7688L164.9 32.0687L167.2 30.3688L170.5 35.0687L168.2 36.7688ZM202.1 35.6687L200.3 33.4688L204.8 29.8688L206.6 32.0687L202.1 35.6687ZM140.1 31.6687L138 29.7688L141.8 25.5687L143.9 27.4688L140.1 31.6687ZM208.8 30.2688L207 28.0687L211.5 24.4688L213.3 26.6687L208.8 30.2688ZM163.2 29.8688L159.9 25.1687L162.2 23.4688L165.5 28.1687L163.2 29.8688ZM145.9 25.2688L143.8 23.3688L147.6 19.1687L149.7 21.0687L145.9 25.2688ZM158.2 22.8688L154.9 18.1687L157.2 16.4688L160.5 21.1687L158.2 22.8688ZM151.7 18.9688L149.6 17.0687L152.9 13.4688H155.1C155.1 13.5688 155.6 14.2688 155.6 14.2688L154.6 14.9688L155 15.3688L151.7 18.9688Z" fill="#80BBD7"/>
<path d="M15.9 98.7688C19.1585 98.7688 21.8 96.1273 21.8 92.8688C21.8 89.6103 19.1585 86.9688 15.9 86.9688C12.6415 86.9688 10 89.6103 10 92.8688C10 96.1273 12.6415 98.7688 15.9 98.7688Z" fill="#0A5659"/>
<path d="M60.4996 48.8704C63.7581 48.8704 66.3996 46.2288 66.3996 42.9703C66.3996 39.7119 63.7581 37.0703 60.4996 37.0703C57.2411 37.0703 54.5996 39.7119 54.5996 42.9703C54.5996 46.2288 57.2411 48.8704 60.4996 48.8704Z" fill="#242E3A"/>
<path d="M108.5 70.1694C108.5 73.4694 105.8 76.0695 102.6 76.0695C99.4002 76.0695 96.7002 73.3694 96.7002 70.1694C96.7002 66.9694 99.4002 64.2695 102.6 64.2695C105.8 64.2695 108.5 66.9694 108.5 70.1694Z" fill="#2FA6D0"/>
<path d="M158.084 18.5157C160.388 16.2116 160.388 12.4759 158.084 10.1718C155.78 7.86771 152.044 7.86771 149.74 10.1718C147.436 12.4759 147.436 16.2116 149.74 18.5157C152.044 20.8198 155.78 20.8198 158.084 18.5157Z" fill="#242E3A"/>
<path d="M186.3 50.7672C186.3 54.0672 183.6 56.6671 180.4 56.6671C177.2 56.6671 174.5 53.9672 174.5 50.7672C174.5 47.5672 177.2 44.8672 180.4 44.8672C183.6 44.8672 186.3 47.5672 186.3 50.7672Z" fill="#2FA6D0"/>
<path d="M220.3 23.9703C220.3 27.2703 217.6 29.8704 214.4 29.8704C211.2 29.8704 208.5 27.1703 208.5 23.9703C208.5 20.7703 211.2 18.0703 214.4 18.0703C217.6 18.0703 220.3 20.7703 220.3 23.9703Z" fill="#242E3A"/>
</g>
<defs>
<filter id="filter0_d_625_328" x="0" y="0.445312" width="230.3" height="110.324" filterUnits="userSpaceOnUse" color-interpolation-filters="sRGB">
<feFlood flood-opacity="0" result="BackgroundImageFix"/>
<feColorMatrix in="SourceAlpha" type="matrix" values="0 0 0 0 0 0 0 0 0 0 0 0 0 0 0 0 0 0 127 0" result="hardAlpha"/>
<feOffset dy="2"/>
<feGaussianBlur stdDeviation="5"/>
<feColorMatrix type="matrix" values="0 0 0 0 0 0 0 0 0 0 0 0 0 0 0 0 0 0 0.6 0"/>
<feBlend mode="normal" in2="BackgroundImageFix" result="effect1_dropShadow_625_328"/>
<feBlend mode="normal" in="SourceGraphic" in2="effect1_dropShadow_625_328" result="shape"/>
</filter>
</defs>
</svg>
