<svg width="64" height="68" viewBox="0 0 64 68" fill="none" xmlns="http://www.w3.org/2000/svg">
<g filter="url(#filter0_d_625_337)">
<path d="M37.8 32.2008C37.6 32.1008 37.4 32.0009 37.2 32.0009H31.5C31.3 31.9009 31.2 31.8008 30.9 31.8008C30.6 31.8008 30.5 31.8009 30.3 32.0009H24.5C23.9 32.0009 23.5 32.5009 23.5 33.0009C23.5 33.5009 23.5 33.3008 23.5 33.4008V37.0009C23.5 37.1009 23.5 37.3008 23.5 37.4008C23.5 37.5008 23.5 37.7008 23.5 37.8008V45.3008C23.5 45.4008 23.5 45.6008 23.5 45.7008C23.5 46.3008 24 46.7008 24.5 46.7008H37C37.1 46.7008 37.3 46.7008 37.4 46.7008C38 46.7008 38.4 46.2008 38.4 45.7008V33.1008C38.4 32.7008 38.1 32.3008 37.8 32.2008ZM36.4 36.3008H31.9V34.0009H36.4V36.3008ZM29.8 36.3008H25.6V34.0009H29.8V36.3008ZM25.6 38.3008H29.8V44.6008H25.6V38.3008ZM31.9 38.3008H36.4V44.6008H31.9V38.3008Z" fill="url(#paint0_linear_625_337)"/>
<path d="M52.5 28.1L33.3001 8.89993C33.3001 8.89993 33.2 8.89995 33.1 8.79995C33.1 8.79995 33.1 8.6 32.9 8.6C32.1 7.8 30.7001 7.8 29.8001 8.6L10.6 27.8C9.8 28.6 9.8 29.9999 10.6 30.8999C11.5 31.7999 12.8 31.7999 13.7 30.8999L14.9 29.7V52.2C14.8 52.5 14.7 52.8 14.7 53.1C14.7 54.3 15.7 55.2999 16.9 55.2999H43.8001C44.1001 55.3999 44.4 55.5 44.7 55.5C45.9 55.5 46.9 54.4999 46.9 53.2999V28.6L49.5 31.2C50.3 32 51.7 32 52.6 31.2C53.5 30.3 53.5 29 52.6 28.1H52.5ZM19.2 27.8H42.4V50.7999H19.2V27.8ZM31.4 13.1L41.7 23.3999H21L31.3001 13.1H31.4Z" fill="url(#paint1_linear_625_337)"/>
</g>
<defs>
<filter id="filter0_d_625_337" x="0" y="0" width="63.2754" height="67.5" filterUnits="userSpaceOnUse" color-interpolation-filters="sRGB">
<feFlood flood-opacity="0" result="BackgroundImageFix"/>
<feColorMatrix in="SourceAlpha" type="matrix" values="0 0 0 0 0 0 0 0 0 0 0 0 0 0 0 0 0 0 127 0" result="hardAlpha"/>
<feOffset dy="2"/>
<feGaussianBlur stdDeviation="5"/>
<feColorMatrix type="matrix" values="0 0 0 0 0 0 0 0 0 0 0 0 0 0 0 0 0 0 0.6 0"/>
<feBlend mode="normal" in2="BackgroundImageFix" result="effect1_dropShadow_625_337"/>
<feBlend mode="normal" in="SourceGraphic" in2="effect1_dropShadow_625_337" result="shape"/>
</filter>
<linearGradient id="paint0_linear_625_337" x1="23.5" y1="39.2008" x2="38.4" y2="39.2008" gradientUnits="userSpaceOnUse">
<stop stop-color="#002D4B"/>
<stop offset="1" stop-color="#002133"/>
</linearGradient>
<linearGradient id="paint1_linear_625_337" x1="10" y1="31.6" x2="53.2" y2="31.6" gradientUnits="userSpaceOnUse">
<stop stop-color="#002D4B"/>
<stop offset="1" stop-color="#002133"/>
</linearGradient>
</defs>
</svg>
