<svg width="41" height="40" viewBox="0 0 41 40" fill="none" xmlns="http://www.w3.org/2000/svg">
<path d="M39 26.5756L37.5 25.5756C37.1 25.2756 36.7 25.0756 36.3 24.9756C36.9 23.3756 37.3 21.5756 37.3 19.7756C37.3 17.9756 37.3 19.3756 37.3 19.1756L39.4 18.8756C40.3 18.7756 40.9 17.9756 40.8 17.0756C40.7 16.1756 39.9 15.5756 39 15.6756L36.8 15.9756C36.4 14.3756 35.7 12.9756 34.8 11.5756C35.1 11.3756 35.4 11.1756 35.7 10.8756L36.9 9.57559C38.4 7.97559 38.3 5.47561 36.7 3.97561C35.1 2.47561 32.6 2.57556 31.1 4.17556L29.9 5.47561C29.6 5.77561 29.3 6.17559 29.2 6.57559C28.1 5.97559 26.9 5.5756 25.7 5.2756C25.7 5.2756 25.7 5.17559 25.7 5.07559V2.57559C25.8 1.67559 25.1 0.875576 24.2 0.875576C23.3 0.875576 22.5 1.57561 22.5 2.47561V4.7756C22.1 4.7756 21.9 4.7756 21.6 4.7756C20.3 4.7756 19 4.9756 17.7 5.2756C17.7 4.6756 17.5 3.97558 17.1 3.37558L16.1 1.87558C14.9 -0.0244238 12.5 -0.524412 10.6 0.575588C8.70004 1.77559 8.20005 4.17559 9.30005 6.07559L10.3 7.57559C10.5 7.97559 10.8 8.27559 11.2 8.57559C10.6 9.07559 10 9.6756 9.40002 10.2756C9.40002 10.2756 9.20004 10.0756 9.10004 10.0756L6.90002 8.87558C6.10002 8.47558 5.10001 8.77559 4.70001 9.57559C4.30001 10.3756 4.60002 11.3756 5.40002 11.7756L7.60004 12.9756C6.90004 14.1756 6.40001 15.4756 6.20001 16.8756C6.10001 16.8756 6.00005 16.8756 5.80005 16.8756H4C1.8 16.8756 0 18.6756 0 20.8756C0 23.0756 1.8 24.8756 4 24.8756H5.80005C6.10005 24.8756 6.40001 24.8756 6.70001 24.7756C7.20001 26.1756 7.90005 27.4756 8.80005 28.6756L7.60004 29.9756C7.00004 30.6756 7.10001 31.6756 7.70001 32.2756C8.40001 32.8756 9.4 32.7756 10 32.1756L10.9 31.0756C11.7 31.7756 12.6 32.4756 13.6 32.9756L13 34.0756C12 35.9756 12.7 38.4756 14.7 39.4756C16.6 40.4756 19.1 39.7756 20.1 37.7756L20.9 36.1756C21.1 35.7756 21.2 35.3756 21.3 34.9756C21.3 34.9756 21.3 34.9756 21.4 34.9756C22.5 34.9756 23.7 34.8756 24.7 34.6756C24.7 34.8756 24.7 35.0756 24.8 35.2756L25.9 37.4756C26.3 38.2756 27.3 38.6755 28.1 38.2755C28.9 37.8755 29.3 36.8756 28.9 36.0756L27.8 33.8756C27.8 33.8756 27.8 33.8756 27.8 33.7756C29.3 33.1756 30.6 32.2756 31.8 31.2756C32.1 31.6756 32.4 31.9756 32.7 32.2756L34.2 33.2756C36 34.5756 38.5 34.1756 39.8 32.3756C41.1 30.5756 40.7 28.0756 38.9 26.7756L39 26.5756ZM21.6 28.6756C16.4 28.6756 12.1 24.5756 12.1 19.5756C12.1 14.5756 16.4 10.4756 21.6 10.4756C26.8 10.4756 31.1 14.5756 31.1 19.5756C31.1 24.5756 26.8 28.6756 21.6 28.6756Z" fill="url(#paint0_linear_625_336)"/>
<defs>
<linearGradient id="paint0_linear_625_336" x1="0.1" y1="19.8756" x2="40.8" y2="19.8756" gradientUnits="userSpaceOnUse">
<stop stop-color="#002D4B"/>
<stop offset="1" stop-color="#002133"/>
</linearGradient>
</defs>
</svg>
